<?xml version="1.0" encoding="UTF-8" standalone="no"?>
<svg
   xmlns:dc="http://purl.org/dc/elements/1.1/"
   xmlns:cc="http://creativecommons.org/ns#"
   xmlns:rdf="http://www.w3.org/1999/02/22-rdf-syntax-ns#"
   xmlns:svg="http://www.w3.org/2000/svg"
   xmlns="http://www.w3.org/2000/svg"
   xmlns:sodipodi="http://sodipodi.sourceforge.net/DTD/sodipodi-0.dtd"
   xmlns:inkscape="http://www.inkscape.org/namespaces/inkscape"
   width="210mm"
   height="297mm"
   viewBox="0 0 210 297"
   version="1.1"
   id="svg8"
   inkscape:version="1.0 (4035a4fb49, 2020-05-01)"
   sodipodi:docname="Bantayan.svg">
  <defs
     id="defs2" />
  <sodipodi:namedview
     id="base"
     pagecolor="#ffffff"
     bordercolor="#666666"
     borderopacity="1.0"
     inkscape:pageopacity="0.0"
     inkscape:pageshadow="2"
     inkscape:zoom="1.0946467"
     inkscape:cx="374.94974"
     inkscape:cy="563.04774"
     inkscape:document-units="mm"
     inkscape:current-layer="layer1"
     inkscape:document-rotation="0"
     showgrid="false"
     inkscape:window-width="1327"
     inkscape:window-height="950"
     inkscape:window-x="785"
     inkscape:window-y="406"
     inkscape:window-maximized="0" />
  <metadata
     id="metadata5">
    <rdf:RDF>
      <cc:Work
         rdf:about="">
        <dc:format>image/svg+xml</dc:format>
        <dc:type
           rdf:resource="http://purl.org/dc/dcmitype/StillImage" />
        <dc:title />
      </cc:Work>
    </rdf:RDF>
  </metadata>
  <g
     inkscape:label="Layer 1"
     inkscape:groupmode="layer"
     id="layer1">
    <path
       style="fill:none;stroke:#000000;stroke-width:0.242486px;stroke-linecap:butt;stroke-linejoin:miter;stroke-opacity:1"
       d="m 95.644262,80.97301 21.910328,5.629148 13.94298,-8.400418 16.19461,-3.897103 3.4641,15.588407 2.85787,6.668375 0.51962,5.975561 1.03922,6.14875 -6.14875,1.47224 -4.93634,-2.51146 0.25981,-2.59808 -1.12583,-1.55883 -10.13246,0.25982 -2.16506,-3.55071 4.84973,-5.369338 15.15539,-4.763123"
       id="path24" />
    <path
       style="fill:none;stroke:#000000;stroke-width:0.242486px;stroke-linecap:butt;stroke-linejoin:miter;stroke-opacity:1"
       d="m 117.55459,86.602158 -5.10953,30.830412 -0.0866,5.88896 11.77791,-0.25982"
       id="path26" />
    <path
       style="fill:none;stroke:#000000;stroke-width:0.242486px;stroke-linecap:butt;stroke-linejoin:miter;stroke-opacity:1"
       d="m 131.32436,100.19871 -2.51146,4.84972 1.81864,4.93634 -5.10953,6.66836 -3.98371,14.89561 4.33012,6.23536 16.54102,-11.77791 1.90525,-9.17983 5.10955,-6.66839"
       id="path28" />
    <path
       style="fill:none;stroke:#000000;stroke-width:0.242486px;stroke-linecap:butt;stroke-linejoin:miter;stroke-opacity:1"
       d="m 95.644262,80.973008 -1.645432,2.684674 0.259798,1.472237 -2.078447,4.070308 -0.866001,0.346407 v 0.606217 l 0.606202,0.866022 -0.77941,0.433012 -0.173209,1.12583 0.606214,1.039224 -0.606214,0.519616 -0.822716,-0.866022 0.173209,-3.204284 -1.472233,0.216505 -0.779413,1.169131 -0.0866,1.645443 -1.482239,2.007436 -0.367424,1.04103 0.18371,0.979793 1.898342,4.898963 -0.551132,0.85732 6.797278,2.93938 2.143283,2.87814 -0.367418,2.02082 2.326996,4.34784 0.244955,3.55173 1.959569,1.83712 2.08206,0.91856 1.95958,6.18493 3.79671,5.51135 0.42865,3.18432 1.59216,2.20454 -0.12247,2.38823 0.91856,0.18373 1.34721,-1.04104 0.0613,-0.91855 0.85732,-0.42867 -0.12248,-1.77587 7.97384,-5.31969"
       id="path30" />
    <path
       style="fill:none;stroke:#000000;stroke-width:0.242486px;stroke-linecap:butt;stroke-linejoin:miter;stroke-opacity:1"
       d="m 103.76654,124.31484 8.59191,-0.99331"
       id="path32" />
    <path
       style="fill:none;stroke:#000000;stroke-width:0.242486px;stroke-linecap:butt;stroke-linejoin:miter;stroke-opacity:1"
       d="m 98.56141,115.06805 9.308,-4.34784 5.63381,0.61237"
       id="path34" />
    <path
       style="fill:none;stroke:#000000;stroke-width:0.242486px;stroke-linecap:butt;stroke-linejoin:miter;stroke-opacity:1"
       d="m 94.458546,105.82125 1.71463,-0.79608 13.900774,-3.7967 5.08268,-0.24495"
       id="path36" />
    <path
       style="fill:none;stroke:#000000;stroke-width:0.242486px;stroke-linecap:butt;stroke-linejoin:miter;stroke-opacity:1"
       d="m 91.573977,93.616937 11.274003,-0.104336 4.59278,-0.979793 5.69504,0.183711 3.18433,0.367422"
       id="path38" />
    <path
       style="fill:none;stroke:#000000;stroke-width:0.242486px;stroke-linecap:butt;stroke-linejoin:miter;stroke-opacity:1"
       d="m 102.84798,93.512601 -1.83711,4.654015 1.83711,5.021444"
       id="path40" />
    <path
       style="fill:none;stroke:#000000;stroke-width:0.242486px;stroke-linecap:butt;stroke-linejoin:miter;stroke-opacity:1"
       d="m 95.644262,80.973008 1.753645,-4.116886 1.224732,0.796082 1.347211,1.592164 2.87813,-0.06124 -1.46968,-3.123088 -1.469688,-0.796083 0.428658,-0.489895 1.71463,0.367424 0.91856,-0.979793 1.5309,0.183709 0.61239,-1.592162 2.02083,0.551131 -1.89836,-2.510718 2.63319,-3.796697 3.613,-9.859166 3.30679,-10.77772 3.63141,-7.129355 0.69282,-2.771271 h 1.38564 l 2.77128,-3.290887 2.42486,0.34641 14.37597,12.99034 0.49882,4.998675 1.83711,3.000614 v 2.1433 l 4.65401,6.062466 -0.9798,1.775875 0.42867,1.102268 -1.1635,1.592163 2.08206,4.409065 0.26363,2.714902"
       id="path42" />
    <path
       style="fill:none;stroke:#000000;stroke-width:0.242486px;stroke-linecap:butt;stroke-linejoin:miter;stroke-opacity:1"
       d="m 83.996306,98.336765 0.736119,0.995926 -1.169132,0.995929 -0.216506,-1.169133 z"
       id="path44" />
    <path
       style="fill:none;stroke:#000000;stroke-width:0.242486px;stroke-linecap:butt;stroke-linejoin:miter;stroke-opacity:1"
       d="m 46.129464,158.8501 1.55884,0.0866 0.80107,-0.60622 1.08253,0.12991 4.849728,4.50332 1.21243,-0.15156 -0.08661,0.75776 -1.299034,0.47632 -2.186706,-0.19486 -1.493891,1.01759 -2.251657,-1.53719 0.238155,-0.90934 -2.901178,-2.70631 z"
       id="path46" />
    <path
       style="fill:none;stroke:#000000;stroke-width:0.242486px;stroke-linecap:butt;stroke-linejoin:miter;stroke-opacity:1"
       d="m 111.42117,141.03256 -0.40504,0.90844 1.47223,2.85788 -0.38971,0.69282 3.20429,2.55477 h 1.08253 l -0.86603,-1.51555 0.56291,-0.47631 -1.34232,-2.68466 0.6062,-0.1732 0.86603,1.16913 1.38563,0.0432 0.95262,1.60213 2.25167,1.51554 1.42894,-0.0432 0.90933,-0.95263 0.56292,-1.38562 h 1.64543 v 0.69282 l -1.21243,0.6928 0.0866,2.25167 h 0.43301 l 0.0866,0.95263 -1.55885,0.0432 -0.69282,0.7361 -0.0866,0.90933 0.86602,0.12991 0.73612,0.86603 -0.17321,0.433 1.08254,0.12991 0.17318,0.56291 -0.7794,0.73612 -1.08254,-0.12991 -0.3897,-0.73611 0.0866,-0.86602 -1.60213,-0.0866 -0.21651,0.56291 0.47633,0.64953 -1.38566,1.38563 -2.25165,-0.99593 -2.29496,1.08253 0.0866,0.60622 -2.42488,2.38155 -0.9093,0.0432 -0.34642,0.43301 3.20429,2.68467 0.1732,0.77941 0.43301,0.34642 -0.3464,0.60622 0.3897,1.12582 -0.56292,0.51961 v 2.42487 l 0.95263,0.64951 h 2.68467 l 0.43301,-0.56291 2.33827,0.21651 0.60621,-0.56292 3.11769,0.2165 0.3897,-0.47631 -0.99591,-0.69282 6.14874,-2.25165 v -1.81865 h 0.69282 l 0.38972,1.21244 2.12176,-0.82273 -1.99186,-2.12175 0.43301,-0.99593 0.86603,0.2598 2.55476,-2.16505 1.77534,-0.12989 4.11362,-1.03924 6.71167,-0.0433 0.82272,0.30311 5.10953,-0.0866 6.14877,0.99593 1.21243,-0.0432 0.90933,-0.77941 0.99592,1.34232 -0.30311,0.43301 h -3.33418 l -0.17321,0.47632 2.03514,0.82273 9.65617,0.0866 4.33011,-1.25574 1.55884,-1.99185 9.30974,-1.55884"
       id="path48" />
    <path
       style="fill:none;stroke:#000000;stroke-width:0.242486px;stroke-linecap:butt;stroke-linejoin:miter;stroke-opacity:1"
       d="m 99.081914,174.31489 0.642991,0.0306 0.275565,0.4899 1.62277,-0.0306 1.89835,1.28598 1.53092,0.0919 -0.0919,0.79607 -0.61237,0.94918 0.18372,1.10227 0.67359,0.73485 0.0919,1.37783 -1.04103,1.01041 -0.76547,-0.24496 -0.70423,1.07167 h -0.64299 l -0.3368,-0.42867 -1.62278,-0.0613 -0.612356,0.42867 -1.071642,-0.33682 v -0.97979 l 0.336798,-0.45927 0.03062,-1.62279 0.21433,-0.94917 -0.122467,-1.83711 0.551128,0.0613 0.21434,1.10226 0.673599,0.12249 0.15308,-0.76548 -0.612358,-0.73484 0.06124,-0.39805 -1.102251,-0.85732 z"
       id="path50" />
    <path
       style="fill:none;stroke:#000000;stroke-width:0.242486px;stroke-linecap:butt;stroke-linejoin:miter;stroke-opacity:1"
       d="m 106.9783,145.15612 0.54125,0.0759 0.0433,0.60624 -0.63869,0.15154 -0.59539,-0.065 -0.065,-0.47629 z"
       id="path52" />
    <path
       style="fill:none;stroke:#000000;stroke-width:0.242486px;stroke-linecap:butt;stroke-linejoin:miter;stroke-opacity:1"
       d="m 103.26522,146.33608 0.62787,0.12989 0.10825,0.62788 -0.38971,0.36805 -0.48714,-0.0542 -0.18402,-0.34641 0.0432,-0.61703 z"
       id="path54" />
    <path
       style="fill:none;stroke:#000000;stroke-width:0.242486px;stroke-linecap:butt;stroke-linejoin:miter;stroke-opacity:1"
       d="m 111.64315,149.58278 -0.4057,0.31383 -0.83435,0.96448 0.13013,0.5741 0.31382,0.20668 0.37509,-0.0536 0.72719,-0.5052 1.62279,0.7425 1.04102,-0.59706 0.0383,-0.94153 -1.27068,-0.12247 -0.16839,-0.22964 -0.89559,-0.0152 -0.55113,-0.38273 z"
       id="path56" />
    <path
       style="fill:none;stroke:#000000;stroke-width:0.242486px;stroke-linecap:butt;stroke-linejoin:miter;stroke-opacity:1"
       d="m 108.94872,149.7971 0.42865,0.023 0.17606,0.7961 -0.27557,0.28321 h -0.66595 l -0.21432,-0.56645 0.52052,-0.57409 z"
       id="path58" />
    <path
       style="fill:none;stroke:#000000;stroke-width:0.242486px;stroke-linecap:butt;stroke-linejoin:miter;stroke-opacity:1"
       d="m 115.73596,155.75403 4.68705,3.98645 12.24741,0.94916"
       id="path60" />
    <path
       style="fill:none;stroke:#000000;stroke-width:0.242486px;stroke-linecap:butt;stroke-linejoin:miter;stroke-opacity:1"
       d="m 125.86842,137.7841 3.80139,1.31948 1.95958,6.82793 2.8169,12.73731"
       id="path62" />
    <path
       style="fill:none;stroke:#000000;stroke-width:0.242486px;stroke-linecap:butt;stroke-linejoin:miter;stroke-opacity:1"
       d="m 124.74259,149.73522 6.8868,-3.95681 5.66442,-0.0919 7.68525,-0.4899 6.70546,-1.5003 -4.16412,12.27802"
       id="path64" />
    <path
       style="fill:none;stroke:#000000;stroke-width:0.242486px;stroke-linecap:butt;stroke-linejoin:miter;stroke-opacity:1"
       d="m 172.90316,101.32032 2.05144,-0.97979 h 1.13288 l 2.78628,2.1433 -0.0306,1.13289 0.76544,0.12247 0.0919,0.76546 -0.97981,0.64299 -2.81689,0.0306 -0.82671,0.58176 -0.61237,-0.27556 -0.48991,-0.73485 -0.27556,-1.59217 -1.34722,-1.1635 z"
       id="path66" />
    <path
       style="fill:none;stroke:#000000;stroke-width:0.242486px;stroke-linecap:butt;stroke-linejoin:miter;stroke-opacity:1"
       d="m 155.57299,108.68573 1.40854,1.75891 v 1.13289 l 1.13288,0.0613 3.73546,3.88856 -0.15308,1.07165 -1.25538,0.82669 v 0.61238 l 0.76548,1.59216 2.05143,2.20454 5.17454,6.21555 2.63319,1.65341 0.30617,1.28598 1.50032,0.0613 3.12309,2.69444 1.14133,0.14166 5.80236,3.20428 3.8105,5.88895 -0.0866,2.25166 1.64545,3.29088"
       id="path68" />
    <path
       style="fill:none;stroke:#000000;stroke-width:0.242486px;stroke-linecap:butt;stroke-linejoin:miter;stroke-opacity:1"
       d="m 142.40944,126.00619 5.14158,-0.68093 1.50031,-0.73485 8.97124,-0.30619 5.11328,-2.54133"
       id="path70" />
    <path
       style="fill:none;stroke:#000000;stroke-width:0.242486px;stroke-linecap:butt;stroke-linejoin:miter;stroke-opacity:1"
       d="m 147.55102,125.32526 1.53093,5.41946 8.02206,4.25598"
       id="path72" />
    <path
       style="fill:none;stroke:#000000;stroke-width:0.242486px;stroke-linecap:butt;stroke-linejoin:miter;stroke-opacity:1"
       d="m 151.68452,143.69637 9.67545,-14.84999 1.68402,0.0613 0.76548,-0.58177 1.22472,0.0306 0.76547,0.70422 0.0919,1.46969 0.30619,0.18372 1.10226,-0.18372 2.4495,2.63319 1.3472,0.48989 0.88795,-0.76546 -0.61239,-1.89835"
       id="path74" />
    <path
       style="fill:none;stroke:#000000;stroke-width:0.242486px;stroke-linecap:butt;stroke-linejoin:miter;stroke-opacity:1"
       d="m 115.64935,98.769778 4.15692,-1.342336 5.84563,2.554767 7.83752,-2.121755"
       id="path76" />
    <path
       style="fill:none;stroke:#000000;stroke-width:0.242486px;stroke-linecap:butt;stroke-linejoin:miter;stroke-opacity:1"
       d="m 131.49757,78.20174 -0.21652,8.876731 4.89304,7.750901"
       id="path78" />
    <path
       style="fill:none;stroke:#000000;stroke-width:0.242486px;stroke-linecap:butt;stroke-linejoin:miter;stroke-opacity:1"
       d="m 112.76838,139.99152 1.46969,1.68403 -0.45928,1.04102 0.96124,0.65338"
       id="path80" />
    <path
       style="fill:none;stroke:#000000;stroke-width:0.242486px;stroke-linecap:butt;stroke-linejoin:miter;stroke-opacity:1"
       d="m 112.48836,144.79888 2.25167,-1.42893"
       id="path82" />
    <path
       style="fill:none;stroke:#000000;stroke-width:0.242486px;stroke-linecap:butt;stroke-linejoin:miter;stroke-opacity:1"
       d="m 100.8884,155.51512 0.55113,0.27556 v 0.643 l -0.55113,0.48989 -0.64298,0.15308 -0.0306,-0.79608 z"
       id="path84" />
    <path
       style="fill:none;stroke:#000000;stroke-width:0.242486px;stroke-linecap:butt;stroke-linejoin:miter;stroke-opacity:1"
       d="m 103.00107,157.96459 -1.77587,0.27556 0.0306,1.65342 -1.01039,0.58174 v 1.40845 l 0.64298,0.39805 0.64298,0.0306 2.1433,-1.22473 0.18371,-0.97978 -0.76547,-0.48991 z"
       id="path86" />
    <path
       style="fill:none;stroke:#000000;stroke-width:0.242486px;stroke-linecap:butt;stroke-linejoin:miter;stroke-opacity:1"
       d="m 103.27664,156.3112 0.55112,0.0306 v 0.82671 l -0.48989,0.27555 -0.58175,-0.27555 z"
       id="path88" />
    <path
       style="fill:none;stroke:#000000;stroke-width:0.242486px;stroke-linecap:butt;stroke-linejoin:miter;stroke-opacity:1"
       d="m 99.479951,158.24015 0.306183,1.13289 -0.612357,0.24496 -0.70423,-0.0613 v -0.55113 z"
       id="path90" />
    <path
       style="fill:none;stroke:#000000;stroke-width:0.242486px;stroke-linecap:butt;stroke-linejoin:miter;stroke-opacity:1"
       d="m 99.173777,163.69026 0.918553,0.0612 -0.214343,1.25537 h -0.91855 z"
       id="path92" />
    <path
       style="fill:none;stroke:#000000;stroke-width:0.242486px;stroke-linecap:butt;stroke-linejoin:miter;stroke-opacity:1"
       d="m 101.04149,163.69026 0.64298,0.0306 -0.15309,0.61237 -0.64298,-0.0306 z"
       id="path94" />
    <path
       style="fill:none;stroke:#000000;stroke-width:0.242486px;stroke-linecap:butt;stroke-linejoin:miter;stroke-opacity:1"
       d="m 97.85719,161.17954 0.398036,0.79608 -0.06125,2.23516 -0.82669,0.58174 -1.255358,-0.12247 -0.275564,-0.61237 0.612373,-0.85732 -0.306192,-1.28598 1.010412,-0.88792 z"
       id="path96" />
    <path
       style="fill:none;stroke:#000000;stroke-width:0.242486px;stroke-linecap:butt;stroke-linejoin:miter;stroke-opacity:1"
       d="m 96.509975,168.52799 1.285966,0.70421 -0.06125,3.45991 -1.684008,3.27618 -1.285975,0.42865 -2.755651,-0.42865 -1.622775,-1.22473 -0.306185,-1.31661 -0.857314,-0.8267 0.275564,-0.64299 2.326998,-0.0919 0.979784,1.10227 1.316594,-0.0612 v 0.76545 l 0.612367,0.24496 h 0.918549 l 0.183706,-0.45928 0.122477,-1.22474 -1.775873,-1.68403 -1.010394,-0.27556 v -0.76547 l 1.1635,0.0919 0.306182,-0.73484 0.826687,0.18372 0.428663,-0.58176 0.765454,0.0919 z"
       id="path98" />
    <path
       style="fill:none;stroke:#000000;stroke-width:0.242486px;stroke-linecap:butt;stroke-linejoin:miter;stroke-opacity:1"
       d="m 111.64399,168.80935 2.14341,-0.433 1.25573,0.10825 0.0866,0.34642 -0.71448,0.45465 -1.90525,0.28146 -0.86602,0.97428 -0.88767,0.15156 c 0,0 -0.1732,-0.23817 -0.19485,-0.36808 -0.0217,-0.1299 1.08252,-1.51554 1.08252,-1.51554 z"
       id="path100" />
    <path
       style="fill:none;stroke:#000000;stroke-width:0.242486px;stroke-linecap:butt;stroke-linejoin:miter;stroke-opacity:1"
       d="m 109.11088,171.55898 0.71446,0.065 -0.10824,0.71448 -1.4073,0.25979 -0.25979,-0.49796 0.73611,-0.51961 z"
       id="path102" />
    <path
       style="fill:none;stroke:#000000;stroke-width:0.242486px;stroke-linecap:butt;stroke-linejoin:miter;stroke-opacity:1"
       d="m 8.2409785,244.32653 0.3897105,0.54127 -0.303108,0.54127 0.3897105,0.5196 0.1299024,0.75778 -0.4330107,0.1732 -0.3897096,-0.15155 -0.303108,-0.62787 -0.4979626,0.10826 -0.3247584,-0.69283 0.3247584,-0.71446 z"
       id="path104" />
    <path
       style="fill:none;stroke:#000000;stroke-width:0.242486px;stroke-linecap:butt;stroke-linejoin:miter;stroke-opacity:1"
       d="m 18.524992,242.55119 0.801071,0.77942 1.082528,0.0866 0.0433,0.54127 1.212431,-0.065 0.02164,0.54127 -0.584564,0.77942 -2.186708,0.25981 -0.627866,-0.45466 -0.736119,0.0866 -0.606216,-0.80107 0.06495,-0.84436 1.039228,-0.47633 0.238157,-0.45466 z"
       id="path106" />
    <path
       style="fill:none;stroke:#000000;stroke-width:0.242486px;stroke-linecap:butt;stroke-linejoin:miter;stroke-opacity:1"
       d="m 33.405248,230.56112 -1.010412,3.24556 0.153095,0.8267 0.918554,0.8267 0.03062,1.16351 0.489896,0.52051 0.979793,-0.15309 0.520515,0.55114 h 0.520514 l 1.775876,-1.68402 0.979793,0.0306 1.959585,-2.05143 0.857317,0.0613 1.684019,-1.71464 -0.03061,-1.86773 0.428661,-0.0919 0.09185,-1.9902 0.581751,-0.73484 -0.122476,-0.9798 0.153095,-0.82671 -0.642989,-0.21432 -0.918555,0.70422 h -1.959583 l -2.235156,0.4593 -1.775872,1.19411 -2.510722,2.23516 z"
       id="path108" />
    <path
       style="fill:none;stroke:#000000;stroke-width:0.242486px;stroke-linecap:butt;stroke-linejoin:miter;stroke-opacity:1"
       d="m 45.744515,225.50907 h 0.61237 l -0.03061,1.07164 c 0,0 -0.428659,-0.18372 -0.642988,-0.18372 -0.214332,0 -0.581752,-0.58174 -0.581752,-0.58174 l 0.398039,-0.30618 z"
       id="path110" />
    <path
       style="fill:none;stroke:#000000;stroke-width:0.242486px;stroke-linecap:butt;stroke-linejoin:miter;stroke-opacity:1"
       d="m 46.237716,206.97932 -1.125829,0.95261 1.082529,0.86603 0.129904,1.34234 0.389708,1.25573 -0.476312,1.38564 -1.255732,1.12582 -1.51554,-0.38971 -2.251659,1.55883 -0.346409,1.03924 1.082529,1.81864 0.259806,1.64545 1.039227,1.55884 1.428939,0.77941 h 1.125828 l 0.692819,-0.38969 1.428936,-2.42487 5.196138,-1.77535 3.031079,-0.95263 2.25166,-1.34234 0.952623,-2.77126 0.0433,-3.68061 0.978909,-0.55556 0.367423,-1.56155 0.765463,-0.21432 -0.122474,-1.40845 1.592162,-1.68402 1.194124,0.15308 -1.714638,-1.77586 -0.949174,0.33679 -2.816906,1.9902 -0.979792,0.18373 -2.755665,-0.0306 -0.367423,-0.58174 0.489894,-0.45928 -0.489894,-1.28598 -0.88794,-0.4899 -0.826698,0.58176 0.09185,2.08204 -0.551137,0.0919 -0.06124,1.01041 0.244949,0.64298 -0.796082,1.83712 -3.123089,0.0306 -0.88794,0.70422 z"
       id="path112" />
    <path
       style="fill:none;stroke:#000000;stroke-width:0.242486px;stroke-linecap:butt;stroke-linejoin:miter;stroke-opacity:1"
       d="m 41.950905,217.93449 17.29638,-6.96923"
       id="path114" />
    <path
       style="fill:none;stroke:#000000;stroke-width:0.242486px;stroke-linecap:butt;stroke-linejoin:miter;stroke-opacity:1"
       d="m 69.657582,192.93095 2.939378,-1.37784 1.867729,0.73485 0.336805,0.42867 -0.183712,0.64298 -0.857319,1.22474 0.09185,0.94917 1.132886,0.88794 0.15309,1.22475 -2.020822,2.08206 -5.052056,1.53091 -0.887938,0.85733 -1.224741,-0.0613 -0.642988,-1.3166 -0.03061,-1.07164 1.500309,-1.40845 0.398038,-1.59217 0.428661,-1.01041 0.857318,-0.91856 0.183712,-1.46969 z"
       id="path116" />
    <path
       style="fill:none;stroke:#000000;stroke-width:0.242486px;stroke-linecap:butt;stroke-linejoin:miter;stroke-opacity:1"
       d="m 188.30865,148.52275 2.10831,4.7572 -3.45064,1.43479"
       id="path174" />
    <path
       style="fill:none;stroke:#000000;stroke-width:0.242486px;stroke-linecap:butt;stroke-linejoin:miter;stroke-opacity:1"
       d="m 195.49664,103.6628 4.84973,-0.51961 3.98369,3.46408 1.38565,5.19615 -1.38565,7.4478 -4.67652,4.50332 -6.92818,0.17319 -2.42487,-3.11767 0.69282,-5.88897 -0.69282,-6.75496 2.59807,-4.50333 z"
       id="path176" />
    <path
       id="Lipayran"
       style="fill:#d7eef4;stroke:#002b22;stroke-width:0.0894263;stroke-linejoin:round"
       d="M 165.39648 852.82031 C 165.34107 852.82031 164.56351 853.38281 163.66797 854.07031 L 162.03906 855.32031 L 158.36719 855.32031 L 154.69336 855.32031 L 150.45312 856.18555 L 146.21094 857.05078 L 142.875 859.28516 L 139.53906 861.51953 L 134.79492 865.74219 L 130.05078 869.9668 L 128.35938 870.88086 L 126.66992 871.79297 L 124.81445 877.75781 L 122.95898 883.7207 L 123.22266 885.11914 C 123.43483 886.24504 123.5248 886.55664 123.6875 886.71289 C 123.79874 886.81972 124.57338 887.51925 125.4082 888.26758 L 126.92578 889.62891 L 126.98438 890.35352 C 127.01637 890.75246 127.04578 891.7526 127.05078 892.57422 L 127.06055 894.06641 L 127.88672 894.91211 L 128.71094 895.75586 L 130.52734 895.46484 L 132.34375 895.17383 L 133.33984 896.22656 L 133.33984 896.22852 L 134.33594 897.28125 L 135.10742 897.2832 L 135.88086 897.28516 L 139.21484 894.10938 L 142.55078 890.93555 L 144.42578 890.98633 L 146.30078 891.03711 L 150 887.15039 L 153.69727 883.26562 L 154.375 883.31641 C 154.7471 883.3448 155.47266 883.3996 155.98828 883.4375 L 156.92578 883.50586 L 159.96094 880.42578 L 162.99805 877.34375 L 162.97266 874.56836 C 162.95886 873.04195 162.92323 871.40938 162.89453 870.93945 L 162.84375 870.08398 L 163.63477 869.92188 C 164.07016 869.8327 164.45313 869.73528 164.48633 869.70508 C 164.5195 869.6749 164.61883 868.02513 164.70703 866.03906 L 164.86719 862.42969 L 165.95898 861.03906 C 166.72806 860.06118 167.04047 859.59838 167.01367 859.47266 C 166.99272 859.37445 166.89032 858.58507 166.78516 857.71875 L 166.59375 856.14258 L 166.83984 854.78906 C 166.9809 854.01035 167.05136 853.40303 167.00586 853.36133 C 166.91621 853.27919 165.5511 852.82031 165.39648 852.82031 z M 172.13477 852.82031 L 171.71875 853.15039 C 171.48951 853.33208 171.26822 853.50862 171.22852 853.54102 C 171.14443 853.60953 171.95684 854.65199 172.31055 854.92969 C 172.44917 855.03853 172.8633 855.18013 173.28711 855.26562 C 173.69172 855.34725 174.1136 855.45149 174.22461 855.49609 C 174.65059 855.66725 174.64844 855.67054 174.64844 854.20508 L 174.64844 852.82031 L 173.39258 852.82031 L 172.13477 852.82031 z M 69.560547 917.18164 C 69.463774 917.20028 69.239776 917.51988 68.996094 917.98828 L 68.59375 918.76367 L 66.695312 919.62695 C 65.651786 920.10232 64.794262 920.49595 64.789062 920.50195 C 64.783883 920.50803 64.728979 921.11691 64.667969 921.85352 L 64.556641 923.19336 L 65.541016 924.48633 C 66.082322 925.19838 66.536881 925.79605 66.550781 925.81445 C 66.56468 925.83286 67.131312 925.78342 67.808594 925.70312 C 68.485876 925.62286 69.100168 925.55805 69.173828 925.55859 C 69.247489 925.55913 69.830357 925.93986 70.46875 926.40625 C 71.448787 927.12225 71.670322 927.2497 71.896484 927.2168 C 72.043806 927.19536 73.807724 926.98514 75.816406 926.75 L 79.46875 926.32227 L 80.458984 925.00391 L 81.449219 923.68555 L 81.419922 923.01562 L 81.390625 922.34375 L 81.064453 922.34961 C 80.88418 922.35298 79.87221 922.40735 78.816406 922.46875 C 77.760602 922.53015 76.883667 922.57029 76.867188 922.55859 C 76.850708 922.54687 76.7977 922.08249 76.75 921.52734 C 76.702294 920.9722 76.650786 920.50623 76.634766 920.49023 C 76.618748 920.47421 75.74653 920.3943 74.697266 920.3125 L 72.789062 920.16211 L 71.253906 918.65625 C 70.210887 917.63246 69.669456 917.16064 69.560547 917.18164 z M 30.953125 924.10352 L 29.419922 924.79102 C 28.57627 925.16866 27.820394 925.54435 27.740234 925.62695 C 27.660072 925.70956 27.386023 926.23901 27.130859 926.80273 L 26.666016 927.82812 L 27.136719 928.85742 C 27.486629 929.6229 27.660179 929.87228 27.810547 929.83008 C 28.627737 929.60089 29.515921 929.46927 29.550781 929.57227 C 29.573115 929.63826 29.861867 930.22909 30.191406 930.88672 C 30.714761 931.93114 30.846395 932.10348 31.232422 932.23633 C 31.815342 932.43697 31.783078 932.43605 32.365234 932.20312 C 32.780233 932.03708 32.860544 931.95225 32.808594 931.73047 C 32.773706 931.58155 32.670348 931.05858 32.580078 930.56836 C 32.435866 929.78518 32.32108 929.55051 31.626953 928.63867 L 30.835938 927.60156 L 31.408203 926.55273 L 31.980469 925.50195 L 31.466797 924.80273 L 30.953125 924.10352 z "
       transform="scale(0.26458333)" />
    <path
       id="Sulangan"
       style="fill:#d7eef4;stroke:#002b22;stroke-width:0.126468;stroke-linejoin:round"
       d="M 381.41797 588.45312 L 381.09961 588.82812 C 380.92476 589.03395 380.45597 589.57202 380.05664 590.02344 L 379.33008 590.84375 L 379.33008 591.94336 C 379.33008 592.93129 379.35221 593.03576 379.55078 592.97656 C 379.67232 592.94029 380.0551 592.84287 380.40234 592.75977 C 380.88817 592.64346 381.24477 592.42048 381.94922 591.79492 L 382.86523 590.98242 L 382.86523 590.07227 L 382.86523 589.16406 L 382.14258 588.80859 L 381.41797 588.45312 z M 437.45312 589.36133 L 433.74414 593.01758 C 431.70446 595.02752 429.67931 597.00574 429.24414 597.41406 L 428.45312 598.15625 L 426.76758 598.24609 C 425.84013 598.29561 425.07441 598.34356 425.06641 598.35156 C 424.78385 598.64655 424.24121 599.41864 424.28711 599.46094 C 424.32185 599.49295 426.98338 601.7226 430.20312 604.41602 L 436.05859 609.31445 L 436.38867 610.76172 C 436.57057 611.55777 436.76261 612.26127 436.81641 612.32617 C 436.87025 612.39104 437.27724 612.72615 437.71875 613.07031 C 438.16027 613.41446 438.52148 613.73044 438.52148 613.77344 C 438.52148 613.81648 438.21114 614.3932 437.83203 615.05469 C 437.45293 615.71619 437.16135 616.29088 437.18555 616.33008 C 437.20976 616.36926 437.55362 617.34384 437.94922 618.49609 L 438.66797 620.58984 L 437.54492 621.61914 L 436.42188 622.64844 L 436.42188 626.95508 L 436.42188 631.26172 L 438.09375 632.39648 L 439.76562 633.5332 L 444.60938 633.51172 L 449.45508 633.49219 L 450.17383 632.5625 C 450.56924 632.05178 450.93643 631.57229 450.99023 631.49609 C 451.08204 631.36609 451.36298 631.38173 455.54102 631.76758 L 459.99414 632.17969 L 461.13672 631.11328 L 462.2793 630.04688 L 462.85547 630.0957 C 465.41848 630.31323 474.00719 630.85989 474.05859 630.80859 C 474.09428 630.7729 474.31889 630.50863 474.55664 630.2207 L 474.98828 629.69727 L 472.98438 628.30078 C 471.88227 627.53281 470.98031 626.87926 470.98047 626.84766 C 470.98067 626.81609 476.23977 624.86662 482.66797 622.51562 C 489.09616 620.16463 494.43916 618.20531 494.53906 618.16211 L 494.7207 618.08398 L 494.7207 614.58398 L 494.7207 611.08398 L 496.45117 611.08398 L 498.18164 611.08398 L 498.83594 613.12305 C 499.19677 614.24441 499.51803 615.23948 499.54883 615.33398 C 499.60251 615.49854 499.74838 615.44988 502.97461 614.20312 C 504.82816 613.48685 506.34489 612.87224 506.3457 612.83594 C 506.34629 612.79966 505.24769 611.602 503.9043 610.17578 C 502.29763 608.47005 501.4544 607.629 501.4375 607.7168 C 501.41687 607.8239 501.34323 607.84209 501.07227 607.80859 C 500.88654 607.78564 490.42713 606.96844 477.82812 605.99414 L 454.91992 604.22266 L 446.1875 596.79297 L 437.45312 589.36133 z M 390.60742 591.38281 L 389.9375 592.48828 C 389.56952 593.09595 389.24595 593.63409 389.21875 593.68359 C 389.19154 593.73308 389.44107 593.9149 389.77344 594.08789 C 390.10581 594.26087 390.43451 594.40325 390.50391 594.40625 C 390.57335 594.40883 390.93032 594.24035 391.29492 594.03125 L 391.95703 593.65039 L 391.95703 592.51758 L 391.95703 591.38281 L 391.28125 591.38281 L 390.60742 591.38281 z M 388.74609 597.72656 C 388.71385 597.69432 387.42662 597.86031 385.88477 598.09375 L 383.08203 598.51758 L 383.16797 601.56836 L 383.25391 604.61914 L 381.35547 605.7168 L 379.45703 606.8125 L 379.45703 609.1875 L 379.45703 611.56055 L 380.43555 612.17383 C 381.2925 612.71051 381.52286 612.79623 382.29688 612.86133 C 382.783 612.90213 383.26692 612.94217 383.37109 612.95117 C 383.47527 612.95999 385.31787 611.95855 387.4668 610.72656 L 391.375 608.48633 L 391.66016 606.97461 C 391.99252 605.21393 392.13899 605.5041 390.33398 604.35547 C 388.99247 603.50182 389.12088 603.87408 388.93555 600.29883 C 388.86392 598.91701 388.77829 597.75876 388.74609 597.72656 z M 375.66797 599.16797 C 375.6119 599.10851 374.90818 599.56269 374.10352 600.17773 L 372.63867 601.29492 L 372.63867 601.95312 L 372.63867 602.60938 L 373.36328 602.6543 C 373.76261 602.6793 374.23044 602.71151 374.40234 602.72461 C 374.85689 602.75934 376.42578 602.11405 376.42578 601.89258 C 376.42578 601.60429 375.78174 599.2886 375.66797 599.16797 z M 367.67383 609.28516 C 367.46245 609.26336 367.30943 609.26246 367.26758 609.28711 C 367.1839 609.33639 366.40913 610.00376 365.54492 610.76953 L 363.97266 612.16211 L 364.51367 614.43164 C 364.81097 615.67986 365.05659 616.77112 365.05859 616.85742 C 365.06062 616.94369 364.55899 617.71302 363.94531 618.56641 L 362.83008 620.11719 L 363.22852 620.99805 L 363.625 621.87695 L 365.57422 622.08594 C 366.64633 622.20052 367.61993 622.27821 367.73828 622.25781 C 367.85662 622.23735 368.55151 621.80186 369.28125 621.29102 L 370.60742 620.36328 L 370.62109 619.60547 C 370.62846 619.18878 370.67968 617.39788 370.73438 615.62695 L 370.83398 612.4082 L 370.14062 611.01172 L 369.44727 609.61719 L 368.43359 609.4082 C 368.15472 609.35065 367.88521 609.30696 367.67383 609.28516 z M 375.28906 619.22461 C 375.27453 619.25064 374.66101 622.91662 374.66016 622.98242 C 374.65949 623.03452 375.19495 623.07617 375.85156 623.07617 L 377.04492 623.07617 L 377.11914 622.66602 C 377.42054 620.99568 377.65549 619.47164 377.61719 619.43164 C 377.58564 619.39866 375.30506 619.19581 375.28906 619.22461 z M 382.55273 619.24805 C 382.27215 619.25854 382.25709 619.41968 382.0625 620.20508 C 381.97664 620.55164 381.97763 620.55273 382.6582 620.55273 L 383.33984 620.55273 L 383.48828 619.96875 C 383.56907 619.64778 383.61816 619.36881 383.59766 619.34961 C 383.57717 619.33041 383.27939 619.29393 382.9375 619.26953 C 382.76833 619.25744 382.64626 619.24455 382.55273 619.24805 z M 430.93164 637.02148 C 429.76131 636.97413 429.1249 637.12341 425.88477 637.79297 L 422.27539 638.53906 L 420.96289 640.25391 C 418.67458 643.2424 418.44175 643.63359 418.67188 644.13867 C 418.80589 644.4328 418.97586 644.55079 419.18359 644.49219 C 419.35467 644.44389 419.85687 644.35256 420.29883 644.28906 C 421.60317 644.10179 421.62784 644.0839 423.30273 642.18164 L 424.91016 640.35742 L 428.53125 639.83984 C 432.05663 639.33649 432.18228 639.30502 433.2793 638.61719 C 435.00094 637.53772 434.86605 637.30902 432.39648 637.12109 C 431.77153 637.07353 431.32175 637.03727 430.93164 637.02148 z M 362.70312 637.26758 L 361.90234 638.37891 C 361.46169 638.99089 361.06097 639.49219 361.01367 639.49219 C 360.96639 639.49219 360.29842 639.3494 359.5293 639.17578 C 358.76017 639.00216 358.10552 638.86133 358.07422 638.86133 C 358.04294 638.86133 357.76952 639.46504 357.4668 640.20312 L 356.91797 641.54492 L 355.7168 641.46094 C 355.05704 641.41484 354.10702 641.34318 353.60352 641.30078 L 352.6875 641.22266 L 352.6875 642.18359 L 352.6875 643.14453 L 353.22461 643.29102 C 353.51977 643.37213 354.31649 643.58915 354.99609 643.77344 L 356.23242 644.10938 L 359.69922 647.38672 C 362.43712 649.97451 363.16892 650.73236 363.16992 650.98242 C 363.17075 651.15662 363.07329 652.29247 362.95508 653.50781 C 362.77071 655.40323 362.68217 655.86204 362.33398 656.72852 L 361.92969 657.73828 L 359.86914 657.77344 L 357.81055 657.80664 L 356.51172 657.28516 L 355.21289 656.76367 L 355.21289 655.38281 L 355.21289 654.00391 L 354.61328 654.06836 C 354.28341 654.10346 353.21836 654.16242 352.24609 654.19922 L 350.47656 654.26562 L 348.64648 652.17188 L 346.81641 650.07617 L 345.55273 650.14844 C 344.85825 650.18808 343.12485 650.25327 341.70117 650.29297 C 340.27749 650.33271 338.99418 650.38887 338.84961 650.41797 C 338.66068 650.45606 338.48779 650.71817 338.23438 651.34766 L 337.88281 652.22266 L 339.41602 653.71875 L 340.94727 655.21289 L 341.52148 657.66992 C 341.83661 659.02196 342.10534 660.13934 342.11914 660.15234 C 342.13291 660.16537 343.46324 661.16967 345.07617 662.38281 L 348.00977 664.58789 L 349.875 664.87695 C 350.90109 665.0356 353.07501 665.37691 354.70703 665.63672 C 356.33906 665.89654 357.78889 666.11605 357.92773 666.12305 C 358.25517 666.13947 362.42835 664.75924 362.61719 664.57227 C 362.69647 664.49377 364.13263 661.75985 365.80859 658.49609 L 368.85547 652.5625 L 368.98438 646.26367 C 369.05507 642.79974 369.09647 639.95245 369.07617 639.93555 C 369.05584 639.9186 368.0732 639.3746 366.89258 638.72656 C 364.92939 637.64897 364.65882 637.53476 363.72461 637.40625 L 362.70312 637.26758 z M 412.51562 648.92188 C 412.2671 648.91154 412.07022 648.91423 411.875 648.92578 L 411.34961 648.95703 L 410.18164 649.78125 L 409.01172 650.60547 L 409.16992 650.92383 C 409.25737 651.0986 409.40003 651.36811 409.48633 651.52344 C 409.6167 651.75818 409.65958 651.8021 409.73828 651.7832 C 409.79037 651.77073 410.82627 651.57757 412.04102 651.35352 C 413.25577 651.12947 414.25286 650.9425 414.25586 650.9375 C 414.2656 650.9208 414.53334 649.09975 414.52734 649.09375 C 414.52374 649.09063 414.04256 649.04333 413.45898 648.99023 C 413.0635 648.95443 412.76415 648.93221 412.51562 648.92188 z M 374.87891 659.33984 C 374.87891 659.34854 374.7657 659.94469 374.62695 660.66406 C 374.4882 661.38344 374.36587 662.02655 374.35547 662.09375 C 374.33985 662.19456 374.68539 662.48707 376.33398 663.76758 C 377.43308 664.62128 378.36585 665.35143 378.40625 665.39062 C 378.46613 665.44867 378.45703 665.6028 378.36133 666.21875 C 378.29673 666.6345 378.26246 667.00372 378.28516 667.04102 C 378.30787 667.07829 378.82372 667.70499 379.42969 668.43164 C 380.03567 669.15829 380.53125 669.80163 380.53125 669.86133 C 380.53125 670.03057 379.86537 673.3026 379.82227 673.3457 C 379.78961 673.37836 376.54321 672.82234 376.50391 672.77734 C 376.49628 672.76862 376.31867 671.87637 376.10938 670.79297 C 375.90009 669.70957 375.71792 668.78252 375.70312 668.73242 C 375.68255 668.6629 375.54337 668.62578 375.11914 668.58008 C 374.81354 668.54718 374.55969 668.5243 374.55469 668.5293 C 374.54971 668.5338 374.64316 669.97582 374.76172 671.73438 L 374.97656 674.93164 L 374.5625 676.78711 L 374.14844 678.64258 L 374.09375 681.72656 L 374.04102 684.81055 L 373.40234 685.67969 L 372.76367 686.54883 L 372.7793 688.13281 L 372.79492 689.71875 L 374.45117 690.24219 C 375.36185 690.53109 376.14757 690.76948 376.19727 690.77148 C 376.247 690.77357 376.78352 690.4298 377.39062 690.00586 C 377.99772 689.58192 378.53624 689.23404 378.58594 689.23438 C 378.63567 689.2347 379.97274 689.28556 381.55859 689.34766 C 383.14443 689.40974 384.57389 689.46255 384.73438 689.46289 L 385.02539 689.46289 L 385.67188 690.29102 L 386.31836 691.11719 L 387.26367 691.11523 L 388.21094 691.11328 L 389.50586 689.13281 C 390.21874 688.04285 390.83615 687.10608 390.87695 687.05078 C 390.94629 686.95671 391.04436 686.9793 392.37891 687.40625 C 393.16398 687.6574 393.83499 687.86282 393.87109 687.86328 C 393.90722 687.86373 394.73518 687.09029 395.71094 686.14453 L 397.48438 684.42578 L 397.45508 684.10352 C 397.43878 683.92662 397.36446 682.84661 397.28906 681.70312 L 397.15234 679.62305 L 396.90234 679.36133 C 396.234 678.66219 394.69604 676.95923 394.64844 676.86523 C 394.61882 676.80679 394.43086 675.76956 394.23242 674.56055 L 393.87305 672.36328 L 395.02539 670.58008 C 395.65928 669.59979 396.19053 668.7637 396.20703 668.7207 C 396.23885 668.63776 396.51129 666.37652 396.49219 666.35352 C 396.48603 666.34606 395.34051 666.27471 393.94531 666.19531 C 392.55011 666.11588 391.31783 666.03251 391.20703 666.00781 C 391.08474 665.98059 389.6147 665.0203 387.4668 663.56641 L 383.92773 661.17188 L 382.10156 661.20703 C 381.09667 661.22663 379.6832 661.246 378.96094 661.25 L 377.64844 661.25781 L 377.13477 660.34766 L 376.62305 659.4375 L 376.2793 659.40625 C 375.78434 659.36365 374.87891 659.32124 374.87891 659.33984 z "
       transform="scale(0.26458333)" />
    <path
       id="Sungko"
       style="fill:#d7eef4;stroke:#002b22;stroke-width:0.0447132;stroke-linejoin:round"
       d="M 496.98242 551.96094 L 485.06641 558.79492 C 478.51188 562.55332 472.88498 565.81667 472.5625 566.04688 C 472.08255 566.38949 471.4308 566.48048 468.97266 566.54688 L 465.96875 566.62891 L 464.73242 567.84961 C 463.57969 568.9882 463.48681 569.16167 463.38477 570.36328 C 463.32309 571.08969 463.3731 571.71528 463.5 571.79688 C 463.62393 571.8766 464.30483 572.01281 465.01172 572.09961 C 466.28242 572.25562 466.31355 572.27787 467.78125 574.06836 C 468.59772 575.0644 469.25137 575.95718 469.23438 576.05078 C 469.21745 576.14434 469.13573 576.44468 469.05273 576.71875 C 468.91562 577.17137 469.00319 577.23044 469.99805 577.35742 C 472.69128 577.70118 472.49616 577.58654 473.00977 579.10742 L 473.47852 580.49805 L 471.82812 582.06055 C 470.92087 582.9203 469.98099 583.62781 469.73828 583.63281 C 469.49556 583.63809 468.41289 583.52923 467.33203 583.39062 L 465.36719 583.13867 L 464.51172 581.57422 C 463.69372 580.07847 463.6621 579.94547 463.80859 578.51562 L 463.96094 577.01953 L 462.47852 577.01953 C 461.66223 577.01953 460.53021 576.95641 459.96484 576.87891 C 458.95931 576.74109 458.9318 576.75437 458.67188 577.5 C 458.44518 578.1503 458.46765 578.34703 458.82617 578.83984 C 459.0573 579.15756 459.4924 579.75439 459.79297 580.16602 L 460.33984 580.91406 L 457.49805 583.76367 C 455.93506 585.33042 454.53071 586.61133 454.37695 586.61133 C 454.2232 586.61133 452.22361 585.78755 449.93359 584.78125 L 445.76953 582.95312 L 441.81641 584.81836 L 437.86328 586.68359 L 437.875 587.50391 C 437.88674 588.29833 438.16466 588.56112 446.64453 595.74805 C 454.44192 602.35657 455.49836 603.17729 456.28125 603.24219 C 456.76487 603.28227 466.71854 604.06731 478.40039 604.98633 C 490.08224 605.90534 499.84148 606.66919 500.08594 606.68359 C 500.46122 606.70567 500.41493 606.59275 499.79688 605.95508 L 499.06641 605.19922 L 499.99805 603.04297 C 500.5108 601.85681 500.99898 600.81717 501.08398 600.73438 C 501.16901 600.65154 501.85571 600.77957 502.60938 601.01758 C 503.36303 601.25558 504.13527 601.45113 504.32422 601.45312 C 504.51317 601.45496 505.29177 600.94511 506.05469 600.32031 L 507.44141 599.18555 L 502.57227 577.19727 C 499.89458 565.10392 497.54216 554.47888 497.34375 553.58594 L 496.98242 551.96094 z M 422.2832 565.74609 C 422.24693 565.76001 421.88965 566.02265 421.49023 566.33008 C 420.79345 566.86641 420.72704 566.93305 419.83008 567.9707 C 419.31591 568.56551 418.64901 569.33746 418.34766 569.68555 L 417.79883 570.31836 L 417.99023 571.17578 L 418.18164 572.03516 L 418.62695 572.33203 L 419.07422 572.63086 L 419.625 572.55078 L 420.17578 572.4707 L 421.62109 571.4668 L 423.06445 570.46484 L 426.11328 571.86523 C 427.79027 572.63542 429.18083 573.26753 429.20312 573.26953 C 429.23227 573.27249 432.61537 571.35521 432.70117 571.28711 C 432.71552 571.27573 432.83537 568.47884 432.82227 568.46094 C 432.81687 568.4536 431.79 568.34922 430.54102 568.22852 L 428.26953 568.00781 L 428.16992 567.88477 C 428.11454 567.81639 427.9743 567.62678 427.85938 567.46484 L 427.65039 567.16992 L 426.58008 567.14062 C 425.9914 567.12453 425.25011 567.11133 424.93164 567.11133 L 424.35156 567.11133 L 423.35156 566.41602 C 422.74348 565.99363 422.3233 565.73069 422.2832 565.74609 z M 411.75195 566.63867 L 411.15039 567.30273 C 410.81892 567.66807 410.48184 568.04292 410.40234 568.13672 L 410.25781 568.30664 L 410.5 568.94922 C 410.63271 569.30189 410.76111 569.64539 410.78711 569.71289 L 410.83398 569.83594 L 411.83008 569.83594 L 412.82617 569.83594 L 413.11719 569.5332 C 413.27761 569.36747 413.4351 569.19855 413.4668 569.15625 C 413.51517 569.09163 413.48255 568.89003 413.26367 567.89844 L 413.00391 566.7168 L 412.57812 566.69141 C 412.34458 566.67681 412.06362 566.65739 411.95312 566.65039 L 411.75195 566.63867 z "
       transform="scale(0.26458333)" />
    <path
       id="Binaobao"
       style="fill:#d7eef4;stroke:#002b22;stroke-width:0.0223566;stroke-linejoin:round"
       d="M 426.13867 529.80469 C 426.11675 529.80469 425.067 530.60227 423.80664 531.57617 L 421.51562 533.34766 L 420.83008 534.88086 C 420.45353 535.72392 420.14568 536.43253 420.14648 536.45703 C 420.14768 536.49359 423.2393 542.51349 424.92188 545.75586 L 424.92188 545.75781 C 425.3347 546.55329 425.34936 546.57262 425.44336 546.51172 C 425.62887 546.39139 432.54871 542.00019 432.66406 541.92969 L 432.78125 541.85938 L 431.11328 540.72656 C 430.19603 540.10341 429.44531 539.57729 429.44531 539.55859 C 429.44531 539.53989 429.83761 538.63639 430.31641 537.55078 C 430.7952 536.46518 431.1875 535.56955 431.1875 535.56055 C 431.1875 535.51984 426.17437 529.80469 426.13867 529.80469 z M 404.42188 549.11719 C 404.37059 549.11719 402.18825 549.99384 402.15625 550.02734 C 402.14207 550.04218 402.27828 551.0732 402.29688 551.0918 C 402.30247 551.0974 402.70319 551.14522 403.1875 551.19922 C 403.67182 551.25312 404.08878 551.29406 404.11328 551.28906 C 404.2039 551.27198 406.0272 550.83608 406.0332 550.83008 C 406.04082 550.82246 405.93478 549.33517 405.92578 549.32617 C 405.91577 549.31616 404.48357 549.11719 404.42188 549.11719 z M 390.34961 553.58008 C 390.30425 553.58008 389.72431 553.79827 389.69531 553.82617 C 389.68451 553.83647 389.64557 554.26664 389.60938 554.78125 L 389.54492 555.7168 L 389.79297 556.18359 C 389.9297 556.44031 390.0505 556.65958 390.0625 556.67188 C 390.07453 556.68407 390.35936 556.72527 390.69336 556.76367 C 391.02736 556.80207 391.33074 556.83494 391.36914 556.83594 C 391.43051 556.83833 391.49654 556.78726 391.90625 556.40234 C 392.16251 556.16158 392.4164 555.92029 392.4707 555.86719 L 392.56836 555.77148 L 392.41602 554.88281 C 392.33242 554.39403 392.257 553.98652 392.25 553.97852 C 392.23512 553.9621 390.41321 553.58008 390.34961 553.58008 z "
       transform="scale(0.26458333)" />
    <path
       style="fill:#d7eef4;stroke:#002b22;stroke-width:0.0894263;stroke-linejoin:round"
       d="m 660.70904,398.71065 -0.93157,-0.42038 -0.87751,-1.30293 -0.87752,-1.30292 -0.52739,-3.02639 c -0.29006,-1.66451 -0.52799,-3.03291 -0.52873,-3.04087 -7.4e-4,-0.008 -1.08395,-0.94892 -2.40712,-2.091 -1.92489,-1.66144 -2.38965,-2.10472 -2.32509,-2.21766 0.0444,-0.0776 0.43389,-0.55768 0.86559,-1.06679 l 0.78491,-0.92564 3.72908,-1.77525 3.72908,-1.77525 h 2.01196 2.01195 l 5.08944,3.90625 5.08943,3.90625 -0.0604,2.23735 -0.0604,2.23734 1.44653,0.23219 c 0.79559,0.12771 1.46141,0.24707 1.47959,0.26526 0.0336,0.0336 0.30734,2.16173 0.28059,2.18155 -0.008,0.006 -0.75945,0.49676 -1.66979,1.09067 l -1.65517,1.07982 -5.33836,0.0623 -5.33835,0.0623 -0.6404,0.45805 c -0.35223,0.25193 -1.02478,0.72539 -1.49456,1.05214 l -0.85414,0.5941 z"
       id="path268"
       transform="scale(0.26458333)" />
    <path
       style="fill:#d7eef4;stroke:#002b22;stroke-width:0.0894263;stroke-linejoin:round"
       d="m 724.26231,462.21702 c -3.22156,-4.13786 -4.40401,-5.71892 -4.42387,-5.91518 -0.0149,-0.14732 0.54944,-5.14412 1.25411,-11.104 l 1.28122,-10.83614 -1.27745,-12.42279 c -0.7026,-6.83253 -1.27866,-12.56968 -1.28014,-12.74922 -0.002,-0.27087 0.80724,-1.73017 4.75459,-8.57143 l 4.75728,-8.24499 5.08647,-0.049 5.08647,-0.049 8.76929,-0.95707 8.7693,-0.95708 7.39142,6.42968 7.39142,6.42967 2.58147,9.68755 2.58147,9.68755 -2.56362,13.81744 c -1.40999,7.59959 -2.59174,13.88248 -2.62611,13.96198 -0.0925,0.21385 -17.4092,16.86426 -17.54005,16.86513 -0.0615,4.5e-4 -5.6162,0.14074 -12.34388,0.31184 -6.72767,0.1711 -12.46175,0.31139 -12.74238,0.31176 l -0.51025,6.6e-4 z"
       id="path270"
       transform="scale(0.26458333)" />
    <path
       id="Patao"
       style="fill:#d7eef4;stroke:#002b22;stroke-width:0.126468;stroke-linejoin:round"
       d="M 340.68164 341.19141 C 340.62975 341.13951 339.59442 341.23148 338.38086 341.39453 L 336.17383 341.69141 L 334.7832 343.7793 L 333.39062 345.86719 L 333.22852 348.96094 L 333.06445 352.05664 L 330.2207 355.92578 C 327.43517 359.71459 327.36412 359.83132 326.73633 361.65039 L 326.0957 363.50781 L 326.44336 365.28516 C 326.73014 366.74683 327.42806 368.69541 330.375 376.2832 C 332.34482 381.35512 333.95508 385.56201 333.95508 385.63281 C 333.95508 385.70362 333.59499 386.32277 333.1543 387.00977 C 332.7136 387.69677 332.33224 388.3443 332.30664 388.44727 C 332.27948 388.55647 337.37384 390.85088 344.5332 393.95312 C 351.28357 396.87814 356.87995 399.27434 356.96875 399.27734 C 357.05757 399.28064 358.5473 398.63031 360.2793 397.83203 L 363.42773 396.37891 L 375.62109 393.06055 C 382.32704 391.23474 387.85856 389.72458 387.91406 389.70508 C 387.96957 389.6856 386.49867 385.52915 384.64453 380.46875 C 382.7904 375.40834 381.27344 371.16098 381.27344 371.0293 C 381.27344 370.84456 386.53865 357.3288 387.68945 354.56055 L 387.91797 354.01172 L 372.52344 354.11719 C 364.05649 354.17562 354.68462 354.27143 351.69727 354.32812 L 346.26758 354.42969 L 345.01172 355.49414 L 343.75781 356.55859 L 341.94531 354.63086 C 340.24631 352.82639 340.13591 352.66865 340.19141 352.13086 C 340.34517 350.64084 340.76474 341.27451 340.68164 341.19141 z M 317.45312 372.67383 C 317.40076 372.67383 316.95589 373.18302 316.46484 373.80469 L 315.57227 374.93359 L 315.81641 376.23438 C 315.95112 376.94958 316.09371 377.66769 316.13281 377.83008 C 316.19495 378.08793 316.23148 378.10422 316.41992 377.95703 C 316.68909 377.74678 319.09724 375.7211 319.33398 375.50586 C 319.47926 375.37378 319.34535 375.12462 318.52734 374.00977 C 317.98797 373.27467 317.50552 372.67383 317.45312 372.67383 z "
       transform="scale(0.26458333)" />
    <path
       style="fill:#d7eef4;stroke:#002b22;stroke-width:0.0447132;stroke-linejoin:round"
       d="m 430.19961,554.46603 c -3.17688,-2.53164 -5.80097,-4.62638 -5.83131,-4.65498 -0.0432,-0.0408 0.0746,-0.2833 0.54437,-1.12067 l 0.59955,-1.06866 3.95897,-2.51296 c 2.17744,-1.38214 3.97158,-2.51297 3.98698,-2.51297 0.0306,0 4.64833,9.21767 4.64833,9.27884 0,0.0207 -0.47209,0.43627 -1.0491,0.92347 -0.57701,0.4872 -1.04911,0.89977 -1.04911,0.91682 0,0.0171 0.66469,1.19354 1.4771,2.61441 0.81241,1.42088 1.49615,2.61858 1.51943,2.66155 0.0399,0.0737 -0.0444,0.0781 -1.49337,0.0781 h -1.5357 z"
       id="Suba"
       transform="scale(0.26458333)" />
    <path
       style="fill:#d7eef4;stroke:#002b22;stroke-width:0.126468;stroke-linejoin:round"
       d="m 471.92332,564.93627 c -0.0263,-0.0452 -0.0875,-0.65047 -0.13599,-1.34495 -0.1342,-1.92066 -0.0849,-1.8309 -1.00628,-1.8309 h -0.78432 l -0.1443,-3.81964 c -0.0794,-2.1008 -0.1038,-3.83545 -0.0543,-3.85476 0.0495,-0.0193 1.05594,-0.58986 2.23656,-1.26787 l 2.14657,-1.23276 0.0351,-1.73299 0.0351,-1.73299 -3.56245,0.0335 -3.56244,0.0335 -1.0833,2.66299 -1.08329,2.66299 -1.63973,1.70978 -1.63972,1.70978 -2.45825,0.0651 -2.45826,0.0652 -4.10774,-2.76063 -4.10773,-2.76063 -1.89404,-3.12939 -1.89403,-3.12939 -2.63288,-0.0764 c -1.92505,-0.0558 -2.65955,-0.11954 -2.73208,-0.2369 -0.4799,-0.77649 -3.20767,-4.29554 -3.32966,-4.29554 -0.0865,0 -0.63401,0.13863 -1.2168,0.30806 -0.58278,0.16943 -1.11967,0.27126 -1.19307,0.22628 -0.0734,-0.045 -0.76697,-0.51406 -1.54126,-1.04239 l -1.40779,-0.96061 0.80585,-1.82262 c 0.44322,-1.00244 0.80683,-1.88429 0.80802,-1.95966 0.001,-0.0754 -1.25517,-1.5795 -2.79192,-3.34249 l -2.79409,-3.20543 0.0793,-0.93815 c 0.0436,-0.51598 0.0793,-1.15645 0.0793,-1.42327 v -0.48512 l 1.6415,-0.82256 1.6415,-0.82256 -0.002,-0.53574 c -9.8e-4,-0.29465 -0.0858,-1.67216 -0.1884,-3.06112 -0.10264,-1.38896 -0.18706,-2.68161 -0.18761,-2.87256 -9.3e-4,-0.3209 1.11246,-1.08949 14.70943,-10.15404 8.09075,-5.39378 14.73115,-9.78323 14.75646,-9.75435 0.0253,0.0289 3.69358,5.30847 8.15172,11.73241 6.47066,9.32387 8.16151,11.68171 8.38235,11.68894 0.27197,0.009 13.41273,4.53348 13.72234,4.72483 0.0872,0.0539 1.73993,5.60205 3.67274,12.32926 2.70799,9.4252 3.47943,12.26384 3.36255,12.37321 -0.29596,0.27695 -24.58599,14.16338 -24.63296,14.08247 z"
       id="Ticad"
       transform="scale(0.26458333)" />
    <path
       style="fill:#d7eef4;stroke:#002b22;stroke-width:0.178853;stroke-linejoin:round"
       d="m 497.78903,550.37383 c -0.0502,-0.082 -1.6771,-5.69374 -3.61541,-12.47053 -1.93831,-6.77678 -3.61381,-12.41054 -3.72334,-12.51946 -0.10953,-0.10893 -3.1888,-1.23356 -6.84282,-2.49919 -3.65401,-1.26563 -6.58705,-2.34844 -6.51785,-2.40624 0.0692,-0.0578 13.91479,-9.91669 30.76799,-21.90866 l 30.64218,-21.80357 9.35782,-1.23908 c 5.1468,-0.68149 9.37105,-1.22921 9.38721,-1.21715 0.0162,0.0121 1.28389,4.48175 2.81716,9.93264 1.53327,5.45089 2.84594,10.01482 2.91704,10.14207 0.10217,0.18286 17.91475,9.7255 28.70915,15.3802 l 1.97274,1.03343 -10.2376,15.69536 c -5.63068,8.63245 -10.29574,15.79108 -10.3668,15.90805 -0.0711,0.11698 -5.71348,1.46891 -12.53871,3.0043 l -12.40951,2.79161 -14.82143,0.95337 c -13.25611,0.85269 -15.73611,0.96478 -23.48214,1.06135 -4.7634,0.0594 -9.39506,0.15357 -10.29259,0.20929 -0.89753,0.0557 -1.67292,0.0342 -1.72309,-0.0478 z"
       id="Mojon"
       transform="scale(0.26458333)" />
    <path
       style="fill:#d7eef4;stroke:#002b22;stroke-width:0.178853;stroke-linejoin:round"
       d="m 594.03877,509.96366 c -0.003,-0.15674 -5.79804,-3.32438 -14.84459,-8.11425 -8.16181,-4.32143 -14.94508,-7.9375 -15.07394,-8.03572 -0.19279,-0.14694 -5.85958,-19.73463 -5.73919,-19.83795 0.0207,-0.0178 1.1642,-0.59517 2.54108,-1.28309 l 2.50343,-1.25076 5.97872,-0.20538 c 12.6571,-0.4348 21.11289,-0.72159 24.46085,-0.82963 l 3.48215,-0.11237 9.54107,-4.71779 c 5.24759,-2.59478 9.60343,-4.69582 9.67965,-4.66898 0.0762,0.0269 4.51458,5.3122 9.86302,11.74524 l 9.72443,11.69643 4.95875,3.125 4.95875,3.125 0.59715,2.5 c 0.48371,2.02512 1.20007,4.40823 2.63838,8.77713 0.0372,0.11314 -0.57209,0.74564 -1.35409,1.40555 l -1.4218,1.19984 -1.91409,-0.67403 c -1.05274,-0.37071 -2.12421,-0.77868 -2.38104,-0.90659 -0.25683,-0.12792 -2.43362,-2.34549 -4.8373,-4.92795 -2.40368,-2.58246 -4.50359,-4.80548 -4.66646,-4.94004 -0.25169,-0.20795 -0.6033,-0.19648 -2.34338,0.0764 -3.00463,0.47122 -2.87824,0.58842 -3.03785,-2.81704 l -0.12866,-2.74539 -1.55422,-1.44466 -1.55421,-1.44467 -2.58048,-0.12395 -2.58048,-0.12396 -1.42857,1.10672 -1.42857,1.10671 -3.29555,-0.0656 -3.29554,-0.0656 -6.22574,9.55358 c -3.42416,5.25446 -6.90322,10.59337 -7.73124,11.86425 -0.82803,1.27087 -1.50773,2.19498 -1.51044,2.05357 z"
       id="Baigad"
       transform="scale(0.26458333)" />
    <path
       style="fill:#d7eef4;stroke:#002b22;stroke-width:0.178853;stroke-linejoin:round"
       d="m 539.04606,475.28691 c 10e-4,-0.12277 1.55641,-7.70442 3.45581,-16.84811 l 3.45345,-16.62489 9.57196,-12.4908 9.57196,-12.49079 11.12402,-2.65441 c 6.11821,-1.45992 11.21333,-2.68585 11.3225,-2.72428 0.10917,-0.0384 1.33462,1.35088 2.72322,3.08738 l 2.52473,3.15726 v 2.29878 2.29879 l 1.29464,0.0194 c 0.71205,0.0107 1.75414,0.0709 2.31576,0.13393 l 1.02111,0.11454 3.24465,3.39286 c 1.78456,1.86607 4.87104,5.08036 6.85884,7.14286 l 3.61419,3.75 -0.24956,1.68239 c -0.13726,0.92532 -0.32408,1.76907 -0.41516,1.875 -0.0911,0.10593 -1.17125,0.83546 -2.40039,1.62118 l -2.23479,1.42857 -0.007,1.39559 c -0.007,1.38882 5.3e-4,1.41078 1.49685,4.52479 l 1.50365,3.12919 3.18385,3.42181 c 1.75112,1.88199 3.29465,3.56297 3.43006,3.7355 0.22721,0.28949 -0.47552,0.66948 -9.10714,4.92454 l -9.35336,4.61085 -5.98214,0.20715 c -3.29018,0.11393 -10.9231,0.37788 -16.96205,0.58655 l -10.97991,0.3794 -2.77009,1.38227 -2.77009,1.38228 -8.92857,1.187 c -4.91072,0.65286 -9.0692,1.18693 -9.24107,1.18683 -0.17188,-10e-5 -0.31145,-0.10063 -0.31015,-0.22339 z"
       id="Sillon"
       transform="scale(0.26458333)" />
    <path
       style="fill:#d7eef4;stroke:#002b22;stroke-width:0.178853;stroke-linejoin:round"
       d="m 467.96475,508.59234 c -4.35208,-6.26218 -7.90421,-11.51873 -7.89363,-11.68122 0.0166,-0.2546 7.57825,-28.71247 8.11831,-30.55278 0.15473,-0.52723 0.28546,-0.66965 0.61468,-0.66965 0.34558,0 0.41817,-0.093 0.41817,-0.53571 0,-0.35714 -0.0893,-0.53572 -0.26786,-0.53572 -0.14732,0 -0.26786,-0.0346 -0.26786,-0.077 0,-0.34665 6.12514,-22.97842 6.31653,-23.33896 0.13708,-0.25822 4.48815,-6.00376 9.66905,-12.76786 5.1809,-6.7641 9.48045,-12.37873 9.55455,-12.47694 0.0741,-0.0982 -1.4173,-4.38588 -3.31424,-9.52815 l -3.44898,-9.34957 4.29959,-8.329 c 2.36477,-4.58095 4.3893,-8.42814 4.49895,-8.54931 0.15154,-0.16746 1.1195,1.30187 4.03517,6.12525 l 3.83581,6.34557 4.10714,-0.10094 c 8.82029,-0.21678 18.4893,-0.46827 24.42942,-0.6354 3.41832,-0.0962 7.04485,-0.17488 8.05895,-0.17488 h 1.84382 l 1.9649,2.72511 1.96489,2.72512 -0.50347,4.99466 c -0.27692,2.74706 -0.48854,5.0042 -0.47028,5.01587 0.0183,0.0117 4.13142,2.09426 9.14035,4.62799 5.00892,2.53372 9.13191,4.62639 9.16219,4.65037 0.0303,0.024 -4.17455,5.56246 -9.34406,12.30774 -5.1695,6.74528 -9.47183,12.47943 -9.56073,12.74257 -0.0889,0.26314 -1.73453,8.07218 -3.65697,17.35343 -1.92244,9.28125 -3.59131,16.96907 -3.7086,17.08404 -0.1173,0.11497 -13.95433,9.98873 -30.74898,21.94168 -16.79464,11.95295 -30.62531,21.80391 -30.73483,21.89103 -0.13527,0.10762 -2.73627,-3.4923 -8.11198,-11.22739 z"
       id="Kangkaibe"
       transform="scale(0.26458333)" />
    <path
       style="fill:#d7eef4;stroke:#002b22;stroke-width:0.178853;stroke-linejoin:round"
       d="m 627.89845,602.19651 -15.03986,-0.14991 -3.56346,-1.44706 c -3.33156,-1.3529 -3.55425,-1.47199 -3.42188,-1.82995 0.14061,-0.38026 0.18467,-0.38321 6.41072,-0.42981 l 6.26913,-0.0469 0.734,-1.08087 c 0.4037,-0.59447 0.69476,-1.18313 0.64679,-1.30813 -0.14607,-0.38064 -4.07757,-5.64216 -4.21593,-5.64216 -0.0711,0 -0.86779,0.6409 -1.77051,1.42421 -0.90272,0.78332 -1.79513,1.50653 -1.98313,1.60715 -0.188,0.10061 -1.29601,0.18293 -2.46224,0.18293 -1.83689,0 -3.65917,-0.24898 -13.62781,-1.862 l -11.50739,-1.86199 -9.55357,0.17906 -9.55357,0.17906 -1.4854,-0.54921 c -1.32296,-0.48915 -1.69886,-0.54921 -3.4375,-0.54921 -1.07365,0 -1.9521,-0.0438 -1.9521,-0.0974 0,-0.0536 3.46689,-10.31922 7.7042,-22.8125 l 7.70419,-22.71507 18.15157,-27.85714 18.15156,-27.85714 h 3.21735 3.21734 l 1.36768,-1.02679 1.36768,-1.02678 h 2.07322 2.07321 l 1.31278,1.17959 c 1.49129,1.33999 1.43186,1.16819 1.6187,4.67924 l 0.11698,2.19812 0.7298,0.4607 0.7298,0.46071 2.12574,-0.32603 2.12575,-0.32603 0.29372,0.37168 c 0.16155,0.20443 2.20275,2.41698 4.53601,4.9168 l 4.24227,4.54511 2.78426,1.00658 2.78425,1.00658 1.90204,-1.63872 c 1.04613,-0.90129 1.91751,-1.64543 1.93643,-1.65364 0.0189,-0.008 -0.45139,-1.5247 -1.0451,-3.36998 -0.59371,-1.84527 -1.05115,-3.38276 -1.01653,-3.41663 0.0346,-0.0339 1.06923,-0.0178 2.29912,0.0357 l 2.23617,0.0973 5.86993,5.0618 c 4.28808,3.69772 6.01939,5.08573 6.42455,5.15063 0.30504,0.0489 1.31801,0.19176 2.25104,0.31757 l 1.69643,0.22874 10.8268,5.97876 10.8268,5.97875 7.10095,10.97582 c 3.90552,6.03669 7.10809,11.05972 7.11681,11.16229 0.009,0.10256 -0.0491,2.04329 -0.12853,4.31274 l -0.14438,4.12627 3.07826,6.14159 c 3.16322,6.31109 10.95188,23.55167 10.73206,23.75593 -0.0677,0.0629 -2.8552,1.25136 -6.19448,2.64104 l -6.07143,2.52671 -17.58929,2.94583 c -9.6741,1.62022 -17.64118,2.963 -17.70462,2.98396 -0.0634,0.021 -1.44068,1.73 -3.06053,3.79785 l -2.94518,3.75973 -8.12506,2.35634 -8.12507,2.35634 -3.01084,-0.0291 c -1.65596,-0.016 -9.77878,-0.0965 -18.0507,-0.17898 z"
       id="path294"
       transform="scale(0.26458333)" />
    <path
       style="fill:#d7eef4;stroke:#002b22;stroke-width:0.228744;stroke-linejoin:round"
       d="m 508.35396,597.87923 c -0.12065,-0.41196 -9.82366,-44.28058 -10.09917,-45.6597 l -0.14095,-0.70558 10.2414,-0.15378 c 8.05489,-0.12094 13.38641,-0.35223 24.97219,-1.08333 l 14.73078,-0.92956 12.10103,-2.70597 c 6.65557,-1.48829 12.12375,-2.68326 12.15153,-2.65548 0.082,0.082 -15.02678,44.55175 -15.1976,44.73114 -0.0858,0.0902 -4.83043,0.22896 -10.54351,0.30845 l -10.38743,0.14453 -7.54648,1.91517 c -6.83045,1.73346 -7.88143,1.94089 -11.07663,2.18618 l -3.53015,0.271 -2.28385,1.94045 c -1.25611,1.06725 -2.50536,2.13738 -2.77611,2.37806 -0.47382,0.42121 -0.49688,0.4219 -0.61505,0.0184 z"
       id="Obo-ob"
       transform="scale(0.26458333)" />
    <path
       style="fill:#d7eef4;stroke:#002b22;stroke-width:0.0808732;stroke-linejoin:round"
       d="m 166.35644,836.80746 -2.52592,-1.38868 -1.91511,-2.87375 -1.9151,-2.87376 -0.43664,-2.79832 c -0.25878,-1.6585 -0.40678,-2.82599 -0.36335,-2.86627 0.0503,-0.0466 62.83064,-25.37336 64.62105,-26.0693 0.0953,-0.037 0.10333,0.28762 0.0526,2.12898 l -0.0598,2.17268 -1.74828,5.07779 -1.74828,5.07779 -4.15842,2.47465 -4.15842,2.47464 -5.61185,1.76244 c -5.06772,1.59156 -25.32425,8.41999 -25.56661,8.61844 -0.0502,0.0411 -1.29636,2.12093 -2.76929,4.62186 l -2.67804,4.54714 -1.16438,0.65913 -1.16437,0.65913 -2.08192,-0.008 -2.08191,-0.008 z"
       id="Luyongbaybay"
       transform="scale(0.26458333)" />
    <path
       style="fill:#d7eef4;stroke:#002b22;stroke-width:0.0808732;stroke-linejoin:round"
       d="m 251.40318,763.28973 c -0.96408,-0.0508 -1.77229,-0.11184 -1.79602,-0.13556 -0.0237,-0.0237 -0.54691,-1.07594 -1.16264,-2.33826 l -1.11951,-2.29511 -0.0494,-1.82522 -0.0494,-1.82523 2.81393,-2.63754 2.81394,-2.63754 0.77231,-3.08698 c 0.7562,-3.02256 0.78845,-3.12497 1.54514,-4.90645 l 0.77282,-1.81945 1.46118,-1.57188 c 0.80365,-0.86453 1.54484,-1.66272 1.64709,-1.77374 0.16874,-0.18321 0.21671,-0.44802 0.51917,-2.86579 0.18329,-1.46516 0.359,-2.68696 0.39047,-2.7151 0.0315,-0.0281 0.80209,-0.29661 1.7125,-0.59659 1.48193,-0.48829 2.23292,-0.8158 7.17045,-3.12711 3.04216,-1.42407 5.57808,-2.56524 5.65548,-2.545 0.0772,0.0202 1.60075,0.61151 3.3857,1.31406 l 3.24535,1.27737 0.51329,0.65518 0.51328,0.65519 -0.29849,1.04685 -0.29848,1.04685 -1.62645,2.31974 c -1.30624,1.86304 -1.62662,2.37174 -1.62733,2.58387 -8.1e-4,0.24011 0.3291,3.8069 0.35373,3.82445 0.0317,0.0226 4.21512,3.29137 4.24464,3.31662 0.0194,0.0166 0.15337,0.96511 0.29764,2.10775 l 0.26231,2.07752 -0.70906,0.72672 c -0.38998,0.39969 -2.04667,2.10747 -3.68154,3.79506 -1.63486,1.68759 -3.01216,3.08453 -3.06066,3.10431 -0.0485,0.0198 -4.3482,1.32809 -9.55489,2.90736 l -9.4667,2.8714 -1.64964,1.59423 c -1.50593,1.45533 -1.67307,1.59319 -1.91849,1.58233 -0.14786,-0.007 -1.05763,-0.0535 -2.02172,-0.10431 z"
       id="Botigues"
       transform="scale(0.26458333)" />
    <path
       style="fill:#d7eef4;stroke:#002b22;stroke-width:0.0808732;stroke-linejoin:round"
       d="m 187.27104,619.88236 c -2.10949,-1.44189 -3.88994,-2.65244 -3.95656,-2.69009 -0.10387,-0.0587 -0.0589,-0.31142 0.31619,-1.77478 l 0.43731,-1.70631 -0.23544,-0.22976 c -0.1295,-0.12637 -2.54276,-2.37804 -5.36282,-5.0037 -2.82005,-2.62566 -5.15818,-4.81876 -5.19583,-4.87355 -0.0442,-0.0643 0.18228,-0.55697 0.63909,-1.39018 0.38916,-0.70981 0.71329,-1.29925 0.72028,-1.30987 0.007,-0.0106 1.30868,0.0557 2.89263,0.14741 l 2.87991,0.16671 1.43416,-1.08135 c 0.78878,-0.59475 1.47871,-1.10781 1.53317,-1.14013 0.0545,-0.0323 0.92104,0.0408 1.92573,0.16253 l 1.82671,0.22131 9.18983,8.53411 9.18983,8.53411 0.39075,-0.0431 c 0.21491,-0.0237 1.15379,-0.14127 2.08641,-0.2612 0.93262,-0.11993 1.70243,-0.2138 1.7107,-0.2086 0.0426,0.0268 -0.22167,1.85942 -0.27521,1.90862 -0.0345,0.0317 -1.06204,0.42003 -2.28332,0.86286 l -2.22052,0.80514 -3.83543,-0.34892 c -2.10949,-0.19191 -3.98931,-0.35027 -4.17738,-0.35191 -0.31474,-0.003 -0.55237,0.14034 -2.9876,1.79901 -1.45512,0.9911 -2.682,1.82254 -2.72641,1.84765 -0.0444,0.0251 -1.80669,-1.13408 -3.91618,-2.57596 z"
       id="Hilotongan"
       transform="scale(0.26458333)" />
    <path
       style="fill:#d7eef4;stroke:#002b22;stroke-width:0.161746;stroke-linejoin:round"
       d="m 345.41009,351.52494 -1.01009,-1.72813 0.2034,-1.46134 c 0.3482,-2.50172 0.20224,-2.25644 1.88392,-3.1657 0.83046,-0.44902 1.54558,-0.87408 1.58915,-0.94459 0.0436,-0.0705 -0.50252,-0.95677 -1.21354,-1.96947 -1.23837,-1.76377 -1.29081,-1.8747 -1.24597,-2.63563 l 0.0468,-0.79437 1.58698,-0.65906 1.58697,-0.65906 3.94413,-7.7234 c 2.16926,-4.24787 3.94412,-7.90691 3.94412,-8.1312 0,-0.22429 -0.18648,-1.43607 -0.41441,-2.69283 -0.22793,-1.25677 -0.38655,-2.43181 -0.35249,-2.61121 0.0623,-0.32824 5.31209,-9.00865 5.70015,-9.42509 0.17564,-0.18848 6.54967,1.40483 40.95761,10.23817 22.41229,5.75377 40.81609,10.52081 40.89735,10.59342 0.13368,0.11945 -3.5776,23.07725 -3.78131,23.39104 -0.0444,0.0684 -2.76959,-0.18573 -6.05595,-0.56476 -5.82372,-0.67166 -6.2501,-0.69809 -16.81809,-1.04247 l -10.84288,-0.35334 -8.7784,1.86206 -8.7784,1.86205 -18.2486,0.1736 c -10.03673,0.0955 -19.4955,0.17265 -21.01948,0.17151 l -2.77089,-0.002 z"
       id="Kabac"
       transform="scale(0.26458333)" />
    <path
       style="fill:#d7eef4;stroke:#002b22;stroke-width:0.161746;stroke-linejoin:round"
       d="m 385.72356,380.21799 -3.35711,-9.17755 3.35515,-8.53033 c 1.84534,-4.69168 3.36652,-8.54743 3.38041,-8.56832 0.0139,-0.0209 3.77605,-0.83844 8.36036,-1.81678 9.7398,-2.07858 7.4416,-1.91885 21.03431,-1.46196 8.66803,0.29136 9.54892,0.349 15.0995,0.98794 3.24195,0.37319 5.91883,0.69874 5.94863,0.72345 0.0415,0.0344 -4.65893,28.65591 -4.72306,28.75914 -0.008,0.0127 -4.22932,0.22108 -9.38092,0.46302 l -9.36653,0.43988 -13.3231,3.62288 c -7.3277,1.99258 -13.40126,3.64837 -13.49681,3.67953 -0.099,0.0323 -1.61711,-3.88924 -3.53083,-9.1209 z"
       id="Putian"
       transform="scale(0.26458333)" />
    <path
       style="fill:#d7eef4;stroke:#002b22;stroke-width:0.161746;stroke-linejoin:round"
       d="m 463.85148,372.46937 -11.00591,-4.82647 -7.71811,2.4902 c -4.24495,1.36962 -7.73156,2.47402 -7.748,2.45423 -0.0165,-0.0198 1.64647,-10.1373 3.69537,-22.48336 l 3.72528,-22.44739 25.76786,-15.51873 c 24.48235,-14.74453 25.77008,-15.49781 25.8124,-15.0995 0.0245,0.23057 -0.13357,7.57522 -0.35126,16.32145 l -0.3958,15.90223 0.35126,0.57919 c 0.19319,0.31855 4.30334,6.83685 9.13365,14.4851 4.83032,7.64826 8.77941,13.95437 8.77576,14.0136 -0.004,0.0592 -2.25275,2.59065 -4.998,5.62539 l -4.99138,5.5177 -14.28137,3.86007 c -7.85475,2.12305 -14.39037,3.88093 -14.5236,3.90642 -0.13323,0.0255 -5.1949,-2.12557 -11.24815,-4.78013 z"
       id="Kampingganon"
       transform="scale(0.26458333)" />
    <path
       style="fill:#d7eef4;stroke:#002b22;stroke-width:0.161746;stroke-linejoin:round"
       d="m 506.18684,343.94846 c -4.79631,-7.60019 -8.88883,-14.09808 -9.09449,-14.43974 l -0.37393,-0.62121 0.4073,-16.42123 c 0.22402,-9.03167 0.42862,-16.43856 0.45467,-16.45974 0.15673,-0.12745 60.09502,-14.4564 60.16764,-14.38378 0.049,0.049 3.00947,13.22449 6.57885,29.27889 4.42295,19.89364 6.43308,29.22347 6.31178,29.29548 -0.0979,0.0581 -12.60481,4.01037 -27.79313,8.78277 -15.18833,4.77241 -27.68781,8.70185 -27.77663,8.7321 -0.0888,0.0303 -4.08575,-6.16334 -8.88206,-13.76354 z"
       id="Atop-atop"
       transform="scale(0.26458333)" />
    <path
       style="fill:#d7eef4;stroke:#002b22;stroke-width:0.161746;stroke-linejoin:round"
       d="m 403.27605,316.21285 c -22.49382,-5.78188 -40.89785,-10.58924 -40.89785,-10.68304 0,-0.21738 5.80155,-13.84072 5.96996,-14.01883 0.0691,-0.0731 1.00276,0.43576 2.07478,1.13075 1.90976,1.23812 2.00114,1.32524 4.52391,4.31363 l 2.57477,3.05001 2.64266,-0.0223 c 3.14316,-0.0265 9.34458,-0.21076 9.34458,-0.27758 0,-0.17611 -5.8654,-12.46064 -6.02128,-12.61101 -0.10789,-0.10408 -1.10456,-0.6777 -2.21481,-1.27472 -1.11026,-0.59702 -2.18989,-1.19084 -2.39918,-1.3196 l -0.38052,-0.23412 0.50648,-0.52256 0.50649,-0.52256 3.18462,0.69415 3.18463,0.69416 1.77641,-1.87125 1.77641,-1.87125 2.88729,0.35344 c 1.58801,0.19439 2.94205,0.29376 3.00897,0.22082 0.0669,-0.0729 0.60928,-1.40976 1.20523,-2.97072 l 1.08356,-2.83811 4.22431,1.15964 c 2.32338,0.6378 4.25511,1.13322 4.29274,1.10094 0.0818,-0.0702 0.0432,-0.12267 -4.28581,-5.83815 l -3.40993,-4.50202 4.76039,-6.84891 c 2.61822,-3.76691 4.89067,-7.13961 5.04991,-7.49489 0.15923,-0.35528 3.28312,-8.8215 6.94199,-18.81382 l 6.65247,-18.16785 6.27577,-20.42874 6.27576,-20.42874 6.85515,-13.45996 6.85515,-13.45996 1.26367,-5.07125 1.26367,-5.07125 2.58646,-0.0109 2.58647,-0.0109 5.13542,-6.12576 c 4.02142,-4.79692 5.21602,-6.12575 5.50697,-6.12575 0.20435,0 2.17004,0.25892 4.3682,0.57539 l 3.99666,0.57539 26.74675,24.17326 c 14.71071,13.29529 26.87786,24.28227 27.03812,24.4155 0.25264,0.21001 0.41753,1.49888 1.23963,9.68952 l 0.94824,9.44728 3.48859,5.69259 3.48862,5.69259 0.007,4.07768 0.007,4.07768 7.26466,9.44728 c 3.99555,5.196 7.90715,10.28546 8.69244,11.30991 l 1.42778,1.86262 -1.82244,3.298 -1.82242,3.29799 0.38983,1.01645 c 0.21439,0.55905 0.57313,1.49481 0.79717,2.07947 l 0.40736,1.06301 -2.18377,2.97658 c -1.20099,1.63711 -2.18368,3.01132 -2.18368,3.05378 0,0.0425 1.78652,3.86126 3.97004,8.48623 l 3.97004,8.40903 0.4669,4.78483 c 0.25679,2.63166 0.43832,4.8134 0.40339,4.84833 -0.0349,0.0349 -13.73344,3.35339 -30.44115,7.37438 l -30.37766,7.31087 -2.13576,1.29226 c -3.09961,1.87544 -50.24533,30.27286 -50.34114,30.32213 -0.0444,0.0228 -18.48478,-4.6891 -40.9786,-10.47098 z"
       id="path328"
       transform="scale(0.26458333)" />
    <path
       style="fill:#d7eef4;stroke:#002b22;stroke-width:0.161746;stroke-linejoin:round"
       d="m 419.62712,532.19304 -1.29194,-0.25928 0.002,-1.28683 c 0.001,-0.70775 0.0647,-2.70588 0.1412,-4.44029 l 0.13904,-3.15346 -3.00346,-4.14998 -3.00346,-4.14998 -0.80802,-5.98876 c -0.44442,-3.29383 -0.85983,-6.07534 -0.92315,-6.18114 -0.0633,-0.10581 -3.06841,-4.47999 -6.678,-9.72041 -3.60958,-5.24041 -6.82,-9.92772 -7.13427,-10.41623 -0.42953,-0.66769 -1.00344,-2.26237 -2.31162,-6.42307 -0.95713,-3.04418 -1.69274,-5.58236 -1.63468,-5.64042 0.0581,-0.0581 7.1826,-0.92346 15.83232,-1.92313 l 15.72678,-1.81757 11.68484,-0.26145 c 6.42667,-0.14379 15.97246,-0.35771 21.21287,-0.47538 5.24042,-0.11767 9.54799,-0.19698 9.57238,-0.17624 0.0244,0.0207 -1.82636,7.03497 -4.11278,15.58719 l -4.15714,15.54949 -15.10861,10.07224 -15.1086,10.07225 0.19474,2.70268 c 0.10711,1.48647 0.19968,2.99626 0.20571,3.35509 l 0.011,0.65241 -1.61492,0.79458 -1.61492,0.79457 -0.012,1.05614 c -0.0269,2.3729 0.001,2.32114 -2.16818,4.00862 -2.98401,2.32126 -2.53629,2.11961 -4.0373,1.81836 z"
       id="Bantigue"
       transform="scale(0.26458333)" />
    <path
       style="fill:#d7eef4;stroke:#002b22;stroke-width:0.161746;stroke-linejoin:round"
       d="m 391.85856,466.82232 c -0.41606,-1.3101 -1.20579,-3.76276 -1.75496,-5.45035 l -0.99847,-3.06835 -3.9996,-1.77641 -3.99959,-1.77641 -2.05636,-1.92611 c -1.13099,-1.05936 -2.73663,-2.57237 -3.56809,-3.36226 l -1.51173,-1.43616 -0.44755,-6.32726 c -0.24615,-3.47999 -0.40159,-6.37621 -0.34542,-6.43605 0.0562,-0.0598 7.87796,-3.73902 17.38177,-8.17596 l 17.27964,-8.06717 10.06688,1.09776 c 5.53678,0.60378 10.10731,1.13821 10.15674,1.18764 0.0494,0.0494 -0.75358,5.23309 -1.78447,11.51923 l -1.87435,11.42935 -0.12845,10.60604 c -0.0707,5.83333 -0.166,10.6436 -0.2119,10.6895 -0.0772,0.0772 -30.60543,3.65498 -31.18707,3.65498 -0.19375,0 -0.45444,-0.61058 -1.01702,-2.38201 z"
       id="Guiwanon"
       transform="scale(0.26458333)" />
    <path
       style="fill:#d7eef4;stroke:#002b22;stroke-width:0.161746;stroke-linejoin:round"
       d="m 425.25987,460.60488 c 0.0541,-2.68682 0.14301,-7.57397 0.19758,-10.86034 l 0.0992,-5.9752 5.78885,-34.94225 c 3.18386,-19.21823 5.81031,-34.95498 5.83654,-34.97054 0.0262,-0.0156 3.54337,-1.15643 7.81587,-2.53525 l 7.76819,-2.50695 11.04563,4.82713 11.04564,4.82713 13.7234,-3.71567 c 7.54787,-2.04362 13.7495,-3.68958 13.7814,-3.65769 0.0319,0.0319 -1.42,1.69417 -3.22643,3.69394 l -3.28441,3.63595 -4.80393,9.2825 -4.80394,9.2825 3.40301,9.23208 c 1.87166,5.07764 3.36821,9.3228 3.32565,9.43369 -0.0426,0.11088 -4.27495,5.67924 -9.40534,12.37412 -5.13039,6.69488 -9.42878,12.35734 -9.55198,12.58323 -0.1232,0.22589 -1.63537,5.70774 -3.36037,12.18188 -1.725,6.47415 -3.15646,11.78662 -3.18103,11.8055 -0.0544,0.0418 -39.64242,0.90096 -41.2033,0.89419 l -1.10863,-0.005 z"
       id="Kabangbang"
       transform="scale(0.26458333)" />
    <path
       style="fill:#d7eef4;stroke:#002b22;stroke-width:0.161746;stroke-linejoin:round"
       d="m 368.52202,426.26077 -4.22539,-7.89979 0.6557,-3.60664 c 0.36064,-1.98365 0.65571,-3.73854 0.65571,-3.89976 0,-0.23386 -2.28689,-3.39942 -7.60866,-10.53207 -0.0779,-0.10441 0.97044,-0.67306 2.79789,-1.51768 l 2.92247,-1.35071 26.19625,-7.15567 26.19625,-7.15567 4.90653,-0.24547 c 9.64596,-0.48259 13.38594,-0.62844 13.48834,-0.52605 0.0572,0.0572 -1.3003,8.57195 -3.01659,18.92173 l -3.12054,18.81777 -0.41488,-0.008 c -0.22818,-0.004 -4.90714,-0.49814 -10.3977,-1.09776 l -9.98283,-1.09021 -17.38575,8.12267 c -9.56216,4.46746 -17.39827,8.12266 -17.41358,8.12266 -0.0153,0 -1.92925,-3.5549 -4.25322,-7.89979 z"
       id="Baod"
       transform="scale(0.26458333)" />
    <path
       style="fill:#d7eef4;stroke:#002b22;stroke-width:0.161746;stroke-linejoin:round"
       d="m 555.79181,411.16928 c -4.84073,-2.4781 -8.86915,-4.53062 -8.95205,-4.56116 -0.089,-0.0328 0.0408,-2.02284 0.3168,-4.8575 0.39969,-4.10535 0.43578,-4.85362 0.24878,-5.15788 -0.1203,-0.19574 -1.12225,-1.60947 -2.22655,-3.14162 l -2.00783,-2.78574 -1.8853,0.007 c -1.03691,0.004 -9.66114,0.21203 -19.16494,0.46242 -9.50381,0.2504 -17.2854,0.44702 -17.29243,0.43695 -0.20482,-0.29337 -7.69181,-12.64958 -7.71094,-12.72581 -0.0153,-0.0611 4.00211,-4.57752 8.92768,-10.03646 l 8.95556,-9.92535 28.08827,-8.82823 c 15.44855,-4.85553 28.14657,-8.76901 28.21782,-8.69661 0.0713,0.0724 2.41469,5.47297 5.20764,12.00128 l 5.07808,11.86967 0.97203,11.22369 0.97203,11.2237 1.90285,11.26127 c 1.04657,6.1937 1.85197,11.31216 1.78977,11.37436 -0.14474,0.14474 -21.88187,5.37244 -22.31298,5.36619 -0.17764,-0.003 -4.28357,-2.03222 -9.12429,-4.51032 z"
       id="Tamiao"
       transform="scale(0.26458333)" />
    <path
       style="fill:#d7eef4;stroke:#002b22;stroke-width:0.228744;stroke-linejoin:round"
       d="m 156.90155,819.78866 -1.79571,-3.03171 0.55271,-1.71288 0.55272,-1.71288 4.0813,-2.83486 4.08129,-2.83485 2.64292,0.64104 c 1.45361,0.35257 2.75899,0.68384 2.90084,0.73616 0.14186,0.0523 1.39501,-0.91315 2.78479,-2.14549 l 2.52687,-2.2406 0.95809,-2.83587 0.95808,-2.83587 -0.75901,-2.50474 c -0.48948,-1.61526 -0.84541,-3.4191 -1.00227,-5.07951 l -0.24325,-2.57476 -1.77961,-1.41947 c -0.97879,-0.7807 -1.74959,-1.49519 -1.71288,-1.58774 0.0367,-0.0925 0.75961,-0.75362 1.60647,-1.46904 l 1.53974,-1.30077 2.49399,1.93952 c 3.68475,2.86554 3.12623,2.74833 5.25033,1.10185 l 1.82833,-1.41722 h 5.90824 5.90824 l 1.63655,-3.77506 1.63655,-3.77507 -0.45317,-1.19229 c -0.30125,-0.79259 -0.45321,-1.74978 -0.45328,-2.85524 -1.3e-4,-1.78884 -0.0355,-1.74031 1.44977,-1.98797 l 0.87892,-0.14655 -0.1312,-1.75541 c -0.0721,-0.96548 -0.15935,-2.76669 -0.19377,-4.0027 l -0.0626,-2.24728 1.26779,-0.89563 1.26779,-0.89564 1.2766,0.69144 c 0.70212,0.38028 1.37584,0.81825 1.49716,0.97326 0.12131,0.15501 0.54721,1.14787 0.94643,2.20635 l 0.72586,1.92451 -0.93392,0.9516 -0.93392,0.9516 0.86887,1.40357 0.86886,1.40358 5.93799,-0.006 c 5.65193,-0.005 8.06726,-0.21705 9.04204,-0.79293 0.17695,-0.10453 2.58163,-1.78461 5.34376,-3.73349 3.65214,-2.57686 5.45879,-3.7048 6.62314,-4.13501 l 1.6011,-0.59157 2.50396,2.59495 2.50396,2.59496 -1.59043,-0.15263 -1.59042,-0.15264 -3.1554,3.35995 -3.1554,3.35994 0.13897,1.51302 c 0.0764,0.83216 0.19306,1.98238 0.25918,2.55604 l 0.12022,1.04302 -1.39442,0.38769 c -0.76694,0.21322 -1.43529,0.51466 -1.48525,0.66986 -0.0499,0.15519 -0.36932,1.49145 -0.70972,2.96945 l -0.6189,2.68727 -1.90676,1.08107 -1.90675,1.08106 -0.002,4.37196 c -0.001,3.28495 -0.0725,4.39957 -0.28698,4.48301 -0.15702,0.0611 -14.6223,5.89387 -32.14508,12.96178 -17.52278,7.06791 -32.06514,12.88952 -32.31636,12.93691 -0.37421,0.0706 -0.78133,-0.4618 -2.25248,-2.94554 z"
       id="Doong"
       transform="scale(0.26458333)" />
  </g>
</svg>
