<?xml version="1.0" encoding="UTF-8" standalone="no"?>
<svg
   width="231mm"
   height="297mm"
   viewBox="0 0 231 297"
   version="1.1"
   id="svg8"
   inkscape:version="1.2.2 (732a01da63, 2022-12-09)"
   sodipodi:docname="Bantayan.svg"
   xmlns:inkscape="http://www.inkscape.org/namespaces/inkscape"
   xmlns:sodipodi="http://sodipodi.sourceforge.net/DTD/sodipodi-0.dtd"
   xmlns="http://www.w3.org/2000/svg"
   xmlns:svg="http://www.w3.org/2000/svg"
   xmlns:rdf="http://www.w3.org/1999/02/22-rdf-syntax-ns#"
   xmlns:cc="http://creativecommons.org/ns#"
   xmlns:dc="http://purl.org/dc/elements/1.1/">
  <defs
     id="defs2" />
  <sodipodi:namedview
     id="base"
     pagecolor="#ffffff"
     bordercolor="#666666"
     borderopacity="1.0"
     inkscape:pageopacity="0.0"
     inkscape:pageshadow="2"
     inkscape:zoom="4"
     inkscape:cx="720"
     inkscape:cy="476.75"
     inkscape:document-units="mm"
     inkscape:current-layer="layer1"
     inkscape:document-rotation="0"
     showgrid="false"
     inkscape:window-width="1366"
     inkscape:window-height="705"
     inkscape:window-x="-8"
     inkscape:window-y="-8"
     inkscape:window-maximized="1"
     inkscape:showpageshadow="2"
     inkscape:pagecheckerboard="0"
     inkscape:deskcolor="#d1d1d1" />
  <metadata
     id="metadata5">
    <rdf:RDF>
      <cc:Work
         rdf:about="">
        <dc:format>image/svg+xml</dc:format>
        <dc:type
           rdf:resource="http://purl.org/dc/dcmitype/StillImage" />
      </cc:Work>
    </rdf:RDF>
  </metadata>
  <g
     inkscape:label="Layer 1"
     inkscape:groupmode="layer"
     id="layer1">
    <path
       style="fill:none;stroke:#000000;stroke-width:0.242486px;stroke-linecap:butt;stroke-linejoin:miter;stroke-opacity:1"
       d="m 95.644262,80.97301 24.377458,-1.205137 12.93468,0.655728 16.00171,-0.645168 m -1.30866,-5.697804 3.50683,15.812415 2.85787,6.668375 0.51962,5.975561 1.03922,6.14875 m -1.02137,-6.30427 -5.10726,-0.80234 -4.69665,3.46931 -4.37317,2.62852 -11.47755,-2.9607 1.48735,-4.773909 1.17512,-5.711162 19.77002,-4.16493"
       id="path24"
       sodipodi:nodetypes="ccccccccccccccccc" />
    <path
       style="fill:none;stroke:#000000;stroke-width:0.242486px;stroke-linecap:butt;stroke-linejoin:miter;stroke-opacity:1"
       d="m 116.4367,93.15845 -3.99164,24.27412 -0.0866,5.88896 11.56427,-0.25982"
       id="path26"
       sodipodi:nodetypes="cccc" />
    <path
       style="fill:none;stroke:#000000;stroke-width:0.242486px;stroke-linecap:butt;stroke-linejoin:miter;stroke-opacity:1"
       d="m 129.81117,101.76284 -0.99827,3.28559 -1.4287,4.67997 -1.86219,6.92473 -4.73904,18.43057 5.08545,2.7004 16.54102,-11.77791 1.90525,-9.17983 2.63132,-6.41202 -3.03994,-4.84898"
       id="path28"
       sodipodi:nodetypes="cccccccccc" />
    <path
       style="fill:none;stroke:#000000;stroke-width:0.242486px;stroke-linecap:butt;stroke-linejoin:miter;stroke-opacity:1"
       d="m 95.644262,80.973008 -1.645432,2.684674 0.259798,1.472237 -2.078447,4.070308 -0.866001,0.346407 v 0.606217 l 0.606202,0.866022 -0.77941,0.433012 -0.173209,1.12583 0.606214,1.039224 -0.606214,0.519616 -0.822716,-0.866022 0.173209,-3.204284 -1.472233,0.216505 -0.779413,1.169131 -0.0866,1.645443 -1.482239,2.007436 -0.367424,1.04103 0.18371,0.979793 1.898342,4.898963 -0.551132,0.85732 6.797278,2.93938 2.143283,2.87814 -0.367418,2.02082 2.326996,4.34784 0.244955,3.55173 1.959569,1.83712 2.08206,0.91856 1.95958,6.18493 3.79671,5.51135 0.42865,3.18432 1.59216,2.20454 -0.12247,2.38823 0.91856,0.18373 1.34721,-1.04104 0.0613,-0.91855 0.87047,-0.44182 -0.13563,-1.76272 7.24872,-1.81494"
       id="path30"
       sodipodi:nodetypes="ccccccccccccccccccccccccccccccccccccccc" />
    <path
       style="fill:none;stroke:#000000;stroke-width:0.242486px;stroke-linecap:butt;stroke-linejoin:miter;stroke-opacity:1"
       d="m 103.76654,124.31484 8.59191,-0.99331"
       id="path32" />
    <path
       style="fill:none;stroke:#000000;stroke-width:0.242486px;stroke-linecap:butt;stroke-linejoin:miter;stroke-opacity:1"
       d="m 98.56141,115.06805 9.308,-4.34784 5.63381,0.61237"
       id="path34" />
    <path
       style="fill:none;stroke:#000000;stroke-width:0.242486px;stroke-linecap:butt;stroke-linejoin:miter;stroke-opacity:1"
       d="m 94.458546,105.82125 1.71463,-0.79608 13.900774,-3.7967 5.08268,-0.24495"
       id="path36" />
    <path
       style="fill:none;stroke:#000000;stroke-width:0.242486px;stroke-linecap:butt;stroke-linejoin:miter;stroke-opacity:1"
       d="m 91.573977,93.616937 11.274003,-0.104336 4.59278,-0.979793 5.69504,0.183711 3.25231,0.382529"
       id="path38"
       sodipodi:nodetypes="ccccc" />
    <path
       style="fill:none;stroke:#000000;stroke-width:0.242486px;stroke-linecap:butt;stroke-linejoin:miter;stroke-opacity:1"
       d="m 102.84798,93.512601 -1.83711,4.654015 1.83711,5.021444"
       id="path40" />
    <path
       style="fill:none;stroke:#000000;stroke-width:0.242486px;stroke-linecap:butt;stroke-linejoin:miter;stroke-opacity:1"
       d="m 95.644262,80.973008 1.753645,-4.116886 1.224732,0.796082 1.347211,1.592164 2.87813,-0.06124 -1.46968,-3.123088 -1.469688,-0.796083 0.428658,-0.489895 1.71463,0.367424 0.91856,-0.979793 1.5309,0.183709 0.61239,-1.592162 0.44974,-0.899109 -0.32727,-1.060478 2.63319,-3.796697 3.613,-9.859166 3.30679,-10.77772 3.63141,-7.129355 0.69282,-2.771271 h 1.38564 l 2.77128,-3.290887 2.42486,0.34641 3.47314,2.764172 4.43996,0.649239 4.13784,5.181238 2.32503,4.395691 0.49882,4.998675 1.83711,3.000614 v 2.1433 l 4.65401,6.062466 -0.9798,1.775875 0.42867,1.102268 -1.1635,1.592163 2.08206,4.409065 0.26363,2.714902"
       id="path42"
       sodipodi:nodetypes="ccccccccccccccccccccccccccccccccccc" />
    <path
       style="fill:none;stroke:#000000;stroke-width:0.242486px;stroke-linecap:butt;stroke-linejoin:miter;stroke-opacity:1"
       d="m 83.996306,98.336765 0.736119,0.995926 -1.169132,0.995929 -0.216506,-1.169133 z"
       id="path44" />
    <path
       style="fill:none;stroke:#000000;stroke-width:0.242486px;stroke-linecap:butt;stroke-linejoin:miter;stroke-opacity:1"
       d="m 46.129464,158.8501 1.55884,0.0866 0.80107,-0.60622 1.08253,0.12991 4.849728,4.50332 1.21243,-0.15156 -0.08661,0.75776 -1.299034,0.47632 -2.186706,-0.19486 -1.493891,1.01759 -2.251657,-1.53719 0.238155,-0.90934 -2.901178,-2.70631 z"
       id="path46" />
    <path
       style="fill:none;stroke:#000000;stroke-width:0.242486px;stroke-linecap:butt;stroke-linejoin:miter;stroke-opacity:1"
       d="m 111.42117,141.03256 -0.40504,0.90844 1.47223,2.85788 -0.38971,0.69282 3.20429,2.55477 h 1.08253 l -0.86603,-1.51555 0.56291,-0.47631 -1.34232,-2.68466 0.6062,-0.1732 0.86603,1.16913 1.38563,0.0432 0.95262,1.60213 2.25167,1.51554 1.42894,-0.0432 0.90933,-0.95263 0.56292,-1.38562 h 1.64543 v 0.69282 l -1.21243,0.6928 0.0866,2.25167 h 0.43301 l 0.0287,0.92783 -1.50097,0.068 -0.69282,0.7361 -0.0866,0.90933 0.86602,0.12991 0.73612,0.86603 -0.17321,0.433 1.08254,0.12991 0.17318,0.56291 -0.7794,0.73612 -1.08254,-0.12991 -0.3897,-0.73611 0.0866,-0.86602 -1.60213,-0.0866 -0.21651,0.56291 0.47633,0.64953 -1.38566,1.38563 -2.25165,-0.99593 -2.29496,1.08253 0.0866,0.60622 -2.42488,2.38155 -0.9093,0.0432 -0.34642,0.43301 3.20429,2.68467 0.1732,0.77941 0.43301,0.34642 -0.3464,0.60622 0.3897,1.12582 -0.56292,0.51961 v 2.42487 l 0.95263,0.64951 h 2.68467 l 0.43301,-0.56291 2.33827,0.21651 0.60621,-0.56292 3.11769,0.2165 0.3897,-0.47631 -0.99591,-0.69282 6.14874,-2.25165 v -1.81865 h 0.69282 l 0.38972,1.21244 2.12176,-0.82273 -1.99186,-2.12175 0.43301,-0.99593 0.86603,0.2598 2.55476,-2.16505 1.77534,-0.12989 4.11362,-1.03924 6.71167,-0.0433 0.82272,0.30311 5.10953,-0.0866 6.14877,0.99593 1.21243,-0.0432 0.92587,-0.8869 0.97938,1.44981 -0.30311,0.43301 h -3.33418 l -0.17321,0.47632 2.03514,0.82273 9.65617,0.0866 4.33011,-1.25574 1.55884,-1.99185 9.30974,-1.55884"
       id="path48"
       sodipodi:nodetypes="cccccccccccccccccccccccccccccccccccccccccccccccccccccccccccccccccccccccccccccccccccccc" />
    <path
       style="fill:none;stroke:#000000;stroke-width:0.242486px;stroke-linecap:butt;stroke-linejoin:miter;stroke-opacity:1"
       d="m 99.081914,174.31489 0.642991,0.0306 0.275565,0.4899 1.62277,-0.0306 1.89835,1.28598 1.53092,0.0919 -0.0919,0.79607 -0.61237,0.94918 0.18372,1.10227 0.67359,0.73485 0.0919,1.37783 -1.04103,1.01041 -0.76547,-0.24496 -0.70423,1.07167 h -0.64299 l -0.3368,-0.42867 -1.62278,-0.0613 -0.612356,0.42867 -1.071642,-0.33682 v -0.97979 l 0.336798,-0.45927 0.03062,-1.62279 0.21433,-0.94917 -0.122467,-1.83711 0.551128,0.0613 0.21434,1.10226 0.673599,0.12249 0.15308,-0.76548 -0.612358,-0.73484 0.06124,-0.39805 -1.102125,-0.85732 z"
       id="path50" />
    <path
       style="fill:none;stroke:#000000;stroke-width:0.242486px;stroke-linecap:butt;stroke-linejoin:miter;stroke-opacity:1"
       d="m 106.9783,145.15612 0.54125,0.0759 0.0433,0.60624 -0.63869,0.15154 -0.59539,-0.065 -0.065,-0.47629 z"
       id="path52" />
    <path
       style="fill:none;stroke:#000000;stroke-width:0.242486px;stroke-linecap:butt;stroke-linejoin:miter;stroke-opacity:1"
       d="m 103.26522,146.33608 0.62787,0.12989 0.10825,0.62788 -0.38971,0.36805 -0.48714,-0.0542 -0.18402,-0.34641 0.0432,-0.61703 z"
       id="path54" />
    <path
       style="fill:none;stroke:#000000;stroke-width:0.242486px;stroke-linecap:butt;stroke-linejoin:miter;stroke-opacity:1"
       d="m 111.64315,149.58278 -0.4057,0.31383 -0.83435,0.96448 0.13013,0.5741 0.31382,0.20668 0.37509,-0.0536 0.72719,-0.5052 1.62279,0.7425 1.04102,-0.59706 0.0383,-0.94153 -1.27068,-0.12247 -0.16839,-0.22964 -0.89559,-0.0152 -0.55113,-0.38273 z"
       id="path56" />
    <path
       style="fill:none;stroke:#000000;stroke-width:0.242486px;stroke-linecap:butt;stroke-linejoin:miter;stroke-opacity:1"
       d="m 108.94872,149.7971 0.42865,0.023 0.17606,0.7961 -0.27557,0.28321 h -0.66595 l -0.21432,-0.56645 0.52052,-0.57409 z"
       id="path58" />
    <path
       style="fill:none;stroke:#000000;stroke-width:0.242486px;stroke-linecap:butt;stroke-linejoin:miter;stroke-opacity:1"
       d="m 115.73596,155.75403 4.68705,3.98645 12.38772,0.94916"
       id="path60"
       sodipodi:nodetypes="ccc" />
    <path
       style="fill:none;stroke:#000000;stroke-width:0.242486px;stroke-linecap:butt;stroke-linejoin:miter;stroke-opacity:1"
       d="m 125.89322,137.80064 3.77659,1.30294 1.95958,6.82793 2.8169,12.73731"
       id="path62"
       sodipodi:nodetypes="cccc" />
    <path
       style="fill:none;stroke:#000000;stroke-width:0.242486px;stroke-linecap:butt;stroke-linejoin:miter;stroke-opacity:1"
       d="m 124.74259,149.72282 6.8868,-3.94441 5.66442,-0.0919 7.68525,-0.4899 6.70546,-1.5003 -4.16412,12.27802"
       id="path64"
       sodipodi:nodetypes="cccccc" />
    <path
       style="fill:none;stroke:#000000;stroke-width:0.242486px;stroke-linecap:butt;stroke-linejoin:miter;stroke-opacity:1"
       d="m 172.90316,101.32032 2.05144,-0.97979 h 1.13288 l 2.78628,2.1433 -0.0306,1.13289 0.76544,0.12247 0.0919,0.76546 -0.97981,0.64299 -2.81689,0.0306 -0.82671,0.58176 -0.61237,-0.27556 -0.48991,-0.73485 -0.27556,-1.59217 -1.34722,-1.1635 z"
       id="path66" />
    <path
       style="fill:none;stroke:#000000;stroke-width:0.242486px;stroke-linecap:butt;stroke-linejoin:miter;stroke-opacity:1"
       d="m 155.52622,108.65357 1.45531,1.79107 v 1.13289 l 1.13288,0.0613 3.73546,3.88856 -0.15308,1.07165 -1.25538,0.82669 v 0.61238 l 0.76548,1.59216 2.05143,2.20454 2.55529,1.53834 2.16548,0.34378 0.84828,0.74245 1.24586,0.50858 -0.71859,0.39165 1.73695,1.65451 0.91385,2.05354 1.26466,1.81969 1.26354,0.86683 1.20778,1.69767 1.37215,0.20144 c 2.25016,0.61661 3.8454,2.37595 5.68543,3.57846 l 3.93721,4.53999 0.75419,0.51313 -0.74058,0.69551 -0.0866,2.25166 1.64545,3.29088"
       id="path68"
       sodipodi:nodetypes="ccccccccccccccccccccccccccc" />
    <path
       style="fill:none;stroke:#000000;stroke-width:0.242486px;stroke-linecap:butt;stroke-linejoin:miter;stroke-opacity:1"
       d="m 142.40944,126.00619 5.14158,-0.68093 1.50031,-0.73485 8.97124,-0.30619 5.11328,-2.54133"
       id="path70" />
    <path
       style="fill:none;stroke:#000000;stroke-width:0.242486px;stroke-linecap:butt;stroke-linejoin:miter;stroke-opacity:1"
       d="m 147.55102,125.32526 1.53093,5.41946 8.10474,4.30559"
       id="path72"
       sodipodi:nodetypes="ccc" />
    <path
       style="fill:none;stroke:#000000;stroke-width:0.242486px;stroke-linecap:butt;stroke-linejoin:miter;stroke-opacity:1"
       d="m 151.68452,143.69637 5.7341,-8.92013 4.14471,-4.54564 1.89798,-2.06576 1.94706,-2.00662 2.63636,-2.33597"
       id="path74"
       sodipodi:nodetypes="cccccc" />
    <path
       style="fill:none;stroke:#000000;stroke-width:0.242486px;stroke-linecap:butt;stroke-linejoin:miter;stroke-opacity:1"
       d="m 116.333,93.129669 3.85782,0.32406 6.35837,0.418362 5.10129,0.374469"
       id="path76"
       sodipodi:nodetypes="cccc" />
    <path
       style="fill:none;stroke:#000000;stroke-width:0.242486px;stroke-linecap:butt;stroke-linejoin:miter;stroke-opacity:1"
       d="m 129.3354,80.341181 0.36701,6.64754 0.094,7.22476"
       id="path78"
       sodipodi:nodetypes="ccc" />
    <path
       style="fill:none;stroke:#000000;stroke-width:0.242486px;stroke-linecap:butt;stroke-linejoin:miter;stroke-opacity:1"
       d="m 112.76838,139.99152 1.46969,1.68403 -0.45928,1.04102 0.96124,0.65338"
       id="path80" />
    <path
       style="fill:none;stroke:#000000;stroke-width:0.242486px;stroke-linecap:butt;stroke-linejoin:miter;stroke-opacity:1"
       d="m 112.48836,144.79888 2.25167,-1.42893"
       id="path82" />
    <path
       style="fill:none;stroke:#000000;stroke-width:0.242486px;stroke-linecap:butt;stroke-linejoin:miter;stroke-opacity:1"
       d="m 100.8884,155.51512 0.55113,0.27556 v 0.643 l -0.55113,0.48989 -0.64298,0.15308 -0.0306,-0.79608 z"
       id="path84" />
    <path
       style="fill:none;stroke:#000000;stroke-width:0.242486px;stroke-linecap:butt;stroke-linejoin:miter;stroke-opacity:1"
       d="m 103.00107,157.96459 -1.77587,0.27556 0.0306,1.65342 -1.01039,0.58174 v 1.40845 l 0.64298,0.39805 0.64298,0.0306 2.1433,-1.22473 0.18371,-0.97978 -0.76547,-0.48991 z"
       id="path86" />
    <path
       style="fill:none;stroke:#000000;stroke-width:0.242486px;stroke-linecap:butt;stroke-linejoin:miter;stroke-opacity:1"
       d="m 103.27664,156.3112 0.55112,0.0306 v 0.82671 l -0.48989,0.27555 -0.58175,-0.27555 z"
       id="path88" />
    <path
       style="fill:none;stroke:#000000;stroke-width:0.242486px;stroke-linecap:butt;stroke-linejoin:miter;stroke-opacity:1"
       d="m 99.479951,158.24015 0.306183,1.13289 -0.612357,0.24496 -0.70423,-0.0613 v -0.55113 z"
       id="path90" />
    <path
       style="fill:none;stroke:#000000;stroke-width:0.242486px;stroke-linecap:butt;stroke-linejoin:miter;stroke-opacity:1"
       d="m 99.173777,163.69026 0.918553,0.0612 -0.214343,1.25537 h -0.91855 z"
       id="path92" />
    <path
       style="fill:none;stroke:#000000;stroke-width:0.242486px;stroke-linecap:butt;stroke-linejoin:miter;stroke-opacity:1"
       d="m 101.04149,163.69026 0.64298,0.0306 -0.15309,0.61237 -0.64298,-0.0306 z"
       id="path94" />
    <path
       style="fill:none;stroke:#000000;stroke-width:0.242486px;stroke-linecap:butt;stroke-linejoin:miter;stroke-opacity:1"
       d="m 97.85719,161.17954 0.398036,0.79608 -0.06125,2.23516 -0.82669,0.58174 -1.255358,-0.12247 -0.275564,-0.61237 0.612373,-0.85732 -0.306192,-1.28598 1.010412,-0.88792 z"
       id="path96" />
    <path
       style="fill:none;stroke:#000000;stroke-width:0.242486px;stroke-linecap:butt;stroke-linejoin:miter;stroke-opacity:1"
       d="m 96.509975,168.52799 1.285966,0.70421 -0.06125,3.45991 -1.684008,3.27618 -1.285975,0.42865 -2.755651,-0.42865 -1.622775,-1.22473 -0.306185,-1.31661 -0.857314,-0.8267 0.275564,-0.64299 2.326998,-0.0919 0.979784,1.10227 1.316594,-0.0612 v 0.76545 l 0.612367,0.24496 h 0.918549 l 0.183706,-0.45928 0.122477,-1.22474 -1.775873,-1.68403 -1.010394,-0.27556 v -0.76547 l 1.1635,0.0919 0.306182,-0.73484 0.826687,0.18372 0.428663,-0.58176 0.765454,0.0919 z"
       id="path98" />
    <path
       style="fill:none;stroke:#000000;stroke-width:0.242486px;stroke-linecap:butt;stroke-linejoin:miter;stroke-opacity:1"
       d="m 111.64399,168.80935 2.14341,-0.433 1.25573,0.10825 0.0866,0.34642 -0.71448,0.45465 -1.90525,0.28146 -0.86602,0.97428 -0.88767,0.15156 c 0,0 -0.1732,-0.23817 -0.19485,-0.36808 -0.0217,-0.1299 1.08252,-1.51554 1.08252,-1.51554 z"
       id="path100" />
    <path
       style="fill:none;stroke:#000000;stroke-width:0.242486px;stroke-linecap:butt;stroke-linejoin:miter;stroke-opacity:1"
       d="m 109.11088,171.55898 0.71446,0.065 -0.10824,0.71448 -1.4073,0.25979 -0.25979,-0.49796 0.73611,-0.51961 z"
       id="path102" />
    <path
       style="fill:none;stroke:#000000;stroke-width:0.242486px;stroke-linecap:butt;stroke-linejoin:miter;stroke-opacity:1"
       d="m 8.2409785,244.32653 0.3897105,0.54127 -0.303108,0.54127 0.3897105,0.5196 0.1299024,0.75778 -0.4330107,0.1732 -0.3897096,-0.15155 -0.303108,-0.62787 -0.4979626,0.10826 -0.3247584,-0.69283 0.3247584,-0.71446 z"
       id="path104" />
    <path
       style="fill:none;stroke:#000000;stroke-width:0.242486px;stroke-linecap:butt;stroke-linejoin:miter;stroke-opacity:1"
       d="m 18.524992,242.55119 0.801071,0.77942 1.082528,0.0866 0.0433,0.54127 1.212431,-0.065 0.02164,0.54127 -0.584564,0.77942 -2.186708,0.25981 -0.627866,-0.45466 -0.736119,0.0866 -0.606216,-0.80107 0.06495,-0.84436 1.039228,-0.47633 0.238157,-0.45466 z"
       id="path106" />
    <path
       style="fill:none;stroke:#000000;stroke-width:0.242486px;stroke-linecap:butt;stroke-linejoin:miter;stroke-opacity:1"
       d="m 33.405248,230.56112 -1.010412,3.24556 0.153095,0.8267 0.918554,0.8267 0.03062,1.16351 0.489896,0.52051 0.979793,-0.15309 0.520515,0.55114 h 0.520514 l 1.775876,-1.68402 0.979793,0.0306 1.959585,-2.05143 0.857317,0.0613 1.684019,-1.71464 -0.03061,-1.86773 0.428661,-0.0919 0.09185,-1.9902 0.581751,-0.73484 -0.122476,-0.9798 0.153095,-0.82671 -0.642989,-0.21432 -0.918555,0.70422 h -1.959583 l -2.235156,0.4593 -1.775872,1.19411 -2.510722,2.23516 z"
       id="path108" />
    <path
       style="fill:none;stroke:#000000;stroke-width:0.242486px;stroke-linecap:butt;stroke-linejoin:miter;stroke-opacity:1"
       d="m 45.744515,225.50907 h 0.61237 l -0.03061,1.07164 c 0,0 -0.428659,-0.18372 -0.642988,-0.18372 -0.214332,0 -0.581752,-0.58174 -0.581752,-0.58174 l 0.398039,-0.30618 z"
       id="path110" />
    <path
       style="fill:none;stroke:#000000;stroke-width:0.242486px;stroke-linecap:butt;stroke-linejoin:miter;stroke-opacity:1"
       d="m 46.237716,206.97932 -1.125829,0.95261 1.082529,0.86603 0.129904,1.34234 0.389708,1.25573 -0.476312,1.38564 -1.255732,1.12582 -1.51554,-0.38971 -2.251659,1.55883 -0.346409,1.03924 1.082529,1.81864 0.259806,1.64545 1.039227,1.55884 1.428939,0.77941 h 1.125828 l 0.692819,-0.38969 1.428936,-2.42487 5.196138,-1.77535 3.031079,-0.95263 2.25166,-1.34234 0.952623,-2.77126 0.0433,-3.68061 0.978909,-0.55556 0.367423,-1.56155 0.765463,-0.21432 -0.122474,-1.40845 1.592162,-1.68402 1.194124,0.15308 -1.714638,-1.77586 -0.949174,0.33679 -2.816906,1.9902 -0.979792,0.18373 -2.755665,-0.0306 -0.367423,-0.58174 0.489894,-0.45928 -0.489894,-1.28598 -0.88794,-0.4899 -0.826698,0.58176 0.09185,2.08204 -0.551137,0.0919 -0.06124,1.01041 0.244949,0.64298 -0.796082,1.83712 -3.123089,0.0306 -0.88794,0.70422 z"
       id="path112" />
    <path
       style="fill:none;stroke:#000000;stroke-width:0.242486px;stroke-linecap:butt;stroke-linejoin:miter;stroke-opacity:1"
       d="m 41.950905,217.93449 17.29638,-6.96923"
       id="path114" />
    <path
       style="fill:none;stroke:#000000;stroke-width:0.242486px;stroke-linecap:butt;stroke-linejoin:miter;stroke-opacity:1"
       d="m 69.657582,192.93095 2.939378,-1.37784 1.867729,0.73485 0.336805,0.42867 -0.183712,0.64298 -0.857319,1.22474 0.09185,0.94917 1.132886,0.88794 0.15309,1.22475 -2.020822,2.08206 -5.052056,1.53091 -0.887938,0.85733 -1.224741,-0.0613 -0.642988,-1.3166 -0.03061,-1.07164 1.500309,-1.40845 0.398038,-1.59217 0.428661,-1.01041 0.857318,-0.91856 0.183712,-1.46969 z"
       id="path116" />
    <path
       style="fill:none;stroke:#000000;stroke-width:0.242486px;stroke-linecap:butt;stroke-linejoin:miter;stroke-opacity:1"
       d="m 188.29111,148.47598 2.10831,4.7572 -3.46818,1.49325"
       id="path174"
       sodipodi:nodetypes="ccc" />
    <path
       style="fill:none;stroke:#000000;stroke-width:0.202;stroke-linecap:butt;stroke-linejoin:miter;stroke-opacity:1;stroke-dasharray:none"
       d="m 194.36349,124.2337 2.11439,-0.20985 1.73682,1.39901 0.60412,2.09852 -0.60412,3.00789 -2.03888,1.81871 -3.02055,0.07 -1.0572,-1.2591 0.30205,-2.37833 -0.30205,-2.72808 1.13271,-1.81872 z"
       id="path176" />
    <path
       id="Lipayran"
       style="fill:#d7eef4;stroke:#002b22;stroke-width:0.0894263;stroke-linejoin:round"
       d="m 165.39648,852.82031 c -0.0554,0 -0.83297,0.5625 -1.72851,1.25 l -1.62891,1.25 h -3.67187 -3.67383 l -4.24024,0.86524 -4.24218,0.86523 -3.33594,2.23438 -3.33594,2.23437 -4.74414,4.22266 -4.74414,4.22461 -1.6914,0.91406 -1.68946,0.91211 -1.85547,5.96484 -1.85547,5.96289 0.26368,1.39844 c 0.21217,1.1259 0.30214,1.4375 0.46484,1.59375 0.11124,0.10683 0.88588,0.80636 1.7207,1.55469 l 1.51758,1.36133 0.0586,0.72461 c 0.032,0.39894 0.0614,1.39908 0.0664,2.2207 l 0.01,1.49219 0.82617,0.8457 0.82422,0.84375 1.8164,-0.29102 1.81641,-0.29101 0.99609,1.05273 v 0.002 l 0.9961,1.05273 0.77148,0.002 0.77344,0.002 3.33398,-3.17578 3.33594,-3.17383 1.875,0.0508 1.875,0.0508 3.69922,-3.88672 3.69727,-3.88477 0.67773,0.0508 c 0.3721,0.0284 1.09766,0.0832 1.61328,0.12109 l 0.9375,0.0684 3.03516,-3.08008 3.03711,-3.08203 -0.0254,-2.77539 c -0.0138,-1.52641 -0.0494,-3.15898 -0.0781,-3.62891 l -0.0508,-0.85547 0.79102,-0.1621 c 0.43539,-0.0892 0.81836,-0.1866 0.85156,-0.2168 0.0332,-0.0302 0.1325,-1.67995 0.2207,-3.66602 l 0.16016,-3.60937 1.09179,-1.39063 c 0.76908,-0.97788 1.08149,-1.44068 1.05469,-1.5664 -0.0209,-0.0982 -0.12335,-0.88759 -0.22851,-1.75391 l -0.19141,-1.57617 0.24609,-1.35352 c 0.14106,-0.77871 0.21152,-1.38603 0.16602,-1.42773 -0.0897,-0.0821 -1.45476,-0.54102 -1.60938,-0.54102 z m 6.73829,0 -0.41602,0.33008 c -0.22924,0.18169 -0.45053,0.35823 -0.49023,0.39063 -0.0841,0.0685 0.72832,1.11097 1.08203,1.38867 0.13862,0.10884 0.55275,0.25044 0.97656,0.33593 0.40461,0.0816 0.82649,0.18587 0.9375,0.23047 0.42598,0.17116 0.42383,0.17445 0.42383,-1.29101 v -1.38477 h -1.25586 z M 69.560547,917.18164 c -0.09677,0.0186 -0.320771,0.33824 -0.564453,0.80664 l -0.402344,0.77539 -1.898438,0.86328 c -1.043526,0.47537 -1.90105,0.869 -1.90625,0.875 -0.0052,0.006 -0.06008,0.61496 -0.121093,1.35157 l -0.111328,1.33984 0.984375,1.29297 c 0.541306,0.71205 0.995865,1.30972 1.009765,1.32812 0.0139,0.0184 0.580531,-0.031 1.257813,-0.11133 0.677282,-0.0803 1.291574,-0.14507 1.365234,-0.14453 0.07366,5.4e-4 0.656529,0.38127 1.294922,0.84766 0.980037,0.716 1.201572,0.84345 1.427734,0.81055 0.147322,-0.0214 1.91124,-0.23166 3.919922,-0.4668 l 3.652344,-0.42773 0.990234,-1.31836 0.990235,-1.31836 -0.0293,-0.66993 -0.0293,-0.67187 -0.326172,0.006 c -0.180273,0.003 -1.192243,0.0577 -2.248047,0.11914 -1.055804,0.0614 -1.932739,0.10154 -1.949218,0.0898 -0.01648,-0.0117 -0.06949,-0.4761 -0.117188,-1.03125 -0.04771,-0.55514 -0.09921,-1.02111 -0.115234,-1.03711 -0.01602,-0.016 -0.888236,-0.0959 -1.9375,-0.17773 l -1.908204,-0.15039 -1.535156,-1.50586 c -1.043019,-1.02379 -1.58445,-1.49561 -1.693359,-1.47461 z m -38.607422,6.92188 -1.533203,0.6875 c -0.843652,0.37764 -1.599528,0.75333 -1.679688,0.83593 -0.08016,0.0826 -0.354211,0.61206 -0.609375,1.17578 l -0.464843,1.02539 0.470703,1.0293 c 0.34991,0.76548 0.52346,1.01486 0.673828,0.97266 0.81719,-0.22919 1.705374,-0.36081 1.740234,-0.25781 0.02233,0.066 0.311086,0.65682 0.640625,1.31445 0.523355,1.04442 0.654989,1.21676 1.041016,1.34961 0.58292,0.20064 0.550656,0.19972 1.132812,-0.0332 0.414999,-0.16604 0.49531,-0.25087 0.44336,-0.47265 -0.03489,-0.14892 -0.138246,-0.67189 -0.228516,-1.16211 -0.144212,-0.78318 -0.258998,-1.01785 -0.953125,-1.92969 l -0.791015,-1.03711 0.572265,-1.04883 0.572266,-1.05078 -0.513672,-0.69922 z"
       transform="scale(0.26458333)" />
    <path
       id="Sulangan"
       style="fill:#d7eef4;stroke:none;stroke-width:0.126468;stroke-linejoin:round"
       d="m 381.41797,588.45312 -0.31836,0.375 c -0.17485,0.20583 -0.64364,0.7439 -1.04297,1.19532 l -0.72656,0.82031 v 1.09961 c 0,0.98793 0.0221,1.0924 0.2207,1.0332 0.12154,-0.0363 0.50432,-0.13369 0.85156,-0.21679 0.48583,-0.11631 0.84243,-0.33929 1.54688,-0.96485 l 0.91601,-0.8125 v -0.91015 -0.90821 l -0.72265,-0.35547 z m 56.01305,0.83087 -3.75317,3.70044 c -2.03968,2.00994 -4.05643,4.00605 -4.4845,4.42182 l -0.74804,0.72656 -1.68554,0.0742 c -0.92745,0.0495 -1.63067,0.0819 -1.7168,0.0898 -0.27084,0.32624 -0.88379,1.07099 -0.87695,1.11329 0.008,0.0466 2.74114,2.3796 5.97081,5.0611 l 5.89442,4.89397 0.31054,1.38868 c 0.1819,0.79605 0.31144,1.48783 0.36524,1.55273 0.0538,0.0649 0.50771,0.43123 0.94922,0.77539 0.44152,0.34415 0.83398,0.64841 0.83398,0.69141 0,0.043 -0.37111,0.58109 -0.75022,1.24258 -0.3791,0.6615 -0.65506,1.17609 -0.63086,1.21529 0.0242,0.0392 0.38816,1.12034 0.79035,2.2703 l 0.71875,2.05508 -1.08438,0.99063 -1.12304,1.0293 -0.0221,4.30112 -0.006,4.35636 1.64977,1.11266 1.66082,1.20854 4.9211,5.9e-4 4.8678,-0.003 0.7519,-0.97389 c 0.39541,-0.51072 0.79022,-1.04545 0.84402,-1.12165 0.0918,-0.13 0.28989,0.0237 4.45688,0.3654 l 4.48626,0.40106 1.16468,-1.06641 1.10943,-1.06087 0.54855,0.0433 c 2.57499,0.20315 11.15172,0.81944 11.20312,0.76814 0.0357,-0.0357 0.29897,-0.35521 0.53672,-0.64314 l 0.47584,-0.56762 -2.02048,-1.44068 c -1.09373,-0.77987 -2.05931,-1.37733 -2.05915,-1.40893 2e-4,-0.0316 5.29245,-1.9037 11.72065,-4.2547 6.42819,-2.35099 11.76014,-4.33241 11.86004,-4.37561 l 0.15954,-0.0781 v -3.55524 -3.44476 l 1.73047,0.011 1.66418,-0.0331 0.68744,2.01697 c 0.36083,1.12136 0.66,2.20482 0.77919,2.38771 0.0945,0.14501 0.22164,-0.0277 3.44787,-1.2745 1.85355,-0.71627 3.42553,-1.35297 3.42634,-1.38927 5.9e-4,-0.0363 -1.12011,-1.23394 -2.4635,-2.66016 -1.60667,-1.70573 -2.27312,-2.54678 -2.29002,-2.45898 -0.0206,0.1071 -0.77604,-0.0721 -1.06129,-0.0629 -0.20702,0.007 -10.24586,-0.82708 -22.84641,-1.78131 l -22.80876,-1.72728 -8.75452,-7.44074 z m -46.8236,2.09882 -0.66992,1.10547 c -0.36798,0.60767 -0.69155,1.14581 -0.71875,1.19531 -0.0272,0.0495 0.22232,0.23131 0.55469,0.4043 0.33237,0.17298 0.66107,0.31536 0.73047,0.31836 0.0694,0.003 0.42641,-0.1659 0.79101,-0.375 l 0.66211,-0.38086 v -1.13281 -1.13477 h -0.67578 z m -1.86133,6.34375 c -0.0322,-0.0322 -1.31947,0.13375 -2.86132,0.36719 l -2.80274,0.42383 0.0859,3.05078 0.0859,3.05078 -1.89844,1.09766 -1.89844,1.0957 v 2.375 2.37305 l 0.97852,0.61328 c 0.85695,0.53668 1.08731,0.6224 1.86133,0.6875 0.48612,0.0408 0.97004,0.0808 1.07421,0.0898 0.10418,0.009 1.94678,-0.99262 4.09571,-2.22461 l 3.9082,-2.24023 0.28516,-1.51172 c 0.33236,-1.76068 0.47883,-1.47051 -1.32618,-2.61914 -1.34151,-0.85365 -1.2131,-0.48139 -1.39843,-4.05664 -0.0716,-1.38182 -0.15726,-2.54007 -0.18946,-2.57227 z m -13.07812,1.44141 c -0.0561,-0.0595 -0.75979,0.39472 -1.56445,1.00976 l -1.46485,1.11719 v 0.6582 0.65626 l 0.72461,0.0449 c 0.39933,0.025 0.86716,0.0572 1.03906,0.0703 0.45455,0.0347 2.02344,-0.61056 2.02344,-0.83203 0,-0.28829 -0.64404,-2.60398 -0.75781,-2.72461 z m -7.99414,10.11719 c -0.21138,-0.0218 -0.3644,-0.0227 -0.40625,0.002 -0.0837,0.0493 -0.85845,0.71665 -1.72266,1.48242 l -1.57226,1.39258 0.54101,2.26953 c 0.2973,1.24822 0.54292,2.33948 0.54492,2.42578 0.002,0.0863 -0.4996,0.8556 -1.11328,1.70899 l -1.11523,1.55078 0.39844,0.88086 0.39648,0.8789 1.94922,0.20899 c 1.07211,0.11458 2.04571,0.19227 2.16406,0.17187 0.11834,-0.0205 0.81323,-0.45595 1.54297,-0.96679 l 1.32617,-0.92774 0.0137,-0.75781 c 0.007,-0.41669 0.0586,-2.20759 0.11329,-3.97852 l 0.0996,-3.21875 -0.69336,-1.39648 -0.69335,-1.39453 -1.01368,-0.20899 c -0.27887,-0.0575 -0.54838,-0.10124 -0.75976,-0.12304 z m 7.61523,9.93945 c -0.0145,0.026 -0.62805,3.69201 -0.6289,3.75781 -6.7e-4,0.0521 0.53479,0.0937 1.1914,0.0937 h 1.19336 l 0.0742,-0.41015 c 0.3014,-1.67034 0.53635,-3.19438 0.49805,-3.23438 -0.0315,-0.033 -2.31213,-0.23583 -2.32813,-0.20703 z m 7.26367,0.0234 c -0.28058,0.0105 -0.29564,0.17163 -0.49023,0.95703 -0.0859,0.34656 -0.0849,0.34765 0.5957,0.34765 h 0.68164 l 0.14844,-0.58398 c 0.0808,-0.32097 0.12988,-0.59994 0.10938,-0.61914 -0.0205,-0.0192 -0.31827,-0.0557 -0.66016,-0.0801 -0.16917,-0.0121 -0.29124,-0.025 -0.38477,-0.0215 z m 48.37891,17.77343 c -1.17033,-0.0474 -1.80674,0.10193 -5.04687,0.77149 l -3.60938,0.74609 -1.3125,1.71485 c -2.28831,2.98849 -2.52114,3.37968 -2.29101,3.88476 0.13401,0.29413 0.30398,0.41212 0.51171,0.35352 0.17108,-0.0483 0.67328,-0.13963 1.11524,-0.20313 1.30434,-0.18727 1.32901,-0.20516 3.0039,-2.10742 l 1.60743,-1.82422 3.62109,-0.51758 c 3.52538,-0.50335 3.65103,-0.53482 4.74805,-1.22265 1.72164,-1.07947 1.58675,-1.30817 -0.88282,-1.4961 -0.62495,-0.0476 -1.07473,-0.0838 -1.46484,-0.0996 z m -68.22852,0.2461 -0.80078,1.11133 c -0.44065,0.61198 -0.84137,1.11328 -0.88867,1.11328 -0.0473,0 -0.71525,-0.14279 -1.48437,-0.31641 -0.76913,-0.17362 -1.42378,-0.31445 -1.45508,-0.31445 -0.0313,0 -0.3047,0.60371 -0.60742,1.34179 l -0.54883,1.3418 -1.20117,-0.084 c -0.65976,-0.0461 -1.60978,-0.11776 -2.11328,-0.16016 l -0.91602,-0.0781 v 0.96093 0.96094 l 0.53711,0.14649 c 0.29516,0.0811 1.09188,0.29813 1.77148,0.48242 l 1.23633,0.33594 3.4668,3.27734 c 2.7379,2.58779 3.4697,3.34564 3.4707,3.5957 8.3e-4,0.1742 -0.0966,1.31005 -0.21484,2.52539 -0.18437,1.89542 -0.27291,2.35423 -0.6211,3.22071 l -0.40429,1.00976 -2.06055,0.0352 -2.05859,0.0332 -1.29883,-0.52148 -1.29883,-0.52149 v -1.38086 -1.3789 l -0.59961,0.0644 c -0.32987,0.0351 -1.39492,0.0941 -2.36719,0.13086 l -1.76953,0.0664 -1.83008,-2.09374 -1.83007,-2.09571 -1.26368,0.0723 c -0.69448,0.0396 -2.42788,0.10483 -3.85156,0.14453 -1.42368,0.0397 -2.70699,0.0959 -2.85156,0.125 -0.18893,0.0381 -0.36182,0.3002 -0.61523,0.92969 l -0.35157,0.875 1.53321,1.49609 1.53125,1.49414 0.57421,2.45703 c 0.31513,1.35204 0.58386,2.46942 0.59766,2.48242 0.0138,0.013 1.3441,1.01733 2.95703,2.23047 l 2.9336,2.20508 1.86523,0.28906 c 1.02609,0.15865 3.20001,0.49996 4.83203,0.75977 1.63203,0.25982 3.08186,0.47933 3.2207,0.48633 0.32744,0.0164 4.50062,-1.36381 4.68946,-1.55078 0.0793,-0.0785 1.51544,-2.81242 3.1914,-6.07618 l 3.04688,-5.93359 0.12891,-6.29883 c 0.0707,-3.46393 0.11209,-6.31122 0.0918,-6.32812 -0.0203,-0.017 -1.00297,-0.56095 -2.18359,-1.20899 -1.96319,-1.07759 -2.23376,-1.1918 -3.16797,-1.32031 z m 49.8125,11.6543 c -0.24852,-0.0103 -0.4454,-0.008 -0.64062,0.004 l -0.52539,0.0312 -1.16797,0.82422 -1.16992,0.82422 0.1582,0.31836 c 0.0874,0.17477 0.23011,0.44428 0.31641,0.59961 0.13037,0.23474 0.17325,0.27866 0.25195,0.25976 0.0521,-0.0125 1.08799,-0.20563 2.30274,-0.42968 1.21475,-0.22405 2.21184,-0.41102 2.21484,-0.41602 0.01,-0.0167 0.27748,-1.83775 0.27148,-1.84375 -0.004,-0.003 -0.48478,-0.0504 -1.06836,-0.10352 -0.39548,-0.0358 -0.69483,-0.058 -0.94336,-0.0684 z m -37.63671,10.41796 c 0,0.009 -0.11321,0.60485 -0.25196,1.32422 -0.13875,0.71938 -0.26108,1.36249 -0.27148,1.42969 -0.0156,0.10081 0.32992,0.39332 1.97851,1.67383 1.0991,0.8537 2.03187,1.58385 2.07227,1.62304 0.0599,0.058 0.0508,0.21218 -0.0449,0.82813 -0.0646,0.41575 -0.0989,0.78497 -0.0762,0.82227 0.0227,0.0373 0.53856,0.66397 1.14453,1.39062 0.60598,0.72665 1.10156,1.36999 1.10156,1.42969 0,0.16924 -0.66588,3.44127 -0.70898,3.48437 -0.0327,0.0327 -3.27906,-0.52336 -3.31836,-0.56836 -0.008,-0.009 -0.18524,-0.90097 -0.39453,-1.98437 -0.20929,-1.0834 -0.39146,-2.01045 -0.40626,-2.06055 -0.0206,-0.0695 -0.15975,-0.10664 -0.58398,-0.15234 -0.3056,-0.0329 -0.55945,-0.0558 -0.56445,-0.0508 -0.005,0.005 0.0885,1.44652 0.20703,3.20508 l 0.21484,3.19726 -0.41406,1.85547 -0.41406,1.85547 -0.0547,3.08398 -0.0527,3.08399 -0.63868,0.86914 -0.63867,0.86914 0.0156,1.58398 0.0156,1.58594 1.65625,0.52344 c 0.91068,0.2889 1.6964,0.52729 1.7461,0.52929 0.0497,0.002 0.58625,-0.34168 1.19335,-0.76562 0.6071,-0.42394 1.14562,-0.77182 1.19532,-0.77148 0.0497,3.2e-4 1.3868,0.0512 2.97265,0.11328 1.58584,0.0621 3.0153,0.11489 3.17579,0.11523 h 0.29101 l 0.64649,0.82813 0.64648,0.82617 0.94531,-0.002 0.94727,-0.002 1.29492,-1.98047 c 0.71288,-1.08996 1.33029,-2.02673 1.37109,-2.08203 0.0693,-0.0941 0.16741,-0.0715 1.50196,0.35547 0.78507,0.25115 1.45608,0.45657 1.49218,0.45703 0.0361,4.5e-4 0.86409,-0.77299 1.83985,-1.71875 l 1.77344,-1.71875 -0.0293,-0.32226 c -0.0163,-0.1769 -0.0906,-1.25691 -0.16602,-2.4004 l -0.13672,-2.08007 -0.25,-0.26172 c -0.66834,-0.69914 -2.2063,-2.4021 -2.2539,-2.4961 -0.0296,-0.0584 -0.21758,-1.09567 -0.41602,-2.30468 l -0.35937,-2.19727 1.15234,-1.7832 c 0.63389,-0.98029 1.16514,-1.81638 1.18164,-1.85938 0.0318,-0.0829 0.30426,-2.34418 0.28516,-2.36718 -0.006,-0.007 -1.15168,-0.0788 -2.54688,-0.15821 -1.3952,-0.0794 -2.62748,-0.1628 -2.73828,-0.1875 -0.12229,-0.0272 -1.59233,-0.98751 -3.74023,-2.4414 l -3.53907,-2.39453 -1.82617,0.0352 c -1.00489,0.0196 -2.41836,0.039 -3.14062,0.043 l -1.3125,0.008 -0.51367,-0.91015 -0.51172,-0.91016 -0.34375,-0.0312 c -0.49496,-0.0426 -1.40039,-0.085 -1.40039,-0.0664 z"
       transform="scale(0.26458333)"
       sodipodi:nodetypes="ccccsssccccccccscccssccssssssccccccccccsccccssccssscccccccsscsssscccccsscccccccscccccccccsccccsssssccccssssssccssccccsccccccccssssccssssscssssscccscscccsssccsssccsccccccccsscccccccccccccssscccccscccssssccssccscccccssscccsssssssssssssssccccccccccccsssscccccccssssccccsscccssssccccccccsccccccs"
       inkscape:label="Sulangan" />
    <path
       id="Binaobao"
       style="fill:#d7eef4;stroke:none;stroke-width:0.0223566;stroke-linejoin:round"
       d="m 426.12695,529.7461 c 0,0 -1.0931,0.85065 -2.35346,1.82455 l -2.28912,1.73795 -0.69335,1.56445 c -0.37655,0.84306 -0.69222,1.55948 -0.69142,1.58398 10e-4,0.0366 3.10655,6.06198 4.78913,9.30435 l 0.0608,0.11801 c 0.41282,0.79548 0.38582,0.74688 0.38582,0.74688 0.2538,-0.14614 7.25245,-4.59478 7.3678,-4.66528 l 0.14063,-0.10937 -1.71094,-1.14064 c -0.91725,-0.62315 -1.65036,-1.10788 -1.67187,-1.13281 -0.0111,-0.0128 0.40038,-0.9331 0.87891,-2.01953 0.47826,-1.08583 0.91796,-1.99685 0.91796,-2.00585 0,-0.0407 -5.10742,-5.82618 -5.10742,-5.82618 z m -21.70507,19.37109 c -0.0513,0 -2.23363,0.87665 -2.26563,0.91015 -0.0142,0.0148 0.12203,1.04586 0.14063,1.06446 0.006,0.006 0.40631,0.0534 0.89062,0.10742 0.48432,0.0539 0.90128,0.0948 0.92578,0.0898 0.0906,-0.0171 1.91392,-0.45298 1.91992,-0.45898 0.008,-0.008 -0.0984,-1.49491 -0.10742,-1.50391 -0.01,-0.01 -1.44221,-0.20898 -1.5039,-0.20898 z m -14.07227,4.46289 c -0.0454,0 -0.6253,0.21819 -0.6543,0.24609 -0.0108,0.0103 -0.0497,0.44047 -0.0859,0.95508 l -0.0645,0.93555 0.24805,0.46679 c 0.13673,0.25672 0.25753,0.47599 0.26953,0.48829 0.012,0.0122 0.29686,0.0534 0.63086,0.0918 0.334,0.0384 0.63738,0.0713 0.67578,0.0723 0.0614,0.002 0.1274,-0.0487 0.53711,-0.4336 0.25626,-0.24076 0.51015,-0.48205 0.56445,-0.53515 l 0.0977,-0.0957 -0.15234,-0.88867 c -0.0836,-0.48878 -0.15902,-0.89629 -0.16602,-0.90429 -0.0149,-0.0164 -1.83679,-0.39844 -1.90039,-0.39844 z"
       transform="scale(0.26458333)"
       sodipodi:nodetypes="ccccsccscccsssccssscssssscccsscsccccscsc" />
    <path
       style="fill:#d7eef4;stroke:#002b22;stroke-width:0.0894263;stroke-linejoin:round"
       d="m 660.70904,398.71065 -0.93157,-0.42038 -0.87751,-1.30293 -0.87752,-1.30292 -0.52739,-3.02639 c -0.29006,-1.66451 -0.52799,-3.03291 -0.52873,-3.04087 -7.4e-4,-0.008 -1.08395,-0.94892 -2.40712,-2.091 -1.92489,-1.66144 -2.38965,-2.10472 -2.32509,-2.21766 0.0444,-0.0776 0.43389,-0.55768 0.86559,-1.06679 l 0.78491,-0.92564 3.72908,-1.77525 3.72908,-1.77525 h 2.01196 2.01195 l 5.08944,3.90625 5.08943,3.90625 -0.0604,2.23735 -0.0604,2.23734 1.44653,0.23219 c 0.79559,0.12771 1.46141,0.24707 1.47959,0.26526 0.0336,0.0336 0.30734,2.16173 0.28059,2.18155 -0.008,0.006 -0.75945,0.49676 -1.66979,1.09067 l -1.65517,1.07982 -5.33836,0.0623 -5.33835,0.0623 -0.6404,0.45805 c -0.35223,0.25193 -1.02478,0.72539 -1.49456,1.05214 l -0.85414,0.5941 z"
       id="path268"
       transform="scale(0.26458333)" />
    <path
       style="fill:#d7eef4;stroke:#002b22;stroke-width:0.0099284;stroke-linejoin:round"
       d="m 192.65734,131.71173 c -0.37161,-0.44215 -0.50801,-0.61109 -0.5103,-0.63207 -0.002,-0.0157 0.0634,-0.54968 0.14466,-1.18652 l 0.14779,-1.15789 -0.14736,-1.32744 c -0.0811,-0.73009 -0.14749,-1.34314 -0.14766,-1.36232 -2.3e-4,-0.0289 0.0931,-0.18487 0.54845,-0.9159 l 0.54877,-0.88102 0.58674,-0.005 0.58675,-0.005 1.01156,-0.10228 1.01157,-0.10227 0.85263,0.68705 0.85263,0.68705 0.29778,1.03515 0.29778,1.03517 -0.29572,1.47646 c -0.16266,0.81206 -0.29898,1.48342 -0.30294,1.49191 -0.0106,0.0228 -2.00821,1.80203 -2.0233,1.80212 -0.007,5e-5 -0.64785,0.015 -1.42391,0.0333 -0.77606,0.0183 -1.43751,0.0332 -1.46988,0.0333 l -0.0589,7e-5 z"
       id="Balete"
       inkscape:label="Balete" />
    <path
       id="Patao"
       style="fill:#d7eef4;stroke:none;stroke-width:0.126468;stroke-linejoin:round"
       d="m 340.89575,340.9773 c -0.0519,-0.0519 -1.41552,0.18281 -2.62908,0.34586 l -2.26413,0.32543 -1.36208,2.11644 -1.37831,2.04506 -0.1621,3.09375 -0.13552,3.12425 -2.80093,3.81205 c -1.38988,1.88865 -2.43614,3.10235 -2.82508,3.8284 -0.37032,0.69128 -0.35689,0.99539 -0.69497,1.96758 l -0.65723,1.85606 0.6836,3.48048 c 0.58756,1.49683 0.70918,1.82104 3.62695,9.37304 1.98615,5.14067 3.61133,9.23194 3.61133,9.30274 0,0.0708 -0.39915,0.65089 -0.83984,1.33789 -0.4407,0.687 -1.10151,1.59725 -1.12711,1.70022 -0.0272,0.1092 5.35446,2.22683 12.51382,5.32907 6.75037,2.92502 12.48347,5.42278 12.57227,5.42578 0.0888,0.003 1.56684,-0.73296 3.29884,-1.53124 l 3.05736,-1.37657 12.32594,-3.34046 c 6.70595,-1.82581 12.37682,-3.42436 12.43232,-3.44386 0.0555,-0.0195 -1.60863,-4.21997 -3.41914,-9.29615 -1.79931,-5.04474 -3.53052,-9.31509 -3.44922,-9.42382 0.13755,-0.18398 5.30999,-13.53901 6.45638,-16.30726 l 0.30927,-0.87181 -15.51565,0.15647 c -8.46695,0.0584 -17.83882,0.15424 -20.82617,0.21093 l -5.40759,0.0353 -1.38845,1.19704 -1.12132,0.95396 -1.80335,-1.91368 c -1.55837,-1.8201 -1.78038,-1.55474 -1.73827,-2.09375 0.12251,-1.56814 0.74056,-11.33608 0.65746,-11.41918 z m -23.44263,31.69653 c -0.0524,0 -0.49723,0.50919 -0.98828,1.13086 l -0.89257,1.1289 0.24414,1.30079 c 0.13471,0.7152 0.2773,1.43331 0.3164,1.5957 0.0621,0.25785 0.0987,0.27414 0.28711,0.12695 0.26917,-0.21025 2.67732,-2.23593 2.91406,-2.45117 0.14528,-0.13208 0.0114,-0.38124 -0.80664,-1.49609 -0.53937,-0.7351 -1.02182,-1.33594 -1.07422,-1.33594 z"
       transform="scale(0.26458333)"
       sodipodi:nodetypes="scccccccscccsssssccccsssccccccccssscccsssssc"
       inkscape:label="Patao" />
    <path
       style="fill:#d7eef4;stroke:none;stroke-width:0.0447132;stroke-linejoin:round"
       d="m 430.11122,554.49918 c -3.18773,-2.51796 -5.79461,-4.67516 -5.82495,-4.70376 -0.0432,-0.0408 0.11324,-0.27688 0.59906,-1.10504 l 0.61126,-1.096 3.9746,-2.56375 c 2.1673,-1.39798 4.02627,-2.52078 4.04167,-2.52078 0.0306,0 4.62098,9.31924 4.64833,9.38431 0.008,0.0191 -0.51115,0.44408 -1.08816,0.93128 -0.57701,0.4872 -1.0413,0.87243 -1.0413,0.88948 0,0.0171 0.66859,1.18963 1.481,2.6105 0.81241,1.42088 1.54063,2.69431 1.56391,2.73728 0.0399,0.0737 -0.1107,0.0339 -1.55967,0.0339 h -1.58541 z"
       id="Suba"
       transform="scale(0.26458333)"
       sodipodi:nodetypes="ssscsssssssscs" />
    <path
       style="fill:#d7eef4;stroke:none;stroke-width:0.178853;stroke-linejoin:round"
       d="m 497.67168,550.5106 c -0.0173,2.1e-4 -1.71568,-5.7991 -3.65431,-12.57605 -1.93856,-6.77671 -3.45756,-12.44179 -3.56709,-12.55071 -0.10953,-0.10893 -3.2513,-1.04606 -6.90532,-2.31169 -3.65401,-1.26563 -6.96205,-2.41094 -6.89285,-2.46874 0.0692,-0.0578 14.0499,-10.04998 30.94032,-21.98947 l 30.8136,-21.97276 9.40469,-1.23908 c 5.15081,-0.67863 9.50254,-1.21785 9.52003,-1.22887 0.0568,-0.0358 1.2917,4.61847 2.82497,10.06936 1.53327,5.45089 2.86425,10.00188 2.93535,10.12913 0.10217,0.18286 23.79069,12.85162 25.25334,13.61189 l 5.53524,2.87718 -10.2376,15.69536 c -5.63068,8.63245 -10.56137,16.03327 -10.63243,16.15024 -0.0711,0.11698 -5.61977,1.24996 -12.44495,2.78555 l -12.58139,2.83067 -14.85268,0.95337 c -13.25623,0.8509 -15.66825,0.92817 -23.41428,1.02474 -4.7634,0.0594 -9.41456,0.16375 -10.31374,0.17564 -0.90826,0.012 -0.99972,0.0253 -1.09418,0.0264 z"
       id="Mojon"
       transform="scale(0.26458333)"
       sodipodi:nodetypes="sssssscssssscssscsssss"
       inkscape:label="Mojon" />
    <path
       style="fill:#d7eef4;stroke:none;stroke-width:0.228744;stroke-linejoin:round"
       d="m 508.33833,598.41048 c -0.12065,-0.41196 -9.78777,-44.85234 -10.28241,-46.16885 l -0.18515,-0.83817 9.82156,-0.17587 c 7.8308,-0.14022 13.82985,-0.2847 25.41413,-1.03914 l 14.95175,-0.97375 12.10103,-2.72964 c 6.65279,-1.50067 12.62375,-2.83951 12.65153,-2.81173 0.082,0.082 -15.46428,45.30175 -15.6351,45.48114 -0.0858,0.0902 -5.01756,0.0125 -10.73101,0.0585 l -10.19993,0.082 -7.35898,1.91517 c -6.81981,1.77485 -8.88216,2.02797 -10.60788,2.15493 l -4.10827,0.30225 -2.28385,1.89358 c -1.26888,1.05204 -2.55224,2.12175 -2.82299,2.36243 -0.47382,0.42121 -0.60626,0.89065 -0.72443,0.48715 z"
       id="Obo-ob"
       transform="scale(0.26458333)"
       sodipodi:nodetypes="sscsscsssscsscsss"
       inkscape:label="Obo-Ob" />
    <path
       style="fill:#d7eef4;stroke:#002b22;stroke-width:0.0808732;stroke-linejoin:round"
       d="m 166.35644,836.80746 -2.52592,-1.38868 -1.91511,-2.87375 -1.9151,-2.87376 -0.43664,-2.79832 c -0.25878,-1.6585 -0.40678,-2.82599 -0.36335,-2.86627 0.0503,-0.0466 62.83064,-25.37336 64.62105,-26.0693 0.0953,-0.037 0.10333,0.28762 0.0526,2.12898 l -0.0598,2.17268 -1.74828,5.07779 -1.74828,5.07779 -4.15842,2.47465 -4.15842,2.47464 -5.61185,1.76244 c -5.06772,1.59156 -25.32425,8.41999 -25.56661,8.61844 -0.0502,0.0411 -1.29636,2.12093 -2.76929,4.62186 l -2.67804,4.54714 -1.16438,0.65913 -1.16437,0.65913 -2.08192,-0.008 -2.08191,-0.008 z"
       id="Luyongbaybay"
       transform="scale(0.26458333)" />
    <path
       style="fill:#d7eef4;stroke:#002b22;stroke-width:0.0808732;stroke-linejoin:round"
       d="m 251.40318,763.28973 c -0.96408,-0.0508 -1.77229,-0.11184 -1.79602,-0.13556 -0.0237,-0.0237 -0.54691,-1.07594 -1.16264,-2.33826 l -1.11951,-2.29511 -0.0494,-1.82522 -0.0494,-1.82523 2.81393,-2.63754 2.81394,-2.63754 0.77231,-3.08698 c 0.7562,-3.02256 0.78845,-3.12497 1.54514,-4.90645 l 0.77282,-1.81945 1.46118,-1.57188 c 0.80365,-0.86453 1.54484,-1.66272 1.64709,-1.77374 0.16874,-0.18321 0.21671,-0.44802 0.51917,-2.86579 0.18329,-1.46516 0.359,-2.68696 0.39047,-2.7151 0.0315,-0.0281 0.80209,-0.29661 1.7125,-0.59659 1.48193,-0.48829 2.23292,-0.8158 7.17045,-3.12711 3.04216,-1.42407 5.57808,-2.56524 5.65548,-2.545 0.0772,0.0202 1.60075,0.61151 3.3857,1.31406 l 3.24535,1.27737 0.51329,0.65518 0.51328,0.65519 -0.29849,1.04685 -0.29848,1.04685 -1.62645,2.31974 c -1.30624,1.86304 -1.62662,2.37174 -1.62733,2.58387 -8.1e-4,0.24011 0.3291,3.8069 0.35373,3.82445 0.0317,0.0226 4.21512,3.29137 4.24464,3.31662 0.0194,0.0166 0.15337,0.96511 0.29764,2.10775 l 0.26231,2.07752 -0.70906,0.72672 c -0.38998,0.39969 -2.04667,2.10747 -3.68154,3.79506 -1.63486,1.68759 -3.01216,3.08453 -3.06066,3.10431 -0.0485,0.0198 -4.3482,1.32809 -9.55489,2.90736 l -9.4667,2.8714 -1.64964,1.59423 c -1.50593,1.45533 -1.67307,1.59319 -1.91849,1.58233 -0.14786,-0.007 -1.05763,-0.0535 -2.02172,-0.10431 z"
       id="Botigues"
       transform="scale(0.26458333)" />
    <path
       style="fill:#d7eef4;stroke:#002b22;stroke-width:0.0808732;stroke-linejoin:round"
       d="m 187.27104,619.88236 c -2.10949,-1.44189 -3.88994,-2.65244 -3.95656,-2.69009 -0.10387,-0.0587 -0.0589,-0.31142 0.31619,-1.77478 l 0.43731,-1.70631 -0.23544,-0.22976 c -0.1295,-0.12637 -2.54276,-2.37804 -5.36282,-5.0037 -2.82005,-2.62566 -5.15818,-4.81876 -5.19583,-4.87355 -0.0442,-0.0643 0.18228,-0.55697 0.63909,-1.39018 0.38916,-0.70981 0.71329,-1.29925 0.72028,-1.30987 0.007,-0.0106 1.30868,0.0557 2.89263,0.14741 l 2.87991,0.16671 1.43416,-1.08135 c 0.78878,-0.59475 1.47871,-1.10781 1.53317,-1.14013 0.0545,-0.0323 0.92104,0.0408 1.92573,0.16253 l 1.82671,0.22131 9.18983,8.53411 9.18983,8.53411 0.39075,-0.0431 c 0.21491,-0.0237 1.15379,-0.14127 2.08641,-0.2612 0.93262,-0.11993 1.70243,-0.2138 1.7107,-0.2086 0.0426,0.0268 -0.22167,1.85942 -0.27521,1.90862 -0.0345,0.0317 -1.06204,0.42003 -2.28332,0.86286 l -2.22052,0.80514 -3.83543,-0.34892 c -2.10949,-0.19191 -3.98931,-0.35027 -4.17738,-0.35191 -0.31474,-0.003 -0.55237,0.14034 -2.9876,1.79901 -1.45512,0.9911 -2.682,1.82254 -2.72641,1.84765 -0.0444,0.0251 -1.80669,-1.13408 -3.91618,-2.57596 z"
       id="Hilotongan"
       transform="scale(0.26458333)"
       inkscape:label="Hilotongan" />
    <path
       style="fill:#d7eef4;stroke:none;stroke-width:0.161746;stroke-linejoin:round"
       d="m 385.60937,380.17517 -3.38423,-9.13473 3.41571,-8.63126 c 1.87914,-4.74845 3.41872,-8.56069 3.43261,-8.58158 0.0139,-0.0209 3.78496,-0.82611 8.36036,-1.84533 11.41528,-2.54287 6.0318,-1.96442 21.08305,-1.46053 8.35726,0.27979 8.86281,0.12741 15.13641,0.95796 3.29123,0.43573 5.89028,0.81293 5.92008,0.83764 0.0415,0.0344 -4.58655,28.83413 -4.65068,28.93736 -0.008,0.0127 -4.26734,0.25752 -9.42129,0.44283 l -9.52701,0.43887 -13.12225,3.62389 c -7.31979,2.02146 -13.80499,3.72912 -13.90054,3.76028 -0.099,0.0323 -1.47853,-4.09571 -3.34222,-9.3454 z"
       id="Putian"
       transform="scale(0.26458333)"
       sodipodi:nodetypes="scsssssssscsss"
       inkscape:label="Putian" />
    <path
       style="fill:#d7eef4;stroke:#002b22;stroke-width:0.228744;stroke-linejoin:round"
       d="m 156.90155,819.78866 -1.79571,-3.03171 0.55271,-1.71288 0.55272,-1.71288 4.0813,-2.83486 4.08129,-2.83485 2.64292,0.64104 c 1.45361,0.35257 2.75899,0.68384 2.90084,0.73616 0.14186,0.0523 1.39501,-0.91315 2.78479,-2.14549 l 2.52687,-2.2406 0.95809,-2.83587 0.95808,-2.83587 -0.75901,-2.50474 c -0.48948,-1.61526 -0.84541,-3.4191 -1.00227,-5.07951 l -0.24325,-2.57476 -1.77961,-1.41947 c -0.97879,-0.7807 -1.74959,-1.49519 -1.71288,-1.58774 0.0367,-0.0925 0.75961,-0.75362 1.60647,-1.46904 l 1.53974,-1.30077 2.49399,1.93952 c 3.68475,2.86554 3.12623,2.74833 5.25033,1.10185 l 1.82833,-1.41722 h 5.90824 5.90824 l 1.63655,-3.77506 1.63655,-3.77507 -0.45317,-1.19229 c -0.30125,-0.79259 -0.45321,-1.74978 -0.45328,-2.85524 -1.3e-4,-1.78884 -0.0355,-1.74031 1.44977,-1.98797 l 0.87892,-0.14655 -0.1312,-1.75541 c -0.0721,-0.96548 -0.15935,-2.76669 -0.19377,-4.0027 l -0.0626,-2.24728 1.26779,-0.89563 1.26779,-0.89564 1.2766,0.69144 c 0.70212,0.38028 1.37584,0.81825 1.49716,0.97326 0.12131,0.15501 0.54721,1.14787 0.94643,2.20635 l 0.72586,1.92451 -0.93392,0.9516 -0.93392,0.9516 0.86887,1.40357 0.86886,1.40358 5.93799,-0.006 c 5.65193,-0.005 8.06726,-0.21705 9.04204,-0.79293 0.17695,-0.10453 2.58163,-1.78461 5.34376,-3.73349 3.65214,-2.57686 5.45879,-3.7048 6.62314,-4.13501 l 1.6011,-0.59157 2.50396,2.59495 2.50396,2.59496 -1.59043,-0.15263 -1.59042,-0.15264 -3.1554,3.35995 -3.1554,3.35994 0.13897,1.51302 c 0.0764,0.83216 0.19306,1.98238 0.25918,2.55604 l 0.12022,1.04302 -1.39442,0.38769 c -0.76694,0.21322 -1.43529,0.51466 -1.48525,0.66986 -0.0499,0.15519 -0.36932,1.49145 -0.70972,2.96945 l -0.6189,2.68727 -1.90676,1.08107 -1.90675,1.08106 -0.002,4.37196 c -0.001,3.28495 -0.0725,4.39957 -0.28698,4.48301 -0.15702,0.0611 -14.6223,5.89387 -32.14508,12.96178 -17.52278,7.06791 -32.06514,12.88952 -32.31636,12.93691 -0.37421,0.0706 -0.78133,-0.4618 -2.25248,-2.94554 z"
       id="Doong"
       transform="scale(0.26458333)" />
    <path
       style="fill:none;stroke:#000000;stroke-width:0.3;stroke-opacity:1"
       d="m 116.44215,93.05704 2.17536,-6.46565 c 0,0 0.60427,-1.691949 0.84597,-3.565172 0.17986,-1.393934 -0.54383,-3.263042 -0.54383,-3.263042"
       id="path10441"
       sodipodi:nodetypes="ccsc" />
    <path
       style="fill:none;stroke:#000000;stroke-width:0.3;stroke-opacity:1"
       d="m 107.2422,131.12583 13.55067,3.83709"
       id="path10806"
       sodipodi:nodetypes="cc" />
    <path
       style="fill:none;stroke:#000000;stroke-width:0.3;stroke-opacity:1"
       d="m 118.44228,39.138934 15.16847,-2.179133"
       id="path10808" />
    <path
       style="fill:none;stroke:#000000;stroke-width:0.3;stroke-opacity:1"
       d="m 105.27833,70.880461 2.46239,0.785545 10.41108,-3.106788 c 0,0 1.7951,1.898257 1.7951,4.557028 0,2.658771 -0.96683,6.646931 -0.96683,6.646931"
       id="path11536"
       sodipodi:nodetypes="cccsc" />
    <path
       style="fill:none;stroke:#000000;stroke-width:0.3;stroke-opacity:1"
       d="m 118.20193,68.519838 5.28226,-3.145856 8.37471,-2.563685 13.89018,-1.779381"
       id="path11538"
       sodipodi:nodetypes="cccc" />
    <path
       style="fill:none;stroke:#000000;stroke-width:0.3;stroke-opacity:1"
       d="m 108.30504,65.630353 9.19722,-0.170913 7.94742,-3.076424 7.05013,0.341826"
       id="path11540"
       sodipodi:nodetypes="cccc" />
    <path
       style="fill:none;stroke:#000000;stroke-width:0.3;stroke-opacity:1"
       d="m 122.72027,33.820804 1.63777,4.489693 0.36257,3.867303 -1.20854,6.344798 -2.17536,6.284373 -1.45024,5.196693 0.30213,4.411145"
       id="path11542"
       sodipodi:nodetypes="ccccccc" />
    <path
       style="fill:none;stroke:#000000;stroke-width:0.3;stroke-opacity:1"
       d="m 110.27864,60.245369 9.60783,-0.120853"
       id="path11544"
       sodipodi:nodetypes="cc" />
    <path
       style="fill:none;stroke:#000000;stroke-width:0.3;stroke-opacity:1"
       d="m 111.97058,55.592518 9.29815,-0.13596"
       id="path11546"
       sodipodi:nodetypes="cc" />
    <path
       style="fill:none;stroke:#000000;stroke-width:0.3;stroke-opacity:1"
       d="m 115.05234,45.742973 8.52016,2.537921"
       id="path11548" />
    <path
       style="fill:none;stroke:#000000;stroke-width:0.3;stroke-opacity:1"
       d="m 122.84738,50.577106 5.31754,0.151067 2.80983,-0.453202 9.57764,-0.120856"
       id="path11550"
       sodipodi:nodetypes="cccc" />
    <path
       style="fill:none;stroke:#000000;stroke-width:0.3;stroke-opacity:1"
       d="m 128.40663,50.697958 3.44432,12.024904"
       id="path11552"
       sodipodi:nodetypes="cc" />
    <path
       style="fill:none;stroke:#000000;stroke-width:0.3;stroke-opacity:1"
       d="m 124.66018,42.902923 5.37797,-0.906402 8.46675,1.510667"
       id="path11554"
       sodipodi:nodetypes="ccc" />
    <path
       style="fill:none;stroke:#000000;stroke-width:0.3;stroke-opacity:1"
       d="m 130.24965,41.996521 0.63447,8.338878"
       id="path11556"
       sodipodi:nodetypes="cc" />
    <path
       style="fill:#d7eef4;fill-opacity:1;stroke:none;stroke-width:0.3;stroke-opacity:1"
       d="m 123.32396,33.295867 -0.47001,0.512736 1.59162,4.304856 8.3213,-1.175023 -3.67462,-0.555463 -3.46097,-2.755964 z"
       id="Poblacion"
       inkscape:label="Poblacion" />
    <path
       style="fill:#d7eef4;fill-opacity:1;stroke:none;stroke-width:0.3;stroke-opacity:1"
       d="m 122.66168,34.075655 -2.10436,2.478228 -1.38867,0.02135 -0.56624,2.39994 5.55925,-0.785545 z"
       id="Talangnan"
       inkscape:label="Talangnan" />
    <path
       style="fill:#d7eef4;fill-opacity:1;stroke:none;stroke-width:0.3;stroke-opacity:1"
       d="m 124.22125,38.43392 -5.72556,0.822515 -3.24734,6.409216 8.21448,2.4355 0.64092,-3.332792 0.48069,-2.595731 z"
       id="Tarong"
       inkscape:label="Tarong" />
    <path
       style="fill:#d7eef4;fill-opacity:1;stroke:none;stroke-width:0.3;stroke-opacity:1"
       d="m 124.4883,38.380511 0.37387,3.813482 -0.0961,0.555466 5.29829,-0.897292 3.17256,0.566147 5.04191,0.907974 -0.61955,-1.164342 -4.05917,-5.073962 z"
       id="Mancilang"
       inkscape:label="Mancilang" />
    <path
       style="fill:#d7eef4;fill-opacity:1;stroke:none;stroke-width:0.3;stroke-opacity:1"
       d="m 124.6699,42.984462 -1.02548,5.533289 -0.67297,1.933446 5.18078,0.160231 2.58506,-0.4166 -0.60888,-8.043563 -0.10682,-0.02135 z"
       id="Tugas"
       inkscape:label="Tugas" />
    <path
       style="fill:#d7eef4;fill-opacity:1;stroke:none;stroke-width:0.3;stroke-opacity:1"
       d="m 138.42834,43.625383 -8.04356,-1.442072 0.61955,7.958106 8.11834,-0.10682 1.17502,-0.02135 -0.34182,-3.514386 z"
       id="Malbago"
       inkscape:label="Malbago" />
    <path
       style="fill:#d7eef4;fill-opacity:1;stroke:none;stroke-width:0.3;stroke-opacity:1"
       d="m 115.13085,45.900654 -0.24569,0.502055 -2.76351,9.053848 4.07124,-0.06042 4.86435,-0.05287 1.66173,-4.924772 0.67225,-1.956313 v -0.09064 l -4.04859,-1.216086 z"
       id="Maalat"
       inkscape:label="Maalat" />
    <path
       style="fill:#d7eef4;fill-opacity:1;stroke:none;stroke-width:0.3;stroke-opacity:1"
       d="m 122.8927,50.705511 -1.40492,4.086352 -0.3399,1.246302 -0.59671,2.107379 -0.53629,1.873226 0.17373,2.356639 0.12085,1.843013 3.21772,-1.231193 1.91854,-0.755333 6.2164,0.317241 -2.93825,-10.242317 -0.42299,-1.450242 -0.0982,0.0075 z"
       id="Pili"
       inkscape:label="Pili" />
    <path
       style="fill:#d7eef4;fill-opacity:1;stroke:none;stroke-width:0.3;stroke-opacity:1"
       d="m 140.34042,50.290967 -9.37881,0.128183 -2.4355,0.341826 3.41824,11.792953 0.5982,0.04273 6.7724,-0.875924 6.21694,-0.790469 -3.2687,-4.294175 0.0427,-2.136404 -1.85867,-2.969604 z"
       id="Kaongkod"
       inkscape:label="Kaongkod" />
    <path
       style="fill:#d7eef4;fill-opacity:1;stroke:none;stroke-width:0.3;stroke-opacity:1"
       d="m 112.03306,55.738799 -0.53078,1.696731 -0.99704,2.666326 9.24527,-0.113298 1.20854,-4.380934 z"
       id="Bunakan"
       sodipodi:nodetypes="cccccc"
       inkscape:label="Bunakan" />
    <path
       style="fill:#d7eef4;fill-opacity:1;stroke:none;stroke-width:0.3;stroke-opacity:1"
       d="m 110.40704,60.373775 -1.86567,5.0985 4.27518,-0.04532 4.67552,-0.105746 2.55302,-0.989486 -0.27192,-4.086352 z"
       id="Kangwayan"
       inkscape:label="Kangwayan" />
    <path
       style="fill:#d7eef4;fill-opacity:1;stroke:none;stroke-width:0.3;stroke-opacity:1"
       d="m 108.43322,65.747854 -0.47001,1.281843 -2.60641,3.760073 2.39277,0.747742 5.29829,-1.52753 5.106,-1.612987 3.9203,-2.317999 1.3673,-0.843878 5.02055,-1.495483 2.87347,-0.918655 -5.8858,-0.331144 -5.30896,2.082996 -2.62778,1.014793 z"
       id="Tabagak"
       inkscape:label="Tabagak" />
    <path
       style="fill:#d7eef4;fill-opacity:1;stroke:none;stroke-width:0.3;stroke-opacity:1"
       d="m 105.44759,71.088866 0.24302,0.771776 -0.44865,0.897289 -0.0294,0.06409 -0.27773,0.718368 -0.35251,0.934675 -1.57026,-0.189606 -0.91865,0.982747 -1.71981,-0.3712 -0.28307,0.336484 1.38332,0.7424 1.55424,3.316769 -3.113813,0.06409 -1.361959,-1.618326 -1.105588,-0.726379 -0.512739,1.21241 -1.116271,2.617095 2.606415,-0.11216 4.545205,-0.229663 4.00575,-0.176255 6.02467,-0.315119 c 0,0 5.8217,-0.288414 5.8484,-0.288414 0.0267,0 0.37387,-1.677078 0.37387,-1.677078 l 0.30444,-1.639691 0.151,-1.743004 c 0,0 0.37371,-2.307664 -0.32046,-3.829505 -0.66206,-1.451458 -1.29932,-2.166617 -1.29932,-2.166617 l -10.36156,3.119151 z"
       id="Kodia"
       sodipodi:nodetypes="cccccccccccccccccccccscccsccc"
       inkscape:label="Kodia" />
    <path
       style="fill:#d7eef4;fill-opacity:1;stroke:none;stroke-width:0.3;stroke-opacity:1"
       d="m 123.59101,65.45944 -5.23419,3.097786 c 0,0 1.70912,2.456866 1.68776,3.866894 -0.0213,1.410025 -0.0213,1.602303 -0.0213,1.602303 0,0 -0.0427,1.580938 -0.2991,2.862781 l -0.25637,1.281843 -0.32801,1.540803 1.32457,-0.03646 7.59179,0.418431 4.91373,0.21364 5.81101,-0.256368 9.99838,-0.363188 -1.21775,-5.447832 -0.25637,-2.649143 -2.09367,-4.443722 1.19638,-1.559573 -0.47001,-1.132295 0.98275,-1.773216 -1.19639,-1.516849 -7.02877,0.918655 -6.72967,0.833196 z"
       id="San_Agustin"
       sodipodi:nodetypes="cccccccccccccccccccccc"
       inkscape:label="San Agustin" />
    <path
       style="fill:#d7eef4;fill-opacity:1;stroke:none;stroke-width:0.3;stroke-opacity:1"
       d="m 95.732295,81.055193 -1.602304,2.627778 0.256368,1.431391 -2.093677,4.144626 -0.875924,0.341823 0.04273,0.534101 0.619557,0.918655 -0.854562,0.512739 -0.128185,0.982744 0.555466,0.94002 11.258846,-0.08546 4.61464,-0.982745 5.68283,0.170913 3.14052,0.405916 c 0.66012,-2.220245 1.47728,-4.545193 2.24948,-6.84016 0,0 0.67998,-2.517292 0.74408,-3.008666 0.0641,-0.491373 -0.0453,-1.580938 -0.25896,-2.392772 l -0.21364,-0.811835 z"
       id="Kabac"
       sodipodi:nodetypes="cccccccccccccccsscc"
       inkscape:label="Kabac" />
    <path
       style="fill:#d7eef4;fill-opacity:1;stroke:none;stroke-width:0.3;stroke-opacity:1"
       d="m 119.12736,79.921797 c 0,0 0.23793,0.759111 0.28325,0.970603 l 0.0453,0.211495 c 0,0 0.14729,0.740225 0.1624,0.985708 l 0.0151,0.245483 c 0,0 0,0.585385 -0.0529,0.921507 l -0.0529,0.336124 -0.20016,0.993264 -0.27948,1.114115 -0.72328,2.223638 -0.97206,2.862784 -0.76911,2.243224 3.78144,0.331142 3.84553,0.256368 5.50124,0.373873 -0.0855,-6.184892 -0.14955,-3.428929 -0.23501,-4.037806 -7.54151,-0.395235 -1.67095,-0.05396 z"
       id="Kampingganon"
       sodipodi:nodetypes="cscscsccccccccccccccc"
       inkscape:label="Kampingganon" />
    <path
       style="fill:#d7eef4;fill-opacity:1;stroke:none;stroke-width:0.3;stroke-opacity:1"
       d="m 129.4641,80.352338 0.36256,6.601611 0.0604,4.622638 0.0302,2.44728 1.63152,0.105746 4.36582,-0.921507 9.12442,-1.933652 6.02757,-1.284065 -1.82791,-8.293558 -0.42299,-1.843013 -15.83178,0.664692 z"
       id="Atop-Atop"
       inkscape:label="Atop-Atop" />
    <path
       style="fill:#d7eef4;fill-opacity:1;stroke:none;stroke-width:0.3;stroke-opacity:1"
       d="m 116.53286,93.256736 -0.26437,1.629008 -0.16291,0.982745 -0.50472,2.993638 -0.47001,2.980283 -1.68776,10.08383 -0.89729,5.51193 -0.0641,5.78965 11.32294,-0.25637 2.86278,-10.8743 2.13641,-7.32786 1.49548,-4.935099 0.8332,-3.995076 0.2991,-1.495483 z"
       id="Kabangbang"
       inkscape:label="Kabangbang" />
    <path
       style="fill:#d7eef4;fill-opacity:1;stroke:none;stroke-width:0.3;stroke-opacity:1"
       d="m 131.6506,94.322266 -0.47535,2.301976 -0.45933,2.205839 -0.22432,1.121611 -0.57683,1.864018 -0.58217,1.90674 -0.28394,0.91385 3.34613,0.86863 3.82198,0.98193 4.13923,1.07258 1.88833,-1.12545 2.41707,-1.46535 0.0982,-0.0604 1.85812,-1.3596 1.61642,-1.20098 1.19342,-0.89129 4.96254,0.79309 -0.49097,-5.664994 -2.72675,-6.367457 -5.49882,1.148106 -4.59998,0.974379 -4.84169,1.019699 z"
       id="Tamiao"
       inkscape:label="Tamiao" />
    <path
       style="fill:#d7eef4;fill-opacity:1;stroke:none;stroke-width:0.3;stroke-opacity:1"
       d="m 123.72357,123.17972 -11.42064,0.24171 -8.33888,0.99704 0.9064,3.05155 2.46994,3.54251 13.42227,3.85975 z"
       id="Bantigue"
       sodipodi:nodetypes="ccccccc"
       inkscape:label="Bantigue" />
    <path
       style="fill:#d7eef4;fill-opacity:1;stroke:none;stroke-width:0.3;stroke-opacity:1"
       d="m 115.00107,101.11558 -4.92278,0.20463 -7.33153,2.02289 -6.5598,1.77734 -1.555173,0.72497 2.104747,2.85311 -0.385871,2.02289 2.280145,4.1978 3.297432,-1.54348 5.92838,-2.75956 5.51911,0.59635 0.93544,-5.7179 z"
       id="Baod"
       sodipodi:nodetypes="ccccccccccccc"
       inkscape:label="Baod" />
    <path
       style="fill:#d7eef4;fill-opacity:1;stroke:none;stroke-width:0.3;stroke-opacity:1"
       d="m 113.31662,111.43056 -5.42492,-0.59222 -9.202427,4.30304 0.233859,3.43776 1.905968,1.78903 2.10475,0.90037 0.93544,2.91156 3.82362,-0.44433 4.5486,-0.5028 0.0935,-5.82314 z"
       id="Guiwanon"
       sodipodi:nodetypes="ccccccccccc"
       inkscape:label="Guiwanon" />
    <path
       style="fill:#d7eef4;fill-opacity:1;stroke:none;stroke-width:0.3;stroke-opacity:1"
       d="m 120.43502,135.02018 -12.86536,-3.65456 1.15755,1.67019 c 0,0 0.34424,3.1184 0.39688,3.15846 0.0411,0.0313 1.59632,2.23198 1.62249,2.23727 l -0.12252,2.31318 0.78206,0.16244 1.27331,-0.97565 0.0331,-0.92604 0.85989,-0.44649 -0.1216,-1.78201 z"
       id="path14010"
       sodipodi:nodetypes="cccscccccccc"
       inkscape:label="Binaobao" />
    <path
       style="fill:#d7eef4;fill-opacity:1;stroke:none;stroke-width:0.3;stroke-opacity:1"
       d="m 128.99763,104.86904 -1.02314,3.31498 -2.41461,8.65285 -1.59025,6.33763 -3.06358,11.85675 4.95785,2.61924 3.95225,-2.81803 2.53739,-1.81242 2.09305,-1.48501 3.63654,-2.57247 4.24457,-3.01681 1.41486,-6.93397 0.44434,-2.19829 2.64262,-6.3844 -2.94664,-4.70061 -3.48453,2.06967 -6.96905,-1.82411 z"
       id="Kangkaibe"
       inkscape:label="Kangkaibe" />
    <path
       style="fill:#d7eef4;fill-opacity:1;stroke:none;stroke-width:0.3;stroke-opacity:1"
       d="m 154.39492,102.47782 -4.92861,-0.77759 -4.65968,3.44652 -0.74543,0.45018 0.59342,0.93837 0.15786,0.24848 0.56711,0.9179 1.30962,2.09598 0.37417,0.61389 -0.86528,2.13398 -0.72497,1.71887 -1.05237,2.6017 -0.23971,1.15177 -0.66066,3.18051 -0.37417,1.80657 -0.52619,2.5257 -0.0585,0.34494 3.4436,-0.46187 1.50256,-0.19878 1.51425,-0.74251 2.16906,-0.076 6.81119,-0.22801 4.9637,-2.47308 -1.85919,-1.99366 -0.79513,-1.64872 0.006,-0.69574 1.26869,-0.81851 0.13447,-0.97637 -2.1749,-2.2626 -1.47333,-1.54348 -1.21607,-0.0643 0.0175,-1.21607 -1.39732,-1.70719 z"
       id="Sillon"
       inkscape:label="Sillon" />
    <path
       style="fill:none;fill-opacity:1;stroke:#000000;stroke-width:0.3;stroke-opacity:1"
       d="m 187.29913,146.39688 -3.67162,-0.56126 -8.65283,5.00461 0.37417,6.08039 0.79513,1.30962"
       id="path15182"
       sodipodi:nodetypes="ccccc" />
    <path
       style="fill:none;fill-opacity:1;stroke:#000000;stroke-width:0.3;stroke-opacity:1"
       d="m 173.19734,130.91529 -14.99949,13.27763 -5.99538,-1.23963"
       id="path16744"
       sodipodi:nodetypes="ccc" />
    <path
       style="fill:none;fill-opacity:1;stroke:#000000;stroke-width:0.3;stroke-opacity:1"
       d="m 179.65922,134.8425 -12.58904,14.5478 -3.77582,-0.46399 -2.46523,-3.03266 -2.59419,-1.74184"
       id="path16746"
       sodipodi:nodetypes="ccccc" />
    <path
       style="fill:none;fill-opacity:1;stroke:#000000;stroke-width:0.3;stroke-opacity:1"
       d="m 175.02187,150.8125 -7.9375,-1.38906 -4.16718,6.81302"
       id="path16748" />
    <path
       style="fill:#d7eef4;fill-opacity:1;stroke:none;stroke-width:0.3;stroke-opacity:1"
       d="m 163.12962,121.87657 -5.07478,2.50232 -8.96213,0.32254 -1.42214,0.678 1.48828,5.29166 8.02018,4.23334 5.72162,-6.25079 2.18281,-2.33164 2.84427,-2.53007 -2.21588,-0.33073 z"
       id="Baigad"
       inkscape:label="Baigad" />
    <path
       style="fill:#d7eef4;fill-opacity:1;stroke:none;stroke-width:0.3;stroke-opacity:1"
       d="m 169.8005,124.98108 -1.05822,-0.42095 -0.67819,-0.60219 -2.59586,2.30352 -0.90621,0.93545 -1.36808,1.43824 -1.87089,2.01705 -2.61924,2.88233 -1.21023,1.33301 -0.62558,0.97637 -3.1045,4.77661 -1.39657,2.22141 5.82083,1.24023 7.02799,-6.30039 4.43177,-3.83646 3.47266,-3.12539 -1.20716,-1.70325 -0.90951,-2.05053 -1.80247,-1.75286 z"
       id="Bacneng"
       inkscape:label="Bacneng" />
    <path
       style="fill:#d7eef4;fill-opacity:1;stroke:none;stroke-width:0.3;stroke-opacity:1"
       d="m 173.28141,131.02663 -2.50114,2.19934 -2.3151,2.05466 -3.72897,3.22874 -4.67982,4.18373 -1.63711,1.45521 2.51354,1.6371 2.43086,3.00964 3.67109,0.49609 4.69636,-5.45703 4.4483,-5.15937 3.27422,-3.80339 c 0,0 -0.64365,-0.42476 -1.21661,-0.682 -0.57295,-0.25725 -0.57295,-0.25725 -0.57295,-0.25725 l -0.56127,-0.18709 -1.44994,-0.19878 -1.20438,-1.71888 z"
       id="Baliling"
       inkscape:label="Baliling" />
    <path
       style="fill:#d7eef4;fill-opacity:1;stroke:none;stroke-width:0.3;stroke-opacity:1"
       d="m 179.65189,135.04294 -4.56028,5.27356 -4.79916,5.50199 -3.0001,3.51334 7.70571,1.33301 5.51912,-3.16881 3.07527,-1.80073 2.59585,0.37418 0.8419,0.14031 -0.46772,-0.95883 0.0702,-2.3503 0.68989,-0.59634 -0.65481,-0.44434 -3.96395,-4.57198 z"
       id="Sinapaoan"
       inkscape:label="Sinapaoan" />
    <path
       style="fill:#d7eef4;fill-opacity:1;stroke:none;stroke-width:0.3;stroke-opacity:1"
       d="m 187.18786,146.51987 -3.56034,-0.52055 -8.50083,4.88769 0.36248,5.97515 0.70158,1.1576 1.41486,-1.82411 9.37782,-1.61364 3.27405,-1.42655 -2.04629,-4.59537 z"
       id="Canabuan"
       sodipodi:nodetypes="cccccccccc"
       inkscape:label="Canabuan" />
    <path
       style="fill:#d7eef4;fill-opacity:1;stroke:none;stroke-width:0.3;stroke-opacity:1"
       d="m 152.17324,143.09944 -0.39756,0.6782 -4.11595,12.04383 1.02899,0.0234 0.8419,0.35079 5.10986,-0.12858 6.06868,1.01729 1.26285,-0.0468 0.91206,-0.93544 3.97563,-6.59488 -3.67161,-0.46772 -2.43215,-3.04019 -2.5257,-1.66041 z"
       id="Villa_Flores"
       sodipodi:nodetypes="cccccccccccccc"
       inkscape:label="Villa Flores" />
    <path
       style="fill:#d7eef4;fill-opacity:1;stroke:none;stroke-width:0.3;stroke-opacity:1"
       d="m 167.15052,149.62187 -4.10104,6.64766 0.95911,1.42213 -0.3638,0.54571 h -3.32383 l -0.0992,0.28112 1.88516,0.79375 6.25078,0.0661 3.42305,0.0331 4.18372,-1.24024 -0.76068,-1.20716 -0.3638,-6.06888 z"
       id="Malico"
       inkscape:label="Malico" />
    <path
       style="fill:#d7eef4;fill-opacity:1;stroke:none;stroke-width:0.3;stroke-opacity:1"
       d="m 120.76574,135.17156 -7.0743,1.77734 0.12863,1.75396 -0.87698,0.44434 -0.0585,0.8302 1.48502,1.6838 -0.45603,1.01729 0.86529,0.57296 0.63142,-0.17539 0.86529,1.15761 1.39147,0.0468 0.98221,1.66041 2.17491,1.46163 1.35639,-0.0468 0.86529,-0.90036 0.56126,-1.43825 1.8475,0.0234 v 0.86529 l -1.20438,0.70158 0.0819,2.04628 0.42095,0.0117 0.0157,0.94313 6.67272,-3.8547 -1.85919,-6.5481 -3.75347,-1.30962 z"
       id="Ticad"
       sodipodi:nodetypes="cccccccccccccccccccccccccc"
       inkscape:label="Ticad" />
    <path
       style="fill:#d7eef4;fill-opacity:1;stroke:none;stroke-width:0.3;stroke-opacity:1"
       d="m 131.51749,145.98178 -4.02826,2.28014 -2.6894,1.55518 -1.56102,0.0643 -0.64312,0.67819 -0.0585,0.77175 0.79513,0.10523 0.81266,0.95299 -0.14616,0.36248 1.0056,0.12278 0.21632,0.71327 -0.87113,0.81267 -1.20438,-0.14616 -0.42095,-0.81267 0.0585,-0.79513 -1.40316,-0.0643 -0.14617,0.4268 0.49111,0.67819 -1.51425,1.5201 -2.27429,-1.01145 -2.15152,1.01729 0.0643,0.46773 1.87089,1.59025 2.75371,2.3503 6.65334,0.52619 5.38464,0.40926 -0.42679,-0.45019 0.52034,-1.17515 0.89452,0.28064 0.79512,-0.67235 -0.72496,-3.34421 -1.105,-4.94616 -0.67235,-3.01096 z"
       id="Sungko"
       inkscape:label="Sungko" />
    <path
       style="fill:#d7eef4;fill-opacity:1;stroke:none;stroke-width:0.3;stroke-opacity:1"
       d="m 111.7387,149.65924 -0.44433,0.32741 -0.74835,0.86528 0.0819,0.51449 0.29232,0.18709 0.24556,-0.0702 0.76004,-0.51449 1.66042,0.74835 0.88867,-0.56126 0.0819,-0.77174 -1.26285,-0.14032 -0.1637,-0.17539 -0.83021,-0.0234"
       id="path21442"
       inkscape:label="Suba" />
    <path
       style="fill:none;fill-opacity:1;stroke:#001611;stroke-width:0.239;stroke-dasharray:none;stroke-opacity:1"
       d="m 213.61617,99.527693 -0.56596,0.646997 -0.0691,0.3152 -0.0828,0.77971 -0.28988,0.44792 -0.0966,0.89583 0.40031,1.69214 -0.37735,0.65795 0.0233,1.44174 0.38413,0.66243 -0.22327,0.80465 0.0415,0.56404 -0.31477,0.51429 0.17679,2.43865 0.16565,-0.0995 0.0828,1.59261 1.00772,1.11149 0.27268,0.33932 0.41004,-0.16361 1.66399,-0.62362 -0.0552,-0.18248 1.04913,-0.89584 0.22087,-0.34839 -0.38652,-1.19445 0.0691,-0.0333 0.08,-2.05334 -0.25954,-0.33554 v -2.96955 l 0.43134,-1.04473 0.57638,-0.24926 0.12422,-2.23959 -0.55218,-0.89583 -0.20705,-0.74653 -0.71783,-1.542835 -1.39423,-0.912428 z"
       id="path24711"
       sodipodi:nodetypes="cccccccccccccccccccccccccccccccccccc" />
    <path
       style="fill:none;fill-opacity:1;stroke:#001611;stroke-width:0.239;stroke-dasharray:none;stroke-opacity:1"
       d="m 212.43691,108.94884 4.5436,-1.63439"
       id="path24789"
       sodipodi:nodetypes="cc" />
    <path
       style="fill:none;fill-opacity:1;stroke:#001611;stroke-width:0.239;stroke-dasharray:none;stroke-opacity:1"
       d="m 212.50724,102.60054 1.70629,0.92229 3.85378,-1.51474"
       id="path24791" />
    <path
       style="fill:#d7eef4;fill-opacity:1;stroke:none;stroke-width:0.214545;stroke-dasharray:none;stroke-opacity:1"
       d="m 215.22932,97.98103 -2.09365,2.2086 -0.16157,1.08676 -0.29621,0.44407 -0.0808,0.85305 1.6426,0.87643 3.76042,-1.48338 -0.52904,-0.87714 -0.18849,-0.72452 -0.7136,-1.530812 z"
       id="Santa_Rosa"
       sodipodi:nodetypes="ccccccccccc"
       inkscape:label="Santa Rosa" />
    <path
       style="fill:#d7eef4;fill-opacity:1;stroke:none;stroke-width:0.214545;stroke-dasharray:none;stroke-opacity:1"
       d="m 218.01857,102.16532 -3.79392,1.48115 -1.61805,-0.87024 0.40391,1.5951 -0.39045,0.67193 0.0269,1.40813 0.40393,0.67192 -0.24235,0.82385 0.0471,0.56676 -0.22216,0.3681 4.2681,-1.54251 -0.0135,-1.75286 0.45777,-1.07509 0.55876,-0.25124 z"
       id="Buyasyas"
       inkscape:label="Buyasyas" />
    <path
       style="fill:#d7eef4;fill-opacity:1;stroke:none;stroke-width:0.214545;stroke-dasharray:none;stroke-opacity:1"
       d="m 212.5369,109.01571 0.16156,2.29623 0.1683,-0.0935 0.0943,1.68859 1.25216,1.38476 1.96575,-0.75373 -0.0606,-0.15191 1.07713,-0.92317 0.20196,-0.29799 -0.40393,-1.24453 0.0808,-0.0292 0.0808,-2.00996 -0.28276,-0.32719 0.0269,-1.11015 z"
       id="Unib"
       inkscape:label="Unib" />
  </g>
</svg>
