<?xml version="1.0" encoding="UTF-8" standalone="no"?>
<svg
   xmlns:dc="http://purl.org/dc/elements/1.1/"
   xmlns:cc="http://creativecommons.org/ns#"
   xmlns:rdf="http://www.w3.org/1999/02/22-rdf-syntax-ns#"
   xmlns:svg="http://www.w3.org/2000/svg"
   xmlns="http://www.w3.org/2000/svg"
   xmlns:sodipodi="http://sodipodi.sourceforge.net/DTD/sodipodi-0.dtd"
   xmlns:inkscape="http://www.inkscape.org/namespaces/inkscape"
   sodipodi:docname="Leyte.svg"
   inkscape:version="1.0 (4035a4fb49, 2020-05-01)"
   id="svg8"
   version="1.1"
   viewBox="0 0 210 297"
   height="297mm"
   width="210mm">
  <defs
     id="defs2" />
  <sodipodi:namedview
     inkscape:window-maximized="0"
     inkscape:window-y="23"
     inkscape:window-x="988"
     inkscape:window-height="1316"
     inkscape:window-width="1140"
     showgrid="false"
     inkscape:document-rotation="0"
     inkscape:current-layer="layer1"
     inkscape:document-units="mm"
     inkscape:cy="433.29355"
     inkscape:cx="147.05478"
     inkscape:zoom="7.9195959"
     inkscape:pageshadow="2"
     inkscape:pageopacity="0.0"
     borderopacity="1.0"
     bordercolor="#666666"
     pagecolor="#ffffff"
     id="base" />
  <metadata
     id="metadata5">
    <rdf:RDF>
      <cc:Work
         rdf:about="">
        <dc:format>image/svg+xml</dc:format>
        <dc:type
           rdf:resource="http://purl.org/dc/dcmitype/StillImage" />
        <dc:title></dc:title>
      </cc:Work>
    </rdf:RDF>
  </metadata>
  <g
     id="layer1"
     inkscape:groupmode="layer"
     inkscape:label="Layer 1">
    <path
       id="path28"
       d="M 12.85119,10.961309 14.900276,10.690781 18.10751,6.8153729 V 5.5458425 h 1.5368 l 18.842502,17.9738755 9.488067,13.430294 -7.750815,3.207234 -15.56845,-20.045214 -10.289877,0.601356 -0.935444,-1.202713 0.334087,-2.873147 -1.135895,-1.403165 z"
       style="fill:none;stroke:#000000;stroke-width:0.264583px;stroke-linecap:butt;stroke-linejoin:miter;stroke-opacity:1" />
    <path
       id="path30"
       d="m 14.365737,20.713388 0.267269,3.875408 0.601357,0.26727 0.133635,3.073599 2.071339,0.334087 -0.534539,1.403165 0.601356,3.207234 2.004521,2.071341 -0.601356,0.601355 0.06682,0.935442 1.603617,1.202714 3.474504,0.06682 0.668174,-1.069078 1.26953,0.267269 0.26727,1.269529 -2.004522,2.138156 -2.739512,-0.06681 -0.334087,0.734991 0.400904,1.536798 0.467722,1.403165 1.536799,0.53454 1.069079,0.868625 0.734991,-0.334087 0.133635,-0.801807 2.00452,0.734992 0.601359,1.603615 -0.734992,1.202714 -0.734991,-0.668173 -2.204975,-0.334087 -0.868626,1.536798 v 1.603618 l -0.734991,0.06682 -0.06682,0.868625 1.603617,2.004523 -0.334087,0.734991 -0.467722,0.133633 0.133635,2.806329 3.407686,3.474506 1.336349,0.06681 0.668174,-1.069078 -0.06682,-0.601355 1.269529,-0.06682 0.133636,1.603618 -0.935443,1.135896 H 28.79829 l -0.133636,0.400905 0.668174,0.868624 1.202714,0.200454 1.469982,-0.601358 0.267269,-1.069078 0.935442,-0.80181 0.534541,0.534541 h 0.935442 v 0.935442 l -0.534538,0.801809 -1.00226,0.06682 -0.53454,2.00452 -1.069078,0.200454 -0.400905,1.202711 1.269532,2.405428 0.935442,2.204974 v 1.670433 l 0.668174,0.935443 0.601355,-0.46772 0.06682,-1.202714 1.33635,0.06682 0.868624,1.269529 -0.06682,0.467722 H 35.94775 l -0.601359,0.467723 -0.334086,1.202711 -1.135894,-0.200451 -0.935444,0.467723 -0.133634,1.870884 0.601356,0.668174 0.868624,-0.133633 0.400905,0.601355 -0.267269,0.467723 -0.868627,0.467722 0.06682,1.937703 -0.868624,1.804069 0.467719,2.739512 3.407688,7.951268 0.200451,3.140419 5.813113,-1.469982 6.481286,-2.739515 5.612659,-5.81311 2.806332,-1.135896 -2.806332,-12.02713 -15.301179,-6.214014 -5.879931,1.069078 -0.400902,1.403164"
       style="fill:none;stroke:#000000;stroke-width:0.264583px;stroke-linecap:butt;stroke-linejoin:miter;stroke-opacity:1" />
    <path
       id="path32"
       d="m 47.974879,36.950012 0.801809,2.271792 -0.200451,1.870884 1.002261,1.403165 1.937702,0.267272 1.737251,-1.269532 0.133636,-3.140416 -1.135896,-2.204974 -2.939965,-2.405425 -0.46772,-3.608139 3.006781,-2.204974 2.071341,0.467722 2.204971,1.870888 2.271792,1.336347 2.806329,-0.334087 3.875411,3.407685 -0.267272,7.550364 1.469983,1.33635 0.668173,2.204971 0.400905,6.949009 -1.536801,11.492589 -3.073598,3.608139 7.884451,7.550364 -1.670434,1.336347 -5.545844,-3.808589 -3.741772,3.942225 L 54.723434,73.432307 42.629489,53.587541 40.224064,40.157246"
       style="fill:none;stroke:#000000;stroke-width:0.264583px;stroke-linecap:butt;stroke-linejoin:miter;stroke-opacity:1" />
    <path
       id="path34"
       d="m 28.130121,46.57172 13.163021,0.200448"
       style="fill:none;stroke:#000000;stroke-width:0.264583px;stroke-linecap:butt;stroke-linejoin:miter;stroke-opacity:1" />
    <path
       id="path36"
       d="m 36.816376,96.61794 0.130797,2.695302 H 46.0186 l 7.276042,16.063988 -15.591517,17.67039 0.09449,6.14211 -1.511903,-0.0945 -1.700893,1.03943 -1.13393,-0.28348 -1.133927,-1.79539 -1.322917,-0.28348 2.645833,-6.52009 4.819195,-5.85863 -0.09449,-1.41741 -1.322917,-1.70089 -0.377976,-7.18155 -2.078868,0.28348 -0.661458,-0.37797 -0.566965,-4.9137 -2.834823,-0.56696 -0.188986,-1.03943 3.023809,-2.64584 0.283482,-4.8192 3.401785,-1.606392"
       style="fill:none;stroke:#000000;stroke-width:0.264583px;stroke-linecap:butt;stroke-linejoin:miter;stroke-opacity:1" />
    <path
       id="path38"
       d="m 67.35192,52.718914 6.920402,5.867394 2.456844,-0.09449 1.984375,-1.13393 5.575149,1.795388 0.661458,1.6064 4.724702,-0.18899 1.700892,-1.039434 7.181548,-0.661458 1.228424,-1.039434 3.212796,-3.96875 h 2.45685 l 5.57515,-3.118305 -0.37798,-1.511903 1.70089,-1.322917 1.03944,0.283482 1.32291,-3.49628 1.51191,-1.322917 2.36235,0.283482 0.85044,-1.795385 -0.0945,-3.96875 2.17337,-3.118305 -0.66146,-0.472469 -0.37798,-2.173365 1.32292,-0.566965 1.60639,2.362354 4.9137,-0.377979 1.03943,-0.566962 2.36235,0.755952 0.85045,2.267857 1.22842,0.377976 0.18899,-2.834823 -1.41741,-2.078868 1.98437,-1.039434 2.83483,1.41741 -0.94495,1.700892 0.47247,1.6064 1.22843,0.377975 1.32291,-1.322916 1.7009,0.472471 v 1.133928 l 1.98437,0.377976 1.79539,-2.362351 2.17336,-0.755952 1.88988,1.322917 1.6064,-0.472469 3.59077,2.173361 0.66146,2.362351 -0.47247,7.370538 -2.07887,1.889879 0.66146,11.717263 1.51191,1.41741 -0.18899,1.795386 -1.70089,2.645833 3.40178,3.68527 1.22842,-0.755954 1.41741,1.039434 2.26786,-0.09449 1.03944,1.41741 -1.03944,1.322916 -0.37797,3.023812 1.32291,2.362351 2.26786,0.661458 -0.0945,-1.228423 -0.75595,-0.755952 0.28349,-2.55134 1.03943,-1.511906 0.66146,0.283483 0.0945,7.748513 -1.03943,3.212796 -3.68527,5.953125 3.68527,4.252232 -0.0945,1.039434 1.22842,0.850448 -0.28348,3.401785 -1.22842,1.322916 0.0945,1.889884 2.26786,3.49628 1.41741,1.03944 0.18899,15.875 -5.85863,-4.34673 -7.46503,-2.26786 -6.3311,-14.36309 -1.13393,-2.929323 -2.55134,-1.039434 -3.1183,-3.401785 v -1.511906 l -0.94494,-2.267855 -14.3631,1.795386 -0.37797,-5.764136 -7.37054,-8.409971 -0.0945,-14.646577 4.06324,-9.449405 -8.03199,-8.126487"
       style="fill:none;stroke:#000000;stroke-width:0.264583px;stroke-linecap:butt;stroke-linejoin:miter;stroke-opacity:1" />
    <path
       id="path40"
       d="m 119.44047,41.860866 15.68602,8.031991 2.74032,2.456844 1.51191,3.590774 4.06324,12.945684 1.79539,3.212798 5.29167,3.401785 3.68526,0.472472 0.85045,1.700893 1.03943,3.874256 3.77977,0.377976 2.68276,-3.415916 -0.6984,-1.214287"
       style="fill:none;stroke:#000000;stroke-width:0.264583px;stroke-linecap:butt;stroke-linejoin:miter;stroke-opacity:1" />
    <path
       id="path42"
       d="m 136.57473,90.470735 8.66262,-18.37178"
       style="fill:none;stroke:#000000;stroke-width:0.264583px;stroke-linecap:butt;stroke-linejoin:miter;stroke-opacity:1" />
    <path
       id="path44"
       d="M 141.4576,92.415182 156.10416,81.548363"
       style="fill:none;stroke:#000000;stroke-width:0.264583px;stroke-linecap:butt;stroke-linejoin:miter;stroke-opacity:1" />
    <path
       id="path46"
       d="m 139.37872,55.940475 12.94567,-8.22098"
       style="fill:none;stroke:#000000;stroke-width:0.264583px;stroke-linecap:butt;stroke-linejoin:miter;stroke-opacity:1" />
    <path
       id="path48"
       d="m 163.46872,92.441846 -14.96709,9.053754 -26.22633,0.17999 -10.67783,7.18155 -3.30729,-4.53571 -10.583337,-9.921879 -2.267855,-3.874254 -2.362353,-1.039434 -3.401785,0.472469 -3.96875,2.267858 -3.685268,3.685267 0.377976,4.819193 -10.016368,-1.98437 -3.118305,-1.795389 -0.188987,-2.55134 -1.322916,-1.795385 -0.944941,-0.850448 h -2.173364 l -5.197171,3.874257 -1.90699,-10.168538"
       style="fill:none;stroke:#000000;stroke-width:0.264583px;stroke-linecap:butt;stroke-linejoin:miter;stroke-opacity:1" />
    <path
       id="path50"
       d="M 49.98735,108.10119 59.436756,95.627975"
       style="fill:none;stroke:#000000;stroke-width:0.264583px;stroke-linecap:butt;stroke-linejoin:miter;stroke-opacity:1" />
    <path
       id="path52"
       d="M 68.955538,76.706353 89.67485,89.95833 V 60.570686"
       style="fill:none;stroke:#000000;stroke-width:0.264583px;stroke-linecap:butt;stroke-linejoin:miter;stroke-opacity:1" />
    <path
       id="path54"
       d="m 99.785714,57.830359 6.331096,9.543897 -0.66145,11.244791"
       style="fill:none;stroke:#000000;stroke-width:0.264583px;stroke-linecap:butt;stroke-linejoin:miter;stroke-opacity:1" />
    <path
       id="path56"
       d="M 93.076635,89.485863 118.59003,66.901784"
       style="fill:none;stroke:#000000;stroke-width:0.264583px;stroke-linecap:butt;stroke-linejoin:miter;stroke-opacity:1" />
    <path
       id="path58"
       d="m 106.11681,67.374256 12.47322,-0.472472 11.43378,0.0945 11.24479,-5.575149"
       style="fill:none;stroke:#000000;stroke-width:0.264583px;stroke-linecap:butt;stroke-linejoin:miter;stroke-opacity:1" />
    <path
       id="path60"
       d="m 108.29018,104.32143 11.62277,-3.49628 6.23661,-8.882438"
       style="fill:none;stroke:#000000;stroke-width:0.264583px;stroke-linecap:butt;stroke-linejoin:miter;stroke-opacity:1" />
    <path
       id="path62"
       d="m 31.504395,111.68525 1.236123,0.13364 -0.100227,2.57247 -1.503392,-0.23386 z"
       style="fill:none;stroke:#000000;stroke-width:0.264583px;stroke-linecap:butt;stroke-linejoin:miter;stroke-opacity:1" />
    <path
       id="path64"
       d="m 32.707109,117.19769 0.701582,0.0334 2.171565,2.57246 -0.267269,3.04019 -1.336349,0.20046 -1.069078,-0.66818 -0.06682,-2.13815 -0.701583,-1.10249 z"
       style="fill:none;stroke:#000000;stroke-width:0.264583px;stroke-linecap:butt;stroke-linejoin:miter;stroke-opacity:1" />
    <path
       id="path66"
       d="m 33.943229,124.44737 1.469982,0.0334 -0.200451,1.50339 -1.5368,-0.13363 z"
       style="fill:none;stroke:#000000;stroke-width:0.264583px;stroke-linecap:butt;stroke-linejoin:miter;stroke-opacity:1" />
    <path
       id="path68"
       d="m 37.797615,139.18973 1.322919,0.37798 0.236236,1.37016 1.464657,0.0472 0.04725,-1.79539 -1.653646,-4.53571 0.47247,-0.8977 1.08668,0.28348 0.0945,1.51191 0.944938,1.70089 2.267858,1.03944 0.141742,3.26004 -1.653645,1.55915 v 1.41741 l 0.850445,1.27567 2.740329,-0.0472 -0.283483,-2.83483 0.708705,-0.14174 0.614212,1.08669 0.755952,1.46465 2.598586,1.79539 -0.04725,1.18118 1.937128,1.74814 0.28348,1.41741 5.338916,0.0472 0.330729,-1.18117 1.748139,0.0945 0.330729,-1.55915 6.80357,-10.06362 1.086683,-1.13393 -0.141742,-1.74813 -1.606399,-1.6064 0.614211,-0.61422 0.18899,-2.17336 0.803198,-1.03943 -0.330729,-0.75596 -0.425223,-0.0945 v -1.03943 l -1.984375,-0.70871 -0.614212,-0.94494 0.803201,-2.07887 2.929314,-0.14174 1.417412,-0.7087 2.078868,-4.48847 4.11049,-0.66146 4.252233,2.92932 1.700892,4.53571 7.890253,6.23661 3.212799,0.47247 2.929316,3.59077 v 1.6064 l 2.173361,3.02381 2.929318,8.31547 5.95312,6.70908 8.032,12.7567 0.75595,3.1183 -0.75595,2.07887 1.22842,3.49628 1.03943,2.64584 -0.37797,7.55952 2.07887,4.34673 -2.55134,3.77976 -0.18899,1.6064 -2.17336,-0.75596 -0.47247,0.75596 0.37797,1.6064 -1.5119,1.32291 -0.56697,3.68527 -0.75595,0.75595 0.18899,10.77232 33.82887,-6.14211 -0.56697,-18.52083 -1.03943,-2.74033 -1.70089,-1.6064 -3.77977,-2.26786 -2.45684,-2.36235 -7.9375,-21.73363 -1.98438,-3.77976 -4.34672,-8.31548 -14.2686,7.84301"
       style="fill:none;stroke:#000000;stroke-width:0.264583px;stroke-linecap:butt;stroke-linejoin:miter;stroke-opacity:1" />
    <path
       id="path70"
       d="m 53.294642,115.37723 3.212798,27.11979 -0.566965,8.88244"
       style="fill:none;stroke:#000000;stroke-width:0.264583px;stroke-linecap:butt;stroke-linejoin:miter;stroke-opacity:1" />
    <path
       id="path72"
       d="m 52.53869,105.26637 13.134673,19.60746"
       style="fill:none;stroke:#000000;stroke-width:0.264583px;stroke-linecap:butt;stroke-linejoin:miter;stroke-opacity:1" />
    <path
       id="path74"
       d="m 127.94494,160.45084 10.11086,0.66151 3.11831,1.5119 2.45684,-1.03943 8.59896,-0.37798 9.26041,6.99256 -19.37127,18.61528"
       style="fill:none;stroke:#000000;stroke-width:0.264583px;stroke-linecap:butt;stroke-linejoin:miter;stroke-opacity:1" />
    <path
       id="path76"
       d="m 126.33854,156.76562 14.83557,-0.0945 10.29985,-2.45685 8.88244,-0.0945 1.32291,-8.59896 6.14212,-10.58333 0.0945,-12.66219"
       style="fill:none;stroke:#000000;stroke-width:0.264583px;stroke-linecap:butt;stroke-linejoin:miter;stroke-opacity:1" />
    <path
       id="path78"
       d="m 158.46652,117.07812 -0.47247,4.72471 -3.11831,15.59152 -3.40178,16.81992"
       style="fill:none;stroke:#000000;stroke-width:0.264583px;stroke-linecap:butt;stroke-linejoin:miter;stroke-opacity:1" />
    <path
       id="path80"
       d="m 154.59227,115.66072 5.66963,-3.2128 6.04763,-7.08705"
       style="fill:none;stroke:#000000;stroke-width:0.264583px;stroke-linecap:butt;stroke-linejoin:miter;stroke-opacity:1" />
    <path
       id="path82"
       d="m 111.59747,215.82435 0.28348,2.3624 -0.94494,1.7009 v 0.85044 l -1.6064,0.66146 -0.18899,2.45685 -1.98437,0.75595 -1.13393,1.41741 -2.55134,-0.0945 -0.47247,3.87426 14.64658,3.68527 2.36235,-0.56697 4.53571,-3.02381 3.96875,-0.0945 2.64584,-1.70089 10.01637,1.32292 3.30729,2.26785"
       style="fill:none;stroke:#000000;stroke-width:0.264583px;stroke-linecap:butt;stroke-linejoin:miter;stroke-opacity:1" />
    <path
       id="path84"
       d="m 102.99851,229.80952 1.13393,3.30729 -0.0945,5.10268 -1.13393,5.29167 4.15774,0.47247 2.36235,-1.13393 7.65401,0.0945 26.55283,-8.12648"
       style="fill:none;stroke:#000000;stroke-width:0.264583px;stroke-linecap:butt;stroke-linejoin:miter;stroke-opacity:1" />
    <path
       id="path86"
       d="m 102.90401,243.51116 1e-5,2.64583 3.30729,5.85863 3.40178,1.51191 2.26786,2.26786 26.08036,0.18898"
       style="fill:none;stroke:#000000;stroke-width:0.264583px;stroke-linecap:butt;stroke-linejoin:miter;stroke-opacity:1" />
    <path
       id="path88"
       d="m 111.88095,255.79539 4.34673,6.04761 0.56696,3.40179 5.10268,1.13392 h 9.63839 l 7.37054,-4.15773"
       style="fill:none;stroke:#000000;stroke-width:0.264583px;stroke-linecap:butt;stroke-linejoin:miter;stroke-opacity:1" />
    <path
       id="path90"
       d="m 116.79464,265.24479 0.18899,2.26785 -1.03943,2.36236 0.28348,1.60639 -2.83482,3.59079 -0.66146,3.68525 -0.37798,6.89808 -1.41741,3.3073 1.70089,2.26784 1.51191,0.37799 4.06324,-4.53573 6.04762,-4.8192 2.45685,-1.51191 5.00818,-5.57514 4.7247,-1.13392 2.92932,1.03944 1.70089,-0.47249 -0.85045,-10.58333 -1.32291,-1.79538 -0.94494,-6.23661 0.56696,-10.29985 5.10267,-10.8668 0.85046,-3.11833 2.17336,-7.46502 0.85045,-3.30729 23.52901,0.28348 20.31623,-21.26116 -1.88989,-3.1183 -5.76413,-3.40179 -2.17337,-3.21279 2.45685,-4.63021 -2.36235,-1.6064 -4.7247,-3.40179 -3.59078,0.0945 -1.41741,1.03943 -3.02381,-1.03943 -0.18899,-1.79539 -0.66146,-0.85045 -2.55134,0.18899 -2.64583,-3.87425 -1.32292,-6.14212"
       style="fill:none;stroke:#000000;stroke-width:0.264583px;stroke-linecap:butt;stroke-linejoin:miter;stroke-opacity:1" />
    <path
       id="path92"
       d="m 160.3564,154.11977 0.18899,8.59898 0.94493,5.48065"
       style="fill:none;stroke:#000000;stroke-width:0.264583px;stroke-linecap:butt;stroke-linejoin:miter;stroke-opacity:1" />
    <path
       id="path94"
       d="m 144.85937,191.16141 6.89807,-0.75591 3.96875,1.51191 7.55952,5.38616 3.77976,0.0945 1.32292,0.66146 0.66146,15.30804 1.98437,7.843"
       style="fill:none;stroke:#000000;stroke-width:0.264583px;stroke-linecap:butt;stroke-linejoin:miter;stroke-opacity:1" />
    <path
       id="path96"
       d="m 145.42634,209.68224 2.07887,11.24484"
       style="fill:none;stroke:#000000;stroke-width:0.264583px;stroke-linecap:butt;stroke-linejoin:miter;stroke-opacity:1" />
    <path
       id="path98"
       d="m 111.59747,108.85714 7.843,14.2686"
       style="fill:none;stroke:#000000;stroke-width:0.264583px;stroke-linecap:butt;stroke-linejoin:miter;stroke-opacity:1" />
    <path
       id="path100"
       d="m 115.8497,116.22768 9.07143,-0.47247 4.63021,2.07887 h 17.00893"
       style="fill:none;stroke:#000000;stroke-width:0.264583px;stroke-linecap:butt;stroke-linejoin:miter;stroke-opacity:1" />
    <path
       id="path102"
       d="m 149.77306,104.7939 -7.27604,13.04018"
       style="fill:none;stroke:#000000;stroke-width:0.264583px;stroke-linecap:butt;stroke-linejoin:miter;stroke-opacity:1" />
    <path
       id="path104"
       d="m 146.56027,135.69345 2.64583,1.32292 5.66964,-0.18899 8.69346,4.7247"
       style="fill:none;stroke:#000000;stroke-width:0.264583px;stroke-linecap:butt;stroke-linejoin:miter;stroke-opacity:1" />
    <path
       id="path106"
       d="m 93.265624,133.04757 8.976936,-11.05576 17.19791,1.13393 -5.00818,11.62277 7.18155,13.60709 11.24479,-6.61453 2.45685,-2.17336 0.56696,-2.36235 3.1183,-1.7009 7.55953,0.18899"
       style="fill:none;stroke:#000000;stroke-width:0.264583px;stroke-linecap:butt;stroke-linejoin:miter;stroke-opacity:1" />
    <path
       id="path108"
       d="m 146.56027,135.69345 v -17.85937 0 l -0.0472,-1.08669 3.54353,-0.0945 4.53572,-0.99218"
       style="fill:none;stroke:#000000;stroke-width:0.264583px;stroke-linecap:butt;stroke-linejoin:miter;stroke-opacity:1" />
    <path
       transform="scale(0.26458333)"
       id="Calubian"
       d="M 123.46216,113.34374 C 107.54143,92.844536 94.120989,75.828711 93.638949,75.530795 c -0.48204,-0.297918 -9.296366,-0.01263 -19.587393,0.633969 -22.359757,1.404897 -22.025233,1.523103 -21.555211,-7.616629 0.254228,-4.943572 -0.0805,-6.672991 -1.685646,-8.709157 -1.682748,-2.134604 -1.950063,-3.773 -1.672492,-10.250861 l 0.330374,-7.710179 3.674208,-0.308875 c 3.186765,-0.2679 4.516151,-1.313972 10.020552,-7.885021 3.654326,-4.362463 6.347675,-8.540248 6.349481,-9.848987 0.0022,-1.577589 0.604671,-2.272843 1.969598,-2.272843 1.204301,0 15.788202,13.196952 37.62818,34.049687 l 35.66172,34.049687 17.43601,24.696654 c 9.58979,13.58316 17.31745,24.7978 17.17259,24.92142 -0.14488,0.12363 -6.27284,2.72466 -13.6177,5.78006 l -13.35428,5.5553 z"
       style="fill:#d7eef4;stroke:none;stroke-width:1.01174;stroke-linejoin:round;fill-opacity:1" />
    <path
       transform="scale(0.26458333)"
       id="Leyte"
       d="m 216.3732,282.85437 -8.97142,-6.31899 -22.72843,-37.33827 -22.72843,-37.33826 -4.37916,-24.57076 c -2.40853,-13.51391 -4.22681,-24.70571 -4.04061,-24.87066 0.1862,-0.16496 6.38764,-2.81636 13.78097,-5.89202 l 13.44243,-5.59211 1.09544,2.69138 c 0.60249,1.48025 1.04597,4.96421 0.98551,7.74213 -0.0834,3.83281 0.43014,5.70774 2.12966,7.77517 4.69017,5.70553 15.81069,2.90858 17.26066,-4.34127 1.92586,-9.62929 -0.86878,-16.41191 -9.71779,-23.58518 -4.58487,-3.71664 -5.80837,-5.30851 -5.80837,-7.55714 0,-1.56678 -0.2741,-4.21915 -0.6091,-5.89416 -0.55457,-2.77287 -0.12008,-3.41468 4.85409,-7.17021 5.04539,-3.80931 5.73435,-4.04988 9.00887,-3.14574 1.95013,0.53846 5.33425,2.49649 7.52028,4.35119 2.18602,1.8547 6.04208,4.57336 8.56901,6.04148 3.93677,2.28722 5.34132,2.58084 9.81249,2.0513 l 5.21808,-0.61801 6.96133,6.17169 6.96133,6.17168 -0.49208,14.49471 -0.49208,14.4947 2.66831,2.0989 c 3.9329,3.09362 5.3435,8.39179 6.1646,23.15411 0.6394,11.49576 0.36286,16.0605 -2.10798,34.79512 l -2.84394,21.5635 -6.05496,7.03515 -6.05497,7.03514 14.92214,14.39382 14.92214,14.3938 -2.6219,1.71794 c -2.60617,1.70762 -2.68481,1.67472 -13.10489,-5.48292 l -10.48298,-7.20084 -7.03341,7.53132 -7.03342,7.5313 z"
       style="fill:#d7eef4;fill-opacity:1;stroke:none;stroke-width:1.01174;stroke-linejoin:round" />
    <path
       transform="scale(0.26458333)"
       id="Capoocan"
       d="m 299.56688,313.72075 -37.13442,-23.8691 2.68145,-2.13811 c 1.47479,-1.17596 2.50266,-2.59878 2.28416,-3.16182 -0.21851,-0.56303 -6.78927,-7.18178 -14.60169,-14.70831 l -14.20441,-13.68461 5.36281,-6.24718 c 2.94954,-3.43595 5.58403,-7.24041 5.85441,-8.45436 0.27039,-1.21394 1.4199,-9.48027 2.55446,-18.36962 1.13457,-8.88934 2.31357,-17.40867 2.62001,-18.93184 0.54931,-2.73043 0.73246,-2.62025 13.01391,7.82868 14.04955,11.95322 15.53084,12.45265 24.93502,8.40708 l 5.09312,-2.191 7.25063,2.13317 c 11.69664,3.44121 12.74924,4.00236 13.94572,7.43458 l 1.10751,3.17701 8.94348,-0.63483 8.94349,-0.63482 v 54.03214 c 0,29.71769 -0.34093,53.99837 -0.75762,53.95709 -0.41669,-0.0413 -17.4681,-10.81615 -37.89204,-23.94415 z"
       style="fill:#d7eef4;fill-opacity:1;stroke:none;stroke-width:1.01174;stroke-linejoin:round" />
    <path
       transform="scale(0.26458333)"
       id="Kananga"
       d="m 289.94759,375.55657 c -12.9997,-2.68624 -17.60705,-4.09161 -21.97082,-6.70169 -5.39116,-3.22459 -5.52167,-3.4109 -5.52167,-7.88223 0,-3.99586 -0.58938,-5.25331 -4.62402,-9.86552 -4.31565,-4.93343 -4.93287,-5.28595 -9.25513,-5.28595 -4.16554,0 -5.57935,0.71275 -14.0638,7.09006 -5.18798,3.89954 -9.4327,6.7902 -9.4327,6.4237 0,-2.7864 -7.1041,-38.22069 -11.16854,-55.70717 -2.74665,-11.81691 -4.9939,-21.94129 -4.9939,-22.49863 0,-0.55734 3.67458,1.5615 8.16573,4.70854 l 8.16574,5.72188 7.31445,-7.26564 7.31446,-7.26564 17.11443,11.41548 c 9.41294,6.27851 31.07317,20.27957 48.13385,31.11345 17.06068,10.83389 31.03092,19.96666 31.04498,20.29505 0.014,0.32839 -2.3609,1.88259 -5.27772,3.45378 -2.91681,1.57119 -9.02747,6.47163 -13.57923,10.88987 l -8.27591,8.03317 0.59727,8.46357 c 0.55552,7.8717 0.46317,8.45655 -1.32052,8.36325 -1.0548,-0.0552 -9.31992,-1.62987 -18.36695,-3.49933 z"
       style="fill:#d7eef4;fill-opacity:1;stroke:none;stroke-width:1.01174;stroke-linejoin:round" />
    <path
       transform="scale(0.26458333)"
       id="Carigara"
       d="m 340.23684,283.9613 v -54.85839 l 3.283,-1.68958 c 2.0566,-1.05842 8.18858,-2.12525 16.41498,-2.85584 8.3523,-0.74178 13.71243,-1.6811 14.72675,-2.58075 0.87712,-0.77796 1.83312,-1.41448 2.12445,-1.41448 0.29132,0 5.66232,7.7259 11.93554,17.16867 l 11.40585,17.16867 -1.15594,18.95344 c -0.63576,10.4244 -1.15593,19.69994 -1.15593,20.61232 0,1.29299 -29.63468,28.54857 -44.41944,40.8534 -1.47505,1.22763 -4.79145,2.41503 -7.85596,2.81271 l -5.3033,0.68823 z"
       style="fill:#d7eef4;fill-opacity:1;stroke:none;stroke-width:1.01174;stroke-linejoin:round" />
    <path
       transform="scale(0.26458333)"
       id="Barugo"
       d="m 390.12887,236.28925 -11.72104,-17.5892 5.77703,-7.15012 c 5.64854,-6.99109 5.8812,-7.15051 10.46146,-7.16823 3.83195,-0.0148 6.64741,-1.11925 15.47081,-6.0688 10.6724,-5.98676 10.77738,-6.082 9.93639,-9.01435 -0.73487,-2.56234 -0.48563,-3.21102 1.84055,-4.79034 1.47978,-1.00466 3.76609,-1.82667 5.08069,-1.82667 1.87337,0 2.75285,-0.92528 4.06749,-4.27931 l 1.67731,-4.2793 14.39101,14.41672 14.391,14.41672 -7.59936,17.41966 c -7.03162,16.11828 -7.59935,17.93821 -7.59935,24.36066 v 6.941 l -11.36422,0.57291 c -6.25032,0.31509 -16.25223,0.81026 -22.22647,1.10037 l -10.86226,0.52748 z"
       style="fill:#d7eef4;fill-opacity:1;stroke:none;stroke-width:1.01174;stroke-linejoin:round" />
    <path
       transform="scale(0.26458333)"
       id="Tunga"
       d="m 400.22128,284.1037 c 0.36717,-5.77964 0.94234,-14.46662 1.27817,-19.3044 l 0.61058,-8.79598 4.16621,-0.50116 c 5.39337,-0.64877 39.52935,-1.76068 38.95178,-1.26877 -0.24221,0.20629 -10.61802,9.3759 -23.05736,20.3769 l -22.61696,20.00183 z"
       style="fill:#d7eef4;fill-opacity:1;stroke:none;stroke-width:1.01174;stroke-linejoin:round" />
    <path
       transform="scale(0.26458333)"
       id="Jaro"
       d="m 389.78815,374.6884 c -16.44215,-15.47891 -20.37123,-19.74377 -24.10486,-26.16485 -3.61094,-6.21007 -5.12255,-7.88995 -7.93483,-8.81809 -1.91076,-0.63061 -3.33692,-1.53702 -3.16926,-2.01425 0.16767,-0.47723 20.76044,-18.97596 45.76172,-41.10829 l 45.45686,-40.24058 0.27393,18.85842 0.27392,18.85842 8.71792,9.9711 c 4.79486,5.4841 11.10033,12.69851 14.01215,16.03201 l 5.29422,6.06091 0.69179,10.60661 0.69178,10.6066 -11.34007,16.16244 c -6.23705,8.88934 -11.42983,16.28194 -11.53952,16.42799 -0.16056,0.2138 -36.26561,11.26676 -41.92638,12.83509 -0.91648,0.25391 -9.27766,-6.88789 -21.15937,-18.07353 z"
       style="fill:#d7eef4;fill-opacity:1;stroke:none;stroke-width:1.01174;stroke-linejoin:round" />
    <path
       transform="scale(0.26458333)"
       id="Alangalang"
       d="m 477.24717,339.81369 c -0.34395,-3.64068 -0.6286,-8.35231 -0.63255,-10.47028 -0.007,-3.51023 -1.25812,-5.26939 -14.14932,-19.88772 L 448.32316,293.41882 V 273.65806 253.8973 h 22.23298 22.23297 l 20.02976,-10.02443 20.02976,-10.02442 3.7522,12.29727 c 2.06372,6.76349 5.39816,15.5438 7.40989,19.51178 l 3.65767,7.21452 -15.8988,33.69666 c -8.74434,18.53316 -16.24399,34.04896 -16.6659,34.47955 -0.42191,0.4306 -8.97151,1.81834 -18.99912,3.08389 l -18.23202,2.301 z"
       style="fill:#d7eef4;fill-opacity:1;stroke:none;stroke-width:1.01174;stroke-linejoin:round" />
    <path
       transform="scale(0.26458333)"
       id="SanMiguel"
       d="m 448.31383,245.05846 c -0.009,-6.28421 0.60093,-8.22657 7.77843,-24.78682 l 7.78777,-17.9683 -15.51001,-15.53426 -15.51,-15.53425 3.43842,-3.16303 c 3.12481,-2.87453 3.86211,-3.1059 8.08356,-2.53667 4.46578,0.60218 4.69477,0.50651 5.93093,-2.47783 0.70719,-1.7073 1.52461,-3.10419 1.8165,-3.10419 0.29188,0 13.53286,6.64641 29.4244,14.76979 31.56019,16.13284 36.75151,19.83185 40.94079,29.17185 1.80777,4.03042 5.59236,14.92149 9.21755,26.52577 0.24894,0.79685 -7.13501,5.04174 -19.76792,11.36422 l -20.16529,10.09225 h -21.7279 -21.7279 l -0.009,-6.81853 z"
       style="fill:#d7eef4;fill-opacity:1;stroke:none;stroke-width:1.01174;stroke-linejoin:round" />
    <path
       transform="scale(0.26458333)"
       id="Babatngon"
       d="m 525.05886,204.82115 c -1.09142,-2.54619 -1.98441,-4.99735 -1.98441,-5.44703 0,-0.44968 -2.6346,-3.25305 -5.85468,-6.22971 -4.71752,-4.36091 -11.5846,-8.34335 -35.35534,-20.50372 l -29.50066,-15.09162 v -7.21681 c 0,-6.81457 0.23093,-7.54646 4.1431,-13.13127 3.46063,-4.94022 3.90261,-6.09096 2.68319,-6.986 -0.80295,-0.58934 -1.76891,-2.72342 -2.14658,-4.7424 -0.62537,-3.34318 0.28458,-4.91543 2.84482,-4.91543 0.15852,0 1.53493,1.8839 3.05869,4.18645 l 2.77046,4.18645 9.97651,-0.60779 c 5.48709,-0.33429 10.84689,-1.0736 11.91067,-1.64292 1.37101,-0.73375 3.04973,-0.64891 5.76569,0.29138 3.14345,1.08829 4.07891,2.06865 5.20905,5.45908 1.04607,3.13819 2.12904,4.39456 4.50075,5.22134 1.71777,0.59881 3.28267,1.08876 3.47755,1.08876 0.19489,0 0.34423,-3.06834 0.33188,-6.81853 -0.0172,-5.20846 -0.48891,-7.41485 -1.99784,-9.34391 -2.58421,-3.30372 -2.5363,-3.58178 0.8594,-4.98832 2.45845,-1.01833 3.56499,-0.85988 7.56423,1.08309 4.61883,2.24401 4.662,2.31027 3.07902,4.72622 -1.69843,2.59212 -1.33384,7.43237 0.74886,9.94187 1.6809,2.02536 6.00359,1.64316 8.55811,-0.75669 2.64893,-2.48854 6.4645,-1.83105 6.4645,1.11396 0,2.32617 0.4683,2.6159 5.5988,3.46394 3.96161,0.65482 4.18161,0.53846 7.36647,-3.89638 4.46707,-6.22028 9.67173,-7.9287 14.2415,-4.67474 2.44187,1.73877 3.98338,2.10277 6.90858,1.63131 3.20916,-0.51722 4.67521,-0.0257 9.92469,3.32746 7.97791,5.09595 8.59016,7.2341 7.33151,25.60381 l -0.91999,13.42702 -3.89304,3.5667 c -3.35613,3.0748 -49.8154,33.30387 -51.18495,33.30387 -0.27287,0 -1.38912,-2.08325 -2.48054,-4.62944 z"
       style="fill:#d7eef4;fill-opacity:1;stroke:none;stroke-width:1.01174;stroke-linejoin:round" />
    <path
       transform="scale(0.26458333)"
       id="Tacloban"
       d="m 594.05982,307.71645 c -2.87027,-0.35716 -3.39118,-0.91253 -4.34887,-4.63656 -1.89248,-7.35896 -4.02754,-13.47041 -5.30098,-15.17366 -0.76555,-1.02392 -3.83013,-2.0101 -8.10022,-2.60664 -5.86311,-0.81909 -8.32324,-1.88296 -16.80295,-7.26632 -9.1896,-5.83404 -10.20019,-6.80455 -13.48328,-12.94851 -3.94969,-7.39142 -18.39459,-52.55392 -17.165,-53.66697 1.11109,-1.00578 45.71701,-29.18032 45.81339,-28.93722 0.0438,0.11054 0.63112,9.62334 1.3051,21.13957 1.20799,20.64085 1.26432,20.9792 3.96093,23.79386 3.67408,3.83491 3.4663,7.11892 -0.88033,13.91379 l -3.61584,5.65247 5.81358,6.23644 c 3.19747,3.43004 6.37346,6.85993 7.05776,7.62198 1.05073,1.1701 1.59777,1.13787 3.51826,-0.20729 2.10559,-1.47481 2.49235,-1.43739 5.22027,0.50506 2.21401,1.57652 3.91934,1.96735 6.86201,1.57265 3.29651,-0.44215 4.1575,-0.15636 5.44396,1.80701 1.38576,2.11494 1.35623,2.55241 -0.31696,4.69554 -1.01479,1.29983 -2.1694,4.99044 -2.56578,8.20136 -0.67383,5.45838 -0.48463,6.26751 2.90918,12.44179 1.99643,3.63206 3.31728,7.14162 2.93523,7.79901 -0.38205,0.65741 -2.47802,3.35448 -4.6577,5.9935 -4.16827,5.04669 -4.63168,5.18533 -13.60176,4.06914 z"
       style="fill:#d7eef4;fill-opacity:1;stroke:none;stroke-width:1.01174;stroke-linejoin:round" />
    <path
       transform="scale(0.26458333)"
       id="StaFe"
       d="m 533.17598,343.2958 c -1.25942,-3.81609 -1.35704,-3.84218 -9.84899,-2.63274 -2.91681,0.41542 -5.3033,0.51809 -5.3033,0.22815 0,-0.80414 30.39741,-65.17355 31.16175,-65.98798 0.36769,-0.39179 4.75729,1.97008 9.75467,5.24859 6.33934,4.15891 10.46032,6.14981 13.63182,6.58571 9.43507,1.2968 9.7755,1.45568 11.45193,5.34471 2.64998,6.14753 4.97301,15.50109 4.05393,16.32293 -3.35352,2.9987 -52.00569,38.42616 -52.77025,38.42616 -0.5306,0 -1.4898,-1.59099 -2.13156,-3.53553 z"
       style="fill:#d7eef4;fill-opacity:1;stroke:none;stroke-width:1.01174;stroke-linejoin:round" />
    <path
       transform="scale(0.26458333)"
       id="Palo"
       d="m 559.43177,377.6219 c -1.10667,-2.58175 -2.01213,-5.07338 -2.01213,-5.53695 0,-0.46358 -2.1592,-1.66269 -4.79823,-2.6647 -5.60434,-2.12791 -17.35546,-13.71155 -17.39842,-17.15046 -0.0204,-1.63699 6.42058,-6.91888 27.49995,-22.551 l 27.52666,-20.41332 7.21615,0.6563 7.21616,0.6563 5.15821,-6.37495 c 2.83702,-3.50622 5.15821,-7.16566 5.15821,-8.13208 0,-1.41362 0.59244,-1.63865 3.03046,-1.15104 2.82889,0.56578 3.03046,0.40435 3.03046,-2.42695 0,-1.66817 -0.6992,-3.61332 -1.55378,-4.32256 -2.69559,-2.23714 0.44867,-15.12029 3.69026,-15.12029 0.49169,0 0.89398,6.57056 0.89398,14.60126 0,17.7577 -1.30666,22.12013 -11.4794,38.3252 l -6.8,10.83232 5.23079,6.03799 c 2.87694,3.32089 5.05789,6.19546 4.84655,6.38794 -0.27819,0.25337 -46.88233,28.54488 -53.67796,32.58574 -0.42119,0.25045 -1.67125,-1.65699 -2.77792,-4.23875 z"
       style="fill:#d7eef4;fill-opacity:1;stroke:none;stroke-width:1.01174;stroke-linejoin:round" />
    <path
       transform="scale(0.26458333)"
       id="Pastrana"
       d="m 416.95475,403.19018 c -2.4706,-3.44884 -4.80491,-6.76768 -5.18736,-7.37521 -0.45701,-0.72597 6.64119,-3.28838 20.70813,-7.47553 l 21.40348,-6.37093 11.76491,-16.83551 11.7649,-16.8355 23.59044,-2.87429 c 12.97474,-1.58086 24.96121,-3.08935 26.63661,-3.3522 2.71922,-0.42662 3.18001,-0.10779 4.29315,2.97053 0.68583,1.89665 1.24697,4.905 1.24697,6.68521 0,4.55964 10.65124,16.07206 17.28993,18.68787 4.05568,1.59805 4.97977,2.51058 6.45554,6.37483 0.94727,2.4804 1.40951,4.82312 1.0272,5.20606 -0.38231,0.38293 -22.36339,0.92352 -48.84685,1.20131 l -48.15173,0.50508 -18.90114,12.87944 c -10.39563,7.0837 -19.28388,12.87945 -19.75166,12.87945 -0.46778,0 -2.87191,-2.82178 -5.34252,-6.27061 z"
       style="fill:#d7eef4;fill-opacity:1;stroke:none;stroke-width:1.01174;stroke-linejoin:round" />
    <path
       transform="scale(0.26458333)"
       id="path963"
       d="m 481.6582,440.67524 -8.5863,-3.98283 -16.16244,0.60571 c -8.88934,0.33314 -16.86299,0.79777 -17.71923,1.03251 -1.05881,0.29028 -2.4167,-1.26993 -4.24509,-4.87761 -1.47857,-2.91742 -4.73606,-8.9703 -7.23888,-13.45084 l -4.55057,-8.14643 19.43717,-13.18282 19.43717,-13.18283 49.09906,-0.46083 49.09906,-0.46084 2.13128,5.1421 c 1.1722,2.82815 2.13128,5.58547 2.13128,6.12739 0,0.54191 -6.01859,11.7837 -13.37464,24.98175 l -13.37465,23.99646 -23.74846,-0.079 -23.74846,-0.079 z"
       style="fill:#d7eef4;fill-opacity:1;stroke:none;stroke-width:1.01174;stroke-linejoin:round" />
    <path
       transform="scale(0.26458333)"
       id="Tanauan"
       d="m 583.34333,432.50058 c -0.78468,-1.838 -5.82346,-13.30473 -11.19729,-25.48161 -7.92174,-17.95036 -9.52268,-22.37245 -8.46043,-23.36928 0.7206,-0.67621 13.09401,-8.31819 27.49647,-16.98217 27.15302,-16.33424 28.86702,-16.99698 28.86702,-11.16174 0,1.37457 0.89459,2.84492 2.13471,3.50861 1.88778,1.01031 2.08493,1.8308 1.70431,7.09278 -0.3125,4.32037 -1.03561,6.59452 -2.63979,8.30209 -3.63202,3.86611 -3.00541,9.59697 1.89829,17.36143 l 4.10768,6.50405 -11.17729,13.08141 c -9.35029,10.94319 -12.29205,13.69551 -17.99727,16.83839 -3.751,2.06633 -8.28018,4.63242 -10.06485,5.70241 l -3.24487,1.94545 z"
       style="fill:#d7eef4;fill-opacity:1;stroke:none;stroke-width:1.01174;stroke-linejoin:round" />
    <path
       transform="scale(0.26458333)"
       id="Tabonta"
       d="m 541.37501,442.54329 c 1.79543,-3.40335 24.29032,-43.65065 24.55582,-43.93469 0.17919,-0.1917 14.42124,31.68551 16.41478,36.74029 0.63184,1.6021 -12.53258,4.41294 -20.75673,4.43194 -7.3736,0.0171 -9.83582,0.96333 -8.89383,3.41812 0.52981,1.38065 -0.34035,1.61718 -5.94926,1.61718 -6.49499,0 -6.55617,-0.0259 -5.37078,-2.27284 z"
       style="fill:#d7eef4;fill-opacity:1;stroke:none;stroke-width:1.01174;stroke-linejoin:round" />
    <path
       transform="scale(0.26458333)"
       id="Barauen"
       d="m 447.03043,534.66686 c -7.06717,-13.36307 -12.85163,-24.84093 -12.85435,-25.50635 -0.003,-0.66542 4.1244,-10.82829 9.1714,-22.58416 l 9.17635,-21.37431 -6.64602,-12.08426 c -3.65531,-6.64634 -6.64602,-12.30882 -6.64602,-12.58329 0,-0.27447 7.44766,-0.82521 16.55035,-1.22388 l 16.55034,-0.72485 7.83558,3.62026 7.83558,3.62026 h 32.68769 32.6877 v 32.82996 32.82996 h -14.53949 -14.53949 l -5.88978,3.31145 c -5.29186,2.97528 -5.97442,3.73944 -6.7235,7.5273 -1.21319,6.1347 -7.09814,10.86694 -30.80255,24.76912 -11.13099,6.52811 -20.41056,11.8693 -20.62127,11.8693 -0.21072,0 -6.16535,-10.93343 -13.23252,-24.29651 z"
       style="fill:#d7eef4;fill-opacity:1;stroke:none;stroke-width:1.01174;stroke-linejoin:round" />
    <path
       transform="scale(0.26458333)"
       id="Ormoc"
       d="m 343.13915,500.53059 c -1.45945,-0.36364 -9.22264,-5.83706 -17.25155,-12.16318 l -14.598,-11.50203 -3.25539,-8.70102 c -3.25509,-8.70023 -3.25609,-8.7015 -11.057,-14.00432 -8.35792,-5.68145 -9.28488,-5.88728 -18.94093,-4.20575 l -6.30259,1.09754 -3.88168,8.44913 c -4.28269,9.32198 -5.66803,10.43786 -13.98321,11.26336 l -5.05076,0.50142 -24.86113,-37.21593 -24.86113,-37.21593 13.24437,-17.41496 c 11.80362,-15.52052 14.27988,-18.18527 22.76337,-24.4962 7.69515,-5.72447 10.21123,-7.07508 13.13198,-7.04911 4.10898,0.0365 5.60244,1.00311 9.46247,6.12414 2.05414,2.72518 2.73682,4.79165 2.73682,8.28432 v 4.65344 l 6.42939,3.59552 c 5.34507,2.98913 9.71377,4.25628 25.90388,7.51345 l 19.47449,3.91794 -0.61055,-9.29477 -0.61055,-9.29476 7.78917,-7.64203 c 9.75006,-9.56588 18.76819,-14.7136 27.34713,-15.61028 9.35259,-0.97754 12.97277,1.00814 17.9343,9.83697 3.24449,5.77344 7.50993,10.36316 24.63211,26.50483 13.98007,13.17948 22.63212,22.20965 26.62992,27.79374 3.25698,4.54932 12.22839,19.74117 19.93646,33.75966 11.30622,20.56238 13.67576,25.54245 12.26096,25.76901 -0.96455,0.15447 -15.14859,-0.61805 -31.52011,-1.71669 -16.37153,-1.09864 -30.00859,-1.76186 -30.30458,-1.4738 -0.296,0.28804 -7.82269,9.47007 -16.72599,20.4045 -15.14341,18.59814 -16.41428,19.89087 -19.69797,20.03686 -1.93059,0.0859 -4.70426,-0.14145 -6.1637,-0.50507 z"
       style="fill:#d7eef4;fill-opacity:1;stroke:none;stroke-width:1.01174;stroke-linejoin:round" />
    <path
       transform="scale(0.26458333)"
       id="Matag-ob"
       d="m 181.88649,390.53361 -7.20516,-15.92308 -17.22735,-0.2764 -17.22734,-0.27639 v -3.98854 c 0,-3.94726 0.0549,-4.00409 5.3033,-5.49167 2.91681,-0.82673 7.57614,-2.04117 10.35406,-2.69877 2.77792,-0.6576 10.50559,-3.44833 17.1726,-6.20163 12.10719,-4.99994 12.13585,-5.01984 23.73858,-16.48276 6.87507,-6.79223 13.20752,-12.13557 15.51401,-13.09076 2.14349,-0.88769 4.03817,-1.47307 4.21039,-1.30085 0.4753,0.4753 6.53957,33.15228 6.53957,35.23808 0,1.34978 -28.40859,40.33333 -33.26305,45.64506 -0.38744,0.42394 -3.94676,-6.39459 -7.90961,-15.15229 z"
       style="fill:#d7eef4;fill-opacity:1;stroke:none;stroke-width:1.01174;stroke-linejoin:round" />
    <path
       transform="scale(0.26458333)"
       id="Villaba"
       d="m 139.69042,358.27207 c -0.44355,-3.72521 -3.0503,-11.44561 -7.10307,-21.03719 -7.25576,-17.172 -8.52052,-22.90073 -6.09252,-27.59598 0.88549,-1.71234 1.60998,-4.58397 1.60998,-6.3814 0,-1.89296 0.86209,-4.18571 2.04886,-5.44896 2.5564,-2.72117 1.7065,-5.30414 -1.88182,-5.71914 -2.30157,-0.26618 -2.73719,-0.84884 -3.00082,-4.01365 -0.24987,-2.99954 0.0857,-3.82735 1.76776,-4.36122 1.14189,-0.36242 2.90153,-0.39699 3.91031,-0.0768 1.36984,0.43477 2.20092,-0.25122 3.283,-2.70985 0.9113,-2.07061 2.29211,-3.41175 3.72169,-3.61478 2.68135,-0.38081 2.89789,-2.32988 0.64144,-5.77366 -1.20213,-1.83469 -2.53115,-2.48984 -5.05076,-2.48984 -3.00329,0 -3.41936,0.31752 -3.41936,2.60956 0,4.58304 -2.48611,2.0772 -3.17025,-3.19541 -0.98201,-7.56831 -0.27181,-9.35203 4.03073,-10.12353 2.02687,-0.36343 6.85804,-1.25159 10.73595,-1.97367 l 7.05074,-1.31287 27.79952,11.20419 c 15.28974,6.1623 28.19553,11.54839 28.67953,11.96908 1.09379,0.95071 10.90953,42.45343 10.37194,43.85439 -0.21499,0.56024 -2.15277,1.63268 -4.30619,2.3832 -2.64421,0.92157 -7.68662,5.0856 -15.53205,12.82641 -11.40205,11.25 -11.83147,11.553 -23.23351,16.39401 -6.38922,2.71269 -15.51794,5.9019 -20.28606,7.08714 -4.76812,1.18524 -9.39044,2.4317 -10.27182,2.76992 -1.30791,0.5019 -1.73132,-0.4669 -2.30322,-5.26994 z"
       style="fill:#d7eef4;fill-opacity:1;stroke:none;stroke-width:1.01174;stroke-linejoin:round" />
    <path
       transform="scale(0.26458333)"
       id="Tabango"
       d="m 175.75512,263.936 -26.59591,-10.98071 -11.28482,2.14621 c -6.20664,1.18042 -11.74827,2.77658 -12.31473,3.54702 -0.79742,1.08459 -1.66089,0.11426 -3.82508,-4.29844 -2.95107,-6.01711 -2.87069,-9.54416 0.21749,-9.54416 1.21586,0 2.18171,-1.2996 3.00293,-4.04061 0.75667,-2.52551 1.81649,-4.04061 2.82646,-4.04061 3.74698,0 6.0261,-7.6302 2.59619,-8.69174 -0.97227,-0.30091 -2.46841,-0.91311 -3.32476,-1.36045 -1.86454,-0.974 -5.45409,1.62972 -6.41332,4.65198 -0.9177,2.89142 -5.02052,4.58575 -8.18812,3.38143 -2.70358,-1.0279 -3.45071,-3.03198 -1.13034,-3.03198 2.16107,0 4.66187,-4.58694 4.66187,-8.55076 0,-3.38259 -0.17994,-3.57107 -3.40927,-3.57107 -2.97995,0 -3.48559,0.38161 -4.01535,3.03046 -1.03206,5.16029 -4.79436,4.12913 -11.569051,-3.17082 -4.783256,-5.15412 -5.856423,-6.98782 -6.355282,-10.85914 -0.430871,-3.34372 -0.217123,-4.88577 0.757615,-5.46567 2.193803,-1.30516 1.578459,-4.02005 -1.855367,-8.18588 -2.926791,-3.5507 -3.061849,-4.00883 -1.515229,-5.13974 0.933881,-0.68287 1.697965,-2.23683 1.697965,-3.45323 0,-1.21641 0.693526,-3.55278 1.541169,-5.19194 1.774991,-3.43245 4.080164,-3.76303 9.22296,-1.32261 3.3693,1.59884 3.54709,1.58091 5.00817,-0.50508 1.46415,-2.09037 2.18066,-2.16025 21.40809,-2.08788 10.94127,0.0412 21.93198,0.38211 24.42379,0.75761 l 4.53055,0.68274 2.22245,12.25526 2.22244,12.25527 19.94415,32.69652 c 24.83232,40.71021 23.99482,39.28193 22.96564,39.16563 -0.47157,-0.0533 -12.82556,-5.03822 -27.4533,-11.07761 z"
       style="fill:#d7eef4;fill-opacity:1;stroke:none;stroke-width:1.01174;stroke-linejoin:round" />
    <path
       transform="scale(0.26458333)"
       id="SanIsidro"
       d="m 125.44018,175.35984 -18.32199,-0.29914 -1.19401,-2.8826 c -0.80197,-1.93612 -2.56178,-3.41987 -5.3597,-4.51892 -4.131076,-1.62274 -4.960569,-1.38868 -6.054314,1.70831 -0.160846,0.45545 -2.664222,-0.40244 -5.563058,-1.90641 -5.403332,-2.80335 -7.288463,-6.00412 -7.303684,-12.40098 -0.0054,-2.24343 0.246079,-2.33332 4.792591,-1.71339 4.670744,0.63686 4.914409,0.53556 9.171291,-3.81295 5.344624,-5.45967 5.611104,-9.50267 0.732814,-11.11848 -2.542423,-0.84211 -3.185009,-0.66972 -4.416358,1.18479 -1.218719,1.83549 -2.395965,2.16469 -7.631262,2.13397 -5.01026,-0.0294 -6.75792,-0.50031 -9.168298,-2.47037 -2.780188,-2.27233 -2.885372,-2.60723 -1.583088,-5.04057 1.325129,-2.47603 1.173771,-2.8319 -3.02331,-7.10841 l -4.418277,-4.5019 -0.05955,-8.60389 -0.05955,-8.60389 -2.742379,-7e-5 c -3.324115,-8e-5 -4.833765,-2.44014 -4.833765,-7.812848 0,-2.147743 -0.45174,-4.356729 -1.003867,-4.908856 -0.552127,-0.552127 -1.293833,-3.778111 -1.648236,-7.168854 l -0.644369,-6.164987 9.476918,-0.6384 c 5.212305,-0.35112 13.766686,-0.738956 19.009735,-0.861858 l 9.532818,-0.223459 29.029978,37.366052 29.02998,37.36606 1.68295,9.60604 c 0.92562,5.28332 1.91803,10.62881 2.20535,11.87888 0.50019,2.17623 0.27086,2.26314 -5.39548,2.04455 -3.25484,-0.12556 -14.16278,-0.3629 -24.23988,-0.52742 z"
       style="fill:#d7eef4;fill-opacity:1;stroke:none;stroke-width:1.01174;stroke-linejoin:round" />
    <path
       transform="scale(0.26458333)"
       d="M 157.24219 376.125 C 141.36943 376.125 141.23775 376.145 134.81836 379.31055 L 128.36133 382.49414 L 127.72852 388.54883 C 127.38042 391.87926 127.06836 396.01608 127.03516 397.74023 C 126.98649 400.26665 125.91239 401.75645 121.50586 405.41992 C 114.44617 411.28915 114.39908 412.94738 121.25781 414.11719 C 127.15597 415.12317 127.04803 414.90442 128.62695 429.02539 L 129.29102 434.95508 L 134.25391 434.47852 C 136.9836 434.21624 139.23833 434.04817 139.26562 434.10547 C 139.29289 434.16281 139.69527 440.41915 140.1582 448.00977 C 140.93008 460.66638 141.2176 462.09999 143.64258 465.2793 C 148.05666 471.06646 147.34372 473.25872 136.91406 485.94531 C 128.73653 495.89244 127.07597 498.60622 123.30664 508.18945 C 120.94541 514.19271 119.01367 519.43672 119.01367 519.8418 C 119.01367 520.24687 119.92203 520.57812 121.0332 520.57812 C 122.14437 520.57812 123.05469 520.98364 123.05469 521.48047 C 123.05469 521.9773 124.37251 523.79598 125.98438 525.52148 C 129.43441 529.21476 129.70958 529.25504 133.66016 526.63867 C 135.32691 525.53483 137.94862 524.628 139.48633 524.625 L 142.2832 524.61914 L 141.65625 513.75977 L 141.0293 502.90039 L 170.47656 469.56445 C 188.1954 449.50655 199.75581 435.62657 199.5 434.71484 C 199.26616 433.88147 193.25387 420.35736 186.14062 404.66211 L 173.20703 376.125 L 157.24219 376.125 z M 119.66016 422.75 C 119.55137 422.74932 118.27113 430.87856 118.36523 430.97266 C 118.38697 430.9944 119.25491 431.15089 120.29297 431.31836 C 121.33104 431.48584 122.32744 431.62872 122.50781 431.63672 L 122.83594 431.65234 L 122.91797 429.50586 C 122.96331 428.32524 123.03703 426.40141 123.08203 425.23047 L 123.16406 423.10156 L 121.47266 422.92578 C 120.54225 422.82974 119.72646 422.75042 119.66016 422.75 z M 124.06641 443.54883 C 124.03419 443.58105 123.57512 445.08884 123.04492 446.89844 L 122.08008 450.1875 L 123.37109 452.21484 L 124.66211 454.24219 L 124.77344 457.31055 C 124.83491 458.99805 124.88667 460.7838 124.88867 461.2793 L 124.89453 462.17969 L 126.69336 463.32422 C 127.9939 464.15174 128.58043 464.45673 128.80859 464.42383 C 130.4051 464.19395 132.91554 463.81563 132.93164 463.80273 C 132.94272 463.79387 133.16471 461.36328 133.42383 458.40039 C 133.88751 453.09837 133.89121 453.00778 133.65625 452.71289 C 133.52495 452.5481 131.75508 450.4458 129.72461 448.04102 L 126.0332 443.66992 L 125.08008 443.58008 C 124.55522 443.53098 124.09861 443.51663 124.06641 443.54883 z M 128.74609 470.88477 L 128.38867 472.82812 C 128.19241 473.89747 128.00666 474.86168 127.97656 474.9707 C 127.92966 475.1404 128.24411 475.197 130.16406 475.36328 C 131.39747 475.4701 132.44985 475.56617 132.50195 475.57617 C 132.55407 475.58597 132.59856 475.55015 132.60156 475.49805 C 132.60448 475.44596 132.74147 474.43843 132.9043 473.25781 C 133.06712 472.0772 133.18843 471.09678 133.17383 471.08008 C 133.15922 471.06342 132.15556 471.0125 130.94531 470.9668 L 128.74609 470.88477 z "
       style="fill:#d7eef4;fill-opacity:1;stroke:none;stroke-width:1.01174;stroke-linejoin:round"
       id="Palompon" />
    <path
       transform="scale(0.26458333)"
       id="Isabel"
       d="m 203.10863,571.3646 c -2.0176,-0.25037 -3.28299,-0.97547 -3.28299,-1.8812 0,-0.81059 -1.81828,-3.4464 -4.04061,-5.85734 -2.22234,-2.41095 -4.04061,-5.3017 -4.04061,-6.42388 0,-1.31526 -1.66262,-3.12186 -4.67857,-5.08371 -3.00828,-1.95687 -5.62286,-4.79444 -7.3236,-7.94822 -1.8533,-3.43668 -3.37046,-5.00739 -5.0685,-5.24739 -2.36651,-0.33448 -2.40976,-0.20988 -1.84075,5.3033 l 0.5827,5.64583 h -4.41542 c -3.41764,0 -4.77077,-0.50733 -5.98793,-2.24507 -2.29128,-3.27126 -1.96948,-4.82773 1.82434,-8.82402 3.3012,-3.47735 3.38332,-3.76865 2.91615,-10.34387 l -0.48072,-6.76575 -4.35562,-1.8015 c -4.76616,-1.97131 -7.53757,-6.18871 -7.53757,-11.47031 0,-1.91305 -0.5179,-2.99619 -1.43262,-2.99619 -0.78793,0 -2.14107,-0.27186 -3.00697,-0.60414 -1.03275,-0.3963 -1.95008,0.22046 -2.66648,1.79279 -0.88872,1.95051 -0.51682,3.95721 1.99682,10.77457 3.69937,10.03323 4.01826,14.30075 1.06864,14.30075 -1.35402,0 -2.02031,-0.67344 -2.02031,-2.04196 0,-1.17461 -1.02884,-2.51074 -2.42213,-3.14556 -2.9103,-1.32602 -3.63878,-4.34158 -3.63878,-15.06271 v -7.87586 l 28.52647,-32.33013 c 15.68956,-17.78157 28.64155,-32.21505 28.78219,-32.07441 0.14065,0.14064 2.89521,22.7222 6.12126,50.18124 5.86223,49.89731 5.865,49.93481 4.91548,66.34051 -1.05931,18.3025 -0.19885,16.71364 -8.49387,15.68423 z"
       style="fill:#d7eef4;fill-opacity:1;stroke:none;stroke-width:1.01174;stroke-linejoin:round" />
    <path
       transform="scale(0.26458333)"
       id="Merida"
       d="m 213.472,555.17532 1.01945,-16.92008 -6.13924,-51.51778 -6.13923,-51.51778 -5.73936,-12.5219 c -3.15664,-6.88705 -5.73935,-13.07486 -5.73935,-13.7507 0,-1.55914 5.93312,-9.08274 7.16267,-9.08274 0.50662,0 11.78653,16.29983 25.06646,36.22185 l 24.14532,36.22185 -1.50064,3.59153 c -1.99601,4.77714 -0.37664,7.91346 4.90263,9.49517 2.99539,0.89744 3.86317,1.66988 3.86317,3.43874 0,1.25472 0.56821,2.48172 1.26269,2.72666 0.95066,0.3353 0.82585,1.20588 -0.50508,3.52303 -0.97227,1.69273 -1.76777,4.65652 -1.76777,6.58621 0,1.93281 -0.7014,4.09064 -1.56175,4.80466 -1.37406,1.14037 -1.13126,1.73701 2.0203,4.96451 4.20802,4.3094 4.55024,7.47417 1.20076,11.10405 -4.51125,4.8889 -27.92327,40.53797 -27.92327,42.51825 0,1.59163 -0.69504,1.98374 -3.51629,1.98374 -2.90825,0 -3.62589,0.43669 -4.15012,2.52538 -0.50782,2.02332 -1.26473,2.52539 -3.80732,2.52541 l -3.17348,3e-5 z"
       style="fill:#d7eef4;fill-opacity:1;stroke:none;stroke-width:1.01174;stroke-linejoin:round" />
    <path
       transform="scale(0.26458333)"
       id="Albuena"
       d="m 394.59532,577.08169 c -9.48293,-10.73597 -11.09331,-13.11025 -13.53155,-19.9505 -7.32036,-20.5365 -9.43849,-25.46661 -12.87482,-29.96703 -2.44137,-3.19737 -3.70845,-5.93388 -3.70845,-8.00916 0,-2.28309 -1.41288,-4.89851 -5.12376,-9.48473 -2.81807,-3.48281 -4.97727,-6.73494 -4.79822,-7.22697 0.54702,-1.50324 32.3632,-40.4554 33.03365,-40.44269 0.3448,0.007 13.58212,0.91429 29.41627,2.01725 15.83414,1.10295 29.75289,2.00674 30.93056,2.00842 1.95758,0.003 1.34039,1.85518 -7.19609,21.59805 l -9.33732,21.595 13.43304,25.55983 13.43305,25.55982 -26.33945,14.46449 c -14.4867,7.95545 -26.392,14.46447 -26.45622,14.46447 -0.0642,0 -4.96053,-5.4838 -10.88069,-12.18625 z"
       style="fill:#d7eef4;fill-opacity:1;stroke:none;stroke-width:1.01174;stroke-linejoin:round" />
    <path
       transform="scale(0.26458333)"
       id="Baybay"
       d="m 422.72479,807.79115 c -1.22096,-12.92949 -0.7998,-31.83957 0.74801,-33.58575 0.77748,-0.87713 1.89771,-4.75255 2.4894,-8.61205 0.90789,-5.92208 1.54271,-7.38269 4.0675,-9.35863 2.6879,-2.1036 2.89771,-2.66911 2.06606,-5.5689 -1.21467,-4.23527 0.0128,-5.3922 4.17978,-3.93958 4.53263,1.58008 4.64433,1.53548 5.3783,-2.14734 0.35985,-1.80565 2.68952,-6.34589 5.17703,-10.08942 2.48751,-3.74353 4.52275,-7.27779 4.52275,-7.8539 0,-0.57611 -1.65555,-4.33175 -3.679,-8.34586 l -3.67901,-7.2984 0.62683,-14.5797 0.62683,-14.5797 -4.11673,-11.17919 c -3.94141,-10.70308 -4.06533,-11.39429 -2.90964,-16.22995 2.06412,-8.63666 0.14415,-13.24152 -16.57362,-39.75019 -8.18162,-12.97327 -14.73204,-23.71207 -14.55648,-23.86401 0.76282,-0.66023 50.72696,-27.93101 51.50263,-28.11051 0.47338,-0.10954 6.0876,9.80134 12.47604,22.02419 10.59147,20.26439 12.94756,25.86701 26.72852,63.55866 l 15.11318,41.3353 4.8281,4.36471 c 2.65546,2.4006 7.55552,6.0442 10.88902,8.0969 17.13798,10.55321 17.48537,11.40904 18.71784,46.11253 0.49672,13.98674 0.91965,29.52154 0.93983,34.52179 l 0.0367,9.09138 -60.85989,11.0268 c -33.47294,6.06475 -61.58638,11.21363 -62.47432,11.44194 -1.31869,0.33908 -1.73374,-0.8482 -2.26566,-6.48112 z"
       style="fill:#d7eef4;fill-opacity:1;stroke:none;stroke-width:1.01174;stroke-linejoin:round" />
    <path
       transform="scale(0.26458333)"
       id="LaPaz"
       d="m 469.07063,576.61815 c -4.23854,-8.06855 -7.45782,-15.07235 -7.15396,-15.56401 0.30386,-0.49165 9.52933,-6.15325 20.50106,-12.58134 23.67259,-13.86924 30.06869,-18.99564 31.06607,-24.89906 0.60417,-3.5761 1.32404,-4.43803 5.89703,-7.06081 5.10105,-2.92564 5.50745,-2.98767 19.63711,-2.99695 13.39784,-0.009 14.78416,0.17087 19.41185,2.5159 4.38393,2.22151 6.27211,2.52538 15.69185,2.52538 9.73235,0 10.65864,0.16111 10.16375,1.76777 -0.29949,0.97227 -3.05314,14.26841 -6.11925,29.54696 -3.06609,15.27856 -5.805,28.76191 -6.08644,29.963 -0.45143,1.92649 -2.78145,2.7299 -19.77479,6.81853 l -19.26307,4.63473 h -28.13239 -28.13239 z"
       style="fill:#d7eef4;fill-opacity:1;stroke:none;stroke-width:1.01174;stroke-linejoin:round" />
    <path
       transform="scale(0.26458333)"
       id="Julita"
       d="m 559.18741,514.46502 -3.78808,-2.01694 V 480.2736 c 0,-17.69596 -0.2841,-33.595 -0.63134,-35.3312 l -0.63135,-3.15673 7.44988,-0.0967 c 4.09743,-0.0532 10.85914,-0.86043 15.02602,-1.79386 7.27555,-1.6298 7.84882,-1.61905 14.44888,0.27109 l 6.87274,1.96823 -0.70014,8.15938 c -0.38508,4.48766 -3.26488,21.11459 -6.39957,36.94874 l -5.69942,28.78934 -11.07978,0.22504 c -9.4149,0.19122 -11.64898,-0.078 -14.86784,-1.7919 z"
       style="fill:#d7eef4;fill-opacity:1;stroke:none;stroke-width:1.01174;stroke-linejoin:round" />
    <path
       transform="scale(0.26458333)"
       id="Dulag"
       d="m 603.03146,525.69383 c -7.97074,-4.3658 -14.86276,-8.32575 -15.31561,-8.79988 -0.45284,-0.47414 1.85861,-14.27184 5.13655,-30.66157 3.27795,-16.38972 6.019,-31.61777 6.09122,-33.84011 0.0722,-2.22233 0.41845,-5.24374 0.7694,-6.71424 l 0.6381,-2.67363 5.70264,1.77398 c 3.69089,1.14817 9.4817,4.52802 16.41498,9.58074 l 10.71234,7.80675 v 23.7707 23.77071 l -6.81853,11.9925 c -3.75019,6.59587 -7.2731,11.97886 -7.82868,11.96218 -0.55559,-0.0167 -7.53167,-3.60233 -15.50241,-7.96813 z"
       style="fill:#d7eef4;fill-opacity:1;stroke:none;stroke-width:1.01174;stroke-linejoin:round" />
    <path
       transform="scale(0.26458333)"
       id="Tolosa"
       d="m 622.57448,451.93947 c -8.33987,-6.31126 -10.15553,-7.20315 -21.96501,-10.78973 -7.0805,-2.15036 -12.86836,-4.13704 -12.8619,-4.41483 0.006,-0.27779 4.12315,-2.77792 9.14822,-5.55584 8.42761,-4.65888 10.01688,-6.07687 20.4834,-18.27584 10.94494,-12.75657 11.42582,-13.17269 13.5744,-11.74608 2.20792,1.466 2.22749,1.72646 2.22749,29.64005 0,15.48859 -0.34093,28.12983 -0.75761,28.09165 -0.41669,-0.0382 -4.84874,-3.16539 -9.84899,-6.94938 z"
       style="fill:#d7eef4;fill-opacity:1;stroke:none;stroke-width:1.01174;stroke-linejoin:round" />
    <path
       transform="scale(0.26458333)"
       id="Mayorga"
       d="m 573.76255,581.08321 c 0.28104,-0.77645 3.18668,-14.93513 6.45698,-31.46376 3.2703,-16.52862 6.2862,-30.05203 6.70199,-30.05203 1.47163,0 31.08055,16.40021 30.75319,17.03402 -0.18285,0.354 -1.95419,3.37106 -3.93633,6.70456 -3.2034,5.3874 -3.85329,7.7447 -5.84837,21.21321 -1.23447,8.33375 -2.5266,15.45953 -2.87139,15.83506 -0.34479,0.37552 -7.63343,1.01079 -16.19697,1.41171 -13.12126,0.61429 -15.48972,0.50691 -15.0591,-0.68277 z"
       style="fill:#d7eef4;fill-opacity:1;stroke:none;stroke-width:1.01174;stroke-linejoin:round" />
    <path
       transform="scale(0.26458333)"
       id="MacArthur"
       d="m 591.76483,620.43606 -15.65737,-12.06258 -16.66752,0.65814 c -13.24731,0.52308 -17.62801,1.06541 -21.34825,2.6429 l -4.68073,1.98478 -5.92587,-2.9643 c -5.31285,-2.65766 -7.28433,-3.03319 -19.05785,-3.63025 -7.22259,-0.36627 -15.64614,-0.93128 -18.71899,-1.25559 l -5.58701,-0.58964 -3.12325,-5.95548 -3.12325,-5.95549 h 27.59944 27.59943 l 18.67953,-4.50565 c 16.85347,-4.0652 20.34825,-4.5734 35.74954,-5.1986 l 17.07,-0.69294 0.66191,9.99682 c 0.36405,5.49825 0.66427,12.98167 0.66715,16.62983 0.005,5.80781 0.94642,13.44495 2.57672,20.89365 0.2736,1.25006 0.14786,2.22652 -0.27941,2.16991 -0.42728,-0.0566 -7.82267,-5.5311 -16.43422,-12.16551 z"
       style="fill:#d7eef4;fill-opacity:1;stroke:none;stroke-width:1.01174;stroke-linejoin:round" />
    <path
       transform="scale(0.26458333)"
       id="Javier"
       d="m 529.74426,700.61463 c -3.2764,-2.01489 -8.12687,-5.73195 -10.77882,-8.26013 -4.78465,-4.56135 -4.9341,-4.9063 -19.43908,-44.86991 l -14.61736,-40.27323 6.70836,0.60761 c 3.68959,0.33418 11.93589,0.90512 18.32511,1.26876 10.06204,0.57267 12.40921,1.0577 17.53799,3.62418 l 5.92124,2.96303 5.19044,-2.0454 c 4.0414,-1.59259 8.65661,-2.19169 20.8478,-2.70624 l 15.65737,-0.66086 16.15883,12.22038 c 8.88737,6.72121 16.29352,12.62439 16.45812,13.11818 0.34734,1.04204 -69.17235,68.23053 -70.87481,68.49817 -0.62595,0.0984 -3.81878,-1.46964 -7.09519,-3.48454 z"
       style="fill:#d7eef4;fill-opacity:1;stroke:none;stroke-width:1.01174;stroke-linejoin:round" />
    <path
       transform="scale(0.26458333)"
       id="Abuyog"
       d="m 643.39297,820.34034 c -3.13395,-12.47392 -3.45491,-15.34318 -4.71759,-42.17387 -0.74517,-15.83414 -1.37709,-29.1186 -1.40427,-29.52102 -0.12889,-1.90834 -6.50649,-3.81402 -12.7641,-3.81402 h -6.7541 l -13.75166,-9.83184 c -9.17627,-6.56064 -16.50923,-10.94209 -22.03976,-13.16878 l -8.28811,-3.33693 -12.39173,1.5298 c -6.81545,0.8414 -12.67703,1.19888 -13.02572,0.79441 -0.3487,-0.40447 -1.3919,-2.69573 -2.31822,-5.09169 -0.92633,-2.39597 -2.92661,-5.46802 -4.44506,-6.82677 l -2.76083,-2.47047 15.22314,-14.89151 c 25.94152,-25.3764 55.99261,-54.04929 55.99261,-53.42467 0,0.32757 0.95593,5.04042 2.12428,10.47299 1.76852,8.22323 2.97406,11.18851 7.19842,17.7061 l 5.07415,7.82869 h 5.45348 c 4.92449,0 5.54905,0.25134 6.43864,2.59114 0.54183,1.42513 0.98515,3.626 0.98515,4.89083 0,1.93609 0.9685,2.59292 6.12568,4.15439 5.77063,1.74721 6.2926,1.7561 9.00576,0.15339 1.58405,-0.93572 5.59945,-1.98554 8.92311,-2.33293 l 6.04303,-0.63162 13.23548,9.3229 c 7.27951,5.12759 13.23548,9.51613 13.23548,9.75231 0,0.23618 -2.00819,4.12568 -4.46265,8.64334 l -4.46266,8.21393 4.33191,6.45735 c 3.84786,5.73583 5.54768,7.1737 15.21256,12.86826 9.40567,5.54181 11.33457,7.14448 14.22899,11.82244 l 3.34831,5.41155 -5.33374,5.55584 c -2.93355,3.05571 -19.77597,20.67024 -37.4276,39.14341 -17.65164,18.47316 -32.17843,33.58757 -32.28176,33.58757 -0.10333,0 -1.70111,-6.02304 -3.55062,-13.38452 z"
       style="fill:#d7eef4;fill-opacity:1;stroke:none;stroke-width:1.01174;stroke-linejoin:round" />
    <path
       transform="scale(0.26458333)"
       id="Mahaplag"
       d="m 566.81894,833.98437 c -6.75713,-0.27706 -8.37126,-0.65694 -8.78386,-2.06724 -0.27802,-0.95029 -2.09148,-10.59189 -4.02992,-21.42578 -3.29539,-18.41786 -3.59072,-21.86251 -4.54437,-53.00512 -0.56097,-18.31893 -0.81157,-33.51552 -0.5569,-33.77019 0.25467,-0.25467 5.90813,-1.05285 12.56323,-1.77372 l 12.1002,-1.31068 7.33098,2.83911 c 4.78202,1.85196 12.33425,6.41029 21.72066,13.11005 l 14.38968,10.27094 h 7.38807 c 11.68853,0 10.89284,-2.03954 12.4524,31.91845 1.27012,27.65558 1.52256,29.90187 4.78533,42.5803 l 3.44449,13.38452 -34.99081,-0.20562 c -19.24495,-0.11308 -38.71608,-0.35835 -43.26918,-0.54502 z"
       style="fill:#d7eef4;fill-opacity:1;stroke:none;stroke-width:1.01174;stroke-linejoin:round" />
    <path
       transform="scale(0.26458333)"
       id="Inopacan"
       d="m 432.16072,878.59327 c -5.27804,-1.39531 -16.7559,-4.39594 -25.50635,-6.66807 -17.74482,-4.60761 -16.81459,-3.80309 -15.26154,-13.19907 0.62246,-3.76583 0.65468,-3.78807 5.48745,-3.78807 3.89743,0 5.17615,-0.45065 6.44921,-2.27284 0.87334,-1.25007 3.51289,-3.18537 5.86565,-4.30067 3.95664,-1.8756 4.30149,-2.35793 4.59384,-6.42518 0.27386,-3.80995 0.71241,-4.54696 3.283,-5.51725 1.93616,-0.73082 2.96923,-1.83257 2.97357,-3.17126 0.004,-1.12826 0.89146,-3.39366 1.97289,-5.03422 1.50492,-2.283 1.82665,-4.00129 1.37127,-7.32361 -0.32723,-2.38742 -0.41954,-4.3649 -0.20513,-4.39439 0.21442,-0.0295 28.5731,-5.17499 63.0193,-11.43443 l 62.62946,-11.3808 3.85984,20.77834 3.85983,20.77834 -5.29235,18.94036 c -2.9108,10.4172 -5.67749,18.94036 -6.14822,18.94036 -0.47073,0 -3.23536,-1.56987 -6.14362,-3.48859 -5.02361,-3.3143 -6.24656,-3.6149 -24.48066,-6.01732 l -19.1929,-2.52874 -5.28777,3.49194 c -4.80226,3.17133 -5.957,3.49194 -12.57678,3.49194 -7.21791,0 -7.37912,0.0594 -16.5243,6.08971 -11.4856,7.57356 -14.88474,8.09782 -28.74569,4.43352 z"
       style="fill:#d7eef4;fill-opacity:1;stroke:none;stroke-width:1.01174;stroke-linejoin:round" />
    <path
       transform="scale(0.26458333)"
       id="Hindang"
       d="m 402.8663,920.98427 c -0.83338,-0.14408 -4.05087,-0.54017 -7.14998,-0.8802 l -5.63476,-0.61823 1.82128,-8.28277 c 1.0017,-4.55552 2.09928,-13.05573 2.43907,-18.88936 0.53096,-9.11562 0.32918,-11.4231 -1.43541,-16.41498 -1.12927,-3.19461 -1.88956,-5.80838 -1.68954,-5.80838 0.20002,0 11.88068,2.95097 25.95702,6.55771 14.07634,3.60674 26.50248,6.5589 27.61365,6.56036 4.33003,0.006 9.72274,-2.26047 17.32657,-7.28103 7.41109,-4.8933 8.45459,-5.27782 16.02631,-5.90558 6.56123,-0.54398 9.05906,-1.26216 13.15483,-3.78231 l 5.05574,-3.11083 18.56784,2.51516 c 18.37651,2.48925 18.62716,2.55679 24.32627,6.55448 l 5.75843,4.03932 -1.46563,5.26012 -1.46563,5.26012 -50.7323,15.5065 -50.7323,15.50651 -13.11452,-0.72531 c -12.60611,-0.69719 -13.3083,-0.62983 -18.11312,1.73768 -2.74922,1.35464 -5.68044,2.3451 -6.51382,2.20102 z"
       style="fill:#d7eef4;fill-opacity:1;stroke:none;stroke-width:1.01174;stroke-linejoin:round" />
    <path
       transform="scale(0.26458333)"
       id="Hilongos"
       d="m 419.13339,961.61579 c -2.60864,-2.65802 -6.88219,-5.51245 -10.65134,-7.11436 -6.28997,-2.67327 -6.29945,-2.68367 -12.52124,-13.72686 -4.77743,-8.47959 -6.22649,-12.00133 -6.22649,-15.13264 v -4.08107 l 7.87112,0.65642 c 6.96011,0.58045 8.39129,0.39106 12.36541,-1.63639 4.22292,-2.15437 5.32119,-2.25745 18.1888,-1.70712 l 13.6945,0.58569 48.94391,-14.99287 c 26.91915,-8.24608 49.11106,-14.8307 49.31535,-14.63248 0.20431,0.19821 -3.72694,9.13309 -8.7361,19.85528 l -9.10755,19.49488 -0.72406,18.43529 -0.72406,18.43528 h -48.66582 -48.66583 z"
       style="fill:#d7eef4;fill-opacity:1;stroke:none;stroke-width:1.01174;stroke-linejoin:round" />
    <path
       transform="scale(0.26458333)"
       id="path1015"
       d="m 450.67278,1003.5851 c -3.98576,-0.9184 -7.51042,-1.9368 -7.83258,-2.263 -0.32215,-0.3262 -1.08159,-3.27546 -1.68763,-6.55385 -1.02547,-5.54727 -5.03312,-12.19627 -15.32804,-25.43041 -0.78273,-1.00622 8.75582,-1.26269 46.96027,-1.26269 h 47.94251 l 1.42398,10.35406 c 0.78318,5.69474 1.42493,10.7792 1.42611,11.29881 10e-4,0.51961 -5.8566,4.2698 -13.01726,8.33376 l -13.01938,7.38902 -19.81058,-0.098 c -14.53461,-0.072 -21.74054,-0.5426 -27.0574,-1.7678 z"
       style="fill:#d7eef4;fill-opacity:1;stroke:none;stroke-width:1.01174;stroke-linejoin:round" />
    <path
       transform="scale(0.26458333)"
       id="Matalom"
       d="m 428.62519,1100.7056 c -1.11117,-0.239 -3.4248,-2.3363 -5.1414,-4.6607 l -3.1211,-4.2261 2.70409,-6.0609 c 2.29426,-5.1423 2.80291,-8.0234 3.35615,-19.0097 1.07212,-21.2905 2.08301,-25.2785 8.48287,-33.4649 4.81601,-6.1604 5.41061,-7.4209 4.86713,-10.3179 -0.43753,-2.3322 0.0151,-4.5433 1.54337,-7.5389 1.5815,-3.1 2.00062,-5.2512 1.55999,-8.0067 l -0.6025,-3.7678 8.32799,1.8836 c 6.54061,1.4794 12.52376,1.8892 27.87744,1.9096 l 19.54946,0.026 12.77543,-7.2012 c 7.02648,-3.96068 13.04406,-7.3521 13.37239,-7.53649 0.32834,-0.1844 1.54689,0.94956 2.70789,2.5199 1.79207,2.4239 2.35039,5.71309 3.69618,21.77519 0.8719,10.406 1.58526,19.2782 1.58526,19.7159 0,1.7704 -5.66906,1.7001 -11.11107,-0.1376 l -5.78106,-1.9523 -9.01246,2.3182 -9.01246,2.3182 -9.92839,10.8915 c -5.46062,5.9904 -11.16853,11.5329 -12.68424,12.3167 -6.59452,3.4101 -28.93311,22.1205 -36.04783,30.1929 -4.22862,4.7978 -7.74564,8.6614 -7.81561,8.5857 -0.07,-0.076 -1.03635,-0.3331 -2.14752,-0.5721 z"
       style="fill:#d7eef4;fill-opacity:1;stroke:none;stroke-width:1.01174;stroke-linejoin:round" />
  </g>
</svg>
