<?xml version="1.0" encoding="UTF-8" standalone="no"?>
<svg
   xmlns:dc="http://purl.org/dc/elements/1.1/"
   xmlns:cc="http://creativecommons.org/ns#"
   xmlns:rdf="http://www.w3.org/1999/02/22-rdf-syntax-ns#"
   xmlns:svg="http://www.w3.org/2000/svg"
   xmlns="http://www.w3.org/2000/svg"
   xmlns:sodipodi="http://sodipodi.sourceforge.net/DTD/sodipodi-0.dtd"
   xmlns:inkscape="http://www.inkscape.org/namespaces/inkscape"
   sodipodi:docname="Pangasinan.svg"
   inkscape:version="1.0 (4035a4fb49, 2020-05-01)"
   id="svg8"
   version="1.1"
   viewBox="0 0 210 297"
   height="297mm"
   width="210mm">
  <defs
     id="defs2" />
  <sodipodi:namedview
     showguides="false"
     inkscape:window-maximized="0"
     inkscape:window-y="40"
     inkscape:window-x="952"
     inkscape:window-height="1330"
     inkscape:window-width="1193"
     showgrid="false"
     inkscape:document-rotation="0"
     inkscape:current-layer="layer1"
     inkscape:document-units="mm"
     inkscape:cy="616.86507"
     inkscape:cx="556.5018"
     inkscape:zoom="1.4"
     inkscape:pageshadow="2"
     inkscape:pageopacity="0.0"
     borderopacity="1.0"
     bordercolor="#666666"
     pagecolor="#ffffff"
     id="base" />
  <metadata
     id="metadata5">
    <rdf:RDF>
      <cc:Work
         rdf:about="">
        <dc:format>image/svg+xml</dc:format>
        <dc:type
           rdf:resource="http://purl.org/dc/dcmitype/StillImage" />
        <dc:title></dc:title>
      </cc:Work>
    </rdf:RDF>
  </metadata>
  <g
     id="layer1"
     inkscape:groupmode="layer"
     inkscape:label="Layer 1">
    <path
       id="path24"
       d="m 25.702381,87.12351 0.377976,-2.83482 2.078868,-1.700893 2.456847,-0.377975 h 2.83482 l 1.13393,2.078868 h 1.889879 l 0.708705,1.039434 -0.708705,0.566965 1.559153,1.41741 0.04725,3.071056 -0.566965,0.377978 0.283483,4.299479 -2.362351,3.921501 1.606399,3.968747 -0.566965,1.41742 -3.071056,2.64583 -0.425222,1.6064 0.377976,0.56696 0.614211,0.0945 1.133928,-1.88989 h 1.181177 l 0.236233,0.61422 1.13393,-0.61422 1.606399,1.32292 2.598587,0.23624 1.039434,0.89769 -0.236236,1.6064 h 0.755952 l 0.708705,-1.27567 1.653645,0.18899 0.803201,4.06324 1.889882,0.51972 2.882066,2.78757 0.236236,1.98438 1.322917,0.42522 0.614212,-0.28348 0.472469,-3.26005 3.212798,0.14174 0.850448,1.88989 1.842632,0.18898 0.992188,-0.7087 0.992187,0.23623 0.330729,2.69308 2.740327,0.47248 3.496281,3.96875 -0.236236,1.79538 h -1.133928 l -1.842635,-1.98437 -0.661458,0.33073 0.283482,0.85044 1.559153,1.74814 -0.377976,1.18118 -1.511906,1.32291 0.141743,1.08669 3.685267,2.17336 0.283483,2.64583 -2.031624,0.47247 -0.09449,1.32292 1.984375,0.14174 0.377976,1.32292 3.96875,1.70089 0.897694,4.01599 0.944941,-0.0472 -0.708705,-2.69308 3.071056,0.33073 -0.09449,-0.0472 1.133927,0.85045 3.260045,-0.18899 2.315104,3.26004 0.708705,-0.89769 2.315104,0.33073 0.141743,-0.51972 -3.732517,-2.36235 5.149927,-0.14174 13.229169,-5.81139 2.36235,-0.51971 -0.14174,-0.75595 7.60677,-6.23661 0.37797,0.18899 -0.47247,2.22061 -0.99219,1.18117 0.23624,0.51972 1.84264,-1.27567 1.13392,-2.3151 -1.46465,-1.88988 5.85863,-6.28386 0.89769,-2.45684 -0.42522,-4.53572 15.02455,0.18899 2.3151,-5.6224 19.74926,8.55172 9.07143,-0.51972 7.70126,-2.45685 17.38691,6.37835 4.7247,11.1503 v 2.07887 l 0.70871,2.64583 6.28385,6.75633 -0.28348,10.20535 -0.0473,2.03163 -1.37016,3.73251 -0.18899,4.016 -6.75632,5.81138 -0.18899,4.67746 -2.78758,3.96875 -0.7087,3.827 -2.97657,1.65365 -2.03162,2.55134 -1.13393,0.0472 -3.1183,-4.34673 -5.85863,-4.86644 -3.59077,-0.37798 -6.47285,2.92932 -11.67001,1.32291 -4.58296,-9.40215 -0.8032,-0.28349 -0.0472,1.74814 -0.85045,0.47247 -4.39397,13.93788 -2.78757,3.59077 -13.51265,1.37016 -3.16555,-1.84263 -8.26823,0.37797 -3.44904,-3.07105 -1.84263,-0.42522 -3.07105,-2.83483 -0.23624,-2.26785 -1.65365,-1.65365 -1.55915,-0.0945 0.0945,-1.84264 -2.598588,-3.9215 -1.370166,-0.0945 0.283483,-1.7009 -1.039434,-0.94494 -1.27567,-0.0945 -3.874254,4.20498 h -1.086684 l -2.315104,2.55134 h -1.086681 l -11.481027,9.26042 -1.511903,0.18899"
       style="fill:none;stroke:#000000;stroke-width:0.264583px;stroke-linecap:butt;stroke-linejoin:miter;stroke-opacity:1" />
    <path
       id="path26"
       d="m 72.146204,181.38132 1.795388,4.72471 1.086681,5.90587 12.520462,21.35566 1.937128,1.6064 h 1.889879 l 2.693083,-0.94495 1.41741,-2.59858 5.055435,-1.93713 0.75595,0.0945 4.7247,-7.60678 1.98438,-1.03943 v -4.39397 l 1.98437,-0.23624 3.68528,-4.48843"
       style="fill:none;stroke:#000000;stroke-width:0.264583px;stroke-linecap:butt;stroke-linejoin:miter;stroke-opacity:1" />
    <path
       id="path28"
       d="m 72.146204,181.38132 -7.600614,-0.17258 7.14946,-20.91384 -15.434815,1.20271 -5.479026,-1.20271 -0.133633,-1.87089 -23.252449,2.93997 0.267269,1.5368 0.601357,0.20045 -0.26727,1.9377 3.207234,3.34087 -0.334087,3.14042 3.407687,5.07812 -0.26727,1.20271 -3.073599,1.87089 -0.868626,2.53906 3.274052,0.26727 2.138156,-1.33635 1.804069,1.46998 h 3.407687 l 0.400904,-1.06907 2.605878,0.20045 1.403165,-2.87315 2.271791,-0.86862 3.073599,-3.14042 1.670435,-0.80181 5.278573,4.54358 7.283095,2.60588"
       style="fill:none;stroke:#000000;stroke-width:0.264583px;stroke-linecap:butt;stroke-linejoin:miter;stroke-opacity:1" />
    <path
       id="path30"
       d="m 25.702381,87.12351 v 0 0 0 l -0.472471,0.496096 -0.897693,0.04725 -1.015811,-1.015812 -2.14974,-0.236236 -3.354538,1.866259 -2.409598,2.69308 -2.244234,4.323101 -0.566964,4.464844 -0.944941,1.086678 -0.09449,6.8272 0.779576,0.85044 -0.779576,1.06306 0.165365,1.77176 -1.9607517,1.6064 -0.034581,5.49959 -0.8018087,0.63476 0.334087,2.73951 1.8040694,0.50114 0.23386,3.77518 1.069078,0.83521 0.100227,1.9043 -2.706104,2.20497 -0.066817,1.63703 0.734991,0.60135 -0.133634,4.9779 -1.2027134,1.87089 -0.033409,2.50565 2.6726944,3.04019 -0.167043,0.96885 -1.804069,0.80181 -0.066817,1.1359 -0.6013564,0.13363 -0.033409,3.80859 -0.3674957,0.63477 H 7.550364 l -0.5011304,0.7684 0.033409,1.63702 0.7349913,0.3675 0.200452,2.33861 1.7038434,1.46998 0.033409,2.80633 1.2027127,1.26953 1.436574,0.10023 1.403165,-1.9043 1.236122,1.26953 h 2.071339 l 1.302939,-1.1693 -0.03341,-3.8086 0.601356,-0.43431 2.03793,-0.0334 1.703843,-1.40316 1.302939,-0.13364 1.236122,0.70159 0.534539,2.57247 1.603618,1.77066"
       style="fill:none;stroke:#000000;stroke-width:0.264583px;stroke-linecap:butt;stroke-linejoin:miter;stroke-opacity:1" />
    <path
       id="path32"
       d="m 7.984677,157.15448 1.4365737,-0.63476 4.6438083,-5.51244 1.904295,-4.17608 5.144938,-5.31199 8.753078,-0.0668 3.107007,0.66817 1.503392,-0.83522 3.841999,0.56795"
       style="fill:none;stroke:#000000;stroke-width:0.264583px;stroke-linecap:butt;stroke-linejoin:miter;stroke-opacity:1" />
    <path
       id="path34"
       d="m 12.331477,108.52641 3.968746,3.77977 5.622396,3.21279 2.173363,-0.18899 6.66183,6.47285 -1.181177,6.94531 -6.472841,5.19717 -2.645833,-0.0945 -5.433408,4.67745 -5.8113834,2.97656"
       style="fill:none;stroke:#000000;stroke-width:0.264583px;stroke-linecap:butt;stroke-linejoin:miter;stroke-opacity:1" />
    <path
       id="path36"
       d="m 29.576635,128.74814 8.835194,7.55952 -0.09206,5.54565 2.265426,2.72258 7.654017,3.30729 3.118302,5.29167 -0.709937,5.24916"
       style="fill:none;stroke:#000000;stroke-width:0.264583px;stroke-linecap:butt;stroke-linejoin:miter;stroke-opacity:1" />
    <path
       id="path38"
       d="m 41.860866,108.95164 -0.897696,2.97656 -3.307292,2.78757 -1.322917,0.0945 -0.897694,1.98437 -4.677455,5.00819 3.449033,1.13393 5.338914,5.57515 5.527902,3.49627 2.267857,-0.0945 14.882815,-10.86682"
       style="fill:none;stroke:#000000;stroke-width:0.264583px;stroke-linecap:butt;stroke-linejoin:miter;stroke-opacity:1" />
    <path
       id="path40"
       d="m 46.349329,131.96094 0.566965,3.0238 16.300223,13.60715 8.478533,11.70301"
       style="fill:none;stroke:#000000;stroke-width:0.264583px;stroke-linecap:butt;stroke-linejoin:miter;stroke-opacity:1" />
    <path
       id="path42"
       d="m 63.216517,148.59189 4.346725,-9.92188"
       style="fill:none;stroke:#000000;stroke-width:0.264583px;stroke-linecap:butt;stroke-linejoin:miter;stroke-opacity:1" />
    <path
       id="path44"
       d="m 72.146204,181.38132 2.976563,-2.3151 5.10268,-14.55208 8.031993,-1.51191"
       style="fill:none;stroke:#000000;stroke-width:0.264583px;stroke-linecap:butt;stroke-linejoin:miter;stroke-opacity:1" />
    <path
       id="path46"
       d="m 11.717262,102.76228 7.370535,3.16555 h 3.02381 L 35.43527,98.982513"
       style="fill:none;stroke:#000000;stroke-width:0.264583px;stroke-linecap:butt;stroke-linejoin:miter;stroke-opacity:1" />
    <path
       id="path48"
       d="m 35.293527,76.587426 3.449032,-0.283483 3.354538,3.496278 0.236236,0.850448 0.850447,1.086681 0.661459,2.740326 -0.0945,1.889882 -1.27567,0.188989 -0.614209,-0.708705 -3.68527,-0.236236 -0.614209,-2.173364 -1.984375,-0.04725 -1.086684,-0.944941 -0.330729,-3.260045 z"
       style="fill:none;stroke:#000000;stroke-width:0.264583px;stroke-linecap:butt;stroke-linejoin:miter;stroke-opacity:1" />
    <path
       id="path50"
       d="m 41.293899,87.170759 2.83482,0.472469 -1.842633,2.55134 -2.126117,-0.188989 -0.33073,-1.370163 z"
       style="fill:none;stroke:#000000;stroke-width:0.264583px;stroke-linecap:butt;stroke-linejoin:miter;stroke-opacity:1" />
    <path
       id="path52"
       d="m 45.120906,89.485863 2.740329,0.472469 0.661459,0.755952 1.559149,0.425225 -0.04725,3.590774 0.566965,0.661458 2.69308,0.33073 0.04725,1.417409 -3.165549,4.77195 0.566963,3.73252 -0.944938,0.56696 0.236233,0.85045 1.181177,-0.70871 1.842632,0.28348 0.330729,0.8032 -0.708705,0.94494 v 1.55915 l -1.181174,1.41741 -1.322917,0.0472 -1.13393,1.32292 -0.944941,-0.0472 -1.181174,-3.44903 -1.322916,-0.23624 -0.09449,-1.55915 -4.063245,-2.69308 -1.039435,-1.65364 1.181177,-0.23624 -2.267857,-2.07887 -0.330729,-1.181175 -0.472472,-0.14174 -0.992188,1.086685 -0.377976,-0.33073 -0.04725,-1.748143 2.834822,-5.338913 1.181174,-0.614212 0.897695,0.377976 0.188989,1.27567 h 0.708705 l 0.803198,-3.685267 z"
       style="fill:none;stroke:#000000;stroke-width:0.264583px;stroke-linecap:butt;stroke-linejoin:miter;stroke-opacity:1" />
    <path
       id="path54"
       d="m 112.30619,133.00046 0.61518,2.03747 -1.20271,2.07134 0.60136,1.73725 0.26727,2.80633 1.80407,2.40542 -0.0668,1.73725 -1.73725,2.93997 0.73499,6.21402 0.80181,2.67269 -0.0668,3.47451 -1.5368,6.48128 -4.40995,1.5368 -0.73499,1.40317 1.46998,1.33634 0.33409,2.13816 2.33861,2.47224 5.21175,0.33409 4.74404,-2.13816 -5.07812,-5.54584 -3.87541,-1.67043"
       style="fill:none;stroke:#000000;stroke-width:0.264583px;stroke-linecap:butt;stroke-linejoin:miter;stroke-opacity:1" />
    <path
       id="path56"
       d="M 98.273818,173.91631 108.84555,171.8543"
       style="fill:none;stroke:#000000;stroke-width:0.264583px;stroke-linecap:butt;stroke-linejoin:miter;stroke-opacity:1" />
    <path
       id="path58"
       d="m 75.436824,143.12283 1.00226,2.47224 4.009044,1.60362 h 1.670433 l 0.668174,2.13816 0.935445,0.33408 3.340867,0.40091 0.734991,1.73725 -0.601355,0.93544 0.868624,1.33635 2.071341,-0.73499 0.133633,-1.33635 -0.868624,-1.20271 H 88.53303 l -0.601356,0.93544"
       style="fill:none;stroke:#000000;stroke-width:0.264583px;stroke-linecap:butt;stroke-linejoin:miter;stroke-opacity:1" />
    <path
       id="path60"
       d="m 88.065305,154.08088 0.192135,8.92135"
       style="fill:none;stroke:#000000;stroke-width:0.264583px;stroke-linecap:butt;stroke-linejoin:miter;stroke-opacity:1" />
    <path
       id="path62"
       d="m 80.448128,147.19869 -1.737254,1.67044 -1.269529,0.33408 -0.200451,1.00226 -3.274052,2.93997 -2.271792,7.14946"
       style="fill:none;stroke:#000000;stroke-width:0.264583px;stroke-linecap:butt;stroke-linejoin:miter;stroke-opacity:1" />
    <path
       id="path64"
       d="m 77.240894,150.20547 1.937702,1.06908 h 1.403165 l 0.53454,-0.60136 -0.734991,-1.9377 -1.670436,0.13364"
       style="fill:none;stroke:#000000;stroke-width:0.264583px;stroke-linecap:butt;stroke-linejoin:miter;stroke-opacity:1" />
    <path
       id="path66"
       d="m 91.539813,150.60638 2.138156,2.80633 h 1.202711 l 1.135896,-1.1359 1.33635,0.13364 0.133633,-1.06908 0.868627,-0.53454 -0.734992,-1.06908 -1.603618,-0.20045 -2.204974,1.60361 -1.937702,-0.46772 z"
       style="fill:none;stroke:#000000;stroke-width:0.264583px;stroke-linecap:butt;stroke-linejoin:miter;stroke-opacity:1" />
    <path
       id="path68"
       d="m 91.138908,142.32102 2.672694,8.81989"
       style="fill:none;stroke:#000000;stroke-width:0.264583px;stroke-linecap:butt;stroke-linejoin:miter;stroke-opacity:1" />
    <path
       id="path70"
       d="m 95.882943,140.24968 5.879927,7.21628 0.53454,6.74856 5.47902,0.20045 5.21176,4.47676 4.27631,0.46773 2.13816,-1.06908 2.47224,0.13363 3.60814,-3.34087 1.20272,-0.13363 1.53679,-1.1359 2.13816,0.0668 0.66818,-1.00226"
       style="fill:none;stroke:#000000;stroke-width:0.264583px;stroke-linecap:butt;stroke-linejoin:miter;stroke-opacity:1" />
    <path
       id="path72"
       d="m 113.92363,126.81939 2.00453,2.33861 1.60361,0.4009 1.1359,3.80859 v 1.46999 l 12.36122,18.04067 2.47224,7.28311 0.0668,2.00452 4.07585,5.61266 0.0668,2.93997 -2.07134,-0.26727 -1.06907,0.73499 0.20045,1.26953 -4.94449,0.13364 -1.46998,2.00452 -0.86863,3.0736 -3.74177,3.40768 -0.33409,7.41673 1.00226,1.20272 -1.00226,0.8018 0.13364,1.80407"
       style="fill:none;stroke:#000000;stroke-width:0.264583px;stroke-linecap:butt;stroke-linejoin:miter;stroke-opacity:1" />
    <path
       sodipodi:nodetypes="cc"
       id="path74"
       d="m 113.86392,176.45133 -0.18757,15.37162"
       style="fill:none;stroke:#000000;stroke-width:0.264583px;stroke-linecap:butt;stroke-linejoin:miter;stroke-opacity:1" />
    <path
       id="path76"
       d="m 88.25744,163.00223 3.683278,2.83851 0.467719,1.87089 2.939966,1.20271 1.885981,4.05703"
       style="fill:none;stroke:#000000;stroke-width:0.264583px;stroke-linecap:butt;stroke-linejoin:miter;stroke-opacity:1" />
    <path
       sodipodi:nodetypes="ccccccccc"
       id="path78"
       d="m 88.065307,157.08766 6.68174,-1.13589 2.405425,-0.20045 1.336347,1.00226 1.603621,-1.33635 -0.467725,-1.00226 -2.138156,-0.60136 -0.467723,0.80181 0.133636,1.1359"
       style="fill:none;stroke:#000000;stroke-width:0.264583px;stroke-linecap:butt;stroke-linejoin:miter;stroke-opacity:1" />
    <path
       id="path80"
       d="m 93.677969,153.41271 1.069078,2.53906"
       style="fill:none;stroke:#000000;stroke-width:0.264583px;stroke-linecap:butt;stroke-linejoin:miter;stroke-opacity:1" />
    <path
       id="path82"
       d="m 100.09244,155.41723 2.20497,-1.20271"
       style="fill:none;stroke:#000000;stroke-width:0.264583px;stroke-linecap:butt;stroke-linejoin:miter;stroke-opacity:1" />
    <path
       sodipodi:nodetypes="cccccccc"
       id="path84"
       d="m 154.05912,118.16965 0.34415,12.51562 1.13393,1.79538 0.0945,10.48884 -1.98438,2.83482 -4.91369,3.59078 -19.93824,-0.37798 c -0.30711,0.0236 0,0 0,0"
       style="fill:none;stroke:#000000;stroke-width:0.264583px;stroke-linecap:butt;stroke-linejoin:miter;stroke-opacity:1" />
    <path
       id="path86"
       d="m 127.14174,115.56622 1.84263,10.48884 -0.0945,6.42559 2.07887,1.13393 v 2.17337 l 5.10268,2.07886 h 3.21279 l 2.74033,-0.37797 3.11831,1.5119 9.26041,-8.31547"
       style="fill:none;stroke:#000000;stroke-width:0.264583px;stroke-linecap:butt;stroke-linejoin:miter;stroke-opacity:1"
       sodipodi:nodetypes="cccccccccc" />
    <path
       id="path88"
       d="m 118.66767,134.83748 4.0801,-0.93942 7.27604,-9.54389 4.15774,-1.22843 3.30729,1.22843 5.48065,0.47247 1.98438,-0.94494 3.77976,0.18898 2.55134,9.26042"
       style="fill:none;stroke:#000000;stroke-width:0.264583px;stroke-linecap:butt;stroke-linejoin:miter;stroke-opacity:1" />
    <path
       id="path90"
       d="m 164.4669,118.11765 0.42521,9.92178 3.40179,8.78795 0.28348,8.12649 -2.17336,7.37053 -5.48066,3.49628 h -1.88988 l -3.59077,1.79539 0.18899,3.1183 -2.07888,0.56697 -0.56696,0.94494 1.70089,2.83482 2.74033,0.0945 3.49628,-2.74032 3.49628,0.28348 1.51191,-1.13393 18.52083,-0.47247 16.72544,-6.23661"
       style="fill:none;stroke:#000000;stroke-width:0.264583px;stroke-linecap:butt;stroke-linejoin:miter;stroke-opacity:1" />
    <path
       id="path92"
       d="m 199.76041,143.34747 -8.88244,4.34673 -8.78794,3.30729 -3.77976,2.92931 -1.32292,2.26786 -8.40997,5.38616 0.75595,8.88244 2.31511,7.18155"
       style="fill:none;stroke:#000000;stroke-width:0.264583px;stroke-linecap:butt;stroke-linejoin:miter;stroke-opacity:1" />
    <path
       id="path94"
       d="m 156.29315,165.31733 2.74033,9.5439 2.83482,5.85864"
       style="fill:none;stroke:#000000;stroke-width:0.264583px;stroke-linecap:butt;stroke-linejoin:miter;stroke-opacity:1" />
    <path
       id="path96"
       d="m 121.47404,174.66063 6.89612,3.74413 5.5279,1.65365 10.20536,-0.37798"
       style="fill:none;stroke:#000000;stroke-width:0.264583px;stroke-linecap:butt;stroke-linejoin:miter;stroke-opacity:1" />
    <path
       id="path98"
       d="m 134.77062,172.45566 5.83652,0.0905 1.03943,2.22061 0.47248,4.77195"
       style="fill:none;stroke:#000000;stroke-width:0.264583px;stroke-linecap:butt;stroke-linejoin:miter;stroke-opacity:1" />
    <path
       id="path100"
       d="m 140.60714,172.54616 1.18118,-0.80323 3.26004,-0.51972 2.12612,-1.98437 3.26004,-1.74814 2.59859,-0.8977 1.65364,-1.5119"
       style="fill:none;stroke:#000000;stroke-width:0.264583px;stroke-linecap:butt;stroke-linejoin:miter;stroke-opacity:1" />
    <path
       id="path102"
       d="m 147.17448,169.23884 -0.47251,2.92935"
       style="fill:none;stroke:#000000;stroke-width:0.264583px;stroke-linecap:butt;stroke-linejoin:miter;stroke-opacity:1" />
    <path
       id="path104"
       d="m 133.70907,161.11235 8.22099,-0.0472 7.46503,-0.99219 4.15773,-1.13392 2.07888,1.79538"
       style="fill:none;stroke:#000000;stroke-width:0.264583px;stroke-linecap:butt;stroke-linejoin:miter;stroke-opacity:1" />
    <path
       id="path106"
       d="m 148.73363,149.39509 0.56696,1.22842 4.25223,2.97656 v 5.33897"
       style="fill:none;stroke:#000000;stroke-width:0.264583px;stroke-linecap:butt;stroke-linejoin:miter;stroke-opacity:1" />
    <path
       id="path108"
       d="m 145.14285,139.00074 -1.27566,1.74814 -0.14174,2.36235 0.7087,1.03944 0.56697,5.33891"
       style="fill:none;stroke:#000000;stroke-width:0.264583px;stroke-linecap:butt;stroke-linejoin:miter;stroke-opacity:1" />
    <path
       sodipodi:nodetypes="ccccc"
       id="path110"
       d="m 139.28421,137.86681 -2.45683,4.39398 -1.22842,1.93712 0.33073,2.64584 1.14252,2.37955"
       style="fill:none;stroke:#000000;stroke-width:0.264583px;stroke-linecap:butt;stroke-linejoin:miter;stroke-opacity:1" />
    <path
       id="path112"
       d="m 130.96874,135.78795 -6.1421,7.55952"
       style="fill:none;stroke:#000000;stroke-width:0.264583px;stroke-linecap:butt;stroke-linejoin:miter;stroke-opacity:1" />
    <path
       id="path114"
       d="m 136.92187,148.92262 c 0,0 0,0 0,0 z"
       style="fill:none;stroke:#000000;stroke-width:0.264583px;stroke-linecap:butt;stroke-linejoin:miter;stroke-opacity:1" />
    <path
       id="path116"
       d="m 101.01414,146.18229 13.37722,-2.12402 4.19867,-0.28558 4.63021,4.016 0.51971,1.79538 1.88989,0.37798 3.16555,-0.94494"
       style="fill:none;stroke:#000000;stroke-width:0.264583px;stroke-linecap:butt;stroke-linejoin:miter;stroke-opacity:1" />
    <path
       id="path118"
       d="m 118.59003,143.77269 6.23661,-0.42522"
       style="fill:none;stroke:#000000;stroke-width:0.264583px;stroke-linecap:butt;stroke-linejoin:miter;stroke-opacity:1" />
    <path
       id="path120"
       d="m 153.64732,145.80431 1.93713,1.41741 4.34672,0.33073 2.52772,-0.18898 2.24423,-0.96857 2.26786,-0.18899 1.6064,-1.25204 7.74851,-0.21261 0.11812,3.28366 3.44903,4.74833"
       style="fill:none;stroke:#000000;stroke-width:0.264583px;stroke-linecap:butt;stroke-linejoin:miter;stroke-opacity:1" />
    <path
       id="path122"
       d="m 166.40402,152.3244 10.58333,3.87426"
       style="fill:none;stroke:#000000;stroke-width:0.264583px;stroke-linecap:butt;stroke-linejoin:miter;stroke-opacity:1" />
    <path
       id="path124"
       d="m 176.32589,144.74126 7.68918,-4.1909 2.07134,0.13364 4.04245,-4.34313 4.15091,-1.07255"
       style="fill:none;stroke:#000000;stroke-width:0.264583px;stroke-linecap:butt;stroke-linejoin:miter;stroke-opacity:1" />
    <path
       transform="scale(0.26458333)"
       d="M 146.21289 289 L 140.14258 289.48633 C 136.63235 289.76729 133.98164 290.05577 133.86133 290.16992 C 133.74688 290.27852 132.767 292.40698 131.68164 294.90039 L 129.70703 299.43359 L 130.23633 304.63281 C 130.52679 307.49209 130.80753 310.16139 130.86133 310.56445 C 130.95 311.22817 131.13572 311.4528 132.82422 312.93555 L 134.6875 314.57227 L 138.56836 314.70117 L 142.44922 314.83203 L 143.58008 318.84375 C 144.20248 321.05001 144.74912 322.8917 144.79492 322.9375 C 144.87071 323.01329 156.44274 323.8147 157.91016 323.8457 C 158.46147 323.85735 158.66938 324.01743 159.68164 325.20508 C 160.57648 326.25496 160.91047 326.53204 161.19922 326.46484 C 161.40289 326.41745 162.30541 326.27779 163.20312 326.1543 L 164.83398 325.92969 L 164.94531 322.43359 L 165.05664 318.93945 L 163.84961 314.07031 L 162.64258 309.20312 L 161.04297 307.1582 C 159.5774 305.28166 159.40806 304.97727 158.99023 303.50586 L 158.53516 301.90234 L 153.44531 296.60938 C 150.6462 293.69859 147.87445 290.79734 147.28516 290.16016 L 146.21289 289 z M 126.08984 311.34961 L 120.70508 311.35547 C 115.37461 311.36088 115.27744 311.36645 111.02148 312.03125 L 106.72266 312.70312 L 102.95312 315.78711 C 100.1299 318.09646 99.158437 318.99149 99.085938 319.35156 C 99.032702 319.61598 98.746053 321.71931 98.447266 324.02734 C 97.710698 329.71708 97.722044 329.67681 96.587891 330.79688 L 95.644531 331.72852 L 93.636719 331.83398 L 91.630859 331.93945 L 89.636719 329.97461 L 87.642578 328.00781 L 83.917969 327.61328 L 80.193359 327.21875 L 73.917969 330.70703 L 67.642578 334.19531 L 63.177734 339.20703 L 58.712891 344.21875 L 54.490234 352.38281 L 50.265625 360.54688 L 49.207031 368.96289 L 48.146484 377.37891 L 46.328125 379.44531 L 44.507812 381.51367 L 44.556641 384.6875 L 44.605469 387.86133 L 58.355469 393.78711 L 72.105469 399.71289 L 77.769531 399.72852 L 83.433594 399.74414 L 108.30469 386.7832 C 121.98434 379.65483 133.31081 373.68749 133.47266 373.52344 C 133.63451 373.3594 135.67437 370.05133 138.00586 366.17188 L 142.24414 359.11914 L 141.76562 351.5293 C 141.50275 347.3552 141.24897 343.6582 141.20117 343.31445 C 141.11792 342.71513 141.15955 342.66292 142.19141 342.00195 L 143.26758 341.3125 L 143.25586 336.37695 C 143.25021 333.66231 143.19105 331.14853 143.12305 330.79297 C 143.01789 330.24318 142.55157 329.74174 140.00781 327.42969 C 138.36272 325.93446 137.02039 324.65815 137.02539 324.59375 C 137.02992 324.52936 137.63288 324.00658 138.36523 323.43359 C 139.22664 322.75962 139.6495 322.31643 139.5625 322.17773 C 139.48859 322.05981 139.00299 321.3437 138.48438 320.58594 L 137.54102 319.20898 L 133.93164 319.20312 L 130.32031 319.19922 L 128.20508 315.27344 L 126.08984 311.34961 z "
       style="fill:#d7eef4;stroke:#002b22;stroke-width:0.178853;stroke-linejoin:round"
       id="Bolinao" />
    <path
       transform="scale(0.26458333)"
       id="Bani"
       d="m 106.34633,449.8944 c -5.37682,-5.22006 -10.946094,-10.64806 -12.376154,-12.06222 l -2.600111,-2.5712 -4.149481,0.37596 -4.149482,0.37597 -10.56406,-6.03696 -10.564061,-6.03696 -7.686348,-7.33354 c -4.227491,-4.03344 -8.201323,-7.91571 -8.830737,-8.62727 l -1.144391,-1.29373 0.10704,-8.66872 c 0.05887,-4.76779 0.138831,-8.7005 0.177688,-8.73936 0.03886,-0.0388 6.247313,2.58139 13.79657,5.82277 l 13.725921,5.89342 5.81221,-0.003 5.812209,-0.003 24.910717,-12.99626 c 19.33798,-10.08889 24.9444,-12.94127 25.06132,-12.75044 0.0828,0.1352 1.38946,3.31004 2.90362,7.05519 l 2.75302,6.80937 -1.00421,2.50704 -1.00421,2.50705 -5.82799,5.01755 -5.82798,5.01756 -0.84433,3.2552 -0.84433,3.25519 0.87424,1.29556 0.87423,1.29556 1.47715,0.2089 c 1.17141,0.16566 1.5068,0.16261 1.6204,-0.0147 0.0788,-0.123 1.04672,-1.73034 2.15097,-3.57185 l 2.00772,-3.34822 h 1.88705 1.88706 l 0.32947,0.9375 c 0.61749,1.75711 0.38161,1.7233 2.85781,0.40968 1.21157,-0.64273 2.2419,-1.16861 2.28963,-1.16861 0.0477,0 1.38973,1.07105 2.98224,2.3801 l 2.89547,2.3801 4.58118,0.40753 c 2.51965,0.22415 4.60791,0.43206 4.64058,0.46204 0.0327,0.03 -0.64131,2.37153 -1.49774,5.20344 l -1.55715,5.14893 -6.04445,5.08772 c -3.32445,2.79825 -6.2335,5.13828 -6.46455,5.20008 -0.23106,0.0618 -1.42156,0.17011 -2.64556,0.24071 l -2.22545,0.12836 -1.77654,3.90603 -1.77653,3.90604 -8.48214,9.09948 c -4.66518,5.00471 -8.54275,9.1059 -8.61681,9.11374 -0.0741,0.008 -4.53389,-4.25669 -9.91072,-9.47675 z"
       style="fill:#d7eef4;stroke:#002b22;stroke-width:0.178853;stroke-linejoin:round" />
    <path
       transform="scale(0.26458333)"
       id="Anda"
       d="m 182.70334,425.33058 c -0.51858,-0.0796 -0.26944,0.55493 -3.70163,-9.42731 l -1.22796,-3.57143 -2.41801,-0.43155 -2.41801,-0.43155 -0.0973,-0.99702 c -0.0535,-0.54836 -0.14668,-1.84253 -0.20706,-2.87593 l -0.10979,-1.87892 -7.73996,-5.14572 -7.73996,-5.14573 -1.62063,-2.57496 c -0.89135,-1.41623 -1.62063,-2.63524 -1.62063,-2.70892 0,-0.0737 1.00446,-0.32719 2.23214,-0.56336 1.22768,-0.23616 2.23214,-0.47827 2.23214,-0.53802 0,-0.0598 -2.06919,-2.00378 -4.59821,-4.32005 l -4.59821,-4.21141 -0.625,-2.27883 -0.625,-2.27882 -1.07143,-0.33376 c -0.58929,-0.18357 -1.16404,-0.33494 -1.27724,-0.33639 -0.11319,-10e-4 -1.01062,0.87341 -1.99428,1.94412 l -1.78848,1.94674 -0.3526,-0.38424 c -0.30921,-0.33696 -0.36829,-0.75228 -0.48006,-3.37478 l -0.12746,-2.99054 5.30179,-9.99345 5.30178,-9.99344 2.03322,-1.06792 2.03321,-1.06791 1.34487,0.5848 c 0.73967,0.32164 1.37758,0.61821 1.41757,0.65904 0.04,0.0408 0.20278,0.99835 0.36175,2.12781 0.45371,3.22349 0.17261,2.87776 2.2918,2.81869 l 1.82381,-0.0508 1.53699,-7.05314 1.53699,-7.05315 2.50845,-1.7458 2.50845,-1.7458 4.91789,0.85494 4.9179,0.85493 1.24199,1.42615 1.242,1.42615 1.58197,0.41157 c 0.87009,0.22637 2.13198,0.57355 2.8042,0.77152 l 1.22223,0.35994 -0.0555,6.68928 -0.0555,6.68927 1.17588,1.38345 1.17588,1.38345 5.02349,0.61223 5.0235,0.61223 v 2.36763 2.36764 l -5.97057,8.97946 -5.97057,8.97948 1.0559,6.875 c 0.58075,3.78125 1.05768,6.92536 1.05986,6.98692 0.002,0.0616 -0.77953,0.57585 -1.73712,1.14285 -0.95759,0.56701 -1.77041,1.05491 -1.80627,1.08422 -0.11239,0.0919 1.10578,4.35743 1.24441,4.35743 0.0724,0 1.20981,-0.6458 2.52756,-1.43512 l 2.39591,-1.43513 3.18505,0.49763 3.18506,0.49762 0.48938,1.19519 0.48939,1.19519 -1.3194,1.75124 -1.3194,1.75124 -0.007,2.94643 -0.007,2.94643 -2.03345,2.42805 -2.03344,2.42804 -1.11554,0.1166 c -0.61355,0.0641 -1.74033,0.11659 -2.50395,0.11659 h -1.38841 l -2.11218,2.4885 -2.11219,2.4885 -0.98214,-0.0152 c -0.54018,-0.008 -1.19548,-0.048 -1.45623,-0.088 z"
       style="fill:#d7eef4;stroke:#002b22;stroke-width:0.178853;stroke-linejoin:round" />
    <path
       transform="scale(0.26458333)"
       id="path216"
       d="m 155.55351,339.94228 c -1.7378,-0.16432 -3.19361,-0.33674 -3.23513,-0.38317 -0.0415,-0.0464 -0.30427,-1.03117 -0.5839,-2.18833 l -0.50841,-2.10392 2.58282,-2.57886 2.58282,-2.57885 4.46429,0.7366 c 2.45536,0.40513 4.52969,0.79385 4.60963,0.86383 0.0799,0.07 -1.21467,2.00648 -2.87691,4.30332 -2.41337,3.33473 -3.10822,4.18133 -3.44892,4.20211 -0.23466,0.0143 -1.84849,-0.10842 -3.58629,-0.27273 z"
       style="fill:#d7eef4;stroke:#002b22;stroke-width:0.178853;stroke-linejoin:round" />
    <path
       transform="scale(0.26458333)"
       id="Alaminos"
       d="m 160.18452,491.77848 -10.31433,-6.53615 -10.11533,-10.56239 -10.11533,-10.56238 -6.15752,-2.02345 -6.15752,-2.02345 0.97834,-1.01227 c 0.53808,-0.55674 4.38876,-4.66851 8.55705,-9.13726 l 7.57872,-8.125 1.48331,-3.30357 c 0.81582,-1.81697 1.59864,-3.48438 1.7396,-3.70536 0.21932,-0.34381 0.41673,-0.40338 1.36825,-0.41282 0.61157,-0.006 1.67593,-0.0677 2.36524,-0.13705 l 1.25329,-0.12601 6.34893,-5.35402 6.34894,-5.35403 1.55556,-5.16968 c 0.85556,-2.84333 1.59117,-5.2053 1.63469,-5.24882 0.0435,-0.0435 0.70377,0.47114 1.46722,1.1437 0.76345,0.67257 1.41532,1.24034 1.4486,1.26172 0.0333,0.0214 -0.14753,1.4161 -0.40179,3.09937 -0.25426,1.68328 -0.4623,3.13596 -0.4623,3.22818 0,0.0943 0.85214,0.16768 1.94631,0.16768 h 1.9463 l 1.29555,-2.36608 c 0.71254,-1.30133 1.30971,-2.38594 1.32703,-2.41024 0.0173,-0.0243 1.24143,0.0892 2.72025,0.25219 l 2.68875,0.29636 1.46191,7.42638 c 0.80405,4.08451 1.5215,7.54144 1.59433,7.68207 0.0768,0.14836 1.63853,0.67304 3.72061,1.25 l 3.58818,0.99432 5.34045,5.14936 5.34045,5.14937 0.41558,3.68992 c 0.22857,2.02945 0.50449,3.78109 0.61316,3.89253 0.10866,0.11144 1.38167,0.57546 2.82889,1.03115 l 2.63132,0.82853 1.41186,-0.64538 1.41185,-0.64537 0.18752,-1.27863 c 0.10314,-0.70324 0.48668,-3.40809 0.85231,-6.01077 0.36563,-2.60268 0.68478,-4.75867 0.70921,-4.79109 0.0583,-0.0773 9.59183,0.30875 10.53332,0.42653 l 0.72584,0.0908 1.58105,3.53291 1.58105,3.53291 3.3181,0.31624 c 1.82496,0.17394 3.519,0.35449 3.76454,0.40124 0.34388,0.0655 0.87796,-0.22192 2.32502,-1.25106 l 1.8786,-1.33605 1.53109,0.35167 1.53109,0.35167 0.57232,4.66302 c 0.46843,3.81658 0.5302,4.70296 0.34031,4.88308 -0.1276,0.12104 -12.64718,9.28327 -27.82129,20.36052 -26.92394,19.65473 -27.61297,20.14351 -28.57143,20.26784 -0.54018,0.0701 -2.42857,0.17597 -4.19643,0.23533 l -3.21428,0.10793 z"
       style="fill:#d7eef4;stroke:#002b22;stroke-width:0.178853;stroke-linejoin:round" />
    <path
       transform="scale(0.26458333)"
       id="Agno"
       d="m 34.87587,532.03845 0.002,-2.02803 2.296509,-3.57143 2.296509,-3.57143 0.202563,-8.21429 c 0.11141,-4.51785 0.245481,-8.86534 0.297935,-9.66107 l 0.09537,-1.44679 -1.443966,-1.14249 -1.443966,-1.1425 0.09624,-1.16072 c 0.05293,-0.63839 0.09757,-1.88393 0.0992,-2.76785 l 0.003,-1.60715 5.185828,-4.19643 5.185828,-4.19642 -0.09215,-0.98215 c -0.05069,-0.54018 -0.146663,-2.29713 -0.213285,-3.90434 l -0.12113,-2.9222 -2.009776,-1.58764 -2.009777,-1.58765 -0.10774,-1.20444 c -0.05926,-0.66244 -0.27392,-3.89537 -0.477029,-7.18427 -0.20311,-3.28891 -0.387226,-5.99777 -0.409146,-6.01969 -0.02192,-0.0219 -1.52296,-0.45037 -3.335644,-0.95211 -1.812685,-0.50174 -3.341716,-0.96699 -3.397847,-1.03388 -0.05613,-0.0669 -0.321864,-2.01003 -0.590517,-4.31806 -0.268652,-2.30804 -0.529187,-4.41166 -0.578966,-4.67472 -0.08052,-0.42552 0.078,-0.61269 1.436731,-1.69643 l 1.527239,-1.21814 0.0036,-10.35714 0.0036,-10.35715 3.492432,-2.85714 c 1.920838,-1.57143 3.614016,-2.95104 3.762619,-3.06581 0.24092,-0.18606 0.236835,-0.57654 -0.03771,-3.60485 l -0.307897,-3.3962 1.040153,-1.44464 c 0.572085,-0.79456 1.129818,-1.51906 1.239407,-1.61001 0.134947,-0.112 2.53069,2.05362 7.423155,6.71013 l 7.2239,6.87551 10.748131,6.14643 10.74813,6.14643 4.054311,-0.36709 4.05431,-0.36709 1.536845,1.51235 c 0.845264,0.83179 6.358273,6.19077 12.251131,11.90885 5.89286,5.71807 10.71552,10.44845 10.71702,10.51196 0.001,0.0635 0.0534,0.19582 0.11534,0.29403 0.0619,0.0982 -0.85778,5.88393 -2.04379,12.85714 l -2.15639,12.67858 -12.015775,9.64285 -12.015775,9.64286 -2.818173,-0.039 c -1.549995,-0.0214 -3.822636,-0.0856 -5.050315,-0.14246 L 77.106,505.2612 l -10.32783,8.89247 -10.327832,8.89246 -10.565026,5.42258 c -5.810764,2.98242 -10.665472,5.462 -10.78824,5.51018 -0.170679,0.067 -0.222741,-0.38972 -0.221202,-1.94044 z"
       style="fill:#d7eef4;stroke:#002b22;stroke-width:0.178853;stroke-linejoin:round" />
    <path
       transform="scale(0.26458333)"
       id="Burgos"
       d="m 30.323085,591.39435 c -0.0659,-0.95759 -0.160427,-1.88566 -0.210062,-2.06237 -0.04997,-0.17791 -0.669833,-0.60809 -1.388895,-0.96389 l -1.298648,-0.64259 -0.123054,-2.75836 -0.123054,-2.75836 0.824214,-1.32239 0.824214,-1.3224 h 2.187507 2.187506 l 0.835522,-1.48853 0.835523,-1.48853 v -6.98463 -6.98462 l 1.087134,-0.21389 c 0.597923,-0.11763 1.119998,-0.30248 1.160166,-0.41077 0.04017,-0.10829 0.133547,-1.1055 0.207509,-2.21603 l 0.134476,-2.01914 3.214286,-1.42715 c 1.767857,-0.78494 3.302775,-1.52365 3.410929,-1.64158 0.187268,-0.20419 0.7855,-3.23623 0.7855,-3.98116 0,-0.20822 -2.053583,-2.68975 -5,-6.04196 l -5,-5.68862 v -1.84955 c 0,-1.25709 0.06471,-1.84956 0.202017,-1.84956 0.111109,0 5.110271,-2.51116 11.109249,-5.58035 l 10.90723,-5.58036 10.185395,-8.7979 10.185394,-8.79789 3.75,0.0971 c 2.0625,0.0534 4.315229,0.14305 5.006063,0.19919 l 1.256062,0.10207 12.128358,-9.73803 c 11.985054,-9.62297 12.133124,-9.73447 12.531564,-9.43701 0.22177,0.16556 7.59998,6.44834 16.39602,13.96174 l 15.99281,13.66071 -0.11378,10 c -0.0626,5.5 -0.12969,10.01859 -0.14913,10.0413 -0.0194,0.0227 -3.19788,-0.42853 -7.06323,-1.00277 l -7.02789,-1.04408 -2.82219,1.57365 -2.82219,1.57365 -5.74883,-1.23655 -5.74883,-1.23656 -16.74851,0.11464 -16.748506,0.11463 -9.834048,10.14894 -9.834048,10.14893 -3.600113,7.90211 -3.600112,7.90211 -8.725825,10.35714 -8.725824,10.35715 -2.266768,1.0165 c -1.246722,0.55907 -2.319536,1.02113 -2.38403,1.02678 -0.06449,0.006 -0.171182,-0.7732 -0.237081,-1.73078 z"
       style="fill:#d7eef4;stroke:#002b22;stroke-width:0.178853;stroke-linejoin:round" />
    <path
       transform="scale(0.26458333)"
       id="Dasol"
       d="m 43.196929,618.77548 -1.409071,-0.10435 -2.207,-2.30065 -2.207,-2.30064 -0.0098,-5.28864 -0.0098,-5.28864 -3.130762,-2.67857 c -1.721919,-1.47322 -3.195685,-2.79911 -3.275035,-2.94643 -0.07935,-0.14732 -0.172802,-0.98366 -0.20767,-1.85853 l -0.0634,-1.59067 2.650015,-1.16345 2.650015,-1.16344 8.851112,-10.50823 8.851112,-10.50823 3.588158,-7.87253 3.588159,-7.87253 9.529954,-9.84727 c 5.241473,-5.41599 9.620938,-9.89697 9.732143,-9.95772 0.111203,-0.0607 7.510791,-0.1568 16.443527,-0.21343 l 16.241334,-0.10298 5.72295,1.23994 c 3.14762,0.68197 5.87612,1.24007 6.06334,1.24022 0.18721,1.5e-4 1.58242,-0.69095 3.10046,-1.53578 l 2.76008,-1.53606 7.01718,1.03149 7.01717,1.03149 4.25736,5.11777 4.25736,5.11777 14.44436,6.2438 14.44437,6.2438 5.77885,9.8059 c 3.17836,5.39325 5.7793,9.8893 5.77985,9.99122 0.002,0.34325 -2.53816,18.93467 -2.59526,18.99581 -0.052,0.0557 -20.86002,2.69941 -67.6736,8.59809 -10.11607,1.27466 -18.60914,2.35614 -18.87349,2.40329 -0.43286,0.0772 -0.76108,-0.22524 -3.30212,-3.04281 -1.551817,-1.7207 -2.871666,-3.22445 -2.932996,-3.34166 -0.06133,-0.11722 -0.536989,-2.30241 -1.05702,-4.85598 -0.52003,-2.55358 -1.033005,-4.73776 -1.139943,-4.85375 -0.106935,-0.11599 -1.257382,-0.8199 -2.556544,-1.56425 l -2.362116,-1.35336 -2.431702,0.26961 c -1.337438,0.14828 -2.539493,0.2696 -2.671236,0.2696 -0.131743,0 -1.701434,1.20536 -3.488198,2.67857 l -3.248666,2.67858 h -3.744366 -3.744364 l -1.401327,0.98754 -1.401325,0.98754 0.107353,7.18387 0.107354,7.18388 -2.329514,2.09644 -2.329513,2.09644 H 60.71124 57.044783 l -2.368465,-2.5 c -1.302655,-1.375 -2.45406,-2.49802 -2.558677,-2.4956 -0.104617,0.002 -1.394308,1.64975 -2.865983,3.66072 l -2.675772,3.65631 -0.984943,-0.0296 c -0.541718,-0.0163 -1.619025,-0.0765 -2.394014,-0.13393 z"
       style="fill:#d7eef4;stroke:#002b22;stroke-width:0.178853;stroke-linejoin:round" />
    <path
       transform="scale(0.26458333)"
       id="Infanta"
       d="m 137.59352,686.70358 -3.44105,-2.83333 -4.14823,2.60095 -4.14824,2.60094 -5.60107,-0.45932 c -3.08059,-0.25262 -5.63332,-0.49155 -5.67272,-0.53095 -0.0394,-0.0394 0.58663,-1.99214 1.39117,-4.3394 l 1.46282,-4.26777 5.8183,-3.53062 5.8183,-3.53063 0.56099,-2.5408 0.56099,-2.5408 -5.14244,-7.67858 c -2.82834,-4.22321 -5.72862,-8.54351 -6.44506,-9.60067 l -1.30263,-1.9221 0.3994,-3.88147 c 0.21967,-2.13481 0.50229,-4.82867 0.62805,-5.98636 l 0.22865,-2.10489 -5.08065,-5.30583 c -2.79435,-2.9182 -5.51988,-5.75778 -6.05673,-6.31018 l -0.97609,-1.00436 0.49147,-3.5702 c 0.27031,-1.96361 0.44699,-3.68612 0.39262,-3.8278 -0.0544,-0.14168 -0.58937,-0.40612 -1.1889,-0.58764 -0.59952,-0.18152 -1.09004,-0.38406 -1.09004,-0.45009 0,-0.066 -0.15949,-0.9975 -0.35443,-2.06994 -0.46764,-2.57271 -0.46377,-2.75347 0.059,-2.75347 0.23035,0 8.96919,-1.08207 19.41965,-2.4046 10.45045,-1.32253 29.52761,-3.7315 42.39369,-5.35327 12.86607,-1.62176 23.60165,-2.98614 23.85686,-3.03194 l 0.464,-0.0833 0.22797,3.45931 0.22798,3.45931 1.27231,0.27834 c 0.69977,0.15308 5.48022,1.20288 10.62322,2.33287 l 9.35092,2.05453 10.20266,-0.79927 c 34.25776,-2.68376 47.1313,-3.66786 47.19165,-3.60751 0.0891,0.0891 -26.17725,76.95172 -26.36508,77.15165 -0.0788,0.0839 -6.05211,-1.9652 -13.27395,-4.55357 l -13.13063,-4.70613 -10.00461,-8.61607 c -5.50254,-4.73884 -10.08158,-8.61607 -10.17566,-8.61607 -0.0941,0 -1.64403,0.71247 -3.44434,1.58326 l -3.2733,1.58326 -4.11399,4.17567 c -2.2627,2.29662 -4.87431,4.9606 -5.80358,5.91997 l -1.68958,1.7443 -4.34639,1.65905 -4.34639,1.65904 -2.56427,5.23043 c -1.41035,2.87673 -2.5884,5.28846 -2.61789,5.35939 -0.0434,0.1044 -4.79023,-0.19391 -9.10664,-0.57231 l -0.83873,-0.0735 -0.75096,2.02645 -0.75095,2.02645 -6.17817,-0.0135 -6.17818,-0.0135 z"
       style="fill:#d7eef4;stroke:#002b22;stroke-width:0.178853;stroke-linejoin:round" />
    <path
       transform="scale(0.26458333)"
       id="Mabini"
       d="m 202.46314,607.5576 c -5.40178,-1.18707 -9.85505,-2.18568 -9.89614,-2.21913 -0.0411,-0.0335 -0.18255,-1.48702 -0.31433,-3.23015 l -0.2396,-3.16933 1.3566,-10.08929 1.3566,-10.08928 -5.98586,-10.15728 -5.98586,-10.15728 -14.48635,-6.25643 -14.48635,-6.25643 -4.19559,-5.01486 -4.19559,-5.01487 0.0971,-4.55357 c 0.0534,-2.50446 0.14191,-7.24553 0.19661,-10.53571 l 0.0995,-5.98214 -16.6936,-14.25622 c -9.18148,-7.84091 -16.66294,-14.34984 -16.62545,-14.46428 0.0375,-0.11444 1.00588,-5.75272 2.15198,-12.52951 1.14611,-6.77678 2.10212,-12.34226 2.12447,-12.36772 0.0223,-0.0255 2.77281,0.8496 6.11214,1.94458 l 6.0715,1.99087 10.05399,10.50897 10.05399,10.50897 10.56517,6.68084 10.56516,6.68083 2.24584,-0.097 2.24584,-0.097 0.18066,0.87332 c 0.0994,0.48033 0.5705,2.99183 1.04697,5.58111 l 0.86631,4.70779 30.86434,25.76906 30.86434,25.76907 15.61862,21.55805 c 8.59023,11.85692 15.55396,21.61353 15.47494,21.68134 -0.079,0.0678 -2.51421,0.30178 -5.41153,0.51993 -2.89732,0.21814 -10.85268,0.83269 -17.67857,1.36567 -29.11055,2.27297 -33.15152,2.58134 -33.66041,2.56869 -0.29481,-0.007 -4.95566,-0.98457 -10.35745,-2.17163 z"
       style="fill:#d7eef4;stroke:#002b22;stroke-width:0.178853;stroke-linejoin:round" />
    <path
       transform="scale(0.26458333)"
       id="Sual"
       d="m 208.5332,535.43495 c -16.59746,-13.8526 -30.2885,-25.29399 -30.42453,-25.42531 -0.20068,-0.19375 -2.14956,-9.73709 -2.16049,-10.57958 -0.002,-0.16197 0.43055,-0.22321 1.57678,-0.22321 h 1.57968 l 22.92925,-16.74178 c 12.61109,-9.20798 25.27138,-18.45097 28.13398,-20.53999 l 5.20473,-3.79821 4.91074,0.85369 4.91074,0.85369 6.22382,7.06526 c 3.4231,3.88589 6.33062,7.19588 6.46115,7.35553 0.19849,0.24278 0.17645,0.75213 -0.13468,3.11212 -0.20462,1.552 -0.37169,2.8821 -0.37127,2.95576 3.6e-4,0.0737 -0.79402,0.13392 -1.76542,0.13392 h -1.76617 l -3.43935,-3.70535 c -1.89165,-2.03795 -3.54058,-3.72996 -3.66429,-3.76002 -0.18326,-0.0445 -3.00525,1.25224 -3.28177,1.50806 -0.0432,0.0399 0.19221,0.91011 0.52305,1.93374 l 0.60153,1.86114 2.89705,3.25023 2.89706,3.25023 -0.24562,0.82206 c -0.94742,3.17099 -0.7897,2.94322 -3.96058,5.71959 l -2.9017,2.54069 0.10568,0.66089 c 0.0581,0.36349 0.19935,1.42203 0.31382,2.35232 l 0.20813,1.69143 6.96289,4.11274 6.96288,4.11275 0.49782,4.52633 c 0.27381,2.48948 0.46896,4.5552 0.43367,4.59049 -0.0353,0.0353 -1.66556,0.43762 -3.62283,0.89407 -1.95726,0.45645 -3.64775,0.89978 -3.75663,0.98518 -0.11273,0.0884 -0.24929,1.09676 -0.31715,2.34185 -0.0655,1.20262 -0.16449,2.51545 -0.21987,2.91739 l -0.1007,0.73081 1.92095,0.11754 c 1.05652,0.0646 1.94499,0.14157 1.97437,0.17096 0.0294,0.0294 -3.48681,8.12531 -7.81377,17.99094 -4.32697,9.86563 -7.92088,18.07501 -7.98648,18.24306 -0.0949,0.2432 -6.27604,-4.83304 -30.29647,-24.88101 z"
       style="fill:#d7eef4;stroke:#002b22;stroke-width:0.178853;stroke-linejoin:round" />
    <path
       transform="scale(0.26458333)"
       id="Labrador"
       d="m 255.31759,583.19172 c -8.44495,-11.64967 -15.41906,-21.31211 -15.49802,-21.47209 -0.1002,-0.20298 2.18308,-5.60347 7.55742,-17.87503 4.23555,-9.6713 7.90711,-18.04624 8.15903,-18.61097 l 0.45804,-1.02678 h 1.11446 c 0.68112,0 1.1811,0.0868 1.28585,0.22321 0.0943,0.12277 0.43761,1.1875 0.76301,2.36607 0.3254,1.17857 0.67999,2.23127 0.78798,2.33932 0.108,0.10806 3.45082,1.58328 7.4285,3.27827 3.97768,1.69499 7.29245,3.13743 7.36617,3.20542 0.0737,0.068 0.8558,3.37402 1.73798,7.34673 0.88218,3.97272 1.64559,7.39807 1.69647,7.61189 0.0908,0.38155 0.13652,0.38691 2.45844,0.28825 1.30127,-0.0553 2.38361,-0.11398 2.40521,-0.13043 0.0216,-0.0164 -0.55083,-2.27562 -1.27207,-5.02039 -0.72124,-2.74477 -1.30141,-4.99919 -1.28927,-5.00982 0.11189,-0.098 3.89454,0.42884 4.02179,0.56017 0.0924,0.0954 0.98087,2.18238 1.97434,4.63773 0.99347,2.45536 1.86376,4.55682 1.93398,4.66991 0.0702,0.11309 3.30178,1.47078 7.18124,3.0171 3.87947,1.54632 7.10907,2.86004 7.1769,2.91938 0.0678,0.0593 -1.1777,1.35512 -2.76785,2.8795 l -2.89119,2.7716 -2.3716,0.60262 c -1.30438,0.33143 -2.42428,0.68784 -2.48865,0.792 -0.0644,0.10417 -0.28287,1.00351 -0.48554,1.99854 l -0.36849,1.80915 -6.19761,5.56708 c -4.80453,4.31573 -6.23454,5.69701 -6.36189,6.1451 -0.49739,1.7501 -7.94919,25.06288 -8.04544,25.17001 -0.0631,0.0702 -7.02424,-9.40386 -15.46919,-21.05354 z"
       style="fill:#d7eef4;stroke:#002b22;stroke-width:0.178853;stroke-linejoin:round" />
    <path
       transform="scale(0.26458333)"
       id="Bugallon"
       d="m 256.24291,684.60419 c -6.23661,-0.14409 -11.36095,-0.28061 -11.38741,-0.30338 -0.0265,-0.0228 6.0447,-17.87243 13.49149,-39.6659 9.04895,-26.48232 14.89833,-43.90863 17.63625,-52.54142 l 4.09663,-12.91693 5.79148,-5.20807 c 3.18531,-2.86444 5.88989,-5.26786 6.01017,-5.34093 0.12969,-0.0788 1.59786,0.62984 3.60725,1.74107 l 3.38855,1.87393 h 3.0359 3.03591 l 1.17203,-1.30954 1.17204,-1.30954 -1.54158,-4.06679 -1.54158,-4.06679 -0.9925,0.10227 c -0.54587,0.0562 -1.67553,0.15065 -2.51035,0.20977 l -1.51786,0.1075 2.58929,-2.50432 2.58929,-2.50433 2.77486,-0.008 2.77487,-0.008 1.23852,4.00685 1.23852,4.00685 1.79018,0.64778 c 1.63735,0.59247 2.32828,0.71353 8.09291,1.41789 3.46649,0.42356 6.32664,0.79996 6.35587,0.83644 0.12767,0.15931 2.43069,5.72149 2.43069,5.87052 0,0.091 -0.44749,0.85918 -0.99443,1.70701 -0.54693,0.84782 -1.03593,1.64964 -1.08665,1.78182 -0.0507,0.13218 0.67802,1.42697 1.61943,2.8773 l 1.71165,2.63698 0.01,2.14992 c 0.005,1.18246 0.15467,8.57849 0.33208,16.43564 0.1774,7.85714 0.31375,14.29611 0.30298,14.30882 -0.0108,0.0127 -6.76958,1.28916 -15.01958,2.83657 -8.25,1.54741 -15.0555,2.8629 -15.12335,2.92332 -0.0678,0.0604 -4.43278,12.4015 -9.69987,27.42461 -5.26709,15.02311 -9.63122,27.41039 -9.69808,27.52727 -0.0668,0.11689 -2.56135,2.10873 -5.54334,4.42632 l -5.42178,4.2138 -2.43536,-0.0275 c -1.33945,-0.0151 -7.53804,-0.14537 -13.77464,-0.28946 z"
       style="fill:#d7eef4;stroke:#002b22;stroke-width:0.178853;stroke-linejoin:round" />
    <path
       transform="scale(0.26458333)"
       id="Aguilar"
       d="m 281.01549,708.55392 -1.0181,-5.50779 -3.29681,-8.65574 c -1.81324,-4.76066 -3.23418,-8.69816 -3.15763,-8.75 0.0765,-0.0518 2.55802,-1.97764 5.51439,-4.27954 l 5.37521,-4.18529 2.072,-5.904 c 1.1396,-3.2472 5.4674,-15.58683 9.61734,-27.42141 l 7.54533,-21.51741 1.06463,-0.21923 c 0.58554,-0.12057 7.27565,-1.38465 14.86691,-2.80906 l 13.80228,-2.58983 6.73343,5.19089 c 3.70339,2.85499 6.7824,5.28404 6.84225,5.3979 0.0598,0.11385 0.48799,1.74064 0.95143,3.61508 l 0.84262,3.40808 5.57527,2.27782 5.57527,2.27782 3.25011,6.99267 c 1.78756,3.84598 3.25009,7.05448 3.25008,7.13001 -10e-6,0.0755 -0.18083,0.10054 -0.40181,0.0556 -0.22098,-0.045 -1.125,-0.12805 -2.00893,-0.18462 l -1.60714,-0.10287 -7.31879,7.94908 -7.31878,7.94907 h -2.06343 -2.06343 l -4.35916,4.81622 -4.35916,4.81622 -2.0899,0.0498 -2.08991,0.0498 -21.4686,17.32143 c -11.80773,9.52679 -21.63901,17.41007 -21.84729,17.51841 -0.20828,0.10834 -1.22244,0.2938 -2.25369,0.41214 -1.03125,0.11835 -2.15915,0.25821 -2.50645,0.31081 l -0.63144,0.0956 z"
       style="fill:#d7eef4;stroke:#002b22;stroke-width:0.178853;stroke-linejoin:round" />
    <path
       transform="scale(0.26458333)"
       id="SanCarlos"
       d="m 369.84661,655.04796 -1.82909,-1.6467 -3.61052,-7.73975 -3.61052,-7.73975 -5.52406,-2.25924 -5.52406,-2.25925 -0.90451,-3.52754 -0.90452,-3.52753 -6.875,-5.28614 c -3.78125,-2.90737 -6.88514,-5.29766 -6.89753,-5.31174 -0.0889,-0.101 -0.44719,-21.40113 -0.36147,-21.48685 0.0601,-0.0601 0.97463,-0.25806 2.03234,-0.43996 20.69278,-3.55851 21.96133,-3.75679 26.54168,-4.14862 l 4.61859,-0.39509 2.58319,1.94143 c 1.42076,1.06779 2.67721,1.90226 2.79213,1.85438 0.11491,-0.0479 1.58942,-1.23928 3.27668,-2.64755 2.88437,-2.40744 3.31007,-2.69258 7.12156,-4.77011 l 4.05381,-2.20961 8.23558,0.2914 c 4.52957,0.16027 9.09988,0.3413 10.15623,0.40229 l 1.92065,0.11089 9.82137,8.43613 9.82136,8.43612 1.2937,0.12243 c 0.71154,0.0673 1.57496,0.16507 1.91871,0.2172 l 0.625,0.0948 -0.063,3.60042 -0.063,3.60042 -2.83881,11.95858 c -1.56134,6.57723 -2.83881,12.00756 -2.83881,12.06741 0,0.0599 -3.67633,1.3799 -8.16964,2.93342 -4.90344,1.69533 -8.28926,2.95834 -8.46884,3.15915 -0.32401,0.36232 -3.00437,5.43175 -3.00437,5.68224 0,0.0839 1.08535,1.13613 2.41189,2.33836 1.32654,1.20222 2.38237,2.21538 2.34629,2.25146 -0.0361,0.0361 -8.4942,1.70896 -18.79582,3.71751 -10.30162,2.00855 -18.894,3.6911 -19.09418,3.73901 -0.27095,0.0648 -0.83136,-0.33369 -2.19305,-1.5596 z"
       style="fill:#d7eef4;stroke:#002b22;stroke-width:0.178853;stroke-linejoin:round" />
    <path
       transform="scale(0.26458333)"
       id="Lingayen"
       d="m 333.6697,592.38841 c -0.0516,-0.32575 -0.11965,-2.61921 -0.15117,-5.09658 -0.0458,-3.60204 -0.0102,-4.52238 0.17791,-4.59456 0.12937,-0.0497 1.86016,-0.66293 3.8462,-1.36285 1.98604,-0.69992 3.62621,-1.28599 3.64482,-1.30237 0.0377,-0.0332 0.59116,-5.21849 0.59116,-5.53853 0,-0.11158 -0.78656,-1.28646 -1.7479,-2.61084 l -1.7479,-2.40798 -2.00506,-0.0505 -2.00505,-0.0505 -1.09301,1.70825 -1.09301,1.70824 -1.25919,-2.99701 c -0.69255,-1.64836 -1.28448,-3.03078 -1.3154,-3.07206 -0.0309,-0.0413 -2.9248,-0.41961 -6.43086,-0.84073 -5.50264,-0.66094 -6.60134,-0.84381 -8.03174,-1.33687 l -1.65708,-0.57118 -0.73121,-2.33809 c -0.40217,-1.28594 -0.97693,-3.12156 -1.27723,-4.07915 l -0.546,-1.74107 h -3.23791 -3.2379 l -7.493,-2.99919 -7.49301,-2.99918 -1.68195,-4.1474 c -0.92508,-2.28106 -1.63539,-4.19395 -1.57848,-4.25086 0.0569,-0.0569 1.1291,3.9e-4 2.38265,0.12732 l 2.27918,0.23081 2.09264,1.56078 2.09263,1.56077 5.68468,-0.34135 c 3.12658,-0.18775 5.88557,-0.3417 6.13111,-0.34213 0.36063,-6.3e-4 0.66914,0.3161 1.60527,1.64804 0.63736,0.90685 2.66091,3.76429 4.49676,6.34988 l 3.33793,4.70105 1.46297,-1.84391 c 0.80464,-1.01416 1.47993,-1.86418 1.50065,-1.88895 0.0207,-0.0248 2.02792,0.24151 4.46046,0.59171 2.43253,0.35021 4.4456,0.61154 4.47349,0.58075 0.0279,-0.0308 0.21571,-0.65868 0.41739,-1.39528 0.28299,-1.03361 0.31816,-1.38631 0.15409,-1.54529 -0.11692,-0.11329 -2.9849,-1.95281 -6.3733,-4.08781 -3.38839,-2.135 -6.18035,-3.89677 -6.20437,-3.91504 -0.024,-0.0183 3.91349,-0.13252 8.75,-0.25389 l 8.79366,-0.22066 5.13654,-2.24795 c 2.82509,-1.23638 5.16375,-2.21565 5.197,-2.17616 0.17864,0.21211 9.59072,31.63563 9.50215,31.7242 -0.058,0.058 -1.49115,-0.22943 -3.18483,-0.63868 -3.52151,-0.8509 -5.5493,-1.28195 -5.63369,-1.19756 -0.0321,0.0321 1.9517,2.69469 4.40836,5.91696 l 4.46664,5.85868 1.85138,4.38267 c 1.01826,2.41047 1.80592,4.39984 1.75034,4.42082 -0.0556,0.021 -5.12335,0.88571 -11.26175,1.92161 -6.13839,1.03591 -11.37705,1.92813 -11.64145,1.9827 -0.4332,0.0894 -0.49003,0.0407 -0.57461,-0.49304 z"
       style="fill:#d7eef4;stroke:#002b22;stroke-width:0.178853;stroke-linejoin:round" />
    <path
       transform="scale(0.26458333)"
       id="Calasiao"
       d="m 428.31184,600.06795 c -0.7659,-0.0818 -2.39888,-1.38098 -10.71746,-8.52677 l -9.81388,-8.4303 -1.78318,-0.14211 c -0.98075,-0.0782 -5.59019,-0.26955 -10.24321,-0.42531 -4.65301,-0.15576 -8.47727,-0.29837 -8.49835,-0.31691 -0.0211,-0.0185 -0.45126,-5.37489 -0.95596,-11.903 -0.5047,-6.52811 -0.97047,-12.21022 -1.03503,-12.6269 -0.0667,-0.43037 -0.78312,-1.57199 -1.65862,-2.64297 -0.84768,-1.03694 -1.44427,-1.91603 -1.32576,-1.95354 0.11851,-0.0375 11.01148,-1.77534 24.20659,-3.86185 13.19512,-2.0865 24.25672,-3.85423 24.58132,-3.92829 l 0.5902,-0.13465 -0.0891,2.85138 -0.0891,2.85139 -3.30944,5.55583 -3.30944,5.55584 1.4576,12.12183 1.45761,12.12184 1.41383,4.65113 c 1.2835,4.22237 1.41384,4.86839 1.41384,7.00793 v 2.3568 l -0.69448,-0.0425 c -0.38197,-0.0234 -1.10109,-0.0859 -1.59806,-0.13892 z"
       style="fill:#d7eef4;stroke:#002b22;stroke-width:0.252936;stroke-linejoin:round" />
    <path
       transform="scale(0.26458333)"
       id="Dagupan"
       d="m 372.52061,541.46975 c -4.93081,-6.05224 -8.99562,-11.12742 -9.03292,-11.27818 -0.0373,-0.15077 4.5319,-2.29133 10.15377,-4.75682 l 10.22157,-4.4827 4.59849,-1.00982 c 2.52917,-0.55541 4.63645,-1.04779 4.68285,-1.09418 0.0464,-0.0464 -0.0464,-0.73555 -0.20626,-1.53144 -0.2394,-1.19204 -0.22827,-1.50452 0.0631,-1.77292 0.19456,-0.1792 6.37679,-5.24708 13.73827,-11.26195 7.36149,-6.01487 13.55758,-11.08282 13.7691,-11.26212 0.90235,-0.76489 0.91843,0.0314 0.0787,3.89778 l -0.8406,3.87052 -1.89479,2.23333 c -1.04214,1.22833 -1.8948,2.35983 -1.8948,2.51446 0,0.42076 1.24274,2.7915 1.45635,2.77823 0.10184,-0.006 1.60568,-1.01672 3.34188,-2.24533 1.7362,-1.22861 3.2303,-2.16098 3.32023,-2.07194 0.0899,0.089 0.57875,1.53737 1.08627,3.21852 l 0.92278,3.05663 -2.28548,3.93777 -2.28547,3.93777 1.22079,3.48593 c 1.18078,3.37165 1.23608,3.65841 1.68684,8.74686 l 0.46604,5.26092 3.10586,4.13441 c 1.70822,2.27393 3.02296,4.18028 2.92163,4.23634 -0.10133,0.0561 -11.2329,1.85029 -24.73683,3.98719 -15.64471,2.47567 -24.57794,3.99223 -24.62247,4.18005 -0.0384,0.16212 -4.10417,-4.65707 -9.03497,-10.70931 z"
       style="fill:#d7eef4;stroke:#002b22;stroke-width:0.252936;stroke-linejoin:round" />
    <path
       transform="scale(0.26458333)"
       id="path252"
       d="m 436.91783,600.99104 c -2.15289,-0.25486 -4.17004,-0.46919 -4.48255,-0.47628 -0.55175,-0.0125 -0.56821,-0.0885 -0.56821,-2.62139 0,-2.44947 -0.0912,-2.9152 -1.49522,-7.63928 l -1.49522,-5.03079 -1.2827,-10.88752 c -0.70549,-5.98814 -1.2827,-11.18439 -1.2827,-11.54723 0,-0.39297 1.2902,-2.8321 3.19097,-6.03253 l 3.19098,-5.37283 0.1239,-3.17439 0.12389,-3.17439 7.35487,-0.4858 c 4.04517,-0.26719 7.42757,-0.48653 7.51643,-0.48741 0.0889,-8.9e-4 4.00951,3.33398 8.71257,7.41083 l 8.55099,7.41244 1.01717,3.42428 c 0.76943,2.59027 1.13847,3.4734 1.51523,3.62593 0.27393,0.11091 2.01082,0.49864 3.85976,0.86162 l 3.36169,0.65995 5.18543,-1.55179 c 2.85199,-0.85349 5.21556,-1.51523 5.25238,-1.47054 0.81619,0.99065 8.97285,13.19227 8.96419,13.40959 -0.007,0.1698 -0.44559,0.9307 -0.97515,1.6909 l -0.96284,1.38218 -4.01248,-0.0725 -4.01248,-0.0725 -2.90419,2.13253 c -2.75901,2.02592 -2.98624,2.14101 -4.54568,2.30223 -0.90283,0.0933 -1.94171,0.22688 -2.30863,0.29676 -0.42123,0.0802 -3.15278,2.42572 -7.41064,6.3633 l -6.7435,6.23626 -4.72008,-0.21816 -4.72009,-0.21815 -3.83916,1.92279 c -4.4011,2.20422 -3.92999,2.13921 -10.15893,1.40181 z"
       style="fill:#d7eef4;stroke:#002b22;stroke-width:0.252936;stroke-linejoin:round" />
    <path
       transform="scale(0.26458333)"
       id="Mangaldan"
       d="m 429.54515,539.6723 c -1.70921,-2.27997 -3.1819,-4.27111 -3.27265,-4.42475 -0.0907,-0.15363 -0.36014,-2.49536 -0.59864,-5.20383 -0.40126,-4.55675 -0.51832,-5.18085 -1.56757,-8.35738 l -1.13393,-3.4329 2.26133,-3.87746 2.26133,-3.87746 -0.85142,-2.79117 c -1.62618,-5.33108 -1.68784,-4.44962 0.65248,-9.32846 1.12508,-2.34545 2.04408,-4.39101 2.04221,-4.54569 -0.002,-0.15468 -1.13829,-1.72991 -2.52538,-3.5005 -1.38709,-1.77059 -2.52199,-3.34267 -2.52199,-3.49352 0,-0.3786 5.85427,-6.57227 6.12639,-6.48156 0.12076,0.0403 1.83165,1.94 3.80198,4.22166 l 3.58242,4.14846 2.90002,0.72436 c 1.59502,0.39839 2.93004,0.75437 2.96673,0.79106 0.0367,0.0367 0.97611,3.12281 2.08761,6.85806 2.01764,6.78042 2.0209,6.79607 2.0209,9.70883 v 2.91747 l 10.817,15.77707 c 7.54676,11.00728 10.69613,15.79513 10.4172,15.83678 -0.21989,0.0328 -8.07065,0.57122 -17.44613,1.1964 -9.37548,0.62518 -17.46615,1.16893 -17.97928,1.20832 -0.93233,0.0716 -0.93507,0.0688 -4.04061,-4.07379 z"
       style="fill:#d7eef4;stroke:#002b22;stroke-width:0.252936;stroke-linejoin:round" />
    <path
       transform="scale(0.26458333)"
       id="SanJacinto"
       d="m 460.40388,525.83809 c -5.76419,-8.42235 -10.5113,-15.43886 -10.54914,-15.59226 -0.0423,-0.17154 2.72708,-0.91573 7.19458,-1.93333 l 7.26339,-1.65445 11.11443,-14.55884 c 6.11294,-8.00736 11.19392,-14.63438 11.29106,-14.72672 0.16551,-0.1573 0.075,11.06811 -0.15995,19.84127 l -0.10483,3.91434 4.01663,2.14658 4.01663,2.14657 0.005,3.67394 0.005,3.67393 -11.47491,14.13 c -6.3112,7.77151 -11.62398,14.15753 -11.80616,14.19117 -0.18726,0.0346 -4.8869,-6.59533 -10.81158,-15.2522 z"
       style="fill:#d7eef4;stroke:#002b22;stroke-width:0.252936;stroke-linejoin:round" />
    <path
       transform="scale(0.26458333)"
       id="SanFabian"
       d="m 449.03966,506.21436 c 0,-2.59247 -0.0464,-2.80542 -2.1303,-9.77791 -1.17166,-3.92024 -2.24669,-7.19965 -2.38896,-7.28758 -0.14227,-0.0879 -1.54463,-0.4735 -3.11635,-0.85684 l -2.85768,-0.69698 -3.27652,-3.8228 c -1.80208,-2.10255 -3.424,-4.02801 -3.60425,-4.2788 -0.29418,-0.40931 0.41909,-1.25588 6.96601,-8.26788 l 7.29375,-7.81187 1.72849,-4.74848 1.72848,-4.74848 -0.68796,-7.70905 c -0.37838,-4.23997 -0.74638,-7.98321 -0.81779,-8.3183 l -0.12983,-0.60925 16.10215,0.17609 c 8.85618,0.0969 16.12711,0.20105 16.15762,0.23156 0.0902,0.0902 6.43397,36.3601 6.48022,37.05008 0.0319,0.47617 -2.77441,4.32453 -11.41775,15.65736 -6.30304,8.26431 -11.47095,15.04196 -11.48423,15.06144 -0.0133,0.0195 -3.0925,0.73867 -6.84269,1.59821 -3.75019,0.85953 -7.0174,1.61833 -7.26047,1.68623 -0.40066,0.11191 -0.44194,-0.12409 -0.44194,-2.52675 z"
       style="fill:#d7eef4;stroke:#002b22;stroke-width:0.252936;stroke-linejoin:round" />
    <path
       transform="scale(0.26458333)"
       id="Mapandan"
       d="m 471.25195,565.4206 c -1.46449,-0.30729 -2.77983,-0.6311 -2.92297,-0.71956 -0.14314,-0.0885 -0.64669,-1.5586 -1.11901,-3.26695 -0.69991,-2.53159 -1.00005,-3.23688 -1.62271,-3.81317 -0.42018,-0.38889 -4.13318,-3.6277 -8.25112,-7.19734 l -7.48715,-6.49026 7.73969,-0.54388 c 4.25683,-0.29914 8.86564,-0.58324 10.2418,-0.63135 l 2.50211,-0.0875 7.01645,10.22601 c 4.57816,6.67235 6.91188,10.2831 6.71554,10.39029 -0.69544,0.37967 -8.98806,2.74133 -9.54358,2.71793 -0.33348,-0.0141 -1.80455,-0.27697 -3.26905,-0.58426 z"
       style="fill:#d7eef4;stroke:#002b22;stroke-width:0.252936;stroke-linejoin:round" />
    <path
       transform="scale(0.26458333)"
       id="Malasiqui"
       d="m 470.27388,665.44964 -10.71185,-5.82713 -9.61747,-10.50122 -9.61747,-10.50121 -5.55583,-2.37508 c -3.05572,-1.3063 -6.24903,-2.68262 -7.09625,-3.05849 l -1.54041,-0.68339 2.73573,-11.45495 c 2.69949,-11.30317 2.73798,-11.50745 2.90524,-15.4183 l 0.16951,-3.96336 0.65547,0.10695 c 0.36051,0.0588 2.9327,0.34928 5.71597,0.64546 l 5.06049,0.53851 4.08518,-2.0456 4.08519,-2.0456 4.7042,0.28099 4.70419,0.281 1.30242,-1.24895 c 1.5119,-1.44982 11.16933,-10.3515 11.91691,-10.98433 0.31534,-0.26694 1.35613,-0.53325 2.77141,-0.70912 l 2.26641,-0.28163 2.84539,-2.13723 2.84538,-2.13722 4.10194,0.15855 4.10194,0.15855 0.88388,-1.41465 c 0.48613,-0.77806 0.9407,-1.4145 1.01015,-1.4143 0.0695,1.9e-4 2.14449,5.99423 4.61121,13.32008 l 4.48495,13.31973 -0.002,3.48887 -0.002,3.48886 7.76219,10.65327 7.76219,10.65327 0.0891,5.12438 0.0891,5.12438 -0.59081,-0.12646 c -0.32494,-0.0696 -1.97935,-0.30662 -3.67645,-0.52681 l -3.08565,-0.40035 -2.09138,1.44299 c -1.15027,0.79365 -2.1755,1.51354 -2.27831,1.59976 -0.1028,0.0862 -0.0193,1.11037 0.18566,2.27589 0.20492,1.16553 0.32463,2.16708 0.26603,2.22569 -0.11659,0.11658 -11.94627,0.52682 -15.79586,0.54778 l -2.39912,0.0131 -2.89288,3.96182 -2.89289,3.96182 -1.60761,5.69704 c -0.88419,3.13337 -1.68477,5.76832 -1.77907,5.85543 -0.0943,0.0871 -4.99179,-2.46382 -10.88331,-5.66874 z"
       style="fill:#d7eef4;stroke:#002b22;stroke-width:0.252936;stroke-linejoin:round" />
    <path
       transform="scale(0.26458333)"
       id="Basista"
       d="m 430.35184,666.90266 c -4.65302,-0.31781 -8.47516,-0.58612 -8.49364,-0.59623 -0.0185,-0.0101 -1.96922,-2.04004 -4.33496,-4.51096 l -4.30134,-4.49258 -0.56149,-3.90432 -0.5615,-3.90431 -2.71243,-2.65165 -2.71242,-2.65165 1.20806,-2.25033 1.20806,-2.25033 8.24632,-2.86357 c 4.53548,-1.57496 8.39094,-2.86357 8.56769,-2.86357 0.17674,0 3.31428,1.29603 6.97231,2.88007 l 6.65095,2.88007 9.18677,10.03864 c 5.05272,5.52125 9.09648,10.12095 8.98612,10.22157 -0.11036,0.10061 -3.89402,1.84468 -8.40814,3.8757 -6.9422,3.12349 -8.38268,3.68727 -9.34391,3.65704 -0.62503,-0.0197 -4.94344,-0.29578 -9.59645,-0.61359 z"
       style="fill:#d7eef4;stroke:#002b22;stroke-width:0.252936;stroke-linejoin:round" />
    <path
       transform="scale(0.26458333)"
       id="Urbiztondo"
       d="m 422.97743,718.31663 -6.09336,-5.42661 -3.46021,-0.79487 -3.46021,-0.79487 -0.40179,-0.36501 c -0.22098,-0.20075 -2.77232,-2.54876 -5.66964,-5.21779 -2.89732,-2.66902 -5.28167,-4.86296 -5.29855,-4.87541 -0.0169,-0.0125 -0.23056,-1.94409 -0.47485,-4.29254 l -0.44416,-4.2699 -3.27515,-3.28007 -3.27515,-3.28006 -2.74799,-0.16733 c -1.51139,-0.092 -2.76081,-0.18296 -2.7765,-0.20208 -0.0157,-0.0191 0.0484,-1.51075 0.14244,-3.31476 l 0.17094,-3.28001 -5.0153,-7.5682 c -2.75841,-4.16251 -5.02369,-7.57741 -5.03394,-7.58866 -0.0102,-0.0112 -1.07279,-0.0904 -2.36119,-0.176 -1.28841,-0.0856 -2.37611,-0.1768 -2.41712,-0.20276 -0.0549,-0.0347 0.75605,-5.32935 0.83,-5.41922 0.0229,-0.0278 38.49323,-7.51843 38.75741,-7.54649 l 0.26302,-0.0279 0.59986,3.82845 0.59985,3.82844 0.39763,0.41263 c 0.2187,0.22694 2.25748,2.38137 4.53064,4.78762 l 4.13301,4.375 0.85648,0.0662 c 0.47106,0.0364 2.39768,0.16465 4.28137,0.28501 1.88369,0.12036 3.43388,0.23121 3.44487,0.24632 0.0253,0.0348 -0.64303,53.96615 -0.68098,54.95573 l -0.0281,0.73181 z"
       style="fill:#d7eef4;stroke:#002b22;stroke-width:0.0894263;stroke-linejoin:round" />
    <path
       transform="scale(0.26458333)"
       id="Mangatarem"
       d="m 334.99066,808.97161 -3.53553,-2.92272 -23.59352,-40.19105 -23.59352,-40.19106 -0.982,-5.1398 c -0.5401,-2.82689 -0.94178,-5.18002 -0.89261,-5.22919 0.0492,-0.0492 1.33492,-0.24141 2.85724,-0.42721 l 2.76785,-0.33783 21.65203,-17.47709 21.65203,-17.47709 h 2.08913 2.08913 l 4.29057,-4.77847 4.29058,-4.77847 2.14657,-0.0312 2.14657,-0.0312 7.31278,-7.97156 7.31277,-7.97155 2.01966,0.17618 c 2.23305,0.19479 2.30773,0.23159 4.3074,2.1228 l 1.40312,1.32701 -0.50812,2.9782 c -0.27948,1.63801 -0.50813,3.1477 -0.50813,3.35488 0,0.29959 0.55411,0.41252 2.70702,0.55171 1.48885,0.0963 2.76733,0.26972 2.84105,0.38547 0.0737,0.11576 2.22526,3.34894 4.78121,7.18486 l 4.64716,6.9744 -0.17245,3.64982 -0.17245,3.64982 0.82858,0.1259 c 0.45572,0.0692 1.84695,0.18485 3.09161,0.25692 l 2.26302,0.13102 3.00546,3.00545 3.00546,3.00546 0.46424,4.26355 c 0.25533,2.34495 0.46988,4.27482 0.47676,4.2886 0.007,0.0138 2.65973,2.47022 5.8952,5.45876 l 5.88268,5.43371 3.51501,0.82592 3.51502,0.82593 6.07026,5.41316 c 3.33865,2.97724 6.07027,5.55069 6.07027,5.71878 0,0.16808 -2.95067,3.89837 -6.55704,8.28952 l -6.55704,7.98391 -3.86016,0.44157 -3.86015,0.44158 v 8.40193 8.40193 l -2.84106,1.45039 c -1.56258,0.79772 -3.24947,1.70681 -3.74866,2.0202 -0.7342,0.46094 -2.58912,3.2782 -9.70873,14.74568 l -8.80112,14.17588 -1.32244,-0.16523 c -1.26559,-0.15812 -1.74027,-0.005 -11.04348,3.56096 l -9.72105,3.72618 -2.44924,4.51864 c -1.34708,2.48525 -2.63413,4.72843 -2.8601,4.98484 -0.22597,0.25641 -2.57006,1.21818 -5.20909,2.13726 l -4.79822,1.67106 -3.283,-0.008 -3.28299,-0.008 -3.53554,-2.92271 z"
       style="fill:#d7eef4;stroke:#002b22;stroke-width:0.252936;stroke-linejoin:round" />
    <path
       transform="scale(0.26458333)"
       id="Bayambang"
       d="m 463.56061,724.36507 -2.49735,-1.42193 -15.25471,0.69818 c -8.39009,0.384 -15.31457,0.63832 -15.38773,0.56516 -0.18509,-0.18509 0.4696,-55.43054 0.66054,-55.73949 0.10216,-0.1653 1.91175,-0.15304 5.31763,0.036 l 5.16277,0.2866 8.77139,-3.9597 8.7714,-3.95971 10.35836,5.62621 c 5.69711,3.09441 10.35837,5.6976 10.35837,5.78487 0,0.0873 -2.84319,2.74796 -6.3182,5.91265 -3.52057,3.20618 -6.36386,5.98872 -6.42131,6.2841 -0.11963,0.61509 -1.1667,25.14118 -1.15676,27.09537 0.006,1.20798 0.11147,1.43712 1.3349,2.90419 0.73052,0.876 1.47116,1.77722 1.64587,2.00269 0.27419,0.35386 0.0823,0.6001 -1.40211,1.79947 l -1.71977,1.38951 0.20955,2.61919 c 0.30904,3.86273 0.46714,3.72779 -2.43284,2.07661 z"
       style="fill:#d7eef4;stroke:#002b22;stroke-width:0.252936;stroke-linejoin:round" />
    <path
       transform="scale(0.26458333)"
       id="Bautista"
       d="m 470.19421,728.25761 -2.68227,-1.58067 -0.18373,-3.15673 -0.18372,-3.15673 1.20818,-1.01015 c 0.6645,-0.55558 1.54909,-1.30678 1.96577,-1.66931 l 0.75759,-0.65916 -0.48873,-0.64604 c -0.26881,-0.35532 -1.16294,-1.46044 -1.98698,-2.45581 l -1.49824,-1.80979 0.59389,-13.69363 0.5939,-13.69364 5.53104,-5.03593 c 3.04207,-2.76977 5.97303,-5.41093 6.51323,-5.86925 l 0.98219,-0.83331 1.96726,1.00167 c 1.35304,0.68893 5.19177,1.9654 12.29483,4.08831 l 10.32757,3.08663 18.79018,-0.69584 c 10.33461,-0.38271 18.85664,-0.62938 18.93786,-0.54816 0.18642,0.18642 -9.44811,30.89382 -9.93981,31.6804 -0.52963,0.84726 -9.92969,12.89909 -10.18301,13.05565 -0.18748,0.11587 -44.19636,4.65167 -48.86696,5.0365 l -1.76777,0.14566 z"
       style="fill:#d7eef4;stroke:#002b22;stroke-width:0.252936;stroke-linejoin:round" />
    <path
       transform="scale(0.26458333)"
       id="Alcala"
       d="m 495.47865,676.69949 c -10.03516,-3.02745 -13.25698,-4.27347 -13.00307,-5.02887 0.0554,-0.16475 0.80099,-2.79966 1.65693,-5.85537 l 1.55625,-5.55584 2.68524,-3.68329 2.68523,-3.68329 7.25879,-0.18102 c 8.86681,-0.22112 23.70753,-0.21786 28.89202,0.006 l 3.82593,0.16545 1.82382,3.81417 1.82381,3.81416 0.92825,9.15451 0.92824,9.15451 -0.76961,0.004 c -0.42329,0.002 -6.62218,0.22825 -13.77533,0.50214 -7.15314,0.2739 -13.74439,0.48895 -14.64721,0.47789 -1.33701,-0.0164 -3.53868,-0.59245 -11.86929,-3.10566 z"
       style="fill:#d7eef4;stroke:#002b22;stroke-width:0.252936;stroke-linejoin:round" />
    <path
       transform="scale(0.26458333)"
       id="StoTomas"
       d="m 537.39816,678.56955 c 0.28759,-0.17775 0.19672,-1.71251 -0.54839,-9.2616 l -0.8931,-9.04854 -1.80373,-3.87203 c -0.99205,-2.12962 -1.80372,-3.91602 -1.80372,-3.96978 0,-0.0538 0.87723,-0.68971 1.94941,-1.41321 l 1.94942,-1.31545 6.17085,-0.97528 6.17085,-0.97528 3.40411,-3.20967 c 2.96827,-2.79871 3.38422,-3.11266 3.24873,-2.45205 -0.76617,3.73575 -1.42763,8.7976 -1.42763,10.92506 0,3.74619 -0.046,3.87084 -1.7812,4.82476 l -1.48392,0.81579 -1.37901,4.3441 c -0.75846,2.38926 -2.14118,6.78741 -3.07271,9.77367 -0.93153,2.98627 -1.76393,5.50077 -1.84978,5.5878 -0.0859,0.087 -1.73983,0.22044 -3.6755,0.29649 -1.9504,0.0766 -3.36572,0.0433 -3.17468,-0.0748 z"
       style="fill:#d7eef4;stroke:#002b22;stroke-width:0.252936;stroke-linejoin:round" />
    <path
       transform="scale(0.26458333)"
       id="Villasis"
       d="m 517.67528,651.35763 -7.72913,-0.0705 -0.28895,-1.74968 c -0.15893,-0.96233 -0.28895,-1.86894 -0.28895,-2.0147 0,-0.14576 0.79897,-0.7963 1.7755,-1.44565 l 1.77551,-1.18063 3.46466,0.43236 c 1.90556,0.2378 3.74876,0.48699 4.096,0.55375 l 0.63135,0.12139 -0.0693,-5.62545 c -0.0381,-3.094 -0.17258,-5.9331 -0.29876,-6.30911 -0.12619,-0.37602 -3.6463,-5.39156 -7.82247,-11.14565 l -7.59305,-10.46199 v -1.37763 -1.37763 l 6.48068,-0.16676 c 3.56438,-0.0917 10.58335,-0.16676 15.5977,-0.16676 h 9.11701 l 14.1871,-1.88194 14.18711,-1.88193 7.43501,-2.03241 c 4.08925,-1.11782 7.55668,-2.0324 7.70539,-2.0324 0.26384,0 6.41214,5.21004 6.55101,5.55129 0.0385,0.0946 -0.87064,0.42366 -2.02031,0.73121 -5.01648,1.34199 -4.57828,1.09633 -5.86211,3.2862 -0.63398,1.0814 -1.15269,2.03412 -1.15269,2.11717 0,0.0831 1.36371,2.4198 3.03046,5.19279 1.66675,2.77298 3.03046,5.15393 3.03046,5.29098 0,0.13706 -1.29184,1.42687 -2.87076,2.86624 l -2.87076,2.61705 -4.76852,1.61444 c -4.14582,1.40363 -5.57647,2.04574 -10.9557,4.91721 l -6.18719,3.30276 -3.25342,3.03774 c -5.32438,4.97143 -4.12634,4.37733 -11.06174,5.48544 l -6.03829,0.96477 -2.25109,1.51363 -2.25109,1.51363 -2.85074,-0.0593 c -1.56791,-0.0326 -6.32885,-0.0911 -10.57988,-0.12986 z"
       style="fill:#d7eef4;stroke:#002b22;stroke-width:0.252936;stroke-linejoin:round" />
    <path
       transform="scale(0.26458333)"
       id="Rosales"
       d="m 570.9044,677.76425 c -2.39888,-4.9052 -6.28473,-12.87074 -8.63522,-17.7012 l -4.27361,-8.78265 -1.40984,-0.51405 -1.40983,-0.51405 0.82388,-5.06606 c 0.45314,-2.78633 0.85719,-5.09349 0.8979,-5.12702 0.0407,-0.0335 2.68777,-1.46523 5.88238,-3.18155 4.95582,-2.66255 6.55392,-3.38126 10.88766,-4.89654 l 5.07928,-1.77594 3.12821,-2.86255 3.12821,-2.86254 2.51987,0.16438 c 1.38592,0.0904 2.53029,0.1858 2.54304,0.21198 0.0127,0.0262 2.3682,8.22984 5.23432,18.23035 l 5.21115,18.18275 5.15223,10.6066 c 2.83373,5.83363 5.12741,10.63823 5.09706,10.67689 -0.0303,0.0386 -7.54287,0.91527 -16.6945,1.94803 -9.15162,1.03276 -17.1256,1.94613 -17.71995,2.02973 l -1.08063,0.15198 z"
       style="fill:#d7eef4;stroke:#002b22;stroke-width:0.252936;stroke-linejoin:round" />
    <path
       transform="scale(0.26458333)"
       id="Balungao"
       d="m 611.17029,680.27305 c -0.53721,-1.14589 -2.90356,-6.06091 -5.25857,-10.92227 l -4.28182,-8.83884 -5.00346,-17.42513 c -2.7519,-9.58382 -5.05881,-17.63027 -5.12647,-17.88101 -0.1118,-0.41428 0.0596,-0.45147 1.87888,-0.40762 l 2.00191,0.0483 6.53326,-5.13157 6.53326,-5.13158 5.7032,0.44389 c 3.13676,0.24414 6.10095,0.5016 6.58708,0.57214 0.79927,0.11597 1.14984,-0.0724 3.66181,-1.96781 2.6339,-1.98738 2.86302,-2.10561 4.41941,-2.28044 0.90283,-0.10141 3.03362,-0.19022 4.73509,-0.19735 l 3.0936,-0.013 0.002,0.69448 c 0.001,0.38196 0.62231,7.91076 1.38001,16.73065 l 1.37762,16.03617 4.27084,13.21314 4.27083,13.21314 -2.43357,-0.17253 -2.43358,-0.17253 -12.11923,5.49596 -12.11913,5.49596 -2.65165,0.32854 c -4.28741,0.53121 -3.89833,0.6653 -5.02159,-1.73067 z"
       style="fill:#d7eef4;stroke:#002b22;stroke-width:0.252936;stroke-linejoin:round" />
    <path
       transform="scale(0.26458333)"
       id="StaMaria"
       d="m 589.85245,623.48556 c -2.61109,-0.0899 -4.78714,-0.20528 -4.83567,-0.25637 -0.0485,-0.0511 -1.41839,-2.30676 -3.04411,-5.01261 l -2.95586,-4.91972 0.57792,-1.05793 c 1.0915,-1.99808 1.12734,-2.01943 5.28242,-3.14582 2.15289,-0.58363 3.93623,-1.07488 3.96299,-1.09168 0.0268,-0.0168 -0.12014,-2.68386 -0.32644,-5.92681 -0.20631,-3.24295 -0.34184,-5.92634 -0.30119,-5.96311 0.0406,-0.0368 3.05617,-1.55684 6.70116,-3.37795 l 6.62725,-3.3111 h 3.57348 3.57347 l 10.08339,-6.43972 c 5.54586,-3.54185 10.18615,-6.43973 10.31175,-6.43973 0.21213,0 38.16642,13.84577 38.2753,13.96287 0.0271,0.0291 -6.7297,4.38542 -15.01511,9.68061 l -15.06439,9.62761 -5.25428,0.16492 -5.25429,0.16492 -2.82693,2.11022 -2.82694,2.11022 -5.42957,-0.46509 c -8.62839,-0.73908 -6.96804,-1.24244 -13.8896,4.21081 -3.26405,2.57164 -6.21875,4.86993 -6.56599,5.10732 -0.56291,0.38483 -1.14591,0.4139 -5.37876,0.26814 z"
       style="fill:#d7eef4;stroke:#002b22;stroke-width:0.252936;stroke-linejoin:round" />
    <path
       transform="scale(0.26458333)"
       id="Urdaneta"
       d="m 505.27427,606.67458 c -0.0906,-1.39036 -1.00206,-4.34115 -4.74365,-15.35809 l -4.63144,-13.63705 -4.64159,-6.81853 -4.64158,-6.81853 1.08519,-0.087 c 0.59685,-0.0478 7.73325,0.0395 15.85867,0.19396 24.1926,0.46 41.33194,0.79892 44.82552,0.8864 1.80565,0.0452 5.53403,0.0959 8.28529,0.11261 l 5.00229,0.0304 1.02789,2.25661 1.02787,2.25661 8.04764,5.63521 8.04763,5.6352 0.001,9.61918 10e-4,9.61918 -7.63161,2.08285 -7.63161,2.08286 -13.89727,1.84426 -13.89726,1.84426 -15.69108,0.17029 -15.69107,0.17029 -0.11221,-1.72102 z"
       style="fill:#d7eef4;stroke:#002b22;stroke-width:0.252936;stroke-linejoin:round" />
    <path
       transform="scale(0.26458333)"
       id="Manaoag"
       d="m 500.52941,562.86364 c -5.2086,-0.1178 -10.66801,-0.18488 -12.13203,-0.14906 l -2.66185,0.0651 -6.80833,-9.93321 c -3.74458,-5.46326 -6.85059,-10.0505 -6.90224,-10.19386 -0.0517,-0.14337 0.0161,-0.33276 0.15066,-0.42086 0.13451,-0.0881 5.26836,-6.3537 11.40855,-13.92353 6.1402,-7.56983 11.31456,-13.86769 11.49859,-13.99524 0.22923,-0.15889 3.22691,0.95442 9.51975,3.53553 l 9.18515,3.76745 5.72646,0.12627 5.72646,0.12627 -4.31313,7.70241 c -2.37222,4.23633 -5.38795,9.39431 -6.70162,11.46219 l -2.38849,3.75977 0.66476,5.28727 c 0.54025,4.2969 0.78439,5.52333 1.30336,6.54748 0.35123,0.69312 1.19376,2.44611 1.87229,3.89554 l 1.2337,2.63532 -3.45593,-0.0403 c -1.90076,-0.0222 -7.71751,-0.13672 -12.92611,-0.25451 z"
       style="fill:#d7eef4;stroke:#002b22;stroke-width:0.252936;stroke-linejoin:round" />
    <path
       transform="scale(0.26458333)"
       id="Laoac"
       d="m 529.19249,563.39868 c -4.16688,-0.0926 -8.29445,-0.18451 -9.17238,-0.20427 l -1.59623,-0.0359 -2.03528,-4.20978 -2.03528,-4.20978 -0.60277,-4.75004 -0.60277,-4.75003 2.49963,-3.98276 c 1.3748,-2.19052 4.3988,-7.39203 6.72001,-11.55891 2.3212,-4.16688 4.35186,-7.70134 4.51257,-7.85437 0.16071,-0.15302 1.37179,-0.41487 2.69131,-0.58189 1.31951,-0.16702 3.45431,-0.45067 4.74401,-0.63034 l 2.3449,-0.32667 5.35751,2.61187 c 2.94663,1.43652 5.3275,2.73091 5.29082,2.8764 -0.0367,0.1455 -0.99311,1.53304 -2.1254,3.08344 l -2.05871,2.8189 -0.25596,4.74984 -0.25597,4.74983 1.33562,1.95391 1.33561,1.95391 0.98162,9.21764 c 0.53989,5.0697 0.98207,9.24605 0.98262,9.28077 0.002,0.0947 -9.48585,-0.0113 -18.05548,-0.20175 z"
       style="fill:#d7eef4;stroke:#002b22;stroke-width:0.252936;stroke-linejoin:round" />
    <path
       transform="scale(0.26458333)"
       id="Binalonan"
       d="m 549.20614,563.73523 c -0.38197,-0.0579 -0.69448,-0.14732 -0.69448,-0.1988 0,-0.0515 -0.45396,-4.34972 -1.0088,-9.55167 l -1.0088,-9.45809 -1.30557,-1.91311 -1.30557,-1.91311 0.24112,-4.23894 0.24112,-4.23894 2.26265,-3.11397 c 2.23767,-3.07959 2.45334,-3.28535 19.53134,-18.63382 9.49778,-8.53592 17.29383,-15.48733 17.32457,-15.44758 0.0307,0.0397 0.88302,1.37915 1.89398,2.97645 l 1.8381,2.90419 0.19319,19.57171 0.19318,19.5717 -3.69849,5.28713 -3.69849,5.28712 -9.091,6.6453 -9.091,6.64531 -6.06129,-0.0378 c -3.3337,-0.0208 -6.3738,-0.0852 -6.75576,-0.14304 z"
       style="fill:#d7eef4;stroke:#002b22;stroke-width:0.252936;stroke-linejoin:round" />
    <path
       transform="scale(0.26458333)"
       id="Asingan"
       d="m 584.18267,603.1416 -3.09359,-2.67246 -0.004,-10.13216 -0.004,-10.13216 -8.11204,-5.66533 -8.11203,-5.66532 -0.87336,-1.83904 c -0.48034,-1.01146 -0.82991,-1.96934 -0.77682,-2.12861 0.0531,-0.15927 4.01227,-3.15143 8.79819,-6.64924 l 8.70166,-6.35966 3.53697,2.57353 3.53698,2.57353 8.46002,0.63191 c 8.15846,0.60939 8.63107,0.6187 13.25826,0.26116 l 4.79822,-0.37076 4.29315,-1.84844 4.29315,-1.84844 4.20394,-0.31697 4.20395,-0.31696 2.22846,-1.71737 c 1.22566,-0.94456 2.25427,-1.69158 2.2858,-1.66004 0.18199,0.18199 -7.36657,25.11653 -7.70893,25.46423 -0.22825,0.23181 -4.88729,3.27174 -10.35342,6.75539 l -9.93843,6.33392 h -3.6373 -3.6373 l -6.81673,3.41016 c -6.4137,3.20855 -6.81673,3.45078 -6.81673,4.09699 0,0.37775 0.12414,2.51678 0.27586,4.75341 0.15172,2.23663 0.23695,4.30838 0.1894,4.60389 -0.0744,0.46243 -0.5175,0.16492 -3.18004,-2.13516 z"
       style="fill:#d7eef4;stroke:#002b22;stroke-width:0.252936;stroke-linejoin:round" />
    <path
       transform="scale(0.26458333)"
       id="SanManuel"
       d="m 595.89965,556.42594 -7.53906,-0.60359 -3.36955,-2.44657 c -2.05608,-1.49289 -3.29209,-2.54868 -3.17084,-2.70852 0.1093,-0.14407 1.73784,-2.47797 3.61899,-5.18644 l 3.42027,-4.92449 -0.19722,-20.07678 -0.19722,-20.07678 -2.1458,-3.40927 -2.1458,-3.40926 -0.63215,-23.10724 c -0.34769,-12.70899 -0.60636,-23.13533 -0.57483,-23.16966 0.0315,-0.0343 0.98214,0.33836 2.11246,0.82819 l 2.05514,0.8906 16.8649,-0.96015 16.86489,-0.96016 0.17549,1.89973 c 0.0965,1.04486 0.47927,9.3433 0.85056,18.44099 l 0.67507,16.54125 6.43618,16.66307 6.43618,16.66308 0.47148,13.01015 c 0.25932,7.15559 0.47479,13.98027 0.47881,15.16596 l 0.007,2.15581 -1.19956,0.90503 c -0.65975,0.49777 -1.93823,1.4784 -2.84105,2.17917 l -1.6415,1.27414 -4.04061,0.3036 -4.04061,0.30361 -4.43677,1.86924 -4.43678,1.86924 -4.6546,0.36865 c -2.56003,0.20276 -4.88188,0.35568 -5.15967,0.33983 -0.27779,-0.0159 -3.89765,-0.30045 -8.04413,-0.63243 z"
       style="fill:#d7eef4;stroke:#002b22;stroke-width:0.252936;stroke-linejoin:round" />
    <path
       transform="scale(0.26458333)"
       id="Pozorrubio"
       d="m 542.82955,521.84164 c -3.05571,-1.49641 -5.84109,-2.72757 -6.18972,-2.7359 -0.34864,-0.008 -2.62148,0.26743 -5.05077,0.6128 -3.77083,0.53611 -5.36083,0.62846 -10.87042,0.63135 l -6.45354,0.003 -9.20382,-3.74837 -9.20382,-3.74838 -0.12627,-4.14162 -0.12627,-4.14163 -3.91434,-2.12661 -3.91435,-2.1266 0.18508,-12.46972 0.18508,-12.46972 1.82044,-2.38445 c 1.58171,-2.07174 1.97141,-2.43271 2.97165,-2.75255 0.63316,-0.20246 4.08405,-1.23257 7.66862,-2.28912 l 6.51742,-1.92101 6.11518,2.27587 6.11519,2.27586 7.31791,0.63775 c 4.02485,0.35077 8.79526,0.76468 10.60091,0.91981 l 3.283,0.28205 3.76334,-1.79645 3.76335,-1.79645 6.66044,0.34509 c 3.66325,0.1898 6.73138,0.41602 6.81808,0.50273 0.0867,0.0867 2.17162,7.461 4.63314,16.38734 2.46152,8.92633 4.5924,16.64831 4.73527,17.15994 l 0.25978,0.93024 -10.51848,9.44087 c -5.78516,5.19248 -10.91622,9.78364 -11.40236,10.20256 l -0.88388,0.76169 z"
       style="fill:#d7eef4;stroke:#002b22;stroke-width:0.252936;stroke-linejoin:round" />
    <path
       transform="scale(0.26458333)"
       id="Sison"
       d="m 572.14615,502.74219 c -0.0772,-0.24496 -2.23063,-8.03605 -4.78546,-17.31352 -2.55482,-9.27747 -4.69509,-16.91808 -4.75615,-16.97914 -0.0611,-0.061 -3.43554,-0.28638 -7.49887,-0.50073 l -7.38785,-0.38971 -3.77222,1.79116 -3.77222,1.79115 -10.1624,-0.88083 -10.1624,-0.88083 -6.16693,-2.29242 c -3.39181,-1.26084 -6.3465,-2.29134 -6.56599,-2.29 -0.21949,10e-4 -3.94627,1.05465 -8.28175,2.34069 l -7.88268,2.33826 -1.58354,2.1227 c -1.57984,2.11774 -1.584,2.12098 -1.7804,1.38425 -0.10827,-0.40615 -1.50272,-8.23884 -3.09877,-17.40597 -1.59606,-9.16714 -2.96373,-16.93668 -3.03929,-17.26566 l -0.13736,-0.59813 11.54709,0.0931 11.54709,0.0931 4.25798,-10.34214 c 2.34189,-5.68817 4.30794,-10.39209 4.36901,-10.45316 0.0611,-0.0611 2.35822,0.85982 5.10478,2.04643 2.74657,1.1866 15.67612,6.78153 28.73234,12.43317 13.05622,5.65164 26.12507,11.30694 29.04188,12.56733 2.91682,1.26039 5.39881,2.37408 5.51553,2.47486 0.18448,0.15929 1.41249,39.12243 1.41631,44.93786 l 0.002,2.14658 -2.58274,2.29984 c -1.42051,1.26492 -3.79625,3.39726 -5.27942,4.73854 -2.17455,1.96652 -2.72384,2.35246 -2.83699,1.9933 z"
       style="fill:#d7eef4;stroke:#002b22;stroke-width:0.252936;stroke-linejoin:round" />
    <path
       transform="scale(0.26458333)"
       id="SanNicolas"
       d="m 637.65307,545.41769 c -0.002,-0.93755 -0.22295,-7.73764 -0.48988,-15.11132 l -0.48534,-13.40669 -6.43154,-16.64535 -6.43153,-16.64535 -0.78211,-18.28686 c -0.43016,-10.05776 -0.73809,-18.33087 -0.68428,-18.38468 0.21323,-0.21323 27.84289,-8.95302 28.31494,-8.95656 0.27779,-0.002 11.0738,3.87794 23.99113,8.62228 12.91732,4.74433 27.4067,10.05784 32.19861,11.8078 4.79191,1.74995 8.83912,3.3056 8.99379,3.457 0.15468,0.15141 4.21739,9.57995 9.02824,20.95232 l 8.74701,20.67704 v 3.62002 3.62002 l -0.94702,0.25203 c -0.52086,0.13862 -4.00068,1.04583 -7.73293,2.01603 l -6.78592,1.76399 -1.16903,1.28344 c -0.64297,0.7059 -4.01009,4.34964 -7.48249,8.09721 l -6.31345,6.81375 -4.04061,-0.15567 -4.04062,-0.15567 -14.45711,7.88823 -14.45712,7.88824 -11.30177,0.33502 c -6.21598,0.18426 -12.63707,0.34027 -14.2691,0.34669 l -2.96732,0.0117 -0.005,-1.70463 z"
       style="fill:#d7eef4;stroke:#002b22;stroke-width:0.252936;stroke-linejoin:round" />
    <path
       transform="scale(0.26458333)"
       id="Natividad"
       d="m 679.24064,575.34346 c -0.3391,-0.45141 -3.12911,-4.27949 -6.20003,-8.50685 l -5.58349,-7.68609 -0.027,-1.65782 c -0.0149,-0.9118 -0.1001,-3.54107 -0.1894,-5.84283 l -0.16237,-4.18502 14.26841,-7.78343 14.2684,-7.78344 4.01487,0.22543 4.01486,0.22543 7.6949,-8.27062 c 4.23219,-4.54885 7.76668,-8.27285 7.85443,-8.27558 0.0877,-0.003 3.39604,-0.84785 7.35178,-1.87807 3.95574,-1.03021 7.21863,-1.84675 7.25085,-1.81453 0.0322,0.0322 0.62983,2.18653 1.32801,4.78735 l 1.26942,4.72875 9.08821,9.76579 c 4.99851,5.37118 9.04258,9.8114 8.98683,9.86715 -0.0557,0.0557 -7.58181,3.7641 -16.72458,8.24079 l -16.62323,8.13943 -16.65477,6.26952 -16.65477,6.26952 -3.85154,2.99293 c -2.11834,1.64612 -3.90816,2.99294 -3.97737,2.99294 -0.0692,0 -0.40327,-0.36934 -0.74238,-0.82075 z"
       style="fill:#d7eef4;stroke:#002b22;stroke-width:0.252936;stroke-linejoin:round" />
    <path
       transform="scale(0.26458333)"
       id="Tayug"
       d="m 649.17183,582.45294 c -10.54305,-3.87254 -19.22179,-7.0936 -19.28609,-7.1579 -0.1132,-0.1132 7.50089,-26.22931 7.76637,-26.63844 0.0725,-0.11169 5.41614,-0.33297 11.8748,-0.49172 6.45866,-0.15876 12.79421,-0.35524 14.079,-0.43663 l 2.33598,-0.14799 0.0252,2.99089 c 0.0138,1.64499 0.0994,4.41142 0.19013,6.14762 l 0.16496,3.15673 6.13103,8.42001 c 3.37207,4.63101 6.15597,8.53297 6.18646,8.67104 0.0305,0.13806 -1.1338,1.18296 -2.58729,2.322 l -2.64273,2.07098 -2.34671,4.03147 c -1.29069,2.2173 -2.43113,4.04754 -2.53431,4.0672 -0.10318,0.0196 -8.81373,-3.13271 -19.35677,-7.00526 z"
       style="fill:#d7eef4;stroke:#002b22;stroke-width:0.252936;stroke-linejoin:round" />
    <path
       transform="scale(0.26458333)"
       id="SanQuintin"
       d="m 640.28709,609.56238 c 0.10355,-0.10418 6.68532,-4.34771 14.62617,-9.43009 l 14.4379,-9.24068 2.54287,-4.32491 2.54289,-4.32492 7.10512,-5.50103 7.10513,-5.50104 16.11088,-6.03429 16.11088,-6.0343 15.5311,-7.56428 c 8.5421,-4.16036 16.33749,-7.98378 17.32308,-8.4965 l 1.79197,-0.93221 2.33657,2.49749 2.33657,2.49749 -0.14686,2.18431 c -0.0808,1.20138 -0.33654,9.74152 -0.5684,18.9781 -0.23185,9.23659 -0.43262,16.8064 -0.44616,16.82182 -0.0135,0.0154 -13.94641,5.21692 -30.96193,11.55891 l -30.93733,11.53088 -3.28159,0.13406 c -2.59618,0.10606 -51.82521,1.37059 -53.35808,1.37059 -0.21398,0 -0.30433,-0.0852 -0.20078,-0.1894 z"
       style="fill:#d7eef4;stroke:#002b22;stroke-width:0.252936;stroke-linejoin:round" />
    <path
       transform="scale(0.26458333)"
       id="Umingan"
       d="m 685.46981,698.78947 -5.76459,-8.06322 -11.21003,-9.32653 -11.21002,-9.32653 -3.95441,-0.39893 -3.95441,-0.39893 -4.37829,-13.60504 -4.37829,-13.60505 -1.34818,-15.70464 c -0.7415,-8.63754 -1.35117,-16.05707 -1.35481,-16.48783 l -0.007,-0.7832 5.99778,-0.16635 c 3.29878,-0.0915 10.48664,-0.28085 15.97303,-0.42081 5.4864,-0.13995 16.17748,-0.4166 23.75798,-0.61479 l 13.78271,-0.36034 30.51155,-11.37824 c 16.78135,-6.25803 30.60856,-11.37823 30.72713,-11.37823 0.11857,0 0.21558,1.34137 0.21558,2.98081 v 2.98082 l -2.62359,7.18384 -2.62359,7.18385 -0.31157,7.3236 c -0.22538,5.29761 -0.40303,7.4284 -0.64218,7.70242 -0.18183,0.20834 -5.94547,5.20622 -12.80808,11.10639 l -12.47748,10.72758 -0.32683,8.83882 -0.32682,8.83882 -5.26793,7.50071 -5.26793,7.50071 -1.32531,7.17454 -1.32532,7.17454 -5.56024,3.08346 -5.56025,3.08346 -3.78565,4.76079 -3.78564,4.76078 -1.81156,0.088 -1.81155,0.088 z"
       style="fill:#d7eef4;stroke:#002b22;stroke-width:0.252936;stroke-linejoin:round" />
    <path
       transform="scale(0.26458333)"
       id="Binmaley"
       d="m 356.66951,584.63956 c -0.97933,-2.32672 -1.78061,-4.24788 -1.78061,-4.26923 0,-0.0213 0.90188,-0.0388 2.00418,-0.0388 h 2.00418 l 2.12053,-2.11984 2.12053,-2.11985 2.60525,0.26177 c 1.43289,0.14397 2.62215,0.24487 2.6428,0.22421 0.0207,-0.0207 0.15463,-0.97474 0.29772,-2.1202 0.1431,-1.14546 0.2868,-2.10875 0.31934,-2.14063 0.0326,-0.0319 0.82626,-0.53046 1.7638,-1.10793 0.93755,-0.57748 1.69808,-1.07497 1.69007,-1.10555 -0.0143,-0.0546 -3.08092,-4.53388 -3.16434,-4.62204 -0.0234,-0.0248 -1.50478,-0.22817 -3.2919,-0.45204 l -3.24932,-0.40704 -1.07458,0.77687 c -0.59102,0.42728 -2.36584,1.71646 -3.94405,2.86484 -1.5782,1.14838 -2.87409,2.08181 -2.87974,2.07429 -0.0414,-0.0551 -9.82615,-32.44112 -9.80675,-32.45875 0.0137,-0.0124 3.82689,-1.69219 8.47381,-3.73282 8.24172,-3.61921 8.45171,-3.70728 8.56133,-3.59041 0.0618,0.0659 5.041,6.17181 11.06486,13.56869 l 10.95246,13.44888 0.98751,12.46632 c 0.54313,6.85647 0.96684,12.48699 0.94157,12.51226 -0.0689,0.0689 -7.47484,4.10344 -7.49041,4.08058 -0.007,-0.0109 -0.36271,-0.7726 -0.78961,-1.69279 -0.4269,-0.92018 -0.80096,-1.69957 -0.83124,-1.73197 -0.0515,-0.0551 -8.71583,-2.51654 -8.73773,-2.48227 -0.006,0.009 -0.46814,0.80353 -1.02797,1.76632 l -1.01788,1.75051 0.22745,1.92998 c 0.13385,1.13576 0.20397,1.95055 0.17038,1.97997 -0.0314,0.0275 -1.70488,0.18447 -3.71887,0.34885 -2.01399,0.16437 -3.81938,0.31448 -4.01198,0.33356 l -0.35017,0.0347 z"
       style="fill:#d7eef4;stroke:#002b22;stroke-width:0.063234;stroke-linejoin:round" />
  </g>
</svg>
