<?xml version="1.0" encoding="UTF-8" standalone="no"?>
<svg
   xmlns:dc="http://purl.org/dc/elements/1.1/"
   xmlns:cc="http://creativecommons.org/ns#"
   xmlns:rdf="http://www.w3.org/1999/02/22-rdf-syntax-ns#"
   xmlns:svg="http://www.w3.org/2000/svg"
   xmlns="http://www.w3.org/2000/svg"
   xmlns:sodipodi="http://sodipodi.sourceforge.net/DTD/sodipodi-0.dtd"
   xmlns:inkscape="http://www.inkscape.org/namespaces/inkscape"
   sodipodi:docname="philippines.svg"
   inkscape:version="1.0 (4035a4fb49, 2020-05-01)"
   id="svg1284"
   version="1.1"
   viewBox="0 0 210 297"
   height="297mm"
   width="210mm">
  <defs
     id="defs1278" />
  <sodipodi:namedview
     inkscape:window-maximized="1"
     inkscape:window-y="-8"
     inkscape:window-x="-8"
     inkscape:window-height="1387"
     inkscape:window-width="2160"
     showgrid="false"
     inkscape:document-rotation="0"
     inkscape:current-layer="layer1"
     inkscape:document-units="mm"
     inkscape:cy="169.68329"
     inkscape:cx="379.27042"
     inkscape:zoom="1.979899"
     inkscape:pageshadow="2"
     inkscape:pageopacity="0.0"
     borderopacity="1.0"
     bordercolor="#666666"
     pagecolor="#ffffff"
     id="base" />
  <metadata
     id="metadata1281">
    <rdf:RDF>
      <cc:Work
         rdf:about="">
        <dc:format>image/svg+xml</dc:format>
        <dc:type
           rdf:resource="http://purl.org/dc/dcmitype/StillImage" />
        <dc:title></dc:title>
      </cc:Work>
    </rdf:RDF>
  </metadata>
  <g
     style="display:inline"
     id="layer1"
     inkscape:groupmode="layer"
     inkscape:label="Layer 1">
    <path
       id="path1300"
       d="m 105.41863,0.93094664 0.84891,1.22620576 -0.56594,1.5091766 -1.2262,1.0375587 -0.47162,-0.9432352 z"
       style="fill:none;stroke:#000000;stroke-width:0.264106px;stroke-linecap:butt;stroke-linejoin:miter;stroke-opacity:1" />
    <path
       id="path1302"
       d="m 108.15402,8.0052112 0.84891,0.4716179 -1.22621,1.0375582 v 0.8489117 l -1.2262,0.660264 -0.0943,-0.848911 1.13188,-1.9807936 z"
       style="fill:none;stroke:#000000;stroke-width:0.264106px;stroke-linecap:butt;stroke-linejoin:miter;stroke-opacity:1" />
    <path
       id="path1304"
       d="m 105.28965,10.622093 1.26087,0.40147 -1.02743,1.365995 -0.26679,0.400181 -0.43353,-1.26724 z"
       style="fill:none;stroke:#000000;stroke-width:0.264106px;stroke-linecap:butt;stroke-linejoin:miter;stroke-opacity:1" />
    <path
       id="path1306"
       d="m 106.45684,25.295391 1.13385,-0.300136 0.33348,0.566924 -0.0667,1.233889 -0.43353,0.400182 -1.36729,-1.0338 z"
       style="fill:none;stroke:#000000;stroke-width:0.264106px;stroke-linecap:butt;stroke-linejoin:miter;stroke-opacity:1" />
    <path
       id="path1308"
       d="m 97.519471,28.130004 1.700767,0.767013 0.400182,-0.433527 0.366832,2.50113 -0.733665,0.433528 -1.867511,-0.700316 -0.833711,-1.600723 z"
       style="fill:none;stroke:#000000;stroke-width:0.264106px;stroke-linecap:butt;stroke-linejoin:miter;stroke-opacity:1" />
    <path
       id="path1310"
       d="m 107.15716,35.466654 0.9004,1.400633 -2.30104,2.567827 -0.80036,-0.767014 0.93376,-3.034703 z"
       style="fill:none;stroke:#000000;stroke-width:0.264106px;stroke-linecap:butt;stroke-linejoin:miter;stroke-opacity:1" />
    <path
       id="path1312"
       d="m 95.151732,37.901087 2.33439,-0.466878 1.967554,0.933757 -1.067149,0.533572 -3.001357,0.300139 z"
       style="fill:none;stroke:#000000;stroke-width:0.264106px;stroke-linecap:butt;stroke-linejoin:miter;stroke-opacity:1" />
    <path
       id="path1314"
       d="m 94.151281,32.431948 0.833711,2.367738 -0.300139,0.933754 -1.133843,-1.267238 z"
       style="fill:none;stroke:#000000;stroke-width:0.264106px;stroke-linecap:butt;stroke-linejoin:miter;stroke-opacity:1" />
    <path
       id="path1316"
       d="m 86.281057,42.736607 1.100498,-0.466879 1.467329,1.66742 2.034253,-1.100498 0.733665,0.300138 1.233892,-0.400181 13.572806,6.636331 3.43488,-2.0676 0.53357,-2.534479 1.66742,-0.0667 1.93421,3.634977 -0.20009,1.767465 -2.76792,3.068054 0.47693,3.07704 -0.89607,2.641059 0.33013,3.065514 1.6035,4.244559 0.94324,0.565939 1.27336,-0.188645 1.27337,1.697823 -0.28297,2.40525 1.6035,-0.04717 v 1.462016 l -4.33888,9.951133 -0.94324,1.839306 -0.0943,2.971192 -3.58429,4.480369 -0.28296,-0.565942 2.07511,-3.725779 -0.42445,-0.518781 -1.27337,1.792149 -5.4236,2.546736 -3.112681,2.829705 0.377291,2.263764 0.9904,-0.04716 -0.0471,2.310927 -3.11268,5.046301 -0.848911,-0.0471 -0.424454,1.2262 0.896072,1.50918 1.131883,0.6131 2.2166,6.64981 2.21661,2.2166 -2.21661,0.94324 1.13189,5.18779 0.9904,0.80175 0.0943,0.9904 0.42445,0.56594 -0.6131,1.2262 3.25415,2.82972 4.00876,1.69782 0.75459,-0.0943 0.51878,0.4716 0.56594,-0.6131 -2.35808,-1.74498 -3.48999,-2.92403 0.33014,-0.80175 4.33888,3.06552 1.13189,1.41484 0.70742,0.18865 0.14149,-0.99039 -2.35809,-1.83931 1.22621,-1.36769 0.66027,-0.84892 0.28296,0.47162 v 1.3677 l 0.94324,0.37729 v -1.46201 l 2.2166,-2.5939 3.44281,0.89607 0.3773,-0.94323 1.93363,0.66026 0.37729,0.84892 h 1.13188 l 2.87687,3.30132 0.47162,1.41485 0.89607,2.31092 -0.75459,0.70743 -0.18865,1.36769 1.08472,0.6131 1.9808,0.23582 1.69782,-0.9904 -0.51878,-1.79215 0.33013,-0.89607 -1.50917,-1.13189 0.9904,-1.65065 1.32052,-0.14149 1.60351,2.68822 2.16943,0.56594 2.07512,0.56594 0.51878,-0.94324 1.93364,1.93364 2.2166,0.56594 0.47162,1.36769 -1.93364,0.0943 -0.70743,0.84892 -4.15022,-0.89607 -1.03757,1.93362 1.74499,2.12228 0.61311,0.0943 1.69782,3.11269 0.94323,0.99039 h 0.42446 l 0.14148,-0.99039 -1.36769,-1.69783 3.63146,2.16944 1.98079,0.28297 -1.03756,1.27337 -1.88647,-0.42445 -0.51878,0.42445 -1.41485,0.14148 -0.3773,-0.51878 -0.33013,0.18865 -0.2358,1.50918 0.42445,0.51878 -0.37729,0.75459 0.66027,0.18864 0.66025,-0.66026 0.0943,-0.75459 0.80175,-0.42445 1.46201,0.99039 1.79215,1.55634 0.80175,-1.32053 1.55634,0.47162 v 1.03756 l -0.80175,0.0943 -0.66027,1.79215 0.7546,1.08472 -0.47162,3.15984 -0.75459,2.31092 -1.74499,0.0943 -1.32053,-1.50918 -1.36769,-1.08472 -0.28297,-2.45241 0.9904,-1.32053 0.56593,0.80175 1.83932,-0.80175 0.14148,-1.50917 -2.35808,-0.18865 -1.22622,1.88647 -1.36768,0.51878 -1.22621,-1.41485 -0.42445,1.13187 -1.93363,-1.46201 -0.42446,0.28297 -2.16945,-2.16945 -1.6035,0.84892 -0.47161,-1.55634 v -1.46201 l 0.66026,-0.66027 -1.50918,-1.46201 -0.70742,-1.17905 -0.0943,-1.46201 -3.86727,-1.65066 -3.06552,-2.26377 0.94325,-0.89607 -1.08473,-1.08473 -0.99039,-0.56593 -0.18865,-0.80175 h -0.75459 l -0.37729,0.56594 -0.70743,-1.69783 h -0.80175 l -0.47161,-1.2262 -0.56595,0.51878 -1.88647,-0.18865 1.88647,2.31093 0.0943,1.65066 -0.51877,0.28297 0.33013,1.32053 2.40524,2.21661 -0.37728,0.47161 1.03755,2.21661 0.23581,2.68822 -1.65066,1.32053 -1.69782,-1.50918 0.14148,-2.12229 -3.39564,-4.24455 -2.12228,-0.37729 -1.93364,-3.30132 -1.08472,0.18864 -3.91442,-2.59389 -0.89608,-0.9904 -0.9904,-0.0471 -0.56594,0.84892 -4.008746,2.07512 -0.188649,1.27336 0.471618,0.94324 -0.80175,0.99039 -0.990396,-0.42446 -1.83931,1.08472 -1.556337,-0.80174 -1.792149,0.37729 -0.660264,-0.42445 v -2.3581 l -0.943236,-0.42445 -1.320529,1.83931 -0.377294,-0.47161 0.707426,-1.17905 -0.235807,-1.74499 -3.159839,-1.08472 -0.330132,1.50919 -0.660266,1.50917 -0.660264,-0.6131 -0.51878,-3.53714 -0.613101,-4.24456 1.556336,-0.9904 1.131884,0.0943 2.829705,-3.91443 1.320529,0.33013 0.754589,-0.8489 -1.462016,-3.25417 -4.669014,-1.13188 -2.027955,-1.36769 1.273368,6.74413 -1.509178,1.13188 -2.971191,-1.2262 0.04716,-2.82971 -1.933632,-1.13188 0.565942,-2.12228 -1.131882,-1.36769 h -0.613103 l 0.565942,1.13188 -0.660265,1.32052 -1.179045,-0.14148 -0.990397,-1.8393 -0.188648,-4.99916 -2.782543,-5.65941 v -1.2262 l 1.226206,-0.0943 -0.141487,-1.131878 -0.990396,-0.84891 0.613103,-1.273368 -1.226207,-0.801749 0.613104,-2.12228 -1.037559,-2.122279 -0.613103,0.848911 -0.990397,-0.09432 -0.09432,-1.084719 0.801749,-6.838457 2.169442,-1.226207 0.565942,0.613104 -0.330132,2.405249 1.697823,1.414855 0.613103,-0.330132 1.179043,0.896074 -0.09432,1.414852 1.273368,0.660265 2.593897,-0.613104 1.650662,-1.933633 -0.75459,-1.839309 -0.990397,0.04716 -0.801749,-6.461162 0.990398,-1.933633 -0.424456,-2.075117 1.462014,-0.848913 0.896074,-2.40525 -0.943236,-4.244558 0.943236,-3.018353 -0.613104,-1.697824 -1.462013,-1.226206 0.518778,-2.829704 1.131883,-0.377296 -0.565941,-1.556337 0.896075,-0.235809 -0.282972,-1.792147 0.943236,-1.273368 -0.424458,-1.83931 1.037559,-1.08472 -0.188646,-1.179044 1.697823,-2.92403 -0.990397,-2.122279 1.367691,-1.320529 1.83931,0.565942 0.990397,-0.424458 z"
       style="fill:none;stroke:#000000;stroke-width:0.264106px;stroke-linecap:butt;stroke-linejoin:miter;stroke-opacity:1" />
    <path
       id="path1318"
       d="m 89.902411,43.50623 -0.165066,2.67643 -0.530568,1.579918 0.282969,2.723593 0.271181,1.025768 -0.636682,0.896072 v 2.334508 L 88.652625,55.473528 87.45,55.143395 86.270956,56.204533 h -0.872493 l -0.235807,0.966818 -2.61748,0.84891 -1.815727,5.400023 0.259389,0.542359 1.320529,-0.09432 0.282971,0.731008 -0.589521,1.674241 0.282971,0.82533 1.013976,0.212231 1.013979,0.966815 -0.04717,1.296947 1.509175,0.565942 0.801752,-0.565942 0.919653,0.04717 -1.037558,1.179043 -0.07074,2.38167 -0.07074,1.391273 -0.565941,0.495199 -1.485596,-0.02359 -0.660265,0.589522 -0.353715,3.348487 -1.344108,1.62708 -0.02359,0.707426 -0.636682,0.589521 -0.330132,0.117905 -0.212229,0.731009 0.07074,1.744984 0.660265,2.617479 1.674244,1.061139 1.296947,0.212229 1.414855,-0.377296"
       style="fill:none;stroke:#000000;stroke-width:0.264106px;stroke-linecap:butt;stroke-linejoin:miter;stroke-opacity:1" />
    <path
       id="path1320"
       d="m 89.737345,46.18266 0.683847,-0.188648 1.155463,-1.532757 0.400875,0.02359 0.07074,1.320529 3.254162,1.179045 0.28297,0.518781 1.579919,0.636683 1.29695,0.731008 0.518778,1.6035 -0.54236,2.475993 -0.141484,0.919653 -0.660265,0.377294 -1.862889,3.631456 0.990397,0.23581 1.249785,1.650661 -0.02359,0.872493 0.613104,0.04716 3.607873,3.560712 -0.0471,0.731009 -0.66027,0.51878 -0.51877,0.282969 -1.179048,2.994773 0.235808,3.725778 0.40087,2.287347 -1.013972,1.509176 -3.018353,1.202627 -1.556339,2.523154 -6.508322,0.731005 -0.424457,0.848913 0.188648,2.829707 -0.801749,1.462014 -0.754591,-0.04716 -0.707426,1.131882 -0.02359,1.037555 1.697831,0.966821 0.84891,2.051538 -0.165066,2.381666 -1.438435,2.098699 -0.448034,0.02359 -0.801751,-0.872493 -2.263766,0.471616 -0.495198,-1.155463 -0.84891,2.027956 -2.004376,0.04716 -0.495199,-0.377293 -1.013976,0.82533 -0.707429,1.462017 -1.179043,0.6131 -1.697823,-2.358088 0.165066,-1.155463 -2.098699,-1.108302 -0.778169,0.848913 -1.344049,-0.400775"
       style="fill:none;stroke:#000000;stroke-width:0.264106px;stroke-linecap:butt;stroke-linejoin:miter;stroke-opacity:1" />
    <path
       id="path1322"
       d="m 88.063104,89.830872 2.263765,-0.282969 2.876866,0.565939 0.28297,3.678618 1.462017,2.027958 9.007898,-7.498721 2.54673,-2.593898 2.5939,-3.820104 3.91443,-0.141484"
       style="fill:none;stroke:#000000;stroke-width:0.264106px;stroke-linecap:butt;stroke-linejoin:miter;stroke-opacity:1" />
    <path
       id="path1324"
       d="m 88.86491,115.39265 v 0 l 2.216546,-1.3678 0.801749,0.14149 2.169443,-1.27337 0.565942,0.18865 1.650661,-1.08472 0.235808,-3.39565 0.707428,-0.9904 -0.47162,-1.36769 1.03761,-0.28293"
       style="fill:none;stroke:#000000;stroke-width:0.264106px;stroke-linecap:butt;stroke-linejoin:miter;stroke-opacity:1" />
    <path
       id="path1326"
       d="m 89.572337,119.49572 0.990339,2.31082 0.848913,-0.18864 2.027955,2.35808 0.04717,0.80175 1.509178,0.0943 2.782544,-2.02795 0.330132,-0.89607 0.330132,0.2358 0.377294,-0.56593 -0.377294,-0.66027 -0.952569,0.11437 -0.26679,0.76702 -1.534024,1.20054 -0.23344,-0.45021 0.783689,-1.81748 -0.416858,-1.25057 -0.817035,-0.6503 -0.483551,0.30014 -0.183416,0.81703 0.216764,0.98378 -0.05002,0.75035 0.483554,0.3168 -0.583597,1.00046 -0.500228,-0.55026 0.03335,-2.01757 -0.800362,-1.60073 -1.183868,-0.35016"
       style="fill:none;stroke:#000000;stroke-width:0.264106px;stroke-linecap:butt;stroke-linejoin:miter;stroke-opacity:1" />
    <path
       id="path1328"
       d="m 92.450512,113.96878 -0.200091,1.96757 0.366832,0.51689 -0.08337,0.43353 h -0.750338 l 0.166749,1.63408 -0.733674,0.81703 0.194967,2.28002"
       style="fill:none;stroke:#000000;stroke-width:0.264106px;stroke-linecap:butt;stroke-linejoin:miter;stroke-opacity:1" />
    <path
       id="path1330"
       d="m 89.815988,126.40775 1.217217,-0.05 0.433529,0.70032 -0.250114,0.5836 -0.933754,0.05 -0.366832,-0.28346 -0.01667,1.08382 0.400182,0.11672 0.800362,-0.73367 0.733665,0.0834 -0.08337,0.88374 -1.484005,1.60072 -0.817035,-0.58359 -0.183416,-0.88374 0.03335,-1.95088 z"
       style="fill:none;stroke:#000000;stroke-width:0.264106px;stroke-linecap:butt;stroke-linejoin:miter;stroke-opacity:1" />
    <path
       id="path1332"
       d="m 113.81349,125.81532 -0.4035,1.14267 1.08382,0.23344 1.33393,-1.41731 6.01939,2.33439 -4.16638,0.91384"
       style="fill:none;stroke:#000000;stroke-width:0.264106px;stroke-linecap:butt;stroke-linejoin:miter;stroke-opacity:1" />
    <path
       id="path1334"
       d="m 105.32431,108.97854 1.91005,-0.25939 c 0,0 1.62708,1.1083 1.67425,1.24978 0.0471,0.14149 0.30654,0.8725 0.30654,0.8725 l -0.40087,0.0943 -0.68385,-0.6131 0.42446,1.27336 -0.94323,0.54236 0.99039,2.90045 -1.1083,1.55634 -0.82533,0.33013 -0.47162,-0.56595 v -1.20261 l 0.44804,-0.35372 -0.94324,-1.95722 -0.66026,-1.65065 -0.6131,-0.0471 z"
       style="fill:none;stroke:#000000;stroke-width:0.264106px;stroke-linecap:butt;stroke-linejoin:miter;stroke-opacity:1" />
    <path
       id="path1336"
       d="m 108.69638,112.18554 0.75459,0.33013 -0.18865,0.3773 -0.84892,-0.0943 -0.1179,-0.54236 z"
       style="fill:none;stroke:#000000;stroke-width:0.264106px;stroke-linecap:butt;stroke-linejoin:miter;stroke-opacity:1" />
    <path
       id="path1338"
       d="m 110.25272,112.82223 1.57991,-0.0471 -0.0471,0.70743 0.731,-0.0472 -0.0943,1.81573 -2.73538,-1.79215 0.0943,-0.54236 z"
       style="fill:none;stroke:#000000;stroke-width:0.264106px;stroke-linecap:butt;stroke-linejoin:miter;stroke-opacity:1" />
    <path
       id="path1340"
       d="m 114.0964,114.9445 0.87249,-0.30655 0.80175,0.96682 -0.18865,0.25939 -1.55633,0.25939 -0.82533,-0.47162 0.77816,-0.66027 z"
       style="fill:none;stroke:#000000;stroke-width:0.264106px;stroke-linecap:butt;stroke-linejoin:miter;stroke-opacity:1" />
    <path
       id="path1342"
       d="m 110.70075,110.67637 0.66026,0.58952 -0.66026,0.77816 -0.42446,-0.30654 0.40088,-0.96682 z"
       style="fill:none;stroke:#000000;stroke-width:0.264106px;stroke-linecap:butt;stroke-linejoin:miter;stroke-opacity:1" />
    <path
       id="path1344"
       d="m 104.85269,122.4668 0.63669,0.18865 v 0.56595 l -0.51879,0.58951 -0.49519,-0.42445 0.0708,-0.77816 z"
       style="fill:none;stroke:#000000;stroke-width:0.264106px;stroke-linecap:butt;stroke-linejoin:miter;stroke-opacity:1" />
    <path
       id="path1346"
       d="m 108.38982,120.10871 h 0.47162 l 0.14149,0.66027 -0.28297,0.23581 -0.49521,-0.30655 z"
       style="fill:none;stroke:#000000;stroke-width:0.264106px;stroke-linecap:butt;stroke-linejoin:miter;stroke-opacity:1" />
    <path
       id="path1348"
       d="m 124.42483,119.07116 0.47161,-0.18865 0.0708,0.77817 -0.56595,0.44803 -0.37729,-0.0943 z"
       style="fill:none;stroke:#000000;stroke-width:0.264106px;stroke-linecap:butt;stroke-linejoin:miter;stroke-opacity:1" />
    <path
       id="path1350"
       d="m 145.69477,126.94717 0.70744,-0.0236 0.58952,-0.56593 1.29695,1.24979 0.6131,1.55633 0.47161,-0.37729 0.77818,1.43844 0.58952,0.25939 0.0708,1.93362 -0.42446,1.01398 0.28298,0.56595 -0.0471,0.58952 -0.94323,0.0943 c 0,0 -0.16507,1.57992 -0.23581,1.69782 -0.0708,0.11791 -0.58952,0.23581 -0.58952,0.23581 l -0.47162,-1.06114 -0.96682,0.23582 -0.14148,1.34411 c 0,0 -0.44804,0.14148 -0.54236,0.14148 -0.0943,0 -1.93364,-1.76857 -1.93364,-1.76857 l -0.63667,0.30655 -0.54236,-1.57992 0.63667,-0.82533 0.68385,-0.0471 0.58952,-0.89607 0.0236,-2.31093 0.30655,-0.23581 0.0236,-0.75459 -0.35371,-0.54236 z"
       style="fill:none;stroke:#000000;stroke-width:0.264106px;stroke-linecap:butt;stroke-linejoin:miter;stroke-opacity:1" />
    <path
       id="path1352"
       d="m 140.38909,128.59784 0.731,0.28297 -0.21223,0.731 -0.16506,0.47162 -0.30656,0.21223 -0.44803,-0.44804 v -1.13188 z"
       style="fill:none;stroke:#000000;stroke-width:0.264106px;stroke-linecap:butt;stroke-linejoin:miter;stroke-opacity:1" />
    <path
       id="path1354"
       d="m 145.03452,142.39265 0.6131,-0.44804 1.32052,0.42446 0.3773,0.21223 -0.0236,0.47162 -0.0236,0.35371 c 0,0 -0.70744,0.0708 -0.77818,0.0708 -0.0708,0 -0.70743,-0.23581 -0.70743,-0.23581 l -0.75458,0.0472 -0.23581,-0.30656 z"
       style="fill:none;stroke:#000000;stroke-width:0.264106px;stroke-linecap:butt;stroke-linejoin:miter;stroke-opacity:1" />
    <path
       id="path1356"
       d="m 136.4275,151.7071 1.91004,1.36769 0.51879,1.39127 0.75458,1.9808 0.3773,2.40524 -2.90046,-3.56071 -1.15546,-2.19301 0.42446,-0.56595 z"
       style="fill:none;stroke:#000000;stroke-width:0.264106px;stroke-linecap:butt;stroke-linejoin:miter;stroke-opacity:1" />
    <path
       id="path1358"
       d="m 138.50466,176.99727 -0.86706,1.53403 0.9004,1.63407 1.43399,0.0667 0.23344,-0.63361 -0.63363,-0.63362 -0.46687,-1.73412 z"
       style="fill:none;stroke:#000000;stroke-width:0.264106px;stroke-linecap:butt;stroke-linejoin:miter;stroke-opacity:1" />
    <path
       id="path1360"
       d="m 141.33927,176.13021 0.36683,0.0333 0.0333,1.1005 -0.43353,0.43353 -0.23344,-0.46688 -0.0333,-0.80036 z"
       style="fill:none;stroke:#000000;stroke-width:0.264106px;stroke-linecap:butt;stroke-linejoin:miter;stroke-opacity:1" />
    <path
       id="path1362"
       d="m 137.47086,180.5322 0.40018,0.53358 -1.16719,0.9671 -0.0667,-0.46688 0.80036,-0.90041 z"
       style="fill:none;stroke:#000000;stroke-width:0.264106px;stroke-linecap:butt;stroke-linejoin:miter;stroke-opacity:1" />
    <path
       id="path1364"
       d="m 143.61967,177.55175 0.94323,-0.0943 0.21223,0.96682 -0.75459,1.74499 -0.77817,1.13188 0.0943,0.25938 0.89608,-0.16506 0.18865,1.53276 -0.3773,0.80175 0.40087,0.68384 -0.33013,1.29695 0.0472,0.87249 -0.54236,0.63669 0.42445,2.40525 -0.18865,0.84891 0.28297,0.6131 -0.54236,2.24019 0.25939,0.28297 -0.75459,0.94323 -0.33013,-0.28296 -1.1083,1.20261 -1.03756,1.03757 -1.17904,0.0943 -1.65067,1.79214 -0.0708,0.96682 -0.63669,-0.23582 -0.30654,1.69782 -0.11791,1.95723 -0.70743,0.44803 -0.47161,0.9904 -0.0236,0.89607 -0.61311,0.37729 -0.0472,0.8725 -0.73101,2.02795 -1.43843,1.65067 -0.47162,1.06113 -0.80175,0.16507 -0.42445,-0.40088 0.1179,-2.05154 0.37729,-2.92402 0.30655,-1.74499 0.44804,-0.42446 -0.0943,-0.96681 0.51877,-0.21223 0.0708,-0.58952 -0.66026,-0.3773 0.0708,-0.91965 0.42445,-0.16507 0.0708,0.56595 0.21222,0.0471 0.16507,-1.6035 1.76857,-1.57992 -0.0236,-0.94324 1.10831,-0.96681 -0.0236,-1.55634 2.3581,-2.73538 -0.0236,-1.39128 0.68384,-0.58952 -0.0472,-0.66026 1.03756,-1.69783 0.56594,-0.0708 -0.0236,-1.20262 0.77817,-0.70743 0.11791,-1.34411 0.96681,-1.22621 -0.68384,-0.73101 0.73101,-1.48559 0.44803,0.0236 0.16507,-0.18865 -0.4952,-0.51879 0.18864,-1.13188 z"
       style="fill:none;stroke:#000000;stroke-width:0.264106px;stroke-linecap:butt;stroke-linejoin:miter;stroke-opacity:1" />
    <path
       id="path1366"
       d="m 142.8297,194.88959 0.56594,-0.006 1.10831,-0.39498 -1.5976,1.72141 h -0.67206 l -0.18865,-0.5011 z"
       style="fill:none;stroke:#000000;stroke-width:0.264106px;stroke-linecap:butt;stroke-linejoin:miter;stroke-opacity:1" />
    <path
       id="path1368"
       d="m 144.9284,195.66776 -0.0236,0.45393 -0.40676,0.39499 -0.45983,-0.40678 0.33013,-0.64848 0.54826,0.059 z"
       style="fill:none;stroke:#000000;stroke-width:0.264106px;stroke-linecap:butt;stroke-linejoin:miter;stroke-opacity:1" />
    <path
       id="path1370"
       d="m 146.85025,197.61907 1.6035,0.11791 0.42445,-0.42445 0.87249,0.56594 0.87249,0.14148 0.0708,0.61311 1.43843,0.82533 0.44804,-0.42446 0.0472,-0.56594 1.67424,-0.82533 0.18865,1.2262 -0.70743,0.75459 -0.54236,0.21224 0.30656,0.89607 -0.16507,0.63667 -0.16506,0.63669 0.28296,0.25939 0.16507,0.82533 -0.70743,0.3773 1.13189,0.6131 v 0.87249 l -0.58953,0.68385 h -0.89607 l -0.30655,-0.33013 -1.43843,0.68384 -0.3773,1.10831 -2.19303,0.77816 -1.55633,-0.18865 -1.98079,0.4952 -3.34849,-0.70743 -0.44804,0.63669 -1.55633,0.73101 -0.73101,-0.89608 1.93363,-1.20262 0.16506,-0.58952 0.30656,-0.40087 -0.18865,-0.47162 -1.32053,-0.0708 0.0943,-1.13189 1.67424,-2.00437 1.86288,-1.01398 0.8725,0.0943 0.28297,-0.25939 0.0471,-1.43843 0.75458,-0.25939 0.42447,-0.47162 0.35371,-0.89607 z"
       style="fill:none;stroke:#000000;stroke-width:0.264106px;stroke-linecap:butt;stroke-linejoin:miter;stroke-opacity:1" />
    <path
       id="path1372"
       d="m 140.60139,206.74488 0.80175,0.731"
       style="fill:none;stroke:#000000;stroke-width:0.264106px;stroke-linecap:butt;stroke-linejoin:miter;stroke-opacity:1" />
    <path
       id="path1374"
       d="m 140.38909,202.14661 0.21222,0.30655 -0.47162,0.25938 -0.35372,-0.49519 z"
       style="fill:none;stroke:#000000;stroke-width:0.264106px;stroke-linecap:butt;stroke-linejoin:miter;stroke-opacity:1" />
    <path
       id="path1376"
       d="m 139.2572,202.47674 0.47162,0.4952 -0.33013,0.40087 -0.42446,-0.35371 z"
       style="fill:none;stroke:#000000;stroke-width:0.264106px;stroke-linecap:butt;stroke-linejoin:miter;stroke-opacity:1" />
    <path
       id="path1378"
       d="m 146.85025,196.79374 0.15327,0.60132 0.71922,0.059 0.66026,-0.55415 -0.28886,-0.34782 -1.21442,0.22403 z"
       style="fill:none;stroke:#000000;stroke-width:0.264106px;stroke-linecap:butt;stroke-linejoin:miter;stroke-opacity:1" />
    <path
       id="path1380"
       d="m 137.11134,213.15888 0.94324,1.32053 -0.47162,0.89607 0.66027,0.28297 -0.28298,0.89607 h -0.89607 l -0.56594,0.61311 -2.87687,-1.74498 0.18864,-1.13189 1.03756,0.23581 1.22621,-0.47162 v -0.66026 l 0.66026,-0.51878 z"
       style="fill:none;stroke:#000000;stroke-width:0.264106px;stroke-linecap:butt;stroke-linejoin:miter;stroke-opacity:1" />
    <path
       id="path1382"
       d="m 155.64591,213.91347 0.66027,-0.0472 1.17904,1.22621 0.51878,1.41486 -0.75458,0.80175 -0.70744,-0.42447 -1.03755,-0.18863 -0.94323,-0.89608 v -1.27337 l 0.56593,-0.56594 z"
       style="fill:none;stroke:#000000;stroke-width:0.264106px;stroke-linecap:butt;stroke-linejoin:miter;stroke-opacity:1" />
    <path
       id="path1384"
       d="m 129.61262,182.40941 2.16944,1.13188 0.9904,-0.28297 0.84891,0.47162 1.41485,0.0471 0.75459,2.35809 -1.74499,5.23496 -1.88647,1.55634 -0.51878,0.89607 v 2.26376 l -1.08472,1.83931 v 0.89608 l -1.93363,3.91442 -0.47162,1.69782 0.47162,2.21661 -0.14149,0.51878 h -0.80175 v 0.6131 l 0.94324,0.6131 -0.47162,0.47162 1.08473,1.08472 0.66026,0.42446 1.27336,2.16944 -0.37728,2.35809 -1.50919,2.16943 -1.41485,0.75459 -0.9904,-0.2358 -1.08472,0.6131 -1.41485,-0.89607 -0.9904,-2.92404 0.0943,-1.46201 -0.94323,-0.84891 -2.68822,-0.18865 -2.73539,-2.35809 v -0.84891 l -0.66027,-0.33013 -0.42445,-1.22621 v -0.37729 l -1.27337,-1.08472 0.0472,-2.26377 1.27337,-2.54673 h 2.16943 l 1.55634,0.14149 0.6131,-0.28298 1.46202,-1.50917 h 0.94323 l 0.51879,-0.61311 0.0471,-1.08471 -0.51877,-1.17905 v -1.55634 l 0.42445,-0.94323 -0.80175,-1.27337 -0.56594,-1.55634 0.61311,-0.66027 0.6131,0.0471 1.36769,-1.83932 0.56594,-2.35808 -0.51878,-1.22621 0.47162,-0.70743 1.08472,-0.33013 h 0.84891 l 0.6131,-0.70742 z"
       style="fill:none;stroke:#000000;stroke-width:0.264106px;stroke-linecap:butt;stroke-linejoin:miter;stroke-opacity:1" />
    <path
       id="path1386"
       d="m 131.64057,193.82252 -1.2262,-0.7074 -2.26377,-0.0943 0.9904,2.73539 -3.39564,4.52753 -1.27337,3.06551 -4.71618,5.65941 -0.75459,2.07512"
       style="fill:none;stroke:#000000;stroke-width:0.264106px;stroke-linecap:butt;stroke-linejoin:miter;stroke-opacity:1" />
    <path
       id="path1388"
       d="m 80.092766,136.6625 1.509175,0.51878 4.150237,0.6131 3.961588,-0.89608 1.414852,1.93364 h 1.037558 l 0.801752,0.23581 0.943236,-0.56595 3.112675,3.39565 1.037558,0.28297 0.23581,1.55634 1.509175,0.14148 0.707428,1.22622 -1.650661,0.99039 0.141484,4.62185 1.179047,2.5939 -2.358093,2.26377 -0.282968,1.60349 0.660265,0.47162 -0.04716,0.42446 h -1.131881 l 0.09432,1.41485 -0.330132,0.28297 -0.613103,-0.84891 -1.08472,0.42446 -0.565941,1.50917 -0.990398,-0.6131 -1.32053,-0.0472 -0.471616,-1.08471 0.707426,-0.33014 -0.330132,-0.8489 -0.660265,0.42445 -1.697823,-1.46202 -1.084719,-1.88647 0.330132,-1.55633 -1.273368,-2.12229 h -0.990398 l -0.565942,-2.12227 v -2.40525 l -2.216604,-3.96159 -2.2166,-0.66027 -0.660265,-1.2262 -0.23581,-2.31093 -0.707426,-0.14149 -0.565942,0.61311 -0.471616,0.75459 -0.896074,-0.42446 -0.377294,-1.08472 0.518778,-1.17904 z"
       style="fill:none;stroke:#000000;stroke-width:0.264106px;stroke-linecap:butt;stroke-linejoin:miter;stroke-opacity:1" />
    <path
       id="path1390"
       d="m 105.51295,135.76643 0.94324,1.03755 1.65067,-0.42446 1.17903,1.13188 0.94324,0.3773 0.14148,1.22621 0.18865,1.03756 -1.6035,1.65066 v 0.89608 l -0.99039,0.37728 -2.2166,-1.55633 -0.94324,-1.27337 -0.42446,-2.16944 0.6131,-1.55634 z"
       style="fill:none;stroke:#000000;stroke-width:0.264106px;stroke-linecap:butt;stroke-linejoin:miter;stroke-opacity:1" />
    <path
       id="path1392"
       d="m 70.518928,158.30974 2.924027,2.02796 1.556338,1.69783 0.943236,0.0471 0.754588,-1.27336 0.801752,0.75459 0.565939,1.08472 0.943235,1.03756 -0.04716,1.22621 H 77.64035 l -2.263766,-0.84892 -1.273368,0.80175 -0.754587,-0.28296 -1.462014,-0.42447 -1.980794,-3.39564 0.04716,-1.17905 z"
       style="fill:none;stroke:#000000;stroke-width:0.264106px;stroke-linecap:butt;stroke-linejoin:miter;stroke-opacity:1" />
    <path
       id="path1394"
       d="m 76.791443,165.38401 0.943232,0.51878 -0.424454,1.46202 -0.188646,0.66026 -1.037561,-1.2262 -0.09432,-1.03757 z"
       style="fill:none;stroke:#000000;stroke-width:0.264106px;stroke-linecap:butt;stroke-linejoin:miter;stroke-opacity:1" />
    <path
       id="path1396"
       d="m 70.000147,188.91773 2.546736,1.08472 v 1.17905 l -1.320529,0.42445 -0.330133,0.70743 -2.216603,0.18864 -0.471616,-1.8393 0.707426,-0.47162 z"
       style="fill:none;stroke:#000000;stroke-width:0.264106px;stroke-linecap:butt;stroke-linejoin:miter;stroke-opacity:1" />
    <path
       id="path1398"
       d="m 91.317266,184.15439 0.660264,0.66027 -0.09433,1.6035 -0.990397,0.2358 -1.037558,-0.56593 0.424458,-1.41485 z"
       style="fill:none;stroke:#000000;stroke-width:0.264106px;stroke-linecap:butt;stroke-linejoin:miter;stroke-opacity:1" />
    <path
       id="path1400"
       d="m 106.692,164.67659 3.06552,2.73538 2.59389,0.33013 1.46202,1.55634 h 1.03755 l 2.07512,2.45241 1.93364,1.32053 0.51878,-0.70743 1.65065,-0.18864 0.14149,-0.6131 h 1.88648 l 1.2262,1.50917 -0.56595,1.46202 0.89608,0.2358 0.56594,-0.6131 3.39565,-2.07512 0.37729,1.83931 -1.27337,4.90483 0.66027,1.32052 -0.47162,0.47162 -1.36769,-0.51877 -0.89607,1.6035 -3.63146,1.41485 0.0471,1.74498 -0.94323,1.50918 -2.49957,0.33013 -0.9904,1.69782 -7.59305,1.65067 -2.35808,3.11267 -0.9904,-0.14149 -0.33013,-0.89607 0.18864,-1.08471 1.03756,-1.83932 v -1.55634 l -0.80175,-0.80175 0.89608,-3.48997 1.03755,-0.84891 -0.0943,-3.67861 0.51878,-0.56595 -0.70743,-0.9904 0.84892,-1.27337 -0.23581,-1.88646 0.56594,-4.71618 -0.94323,-0.28297 -3.25417,-0.28297 -0.0472,-0.94323 0.37729,-1.6035 0.70742,-0.23582 -0.37728,-1.03755 z"
       style="fill:none;stroke:#000000;stroke-width:0.264106px;stroke-linecap:butt;stroke-linejoin:miter;stroke-opacity:1" />
    <path
       id="path1402"
       d="m 119.92959,187.01847 0.91708,1.00045 0.0167,1.11717 -1.06715,2.55116 -0.46687,0.98377 -0.9671,-0.11672 -0.60028,0.83371 -0.91708,-0.28346 -0.33348,-1.33394 0.63362,-1.00045 -0.20009,-0.9671 1.65074,-1.81749 0.41686,-0.63362 z"
       style="fill:none;stroke:#000000;stroke-width:0.264106px;stroke-linecap:butt;stroke-linejoin:miter;stroke-opacity:1" />
    <path
       id="path1404"
       d="m 108.20763,153.35326 2.06761,-1.00046 0.65029,0.30014 0.21676,0.56692 -0.71699,0.40018 -0.90041,5.06896 -0.55024,1.91753 0.43352,0.83372 -0.80036,1.30057 -1.05047,-0.88373 -0.23344,-0.88373 0.65029,-0.21676 0.28346,-0.5169 -1.65074,-1.13384 0.50022,-2.05094 h 0.68365 l 0.48355,-1.66741 -0.65029,-1.46734 z"
       style="fill:none;stroke:#000000;stroke-width:0.264106px;stroke-linecap:butt;stroke-linejoin:miter;stroke-opacity:1" />
    <path
       id="path1406"
       d="m 112.99313,153.11982 0.46688,0.30012 0.61694,2.08429 -1.38396,0.21675 -0.3168,-1.48399 0.21676,-0.80037 0.41685,-0.23343 z"
       style="fill:none;stroke:#000000;stroke-width:0.264106px;stroke-linecap:butt;stroke-linejoin:miter;stroke-opacity:1" />
    <path
       id="path1408"
       d="m 116.84487,155.42086 2.40109,0.13339 1.20054,1.75079 -0.18342,1.35061 -1.21722,1.35061 -1.31726,-0.9004 -0.41686,-1.00046 -1.484,-0.5169 -0.3835,-1.1005 0.6503,-1.00045 z"
       style="fill:none;stroke:#000000;stroke-width:0.264106px;stroke-linecap:butt;stroke-linejoin:miter;stroke-opacity:1" />
    <path
       id="path1410"
       d="m 148.6424,153.90013 0.89607,0.51877 1.67424,-0.25939 5.06988,0.94323 2.66465,-1.01397 1.95721,0.21223 0.0472,-1.24979 0.89607,0.0236 2.16944,0.91966 2.96708,3.19387 -0.66698,1.26724 1.43399,0.86706 1.73412,0.70032 1.00045,1.33394 -1.36729,1.20054 0.90041,0.76701 -1.40064,2.86796 0.70033,1.83416 -0.0667,3.53494 0.86705,2.43443 2.1343,1.9342 -1.73411,2.66788 0.53357,0.43352 1.00045,-0.46687 1.73412,2.1343 2.36774,2.93465 -0.53358,0.43353 -2.43444,-2.0009 -0.70031,-1.80082 -1.16719,0.83372 -0.63362,-1.0338 -0.56693,1.00045 -0.9671,-0.46688 -1.16719,0.43353 -1.86751,-0.76702 -0.93376,0.86707 -1.46732,-3.33484 -2.70123,-0.33349 -0.36683,-1.60072 0.0333,-1.1005 -1.60071,-0.83371 -0.63363,0.0667 -0.46688,-1.0338 1.06716,-0.70032 1.23389,-0.26678 0.63361,-0.66698 -0.20009,-0.93375 1.33394,-1.23389 -0.46688,-0.76701 -2.10095,0.76701 -2.63452,-2.70122 -2.46778,-2.86796 -1.63407,-0.0667 -2.30104,-2.10095 -1.0338,-2.30104 -0.2001,-2.06761 -0.93375,-1.23389 -0.33348,-1.73411 z"
       style="fill:none;stroke:#000000;stroke-width:0.264106px;stroke-linecap:butt;stroke-linejoin:miter;stroke-opacity:1" />
    <path
       id="path1412"
       d="m 150.77687,169.46054 2.10095,0.73366 1.73411,2.76792 -0.70031,1.16719 -2.26769,0.1334 -1.23389,-1.60073 -1.36729,-2.40109 z"
       style="fill:none;stroke:#000000;stroke-width:0.264106px;stroke-linecap:butt;stroke-linejoin:miter;stroke-opacity:1" />
    <path
       id="path1414"
       d="m 148.70927,172.52858 2.90131,2.96801 0.15007,-0.80036 1.06715,0.10005 1.20054,2.26769 0.91708,0.05 1.25057,-0.30014 1.18386,-0.98377 0.35017,-1.1672 h 1.63406 l 0.95044,0.45021 0.33348,2.78458 1.03379,0.60028 -0.18341,2.21767 0.5836,3.48491 -0.88373,1.51735 0.16674,1.30059 2.01758,1.18387 1.06715,1.60072 v 2.73457 l 0.53357,0.83371 0.66697,0.13339 0.26679,1.73412 -0.33349,0.83371 -1.30059,-0.10004 -0.86705,-0.2668 -0.0333,1.63408 -1.76747,-2.43443 -0.16674,-0.83371 -0.83371,-0.10005 0.86705,4.30194 0.1334,2.10095 -2.70122,-2.10095 -1.76747,-0.0667 -0.50022,-0.80036 0.23343,-1.40064 0.53358,-1.06715 -0.43353,-0.70032 -0.76701,-0.46687 -0.0667,-2.10095 0.90041,-1.00046 -0.1334,-1.1005 0.40019,-0.66696 v -1.73412 l -1.36729,-2.60117 -0.93375,-1.20054 -1.20055,-0.9671 -0.63361,0.13338 v 1.40064 l -0.93376,1.33393 -0.53357,-0.26679 -1.50069,-1.13384 0.2001,-1.66742 -0.60027,-1.26723 0.60027,-0.93376 -0.23344,-2.40108 -0.90041,-0.76702 -0.0333,-1.33394 -0.76701,-2.03425 z"
       style="fill:none;stroke:#000000;stroke-width:0.264106px;stroke-linecap:butt;stroke-linejoin:miter;stroke-opacity:1" />
    <path
       id="path1416"
       d="m 153.20529,185.89938 0.34193,0.28297 -0.31835,0.80175 -0.55414,0.34192 c 0,0 -0.56595,-0.0943 -0.56595,-0.14148 0,-0.0471 0.0118,-0.43625 0.0118,-0.43625 l 0.69564,-0.67205 0.40088,-0.1297 z"
       style="fill:none;stroke:#000000;stroke-width:0.264106px;stroke-linecap:butt;stroke-linejoin:miter;stroke-opacity:1" />
    <path
       id="path1418"
       d="m 151.75507,187.7269 0.9904,0.8607 -0.47162,0.71922 -1.65067,0.18865 -0.35371,-0.76639 0.0353,-0.63668 0.62489,-0.55415 z"
       style="fill:none;stroke:#000000;stroke-width:0.264106px;stroke-linecap:butt;stroke-linejoin:miter;stroke-opacity:1" />
    <path
       id="path1420"
       d="m 149.33803,187.57362 0.57773,0.55415 0.16507,1.41485 -0.96683,0.57774 -0.77816,-0.11791 -0.20044,-0.7428 0.47162,-0.63667 0.10612,-0.82534 z"
       style="fill:none;stroke:#000000;stroke-width:0.264106px;stroke-linecap:butt;stroke-linejoin:miter;stroke-opacity:1" />
    <path
       id="path1422"
       d="m 74.692487,130.55962 2.0676,0.81703 0.900409,1.45066 0.08337,1.01712 -0.333483,0.26679 -2.050928,-1.40063 -1.233892,-0.78369 -0.28346,-1.33393 0.750338,-0.0667 z"
       style="fill:none;stroke:#000000;stroke-width:0.264106px;stroke-linecap:butt;stroke-linejoin:miter;stroke-opacity:1" />
    <path
       id="path1424"
       d="m 78.127372,131.05985 0.400181,0.51689 -0.116719,0.60028 c 0,0 -0.283462,0.28345 -0.316811,0.21677 -0.03335,-0.0667 -0.566921,-0.48356 -0.566921,-0.48356 l -0.01667,-0.63363 z"
       style="fill:none;stroke:#000000;stroke-width:0.264106px;stroke-linecap:butt;stroke-linejoin:miter;stroke-opacity:1" />
    <path
       id="path1426"
       d="m 78.377485,133.87778 1.567376,0.56693 0.08337,0.63362 -1.133845,-0.40018 -0.867061,-0.21677 z"
       style="fill:none;stroke:#000000;stroke-width:0.264106px;stroke-linecap:butt;stroke-linejoin:miter;stroke-opacity:1" />
    <path
       id="path1428"
       d="m 73.275179,129.72591 0.300135,0.4502 -0.266786,0.28346 -0.383506,-0.18342 -0.08337,-0.48354 z"
       style="fill:none;stroke:#000000;stroke-width:0.264106px;stroke-linecap:butt;stroke-linejoin:miter;stroke-opacity:1" />
    <path
       id="path1430"
       d="m 87.731712,134.14457 1.617397,0.18342 0.05003,0.65029 -1.050476,0.25011 -0.800362,-0.48354 -0.383506,-0.40019 0.316811,-0.23344 z"
       style="fill:none;stroke:#000000;stroke-width:0.264106px;stroke-linecap:butt;stroke-linejoin:miter;stroke-opacity:1" />
    <path
       id="path1432"
       d="m 91.56678,135.76197 0.383506,0.15007 0.216765,0.70031 -0.366833,0.21677 -0.750339,-0.38351 -0.01666,-0.5169 z"
       style="fill:none;stroke:#000000;stroke-width:0.264106px;stroke-linecap:butt;stroke-linejoin:miter;stroke-opacity:1" />
    <path
       id="path1434"
       d="m 96.644073,142.2399 0.325149,1.20888 -0.37517,0.6753 -0.516901,0.27512 -0.350159,-0.61694 0.300135,-1.40897 z"
       style="fill:none;stroke:#000000;stroke-width:0.264106px;stroke-linecap:butt;stroke-linejoin:miter;stroke-opacity:1" />
    <path
       id="path1436"
       d="m 103.03863,147.1171 0.41685,0.28347 -0.0667,0.66696 -0.3168,0.28346 -0.5836,-0.36683 -0.20009,-0.63362 0.30013,-0.26679 z"
       style="fill:none;stroke:#000000;stroke-width:0.264106px;stroke-linecap:butt;stroke-linejoin:miter;stroke-opacity:1" />
    <path
       id="path1438"
       d="m 109.17473,146.71692 0.61695,0.15007 -0.23344,0.9671 -0.31681,0.35016 -0.75034,-0.60028 -0.0167,-0.55024 z"
       style="fill:none;stroke:#000000;stroke-width:0.264106px;stroke-linecap:butt;stroke-linejoin:miter;stroke-opacity:1" />
    <path
       id="path1440"
       d="m 109.52489,149.26807 -0.45019,1.23389 -0.83372,-0.28346 -0.0333,-0.53357 0.50023,-0.28346 0.65029,-0.18342 z"
       style="fill:none;stroke:#000000;stroke-width:0.264106px;stroke-linecap:butt;stroke-linejoin:miter;stroke-opacity:1" />
    <path
       id="path1442"
       d="m 125.95758,143.50096 3.11268,4.22097 1.36769,0.18864 0.54236,1.8629 1.81573,2.07512 -0.4952,0.40087 -2.33451,-2.73538 -1.06113,-0.28297 -2.09871,-2.42883 -2.05153,-0.96681 -0.16507,-1.55635 0.58952,-0.80175 z"
       style="fill:none;stroke:#000000;stroke-width:0.264106px;stroke-linecap:butt;stroke-linejoin:miter;stroke-opacity:1" />
    <path
       id="path1444"
       d="m 130.03707,153.59357 2.12228,1.88647 1.69782,-0.42445 2.31094,1.6035 0.8489,1.2262 2.26377,1.74499 0.0943,1.08472 0.94323,-0.94324 0.66027,0.18865 1.13188,1.27337 2.26377,3.67862 -0.66026,0.56594 1.03756,1.88647 -0.0943,2.07511 -0.47162,0.23581 -2.49957,-3.11268 -2.8297,-0.56593 -0.9904,-0.89608 0.6131,-0.33014 -1.83931,-1.50917 -1.50918,-2.49957 -1.50917,-0.33013 -0.75459,1.32052 -1.50918,1.32053 -0.80175,1.36769 -1.13188,1.17905 -0.80175,0.70743 -0.42445,-0.28298 0.23581,-1.32052 0.6131,-1.41485 0.14148,-1.17905 0.70743,-0.33013 0.80175,-1.17904 -0.42446,-0.61311 -0.80175,0.51878 v -1.03756 l 0.75459,-0.84891 0.3773,-1.98079 -0.66027,-0.51878 -0.28297,-2.07512 z"
       style="fill:none;stroke:#000000;stroke-width:0.264106px;stroke-linecap:butt;stroke-linejoin:miter;stroke-opacity:1" />
    <path
       id="path1446"
       d="m 149.72711,151.9429 0.0471,0.68386 0.4952,0.30654 0.75459,-0.0943 -0.16506,-0.70743 -0.80175,-0.35371 z"
       style="fill:none;stroke:#000000;stroke-width:0.264106px;stroke-linecap:butt;stroke-linejoin:miter;stroke-opacity:1" />
    <path
       id="path1448"
       d="m 149.65636,153.14553 0.82534,0.35371 -0.25939,0.51878 -0.56595,-0.14148 z"
       style="fill:none;stroke:#000000;stroke-width:0.264106px;stroke-linecap:butt;stroke-linejoin:miter;stroke-opacity:1" />
    <path
       id="path1450"
       d="m 147.81706,156.06956 0.51878,0.70743 0.16506,1.15547 -0.40087,0.0943 -0.35371,-0.47162 -0.18865,-1.24979 z"
       style="fill:none;stroke:#000000;stroke-width:0.264106px;stroke-linecap:butt;stroke-linejoin:miter;stroke-opacity:1" />
    <path
       id="path1452"
       d="m 146.18998,155.62152 0.80175,1.46202 -0.33013,0.54236 -0.61311,-0.25939 -0.33013,-0.66027 0.0472,-1.15546 z"
       style="fill:none;stroke:#000000;stroke-width:0.264106px;stroke-linecap:butt;stroke-linejoin:miter;stroke-opacity:1" />
    <path
       id="path1454"
       d="m 146.56728,162.71937 1.17904,0.0236 c 0,0 0.14148,0.70742 0.0471,0.70742 -0.0943,0 -1.32053,0.56595 -1.32053,0.56595 l -0.44804,-0.23581 -0.0236,-0.54236 z"
       style="fill:none;stroke:#000000;stroke-width:0.264106px;stroke-linecap:butt;stroke-linejoin:miter;stroke-opacity:1" />
    <path
       id="path1456"
       d="m 158.16906,169.93512 0.11791,1.17905 0.94324,0.2358 0.25939,-1.08472 -1.24979,-0.42445 z"
       style="fill:none;stroke:#000000;stroke-width:0.264106px;stroke-linecap:butt;stroke-linejoin:miter;stroke-opacity:1" />
    <path
       id="path1458"
       d="m 157.03718,169.20411 0.63669,1.74499 -0.28297,0.40087 -1.24979,-0.73101 -0.11791,-0.94323 0.35372,-0.42445 z"
       style="fill:none;stroke:#000000;stroke-width:0.264106px;stroke-linecap:butt;stroke-linejoin:miter;stroke-opacity:1" />
    <path
       id="path1460"
       d="m 158.23981,171.70369 -0.14149,0.70742 -0.80175,0.16507 -0.30655,-0.56594 0.43986,-0.33204 0.77535,0.025 z"
       style="fill:none;stroke:#000000;stroke-width:0.264106px;stroke-linecap:butt;stroke-linejoin:miter;stroke-opacity:1" />
    <path
       id="path1462"
       d="m 149.2555,165.1482 0.35371,0.51878 -0.63669,0.84891 -0.63668,-0.35371 -0.0471,-0.58952 z"
       style="fill:none;stroke:#000000;stroke-width:0.264106px;stroke-linecap:butt;stroke-linejoin:miter;stroke-opacity:1" />
    <path
       id="path1464"
       d="m 150.83541,164.51151 0.30656,0.18865 0.0236,0.51878 -0.54236,0.0236 -0.14148,-0.18865 -0.0708,-0.40087 z"
       style="fill:none;stroke:#000000;stroke-width:0.264106px;stroke-linecap:butt;stroke-linejoin:miter;stroke-opacity:1" />
    <path
       id="path1466"
       d="m 149.3679,167.67639 0.28346,0.25012 v 0.71698 l -0.35016,0.21677 -0.36683,0.0251 -0.42519,-0.50856 0.10838,-0.57526 z"
       style="fill:none;stroke:#000000;stroke-width:0.264106px;stroke-linecap:butt;stroke-linejoin:miter;stroke-opacity:1" />
    <path
       id="path1468"
       d="m 151.18539,165.71717 0.44187,0.0167 0.12505,0.82538 -0.19175,0.23344 -0.54191,-0.0417 -0.32515,-0.41686 0.1334,-0.39184 z"
       style="fill:none;stroke:#000000;stroke-width:0.264106px;stroke-linecap:butt;stroke-linejoin:miter;stroke-opacity:1" />
    <path
       id="path1470"
       d="m 129.74231,173.28361 0.40088,0.34192 -0.28297,0.60131 -0.40088,-0.15327 -0.15328,-0.44804 z"
       style="fill:none;stroke:#000000;stroke-width:0.264106px;stroke-linecap:butt;stroke-linejoin:miter;stroke-opacity:1" />
    <path
       id="path1472"
       d="m 130.66197,174.23863 0.18865,0.63669 -0.43625,0.22401 -0.30655,-0.28297 0.15328,-0.47161 z"
       style="fill:none;stroke:#000000;stroke-width:0.264106px;stroke-linecap:butt;stroke-linejoin:miter;stroke-opacity:1" />
    <path
       id="path1474"
       d="m 131.93534,171.05521 0.25938,0.31835 -0.55415,0.93144 -0.12969,-0.51878 z"
       style="fill:none;stroke:#000000;stroke-width:0.264106px;stroke-linecap:butt;stroke-linejoin:miter;stroke-opacity:1" />
    <path
       id="path1476"
       d="m 128.99952,177.22162 0.1179,0.34192 c 0,0 -0.43625,0.54236 -0.4834,0.60131 -0.0471,0.059 -0.38909,-0.0353 -0.38909,-0.0353 L 128.3982,177.54 Z"
       style="fill:none;stroke:#000000;stroke-width:0.264106px;stroke-linecap:butt;stroke-linejoin:miter;stroke-opacity:1" />
    <path
       id="path1478"
       d="m 107.12797,162.61577 0.28763,0.35849 c 0,0 -0.0375,0.99629 -0.0375,1.02547 0,0.0291 -0.24594,0.0542 -0.24594,0.0542 l -0.52524,-0.42102 -0.0875,-0.71282 0.4252,-0.30431 z"
       style="fill:none;stroke:#000000;stroke-width:0.264106px;stroke-linecap:butt;stroke-linejoin:miter;stroke-opacity:1" />
    <path
       id="path1480"
       d="m 169.18134,203.86802 1.13188,0.66025 0.94323,-0.30654 0.80175,1.29694 -0.0943,1.32053 1.72139,0.91966 2.8533,0.80175 1.36768,0.94323 -0.63668,1.24979 0.0471,0.6131 0.75458,0.0471 0.91965,-0.70742 0.33014,0.44803 -0.68385,1.29695 0.9904,1.41485 0.91966,0.0472 1.39126,-1.17904 0.58953,0.2358 -0.68385,3.53714 0.63668,0.51878 1.74499,2.3345 0.51878,2.14586 -0.75459,1.17905 -1.24979,0.73101 -0.1179,0.70742 -2.0987,0.96682 0.33013,0.66026 0.44804,0.84891 0.8725,0.16507 0.33013,-0.42446 2.57031,0.3773 0.73101,0.68384 -0.51878,1.08472 0.54236,0.63669 -1.17904,1.1083 0.51877,0.63669 h 0.70743 l -0.54236,0.77816 -0.84891,0.75458 0.47162,0.42447 1.86289,-1.01398 0.0943,1.74499 -0.40087,2.24018 -1.29695,2.26376 0.70743,1.08472 1.62708,1.53276 1.48559,0.37729 -0.33013,2.2166 0.3773,1.06114 0.42445,0.80175 -0.16506,0.91966 -0.7546,0.54236 0.16507,0.73101 0.0943,1.2262 0.44804,0.51879 -0.1179,0.68384 -0.94324,1.24979 -1.24979,2.0987 -0.14148,1.27336 -2.31093,-0.0236 -0.44804,1.17905 0.91966,1.29694 -0.0708,1.27337 -0.89607,-0.16506 -0.21224,-0.89608 -0.0236,-0.73101 -1.34412,-1.34411 -0.51878,0.66026 v 0.9904 l 1.34411,1.83931 -0.56594,2.07512 -0.0471,2.85329 -0.4952,2.05155 0.23581,1.50915 -0.40087,0.14151 -1.03757,-1.98079 -0.51877,-1.65067 -0.56595,-1.2498 v -1.7214 l 0.49521,-2.00437 -0.3773,-1.69783 -1.83931,-1.29695 0.0471,-2.0987 -1.20263,-0.91965 -1.15546,-2.92403 0.23582,-1.6035 -0.49521,-0.25939 -1.8393,1.29695 -1.06115,0.56594 0.0471,2.38167 -1.36769,1.48559 -0.63669,-0.0236 -0.91966,1.55634 -0.0708,0.96681 -1.32052,1.4856 c 0,0 -0.44804,0.80175 -0.47162,0.91965 -0.0236,0.11791 -0.0708,2.16944 -0.0708,2.16944 l 0.16507,0.70743 0.47162,0.30655 0.70743,-0.21223 0.77816,1.08472 0.77818,0.54236 c 0,0 0.54236,0.21225 0.58952,0.30656 0.0471,0.0943 0.1179,0.91965 0.1179,0.91965 l 0.80175,1.15546 0.70743,1.79217 0.89607,4.22097 -2.16944,3.32491 -2.00437,3.08908 -1.39128,2.07513 -1.79214,0.21222 -0.35372,-0.58952 0.18865,-1.34411 -0.54236,-0.8725 -0.66027,-0.0708 -0.82533,-1.34411 -0.16507,-0.89608 1.01398,-1.27337 0.80175,-0.80174 0.23581,-1.01399 -0.42445,-0.96681 -0.44804,-0.56595 -0.70743,0.0235 -0.47162,-0.16506 -0.30654,0.44803 -0.3773,1.29697 -0.63668,1.41484 -0.3773,1.6035 c 0,0 -2.38166,-0.0943 -2.52316,-0.0943 -0.14148,0 -4.83407,-1.93363 -4.83407,-1.93363 l -4.52753,-2.28736 -3.56072,-1.79214 -1.01397,-1.74498 -1.62708,-1.81573 -0.56595,-2.68823 0.3773,-1.74498 -0.80175,-1.76856 0.42445,-0.73101 -0.35371,-0.56595 -0.6131,0.23581 -0.47162,-0.94323 0.56594,-3.27774 1.67424,-2.59391 1.24979,-0.33013 1.1083,-1.32052 0.0708,-1.3677 0.63668,-0.33012 0.0236,-0.89608 c 0,0 -1.17905,-0.0471 -1.29696,-0.0471 -0.1179,0 -1.43843,-1.79214 -1.43843,-1.79214 l -1.15546,-1.9808 -1.15547,-0.18865 -2.02795,-1.10829 -1.74499,-0.30656 -0.94323,-1.50917 -2.66465,-0.94323 -1.79214,0.63667 -0.0943,0.68385 0.91966,0.80175 -0.51878,1.91006 -1.17904,0.47161 -0.63669,0.4952 0.35372,0.9904 0.84891,1.08472 0.3773,0.54236 -0.14149,0.87249 -0.42446,0.33013 -0.63668,-0.33013 -0.82533,-0.77816 -0.77817,-0.8725 -0.0472,-0.9904 -0.94323,-0.18865 -0.58952,1.20263 -0.63668,0.18865 -0.91966,-1.29696 0.23581,-0.75458 1.13189,-0.23581 0.18864,-0.44804 -0.77817,-0.51878 -0.49519,-0.37729 0.2358,-0.77817 -0.37729,-0.40078 -0.51878,0.77816 -0.68384,0.33013 -0.14149,0.73101 -0.21223,1.43843 -0.28297,0.77817 v 0.51879 l -0.68385,0.30654 c 0,0 -0.6131,-0.58952 -0.6131,-0.68384 0,-0.0943 -0.18865,-0.96681 -0.18865,-0.96681 l -0.731,0.14148 -0.37729,1.13188 -0.44804,0.91965 0.51878,0.66027 0.58952,-1.06114 0.731,0.33013 0.58953,1.01399 -1.20263,1.10829 -1.29695,0.68385 -0.99039,-1.39128 0.40087,-2.38166 -0.44803,-0.40088 0.0943,-0.77817 0.42445,-0.37729 -0.42445,-1.06114 0.18865,-1.65067 0.35371,-0.58951 -0.4952,-0.28298 -1.81573,-0.30655 -2.3345,0.82533 -2.0987,2.57032 0.96681,0.47161 -0.25939,1.13189 -0.58952,0.28298 -0.1179,-0.40088 0.18864,-0.56595 -0.54236,0.0708 -1.03755,1.32054 0.0236,1.2262 0.56595,0.0943 v 0.49521 l -1.01398,1.20262 -0.731,-0.0471 -0.44804,2.42883 -0.75459,2.05154 -0.54236,1.03755 -0.47162,1.29696 -0.82533,0.44803 -1.29695,-0.0236 -2.24018,-1.29695 -0.66027,-2.87687 0.77818,-1.36768 2.09869,-1.69782 -0.28297,-0.77818 0.66027,-2.97119 0.99039,-0.9904 -0.28297,-0.47161 0.51878,-1.24979 -0.77817,-1.27337 0.44804,-1.55634 1.06114,-1.27337 0.54236,-0.0236 0.42445,-0.44804 -0.28296,-0.75459 1.65066,-1.32053 2.7118,-0.84891 0.80175,0.23581 1.72141,-0.66027 1.20261,-1.2262 0.82534,1.03756 1.91005,-0.18865 0.87249,-0.51878 h 0.47162 l 1.65066,-1.17905 0.0708,-0.49519 -0.91966,-0.77818 v -0.68384 l 0.75459,-0.14148 -0.35372,-1.41486 1.60351,-2.07512 1.67424,-0.2358 1.62708,0.35371 h 0.89607 l 0.75459,-2.05154 0.51878,-0.25939 0.70743,0.30655 0.21222,-0.2358 -0.77816,-1.15547 0.1179,-0.33013 0.77817,-0.18864 0.73101,0.77816 0.63668,-0.0943 0.18865,0.4952 -0.23582,0.6131 0.47163,0.33013 0.63668,0.11791 0.30656,-0.75459 0.49519,-0.30655 0.6131,0.47161 1.20263,0.25939 0.75458,0.63668 0.66027,1.17905 0.6131,1.17905 0.73101,2.64106 -0.18865,0.87249 0.21223,2.24018 -1.67425,1.53276 -1.20262,0.3773 -0.66026,0.44803 -0.18865,0.54237 v 0.40087 l 0.54236,-0.0472 0.89607,-0.6131 2.0987,-1.9808 0.73101,-0.23581 1.95722,-1.3677 2.99476,-0.0943 0.75459,-0.33014 0.6131,-1.10829 -0.30654,-0.89608 0.35371,-0.91966 0.35372,-0.23581 -0.0236,-1.53275 0.42445,-1.03756 2.42884,-1.57992 0.75459,0.0943 0.2358,0.6131 1.65067,1.27337 0.96681,-0.1415 0.47162,0.84892 0.84891,-0.0471 0.4952,-0.35372 -0.16506,-0.91965 0.42445,-0.84891 -0.21223,-0.77816 -0.18865,-0.2594 0.0708,-0.84891 0.54235,-0.33013 -0.33013,-0.731 0.6131,-1.08473 -0.40086,-2.00437 0.54236,-1.27337 1.13187,-0.14148 3.01835,1.74498 0.9904,1.53275 1.15547,-0.21222 0.51878,-0.80175 -0.42446,-2.07512 0.33014,-1.36769 0.51877,-0.28297 1.46202,1.83931 h 1.15546 l 1.46202,0.30655 1.76856,-1.29695 -0.30655,-2.68822 -1.27337,-3.74936 -1.06114,-3.41922 0.0236,-2.54674 0.70743,-0.91966 z"
       style="fill:none;stroke:#000000;stroke-width:0.264106px;stroke-linecap:butt;stroke-linejoin:miter;stroke-opacity:1" />
    <path
       id="path1482"
       d="m 165.07826,217.21479 0.16507,2.99477 0.33014,0.68385 -0.11791,7.78169 0.70742,1.69782 1.74499,2.07512 0.35372,4.38605 0.66025,1.41485 0.33014,2.52315 -0.23581,1.88647 -0.35371,0.54236 -0.75459,0.14149 -1.34411,-0.0943 -0.75459,-0.21222 0.0472,1.03755 -0.44804,4.4568 0.25939,3.207 0.80175,0.70742 0.18865,1.15546 -0.6131,0.49521 -0.16508,0.96681 -1.69782,1.55633 -0.33013,0.82533 h -0.42445 l -0.14149,1.08473 0.28297,1.1083 0.0471,0.84891 0.77816,1.29695 0.0471,1.43843 0.91965,0.89609 1.08473,0.0235 1.15546,-1.43842 1.20263,1.41486 v 1.17902 l -0.35371,0.61312 0.14147,0.47162 0.94325,0.66025 0.56593,1.20264 -0.0472,1.50915 0.44804,0.35372 -0.11791,1.13187 -0.70742,2.07514 -0.0236,1.69783 -1.50917,2.71179 -0.18865,0.75461 -1.13188,0.89605 -0.28312,0.63674"
       style="fill:none;stroke:#000000;stroke-width:0.264106px;stroke-linecap:butt;stroke-linejoin:miter;stroke-opacity:1" />
    <path
       id="path1484"
       d="m 137.37054,236.99929 0.071,1.1789 -0.63668,1.22621"
       style="fill:none;stroke:#000000;stroke-width:0.264106px;stroke-linecap:butt;stroke-linejoin:miter;stroke-opacity:1" />
    <path
       id="path1486"
       d="m 135.6963,225.27959 -0.16488,8.88986 0.18865,1.15546 1.83912,0.73114"
       style="fill:none;stroke:#000000;stroke-width:0.264106px;stroke-linecap:butt;stroke-linejoin:miter;stroke-opacity:1" />
    <path
       id="path1488"
       d="m 140.10611,241.66817 0.51878,-0.91966 2.45242,0.96682 0.35371,-0.37729 -0.0471,-0.91966 0.73101,-0.94323 -0.23581,-1.34411 1.24979,-0.0708 0.6131,-0.42446 0.0236,-1.3441 1.03756,-0.77817 0.58952,0.1179 1.13188,-0.82533 -0.0708,-2.45241 0.66026,0.0471 0.94324,0.87251 2.09869,0.51877 1.53276,3.48997 0.9904,2.00438 1.67425,1.86289 0.37729,1.15546 0.35371,0.87249 1.06114,1.27337 -0.37729,1.1083 v 0.25939 l 0.6131,0.0472 0.0708,0.58953 0.54236,0.40087 0.73101,0.0471 0.18865,-0.0943 0.73101,0.4952 1.20262,0.1179 0.82533,-0.73101 1.2262,-0.18864 0.56595,-0.42446 -0.16507,-1.29695 0.82533,-0.94323 0.73106,0.2358"
       style="fill:none;stroke:#000000;stroke-width:0.264106px;stroke-linecap:butt;stroke-linejoin:miter;stroke-opacity:1" />
    <path
       id="path1490"
       d="m 146.99157,249.4969 1.01414,1.34423 1.17905,0.77817 -0.14149,0.70742 -1.06114,-0.44803 -0.91966,0.23581 -1.1792,-1.29708"
       style="fill:none;stroke:#000000;stroke-width:0.264106px;stroke-linecap:butt;stroke-linejoin:miter;stroke-opacity:1" />
    <path
       id="path1492"
       d="m 157.08434,243.17727 -1.50917,-0.44797 -0.66026,0.42447 -1.72141,-0.84892 -1.29695,0.0236 -0.42445,0.44803 -0.30656,1.76857 0.91966,1.81573 -0.9904,2.40525 -0.94323,1.01398 -0.6131,1.17904 0.25939,0.37729 0.49519,-0.0943 0.70743,-1.01397 1.46201,-0.21223 0.28298,0.14148 c 0,0 -1.20263,2.07512 -1.27337,2.16944 -0.0708,0.0943 0.0708,1.01399 0.0708,1.01399 l 0.68385,0.37729 0.75458,0.0943 0.66027,0.87249 1.17905,0.33012 0.70742,0.0943 0.47162,-0.47161 0.18864,-0.77818 -0.51878,-0.54236 0.21223,-0.40087 0.47162,-0.23581 0.14148,-0.42445 -0.94323,-1.10831 0.35372,-0.40087 2.24018,2.26377 -0.23582,1.43843 0.0236,3.79652 0.66027,0.25939 1.20262,-0.18865 1.46202,1.03756 -2.07512,1.15547 -0.28298,0.2358 -0.8489,-1.08471 -0.6131,0.77816 c 0,0 -0.16508,-0.0943 -0.21223,-0.18865 -0.0471,-0.0943 -0.40088,-1.06113 -0.40088,-1.06113 l -0.56594,-0.9904 h -0.91966 l 0.47162,-1.62708 -2.19303,0.0708 -0.2358,0.6131 0.16507,0.47162 v 0.80175 l -0.9904,0.58953 -4.15024,0.0471 -0.0943,-0.37729 -4.90498,0.23569"
       style="fill:none;stroke:#000000;stroke-width:0.264106px;stroke-linecap:butt;stroke-linejoin:miter;stroke-opacity:1" />
    <path
       id="path1494"
       d="m 157.43807,260.43852 v 0 l 0.2358,1.08475 0.73101,0.1179 0.49519,-0.8961"
       style="fill:none;stroke:#000000;stroke-width:0.264106px;stroke-linecap:butt;stroke-linejoin:miter;stroke-opacity:1" />
    <path
       id="path1496"
       d="m 168.26169,236.83409 10.86132,-0.17652 0.93376,1.00045 2.30104,-1.23389 2.60117,0.0667 0.25731,1.56947"
       style="fill:none;stroke:#000000;stroke-width:0.264106px;stroke-linecap:butt;stroke-linejoin:miter;stroke-opacity:1" />
    <path
       id="path1498"
       d="m 148.54253,236.42413 0.83371,0.0333 0.43353,0.93376 -0.90041,1.0338 -0.0333,1.50068 -1.73411,0.30014 -1.73413,-0.70033 v -0.50022 l 1.73413,-0.86705 z"
       style="fill:none;stroke:#000000;stroke-width:0.264106px;stroke-linecap:butt;stroke-linejoin:miter;stroke-opacity:1" />
    <path
       id="path1500"
       d="m 94.524265,207.24008 0.28297,0.51878 -0.754587,0.63668 -0.306551,-0.35371 z"
       style="fill:none;stroke:#000000;stroke-width:0.264106px;stroke-linecap:butt;stroke-linejoin:miter;stroke-opacity:1" />
    <path
       id="path1502"
       d="m 95.844793,206.93352 0.212231,0.58953 -0.707428,0.47162 -0.542361,-0.23581 z"
       style="fill:none;stroke:#000000;stroke-width:0.264106px;stroke-linecap:butt;stroke-linejoin:miter;stroke-opacity:1" />
    <path
       id="path1504"
       d="m 97.094582,162.4364 0.683845,0.80175 0.259391,1.22621 -0.801752,0.2358 -0.589521,-0.73101 -0.165066,-1.01397 z"
       style="fill:none;stroke:#000000;stroke-width:0.264106px;stroke-linecap:butt;stroke-linejoin:miter;stroke-opacity:1" />
    <path
       id="path1506"
       d="m 98.08498,166.49231 1.697822,0.40088 -0.02359,0.91966 h -1.061138 l -0.872495,-0.30656 -0.212228,-0.68384 z"
       style="fill:none;stroke:#000000;stroke-width:0.264106px;stroke-linecap:butt;stroke-linejoin:miter;stroke-opacity:1" />
    <path
       id="path1508"
       d="m 100.60813,164.51151 0.28297,1.81574 -0.70742,0.0236 -0.424459,-1.17904 z"
       style="fill:none;stroke:#000000;stroke-width:0.264106px;stroke-linecap:butt;stroke-linejoin:miter;stroke-opacity:1" />
    <path
       id="path1510"
       d="m 90.987134,159.25298 0.521287,0.11966 0.5169,1.11717 0.767013,1.10049 -0.23344,0.31682 -0.616946,-0.26679 c 0,0 -0.983776,-1.10883 -0.983776,-1.1672 0,-0.0584 -0.2918,-0.85038 -0.2918,-0.85038 z"
       style="fill:none;stroke:#000000;stroke-width:0.264106px;stroke-linecap:butt;stroke-linejoin:miter;stroke-opacity:1" />
    <path
       id="path1512"
       d="m 90.241179,160.11464 0.516901,0.56693 -0.0917,0.37516 -0.441865,-0.025 c 0,0 -0.09171,-0.4502 -0.08337,-0.48355 0.0084,-0.0333 0.133394,-0.4502 0.100045,-0.43353 z"
       style="fill:none;stroke:#000000;stroke-width:0.264106px;stroke-linecap:butt;stroke-linejoin:miter;stroke-opacity:1" />
    <path
       id="path1514"
       d="m 172.38663,182.19962 0.53358,0.38351 -0.0833,0.46688 -0.48356,0.0834 -0.35016,-0.35016 0.0333,-0.43353 z"
       style="fill:none;stroke:#000000;stroke-width:0.264106px;stroke-linecap:butt;stroke-linejoin:miter;stroke-opacity:1" />
    <path
       id="path1516"
       d="m 173.7039,185.71788 0.30014,0.36683 -0.23344,0.70032 0.35016,0.40017 1.28391,-0.10003 0.3168,0.60026 -0.33347,0.55026 h -1.03381 l -0.93375,-0.75035 -0.70032,-0.55024 0.10005,-0.80037 0.53357,-0.51689 0.36683,0.0333 z"
       style="fill:none;stroke:#000000;stroke-width:0.264106px;stroke-linecap:butt;stroke-linejoin:miter;stroke-opacity:1" />
    <path
       id="path1518"
       d="m 169.75211,191.87065 0.31681,0.65031 -0.23344,0.40018 -0.46687,-0.0833 -0.16674,-0.51691 0.25011,-0.43353 z"
       style="fill:none;stroke:#000000;stroke-width:0.264106px;stroke-linecap:butt;stroke-linejoin:miter;stroke-opacity:1" />
    <path
       id="path1520"
       d="m 172.16987,192.0374 0.60028,-0.0833 0.40017,1.35061 -0.58359,1.95088 c 0,0 0.0667,1.43398 0.11672,1.63407 0.05,0.2001 0.66696,1.01713 0.66696,1.01713 l -0.28345,0.36683 0.30013,0.80036 0.0667,0.9671 -0.50022,1.11718 0.43353,0.90041 0.20009,0.4502 -0.46688,0.70032 -0.05,0.35015 -1.31726,0.38351 -0.40019,-0.31681 0.0167,-0.66696 -0.0667,-0.73367 0.86706,-0.13339 0.25011,-0.35016 -1.01712,-0.95043 -0.20009,-0.70032 0.31681,-0.48355 -0.11672,-0.48356 -0.80036,-0.10004 -0.33349,0.46688 c 0,0 -0.25011,0.0333 -0.26679,-0.0667 -0.0167,-0.10004 -0.28346,-0.88373 -0.28346,-0.88373 l 0.33349,-1.90086 c 0,0 0.36683,0.0667 0.3835,-0.0333 0.0167,-0.10005 -0.20009,-2.10095 -0.20009,-2.10095 0,0 0.46689,-0.05 0.50024,-0.11672 0.0333,-0.0667 0.0833,-0.86705 0.0833,-0.86705 l 0.26679,0.0167 0.33348,0.31681 0.41686,-0.0167 -0.0167,-1.21722 z"
       style="fill:none;stroke:#000000;stroke-width:0.264106px;stroke-linecap:butt;stroke-linejoin:miter;stroke-opacity:1" />
    <path
       id="path1522"
       d="m 163.84944,197.7233 0.5836,0.33349 h 0.28347 l 0.65029,1.33394 0.76701,1.33393 0.18341,1.1005 -0.30013,0.55024 -0.4502,-0.23343 -0.5836,-1.13384 -0.70032,-0.75035 -0.38351,-0.83371 -0.61694,-0.13339 -0.10004,-0.75034 0.05,-0.70032 z"
       style="fill:none;stroke:#000000;stroke-width:0.264106px;stroke-linecap:butt;stroke-linejoin:miter;stroke-opacity:1" />
    <path
       id="path1524"
       d="m 162.39879,201.04147 0.18342,0.0667 0.30013,0.86707 -0.18342,0.58359 -0.40017,0.0667 -0.26679,-0.73366 -0.10005,-0.55026 z"
       style="fill:none;stroke:#000000;stroke-width:0.264106px;stroke-linecap:butt;stroke-linejoin:miter;stroke-opacity:1" />
    <path
       id="path1526"
       d="m 173.78727,203.89276 0.50022,0.33348 -0.16673,0.55025 -0.8504,0.23344 c 0,0 0.0667,-0.48355 0.0667,-0.56692 0,-0.0833 0.45021,-0.55025 0.45021,-0.55025 z"
       style="fill:none;stroke:#000000;stroke-width:0.264106px;stroke-linecap:butt;stroke-linejoin:miter;stroke-opacity:1" />
    <path
       id="path1528"
       d="m 172.68677,205.51016 0.48355,0.40017 -0.20008,0.51691 -0.43354,0.0667 -0.0167,-0.46689 z"
       style="fill:none;stroke:#000000;stroke-width:0.264106px;stroke-linecap:butt;stroke-linejoin:miter;stroke-opacity:1" />
    <path
       id="path1530"
       d="m 177.3222,202.1253 0.95043,-0.91709 c 0,0 0.46688,0.18342 0.5169,0.11672 0.05,-0.0667 0.53357,-0.65029 0.53357,-0.65029 l -0.0834,-0.76702 0.70032,-0.51689 0.5836,1.13384 0.53357,1.6174 0.0167,0.75034 -0.0333,0.20009 0.51689,0.46687 0.23344,0.41686 -0.28346,0.48355 -0.46687,0.38351 -0.40018,0.28346 -0.86706,-0.13339 -0.50023,-0.31682 -0.40017,0.1334 -0.60028,-0.76701 -0.46688,-0.70032 c 0,0 -0.5836,-0.53357 -0.56692,-0.60027 0.0167,-0.0667 0.0833,-0.61694 0.0833,-0.61694 z"
       style="fill:none;stroke:#000000;stroke-width:0.264106px;stroke-linecap:butt;stroke-linejoin:miter;stroke-opacity:1" />
    <path
       id="path1532"
       d="m 177.47227,204.79316 0.60027,0.41686 0.0167,0.73366 0.40019,0.26679 0.13339,0.68364 -0.21676,0.46688 -0.0833,0.93376 -0.35016,0.23344 -0.68363,-0.55025 -0.46689,-0.6503 c 0,0 0.40019,-0.73366 0.45021,-0.85038 0.05,-0.11672 -0.21677,-1.00045 -0.21677,-1.00045 l 0.0667,-0.43353 z"
       style="fill:none;stroke:#000000;stroke-width:0.264106px;stroke-linecap:butt;stroke-linejoin:miter;stroke-opacity:1" />
    <path
       id="path1534"
       d="m 179.02296,205.31007 0.55026,-0.0333 0.46688,0.15007 v 0.35015 l -0.7837,0.10005 -0.13339,0.18341 -0.50022,-0.16674 -0.16674,-0.40017 z"
       style="fill:none;stroke:#000000;stroke-width:0.264106px;stroke-linecap:butt;stroke-linejoin:miter;stroke-opacity:1" />
    <path
       id="path1536"
       d="m 137.39431,166.04427 0.30656,0.11791 0.0236,0.58952 -0.40086,0.0472 -0.11791,-0.33013 z"
       style="fill:none;stroke:#000000;stroke-width:0.264106px;stroke-linecap:butt;stroke-linejoin:miter;stroke-opacity:1" />
    <path
       id="path1538"
       d="m 170.13562,208.83666 0.31681,0.025 0.53357,0.43353 -0.1584,0.83371 -0.0833,0.55025 -0.0917,0.42519 h -0.10838 l 0.39184,0.55858 -0.24178,0.45021 -0.19175,0.10005 -0.26679,-0.14173 -0.25011,-1.37563 -0.32515,-0.69198 c 0,0 -0.10837,-0.63362 -0.10004,-0.66696 0.008,-0.0333 0.28346,-0.43354 0.28346,-0.43354 z"
       style="fill:none;stroke:#000000;stroke-width:0.264106px;stroke-linecap:butt;stroke-linejoin:miter;stroke-opacity:1" />
    <path
       id="path1540"
       d="m 173.7973,250.77629 c 0,0 0.82533,0.64846 0.8607,0.67205 0.0353,0.0236 0.54825,0.48931 0.54825,0.48931 l -0.13559,0.73689 -0.22991,0.64258 c 0,0 0.13559,1.39128 0.14149,1.42075 0.006,0.0295 0.14738,0.52468 0.14738,0.52468 0,0 -0.44215,0.59541 -0.47162,0.64257 -0.0294,0.0471 -0.3655,-0.0353 -0.3655,-0.0353 l -0.26528,-0.64848 -0.20634,-0.48931 c 0,0 -0.14739,-1.5976 -0.14739,-1.62118 0,-0.0236 -0.50698,-0.21223 -0.50698,-0.21223 0,0 -0.28887,-0.15917 -0.28887,-0.21223 0,-0.053 0.006,-0.4834 0.006,-0.4834 l 0.45393,-1.39128 z"
       style="fill:none;stroke:#000000;stroke-width:0.264106px;stroke-linecap:butt;stroke-linejoin:miter;stroke-opacity:1" />
    <path
       id="path1542"
       d="m 173.23135,254.86167 0.3773,0.13559 0.24171,0.67795 -0.20044,0.4952 -0.30066,0.0353 -0.40087,-0.48931 -0.10022,-0.48929 z"
       style="fill:none;stroke:#000000;stroke-width:0.264106px;stroke-linecap:butt;stroke-linejoin:miter;stroke-opacity:1" />
    <path
       id="path1544"
       d="m 169.57042,280.78295 0.43625,0.47164 -0.112,0.8371 -0.1356,0.71921 -0.33013,0.1179 -0.22402,-0.38908 -0.14148,-1.08471 c 0,0 0.11201,-0.34194 0.1238,-0.36549 0.0118,-0.0235 0.38318,-0.30657 0.38318,-0.30657 z"
       style="fill:none;stroke:#000000;stroke-width:0.264106px;stroke-linecap:butt;stroke-linejoin:miter;stroke-opacity:1" />
    <path
       id="path1546"
       d="m 167.79596,281.96199 0.80765,0.0708 0.0236,1.25566 -0.3832,0.006 -0.22401,-0.30066 -0.58363,0.24761 -0.43625,-0.38909 0.0943,-0.45394 z"
       style="fill:none;stroke:#000000;stroke-width:0.264106px;stroke-linecap:butt;stroke-linejoin:miter;stroke-opacity:1" />
    <path
       id="path1548"
       d="m 112.35951,254.14881 0.43353,-0.0167 0.36683,0.73366 -0.31681,0.35016 -0.85038,0.16675 -0.48356,0.13339 0.0834,-0.61695 z"
       style="fill:none;stroke:#000000;stroke-width:0.264106px;stroke-linecap:butt;stroke-linejoin:miter;stroke-opacity:1" />
    <path
       id="path1550"
       d="m 114.7606,258.00055 0.70031,0.98377 -0.28346,0.25011 -0.76701,-0.41685 -0.21677,-0.5169 z"
       style="fill:none;stroke:#000000;stroke-width:0.264106px;stroke-linecap:butt;stroke-linejoin:miter;stroke-opacity:1" />
    <path
       id="path1552"
       d="m 107.44062,258.50077 1.81748,0.15007 0.33349,0.56692 0.5836,-0.0833 c 0,0 0.36683,0.15006 0.36683,0.21676 0,0.0667 0.0167,0.60028 0.0167,0.60028 l 1.73413,0.18341 0.28346,0.35016 h 0.9004 l 0.36683,0.38351 0.0333,0.53358 -0.26678,0.40017 -1.58405,0.05 -0.28347,0.43354 -0.11672,0.86705 0.0834,0.65029 -1.75078,0.55026 -0.98378,0.56693 -1.80082,-0.05 -0.18342,-0.55027 -1.43397,-1.36728 0.10004,-0.93375 -0.48355,-0.40019 -0.78368,-0.15006 -0.15007,-1.01713 0.58359,-0.61694 0.93375,0.0667 0.0167,0.21677 0.76702,-0.0167 0.53357,-0.51691 -0.20009,-0.65029 0.26679,-0.33348 z"
       style="fill:none;stroke:#000000;stroke-width:0.264106px;stroke-linecap:butt;stroke-linejoin:miter;stroke-opacity:1" />
    <path
       id="path1554"
       d="m 106.54018,260.10151 0.26682,0.48353 -0.26678,1.26724 1.60071,0.10005 0.26679,-0.71699 -0.41686,-0.43353 0.11672,-1.56738 0.30014,-0.16673 0.0333,-0.33349 v -0.05"
       style="fill:none;stroke:#000000;stroke-width:0.264106px;stroke-linecap:butt;stroke-linejoin:miter;stroke-opacity:1" />
    <path
       id="path1556"
       d="m 144.71617,247.32758 0.24761,0.35371 -1.09652,1.46202 -0.31834,-0.17686 v -0.7428 l 1.01398,-0.93145 z"
       style="fill:none;stroke:#000000;stroke-width:0.264106px;stroke-linecap:butt;stroke-linejoin:miter;stroke-opacity:1" />
    <path
       id="path1558"
       d="m 91.516755,270.23942 1.600726,0.26677 0.633618,1.16719 1.433982,0.0333 1.100497,-0.10005 0.566923,0.23345 0.200091,-0.86707 c 0,0 0.900406,-0.50021 1.000451,-0.10004 0.100046,0.40017 0.20009,0.83371 0.20009,0.83371 l -0.333484,0.36683 0.200092,0.70031 -0.500227,0.53357 -0.500225,0.63362 h -0.833711 l -0.633619,0.76702 -1.000451,-0.40017 -0.400181,-0.90043 -0.533576,-0.40016 -0.500225,0.33348 -1.200543,0.70031 -0.500228,0.20011 -0.933754,-0.80038 -1.367284,0.60027 -1.167195,-0.53358 -0.233438,-0.90039 0.433528,-0.9671 1.534027,-0.73367 0.60027,-0.56692 z"
       style="fill:none;stroke:#000000;stroke-width:0.264106px;stroke-linecap:butt;stroke-linejoin:miter;stroke-opacity:1" />
    <path
       id="path1560"
       d="m 76.476626,283.44537 0.23344,0.90042 0.600271,0.76701 0.733664,0.10004 0.233438,0.46687 1.000452,-0.56691 -0.800359,1.50068 -0.233441,-0.1334 -0.666968,0.43353 -0.43353,-0.20009 -0.533572,0.40018 -0.03335,0.56692 h -0.833712 l -0.100043,-0.73365 -0.600273,-0.46689 -0.566922,0.56693 -0.500227,0.40017 -0.500224,-0.36681 -0.133394,-0.50025 -0.767015,0.36685 -0.466876,1.33392 -2.601175,0.76701 h -0.800362 l -0.233438,0.43353 -0.500228,-0.10004 0.100046,-0.80035 0.900406,-1.2339 0.86706,-0.46689 0.800362,-0.0333 1.133843,-0.66697 0.366833,-0.73366 h 0.600273 l 0.366833,0.16673 2.434432,-2.13429 z"
       style="fill:none;stroke:#000000;stroke-width:0.264106px;stroke-linecap:butt;stroke-linejoin:miter;stroke-opacity:1" />
    <path
       id="path1562"
       d="m 83.079611,265.07041 0.166741,0.53358 -0.366833,1.53401 -0.20009,0.66697 -1.233892,0.0667 -0.566921,-0.20009 0.166742,-0.66697 0.566923,-0.10004 0.533573,-1.46735 z"
       style="fill:none;stroke:#000000;stroke-width:0.264106px;stroke-linecap:butt;stroke-linejoin:miter;stroke-opacity:1" />
    <path
       id="path1564"
       d="m 63.103918,291.24891 0.566921,1.03379 0.366833,2.10096 -0.566922,1.80081 -0.366832,0.0333 -0.26679,-1.30059 0.0667,-2.10096 -0.233438,-0.86706 v -0.7003 z"
       style="fill:none;stroke:#000000;stroke-width:0.264106px;stroke-linecap:butt;stroke-linejoin:miter;stroke-opacity:1" />
    <path
       id="path1566"
       d="m 69.139978,291.01546 0.700317,0.20009 0.0667,0.63361 -0.100045,0.56694 -0.733666,0.0333 -0.100045,-0.46689 -0.200089,-0.76701 z"
       style="fill:none;stroke:#000000;stroke-width:0.264106px;stroke-linecap:butt;stroke-linejoin:miter;stroke-opacity:1" />
    <path
       id="path1568"
       d="m 86.914676,277.17587 1.100498,-0.10005 0.200092,0.70034 -0.733665,0.46685 -0.767014,-0.23342 -0.100045,-0.36683 z"
       style="fill:none;stroke:#000000;stroke-width:0.264106px;stroke-linecap:butt;stroke-linejoin:miter;stroke-opacity:1" />
    <path
       id="path1570"
       d="m 88.670312,276.25543 0.294761,0.11201 0.365504,0.71921 c 0,0 -0.595419,0.50109 -0.613103,0.46573 -0.0177,-0.0353 -0.400876,-0.37731 -0.400876,-0.37731 l -0.170961,-0.77816 z"
       style="fill:none;stroke:#000000;stroke-width:0.264106px;stroke-linecap:butt;stroke-linejoin:miter;stroke-opacity:1" />
    <path
       id="path1572"
       d="m 87.856771,279.18534 0.742798,0.81945 -0.04717,0.78407 -0.618998,0.57182 c 0,0 -0.843018,-0.48929 -0.843018,-0.51287 0,-0.0236 -0.04127,-1.23211 -0.04127,-1.23211 l 0.618998,-0.50108 z"
       style="fill:none;stroke:#000000;stroke-width:0.264106px;stroke-linecap:butt;stroke-linejoin:miter;stroke-opacity:1" />
    <path
       id="path1574"
       d="m 86.26506,279.50958 0.365505,0.22991 0.05895,1.06704 -0.554152,0.43036 -0.571836,-0.66027 c 0,0 0.300657,-0.91966 0.300657,-0.94914 0,-0.0294 0.400873,-0.1179 0.400873,-0.1179 z"
       style="fill:none;stroke:#000000;stroke-width:0.264106px;stroke-linecap:butt;stroke-linejoin:miter;stroke-opacity:1" />
    <path
       id="path1576"
       d="m 93.134154,274.54135 c 0.04168,0.008 1.075486,0.20844 1.075486,0.20844 l 0.241776,0.47521 -0.208427,0.53357 -1.317263,0.39185 -0.43353,-0.3835 0.100046,-0.76703 z"
       style="fill:none;stroke:#000000;stroke-width:0.264106px;stroke-linecap:butt;stroke-linejoin:miter;stroke-opacity:1" />
    <path
       id="path1578"
       d="m 90.958172,277.38429 0.616943,0.0584 0.01666,0.52522 c 0,0 -0.483551,0.37519 -0.5169,0.40021 -0.03335,0.0251 -0.566924,-0.2418 -0.566924,-0.2418 l 0.108383,-0.70865 z"
       style="fill:none;stroke:#000000;stroke-width:0.264106px;stroke-linecap:butt;stroke-linejoin:miter;stroke-opacity:1" />
    <path
       id="path1580"
       d="m 101.17408,259.77828 0.4834,0.6131 -0.27118,1.70962 -0.45982,-0.15328 -0.1297,-0.88428 -0.47162,-0.40088 0.24761,-0.81354 z"
       style="fill:none;stroke:#000000;stroke-width:0.264106px;stroke-linecap:butt;stroke-linejoin:miter;stroke-opacity:1" />
    <path
       id="path1582"
       d="m 104.94702,268.69186 0.81354,0.93145 -0.69564,0.47161 -0.731,-0.56595 0.0118,-0.58951 0.31834,-0.34194 0.23581,0.0354 z"
       style="fill:none;stroke:#000000;stroke-width:0.264106px;stroke-linecap:butt;stroke-linejoin:miter;stroke-opacity:1" />
    <path
       id="path1584"
       d="m 104.07452,270.28357 1.32053,1.03754 h 0.80175 l 0.80175,-0.4598 0.38909,0.27118 -1.76857,1.09648 -0.55415,-0.0708 -0.64847,-0.51878 -1.03757,-1.12011 0.41268,-0.56592 z"
       style="fill:none;stroke:#000000;stroke-width:0.264106px;stroke-linecap:butt;stroke-linejoin:miter;stroke-opacity:1" />
    <path
       id="path1586"
       d="m 102.56534,270.82592 0.53057,0.47164 -0.76637,1.04934 -0.36551,-0.0119 -0.10611,-0.49519 0.23581,-0.73099 z"
       style="fill:none;stroke:#000000;stroke-width:0.264106px;stroke-linecap:butt;stroke-linejoin:miter;stroke-opacity:1" />
    <path
       id="path1588"
       d="m 100.73783,272.19362 0.31834,0.507 -0.22402,0.55415 -0.50699,0.29474 -0.353712,-0.40086 v -0.6131 z"
       style="fill:none;stroke:#000000;stroke-width:0.264106px;stroke-linecap:butt;stroke-linejoin:miter;stroke-opacity:1" />
    <path
       id="path1590"
       d="m 99.723849,270.87308 0.530571,0.14149 0.0471,0.64849 -0.683843,0.57772 -0.2476,-0.34193 0.141485,-0.69563 0.212227,-0.28297 z"
       style="fill:none;stroke:#000000;stroke-width:0.264106px;stroke-linecap:butt;stroke-linejoin:miter;stroke-opacity:1" />
    <path
       id="path1592"
       d="m 63.515405,174.72205 0.471616,1.2262 -0.04716,0.70742 0.82533,-0.16506 0.282972,1.2262 -0.943236,2.54674 0.117905,0.56594 1.697823,0.0708 0.495198,0.91964 -0.471616,0.63669 -0.966817,-0.4952 -0.282972,0.58952 -0.565939,-0.0943 -0.471619,0.25939 0.141486,1.57992 0.518778,1.39127 1.013979,-0.28297 0.282972,1.69782 -0.282972,1.20263 0.990398,-0.0236 0.400875,0.49521 -0.235809,0.82533 0.801749,1.17904 v 0.75459 l -2.358088,2.31092 -2.122278,0.0708 -2.641059,1.27337 -0.848913,2.00438 -0.188645,1.29694 -0.141487,0.9904 -0.754588,0.40088 -4.103075,1.20263 -1.579919,-0.18865 -0.754586,0.58952 -1.013979,0.0471 -0.518779,1.01397 0.683844,1.69782 -0.09432,1.62708 -0.754588,-0.37729 0.04716,-1.01397 -0.660265,-0.0236 -0.141487,0.89607 1.179045,0.94323 -1.933633,2.64107 -1.839307,2.73538 -0.801751,1.62707 -1.485596,0.77818 -1.391273,1.2262 -3.749358,0.70743 -1.792149,4.26815 -0.990396,0.94323 -1.226207,0.21223 -0.990397,1.34411 -0.471617,0.0943 -0.282971,0.77817 -1.957212,0.77816 -1.650662,0.0471 -0.778169,0.54236 -0.141487,0.70743 -0.565939,1.53276 -1.603501,0.16506 -1.650661,0.94323 -2.051538,1.81573 -0.306551,0.25939 -0.306551,-0.40087 c 0,0 0.330132,-1.29695 0.353713,-1.39127 C 22.932706,228.55717 23.31,226.765 23.31,226.765 l 2.287346,-3.63145 1.462014,-0.63669 0.330133,-0.94324 1.910053,-2.64105 0.636683,-0.16507 0.707426,-0.63668 0.848912,-1.20263 0.542361,0.0708 0.28297,0.25939 0.471617,-0.1179 0.400876,-1.79215 2.806125,-1.98079 0.82533,-0.0471 0.330133,0.77818 0.613103,-0.11791 1.108302,-1.62708 0.424455,-0.0236 0.212227,-1.10829 0.848914,-0.25939 0.377294,-1.41486 2.240183,-1.83931 0.04716,-0.77816 0.54236,-0.47162 0.330132,0.14148 1.320529,-1.27337 2.688223,-2.7118 -0.07074,-0.73101 0.825331,-0.63668 -0.07074,-0.82533 1.226207,-0.75458 0.683844,-1.39128 0.424458,0.0471 -0.09433,0.9904 0.400877,0.63668 0.353713,-0.14148 0.235808,-0.87249 -0.542361,-0.66027 0.09433,-1.10831 0.424455,-0.28296 1.556339,-0.0236 0.495199,-1.27337 1.485595,-1.24979 -0.07074,-0.35371 -0.731008,0.0943 -0.165066,-0.47162 0.707426,-0.63669 0.613103,-0.18864 0.212228,0.40087 0.943235,-0.56594 -0.282971,-0.94323 0.731009,-0.0236 v 1.57992 l 0.966814,-0.47161 0.872496,-1.03757 0.353711,-0.47162 -0.04716,-0.37728 0.943235,-0.91966 0.188646,-1.55634 0.518781,-0.89607 -0.660265,-0.84891 -0.589521,0.25939 -0.330133,-0.28297 0.04716,-0.89608 -0.872493,-0.51878 0.613103,-0.42446 -0.377296,-0.87249 0.353715,-0.6131 0.51878,0.25939 0.259389,1.39128 2.452411,2.31092 0.400875,0.0943 -0.471616,-1.27337 0.188646,-0.63668 -0.471617,-0.51878 -0.636686,0.0708 -0.565939,-0.42445 0.282969,-0.80175 -0.778167,-0.23581 -0.09433,-1.46201 0.282972,0.0708 0.28297,0.30654 h 0.400876 l -0.872492,-1.462 0.188646,-0.73101 0.330132,0.40087 0.613103,1.06115 0.518781,0.0943 0.212227,-0.9904 -0.330132,-0.84892 -0.259391,-0.6131 0.09433,-0.51877 0.448037,-0.28298 0.04716,-2.02796 0.683845,-0.47161 0.02359,-1.17904 z"
       style="fill:none;stroke:#000000;stroke-width:0.264106px;stroke-linecap:butt;stroke-linejoin:miter;stroke-opacity:1" />
    <path
       id="path1594"
       d="m 71.274275,164.62501 1.567374,0.63362 0.800362,1.80082 -0.133392,1.00045 0.400179,0.86706 -0.967103,1.20054 -1.167195,0.50023 -0.400178,-0.9671 0.867057,-1.36729 -0.200089,-0.43353 -0.633623,0.83371 -0.633618,-1.0338 0.23344,-0.90041 -0.800362,-0.56693 -0.43353,-1.13384 0.733665,-0.33348 z"
       style="fill:none;stroke:#000000;stroke-width:0.264106px;stroke-linecap:butt;stroke-linejoin:miter;stroke-opacity:1" />
    <path
       id="path1596"
       d="m 69.94034,173.29559 0.366833,0.23344 -0.03335,0.73368 -0.433529,1.00045 -0.366833,0.50022 -0.166744,-0.70032 -0.600269,0.0333 -0.133395,0.30014 -0.500225,-0.33349 -0.333484,-0.76701 v -0.60027 h 0.666968 l 0.233438,0.13339 0.666967,0.1334 0.433531,-0.1334 -0.20009,-0.43353 z"
       style="fill:none;stroke:#000000;stroke-width:0.264106px;stroke-linecap:butt;stroke-linejoin:miter;stroke-opacity:1" />
    <path
       id="path1598"
       d="m 24.853298,230.43809 0.466877,0.11672 0.366832,0.56692 -0.01668,0.71699 -0.01667,0.75034 -0.55025,0.46688 -0.433529,0.11672 -0.500226,-0.43354 0.11672,-1.91752 z"
       style="fill:none;stroke:#000000;stroke-width:0.264106px;stroke-linecap:butt;stroke-linejoin:miter;stroke-opacity:1" />
    <path
       id="path1600"
       d="m 23.669429,230.53813 0.283461,0.1334 v 0.63362 l -0.583597,0.41685 h -0.683642 l -0.266788,-0.31681 0.416856,-0.36683 z"
       style="fill:none;stroke:#000000;stroke-width:0.264106px;stroke-linecap:butt;stroke-linejoin:miter;stroke-opacity:1" />
    <path
       id="path1602"
       d="m 21.25167,231.75535 0.466877,0.11672 0.0667,0.36684 -0.183417,0.21676 h -0.60027 l -0.216765,-0.46688 z"
       style="fill:none;stroke:#000000;stroke-width:0.264106px;stroke-linecap:butt;stroke-linejoin:miter;stroke-opacity:1" />
    <path
       id="path1604"
       d="m 22.418863,232.87252 0.733665,0.0667 0.05002,0.55025 -0.333483,0.40018 -0.783689,-0.10005 -0.183415,-0.3835 z"
       style="fill:none;stroke:#000000;stroke-width:0.264106px;stroke-linecap:butt;stroke-linejoin:miter;stroke-opacity:1" />
    <path
       id="path1606"
       d="m 20.284566,234.00637 0.300135,0.70032 c 0,0 0.283462,0.71698 0.283462,0.78368 0,0.0667 -0.133394,1.55071 -0.133394,1.55071 l 0.433529,1.23389 c 0,0 -0.183416,0.36682 -0.183416,0.43352 0,0.0667 -0.900406,1.28392 -0.900406,1.28392 l -0.400181,0.20009 -0.31681,-0.61695 -0.933755,-1.93421 0.266786,-1.05047 -0.01667,-0.85038 0.700316,-0.26679 0.0667,-0.76701 -0.266788,-0.36684 0.400181,-0.33348 z"
       style="fill:none;stroke:#000000;stroke-width:0.264106px;stroke-linecap:butt;stroke-linejoin:miter;stroke-opacity:1" />
    <path
       id="path1608"
       d="m 65.578732,178.87227 0.471616,0.15329 0.05895,0.50698 -0.436248,0.40087 c 0,0 -0.389083,0.16508 -0.471617,0.16508 -0.08253,0 -0.365503,-0.44804 -0.365503,-0.44804 l 0.247598,-0.45983 z"
       style="fill:none;stroke:#000000;stroke-width:0.264106px;stroke-linecap:butt;stroke-linejoin:miter;stroke-opacity:1" />
    <path
       id="path1610"
       d="m 66.510178,177.03297 0.31834,0.77817 0.353714,-0.3773 c 0,0 0.247599,-0.53057 0.259389,-0.58952 0.01178,-0.059 0.04717,-0.6131 0.04717,-0.6131 l -0.294761,0.0708 z"
       style="fill:none;stroke:#000000;stroke-width:0.264106px;stroke-linecap:butt;stroke-linejoin:miter;stroke-opacity:1" />
    <path
       id="path1612"
       d="m 61.169106,177.92904 0.294762,0.2476 v 0.55415 l -0.341922,0.18865 -0.318344,-0.30655 0.129695,-0.54236 z"
       style="fill:none;stroke:#000000;stroke-width:0.264106px;stroke-linecap:butt;stroke-linejoin:miter;stroke-opacity:1" />
    <path
       id="path1614"
       d="m 59.695301,178.36529 0.389085,0.059 0.01178,0.48341 -0.448037,0.31834 -0.306551,-0.28298 0.07074,-0.44803 z"
       style="fill:none;stroke:#000000;stroke-width:0.264106px;stroke-linecap:butt;stroke-linejoin:miter;stroke-opacity:1" />
    <path
       id="path1616"
       d="m 66.970005,180.25176 0.212227,0.0708 0.09432,0.38909 -0.141484,0.3655 -0.471619,-0.059 -0.129695,-0.43624 0.377294,-0.35371 z"
       style="fill:none;stroke:#000000;stroke-width:0.264106px;stroke-linecap:butt;stroke-linejoin:miter;stroke-opacity:1" />
    <path
       id="path1618"
       d="m 67.453411,181.45438 0.813541,0.64848 0.01178,0.54236 -0.624894,-0.18865 -0.731005,-0.48341 0.01178,-0.41267 0.30655,-0.11789 z"
       style="fill:none;stroke:#000000;stroke-width:0.264106px;stroke-linecap:butt;stroke-linejoin:miter;stroke-opacity:1" />
    <path
       id="path1620"
       d="m 66.014979,185.45134 0.377294,0.12969 -0.03537,0.34193 -0.188649,0.29476 -0.271179,-0.16507 -0.07074,-0.41266 z"
       style="fill:none;stroke:#000000;stroke-width:0.264106px;stroke-linecap:butt;stroke-linejoin:miter;stroke-opacity:1" />
    <path
       id="path1622"
       d="m 76.095806,174.00283 0.176855,0.34192 -0.341921,0.67205 -0.400876,-0.43625 0.212228,-0.48341 z"
       style="fill:none;stroke:#000000;stroke-width:0.264106px;stroke-linecap:butt;stroke-linejoin:miter;stroke-opacity:1" />
    <path
       id="path1624"
       d="m 74.374401,175.29977 0.2476,0.0825 0.02359,0.4952 -0.212227,0.20043 -0.365505,-0.15327 V 175.453 Z"
       style="fill:none;stroke:#000000;stroke-width:0.264106px;stroke-linecap:butt;stroke-linejoin:miter;stroke-opacity:1" />
    <path
       id="path1626"
       d="m 90.067477,179.32031 0.212231,0.53057 -0.353715,0.40088 -0.341922,0.14148 -0.483409,-0.38908 0.09432,-0.38909 0.459826,-0.10611 z"
       style="fill:none;stroke:#000000;stroke-width:0.264106px;stroke-linecap:butt;stroke-linejoin:miter;stroke-opacity:1" />
    <path
       id="path1628"
       d="m 89.183195,177.87009 0.200439,0.1179 0.04716,0.34192 c 0,0 -0.530569,0.16507 -0.542359,0.11791 -0.01178,-0.0471 -0.04717,-0.44804 -0.04717,-0.44804 l 0.165067,-0.16506 z"
       style="fill:none;stroke:#000000;stroke-width:0.264106px;stroke-linecap:butt;stroke-linejoin:miter;stroke-opacity:1" />
    <path
       id="path1630"
       d="m 84.785359,176.49061 0.424458,0.0708 -0.02359,0.55415 -0.330133,0.34192 -0.30655,-0.37729 z"
       style="fill:none;stroke:#000000;stroke-width:0.264106px;stroke-linecap:butt;stroke-linejoin:miter;stroke-opacity:1" />
    <path
       id="path1632"
       d="m 89.407213,182.40941 0.389086,0.17686 0.01178,0.53057 -0.259388,0.22401 -0.412666,-0.30655 -0.02359,-0.40088 z"
       style="fill:none;stroke:#000000;stroke-width:0.264106px;stroke-linecap:butt;stroke-linejoin:miter;stroke-opacity:1" />
    <path
       id="path1634"
       d="m 106.64484,173.61374 h 0.22402 l 0.14149,0.43625 -0.33014,0.40088 -0.41267,-0.14149 -0.12969,-0.42446 0.25939,-0.30655 z"
       style="fill:none;stroke:#000000;stroke-width:0.264106px;stroke-linecap:butt;stroke-linejoin:miter;stroke-opacity:1" />
    <path
       id="path1636"
       d="m 94.288843,182.62065 0.112552,-0.004 0.25428,0.2376 c 0,0 -0.04169,0.22928 -0.04169,0.27096 0,0.0417 -0.04586,0.27513 -0.06669,0.28347 -0.02084,0.008 -0.341821,0.0417 -0.341821,0.0417 l -0.191755,-0.32933 -0.03335,-0.26261 0.112551,-0.12506 z"
       style="fill:none;stroke:#000000;stroke-width:0.264106px;stroke-linecap:butt;stroke-linejoin:miter;stroke-opacity:1" />
    <path
       id="path1638"
       d="m 77.402045,187.36862 c 0,0 0.200089,0.0333 0.200089,0.12507 0,0.0917 0.07503,0.54191 0.07503,0.54191 l -0.266786,0.0333 -0.40852,-0.27514 c 0,0 0.0084,-0.29179 0.04169,-0.30847 0.03335,-0.0167 0.358495,-0.11672 0.358495,-0.11672 z"
       style="fill:none;stroke:#000000;stroke-width:0.264106px;stroke-linecap:butt;stroke-linejoin:miter;stroke-opacity:1" />
    <path
       id="path1640"
       d="m 77.076899,188.42744 0.291797,0.10838 0.01666,0.57526 -0.133395,0.30848 -0.45854,-0.0751 -0.08337,-0.65029 0.200089,-0.30848 z"
       style="fill:none;stroke:#000000;stroke-width:0.264106px;stroke-linecap:butt;stroke-linejoin:miter;stroke-opacity:1" />
    <path
       id="path1642"
       d="m 120.59657,191.904 0.40017,0.21677 -0.13339,0.38351 -0.65029,0.20009 -0.0667,-0.53358 z"
       style="fill:none;stroke:#000000;stroke-width:0.264106px;stroke-linecap:butt;stroke-linejoin:miter;stroke-opacity:1" />
    <path
       id="path1644"
       d="m 45.617514,253.38786 0.77817,-0.21222 c 0,0 0.235809,0.33013 0.235809,0.44804 0,0.11789 -0.02359,1.08472 -0.02359,1.08472 l -0.683845,0.21222 -0.943235,-0.25939 -0.353714,-0.66026 0.377294,-0.56594 z"
       style="fill:none;stroke:#000000;stroke-width:0.264106px;stroke-linecap:butt;stroke-linejoin:miter;stroke-opacity:1" />
    <path
       id="path1646"
       d="m 62.147714,293.74655 0.29476,0.45981 -0.02359,0.48342 -0.377294,0.0236 -0.176855,-0.42448 0.30655,-0.49519 z"
       style="fill:none;stroke:#000000;stroke-width:0.264106px;stroke-linecap:butt;stroke-linejoin:miter;stroke-opacity:1" />
    <path
       id="path1648"
       d="m 61.959065,295.11423 0.259392,0.0353 -0.07074,0.51876 -0.341922,0.0119 -0.05895,-0.43625 z"
       style="fill:none;stroke:#000000;stroke-width:0.264106px;stroke-linecap:butt;stroke-linejoin:miter;stroke-opacity:1" />
    <path
       id="path1650"
       d="m 69.77613,293.10985 0.377294,-0.0353 0.176855,0.3773 -0.707426,0.3655 -0.247599,-0.45984 z"
       style="fill:none;stroke:#000000;stroke-width:0.264106px;stroke-linecap:butt;stroke-linejoin:miter;stroke-opacity:1" />
    <path
       id="path1652"
       d="m 72.853434,289.53736 c 0.08253,0 0.353714,0 0.353714,0 l -0.01178,0.43624 -0.271181,0.11791 -0.106115,0.4834 -0.318341,0.14148 v -1.07293 z"
       style="fill:none;stroke:#000000;stroke-width:0.264106px;stroke-linecap:butt;stroke-linejoin:miter;stroke-opacity:1" />
    <path
       id="path1654"
       d="m 61.923694,291.34129 0.141487,0.30655 -0.05895,0.41266 -0.365501,-0.2122 -0.02359,-0.35372 z"
       style="fill:none;stroke:#000000;stroke-width:0.264106px;stroke-linecap:butt;stroke-linejoin:miter;stroke-opacity:1" />
    <path
       id="path1656"
       d="m 78.748654,287.04957 0.106116,0.2594 -0.176859,0.47162 -0.294761,-0.18865 -0.07074,-0.41266 z"
       style="fill:none;stroke:#000000;stroke-width:0.264106px;stroke-linecap:butt;stroke-linejoin:miter;stroke-opacity:1" />
    <path
       id="path1658"
       d="m 77.994067,287.68625 0.282971,0.44806 -0.75459,0.43622 h -0.56594 l 0.165067,-0.48339 z"
       style="fill:none;stroke:#000000;stroke-width:0.264106px;stroke-linecap:butt;stroke-linejoin:miter;stroke-opacity:1" />
    <path
       id="path1660"
       d="m 76.296244,288.91246 0.235807,0.2358 0.04716,0.48342 -0.459829,0.059 -0.212228,-0.22402 0.141486,-0.47161 z"
       style="fill:none;stroke:#000000;stroke-width:0.264106px;stroke-linecap:butt;stroke-linejoin:miter;stroke-opacity:1" />
    <path
       id="path1662"
       d="m 77.970485,282.72248 h 0.459827 l 0.09433,0.50699 -0.412666,0.34193 -0.28297,-0.34193 z"
       style="fill:none;stroke:#000000;stroke-width:0.264106px;stroke-linecap:butt;stroke-linejoin:miter;stroke-opacity:1" />
    <path
       id="path1664"
       d="m 79.550406,282.46308 0.212227,0.0119 -0.02359,0.3655 -0.377294,0.16507 -0.30655,-0.29478 0.224017,-0.29473 z"
       style="fill:none;stroke:#000000;stroke-width:0.264106px;stroke-linecap:butt;stroke-linejoin:miter;stroke-opacity:1" />
    <path
       id="path1666"
       d="m 82.86352,281.4609 c 0.117904,0.0353 0.28297,0.0708 0.28297,0.0708 v 0.55414 l -0.436247,0.0236 -0.05895,-0.45984 z"
       style="fill:none;stroke:#000000;stroke-width:0.264106px;stroke-linecap:butt;stroke-linejoin:miter;stroke-opacity:1" />
    <path
       id="path1668"
       d="m 83.346928,282.36877 -0.01181,0.43624 -0.448037,0.10612 -0.09432,-0.35371 0.353714,-0.47159 z"
       style="fill:none;stroke:#000000;stroke-width:0.264106px;stroke-linecap:butt;stroke-linejoin:miter;stroke-opacity:1" />
    <path
       id="path1670"
       d="m 81.354342,286.30677 0.389086,0.059 0.04716,0.64849 -0.471619,0.0943 -0.259389,-0.37726 z"
       style="fill:none;stroke:#000000;stroke-width:0.264106px;stroke-linecap:butt;stroke-linejoin:miter;stroke-opacity:1" />
    <path
       id="path1672"
       d="m 80.628502,268.77207 0.266787,0.24179 -0.166741,0.61695 -0.533576,0.0583 -0.316807,-0.62527 0.375169,-0.23345 z"
       style="fill:none;stroke:#000000;stroke-width:0.264106px;stroke-linecap:butt;stroke-linejoin:miter;stroke-opacity:1" />
    <path
       id="path1674"
       d="m 82.187541,269.31399 0.408518,0.17508 -0.03335,0.37516 -0.433529,0.21678 -0.316811,-0.39185 z"
       style="fill:none;stroke:#000000;stroke-width:0.264106px;stroke-linecap:butt;stroke-linejoin:miter;stroke-opacity:1" />
    <path
       id="path1676"
       d="m 84.938636,264.21149 0.318343,0.0472 0.02359,0.73099 -0.389082,0.20046 -0.506989,-0.66027 z"
       style="fill:none;stroke:#000000;stroke-width:0.264106px;stroke-linecap:butt;stroke-linejoin:miter;stroke-opacity:1" />
    <path
       id="path1678"
       d="m 84.113305,266.66389 0.353715,0.48343 c 0,0 -0.424458,0.37727 -0.459827,0.45981 -0.03538,0.0826 -0.471619,-0.28297 -0.471619,-0.31834 0,-0.0353 0.188648,-0.43624 0.188648,-0.43624 z"
       style="fill:none;stroke:#000000;stroke-width:0.264106px;stroke-linecap:butt;stroke-linejoin:miter;stroke-opacity:1" />
    <path
       id="path1680"
       d="m 89.808088,268.18485 0.282972,0.0119 0.09432,0.54237 -0.400873,0.2358 -0.377296,-0.27119 0.03537,-0.41267 z"
       style="fill:none;stroke:#000000;stroke-width:0.264106px;stroke-linecap:butt;stroke-linejoin:miter;stroke-opacity:1" />
    <path
       id="path1682"
       d="m 88.75874,268.76259 0.365505,0.44805 -0.353715,0.64847 -0.53057,0.21222 -0.282971,-0.64847 0.412665,-0.43623 z"
       style="fill:none;stroke:#000000;stroke-width:0.264106px;stroke-linecap:butt;stroke-linejoin:miter;stroke-opacity:1" />
  </g>
</svg>
