<?xml version="1.0" encoding="UTF-8" standalone="no"?>
<svg
   xmlns:dc="http://purl.org/dc/elements/1.1/"
   xmlns:cc="http://creativecommons.org/ns#"
   xmlns:rdf="http://www.w3.org/1999/02/22-rdf-syntax-ns#"
   xmlns:svg="http://www.w3.org/2000/svg"
   xmlns="http://www.w3.org/2000/svg"
   xmlns:sodipodi="http://sodipodi.sourceforge.net/DTD/sodipodi-0.dtd"
   xmlns:inkscape="http://www.inkscape.org/namespaces/inkscape"
   width="210mm"
   height="210mm"
   viewBox="0 0 210 210"
   version="1.1"
   id="svg8"
   inkscape:version="1.0 (4035a4fb49, 2020-05-01)"
   sodipodi:docname="ph-pangasinan.svg">
  <defs
     id="defs2" />
  <sodipodi:namedview
     id="base"
     pagecolor="#ffffff"
     bordercolor="#666666"
     borderopacity="1.0"
     inkscape:pageopacity="0.0"
     inkscape:pageshadow="2"
     inkscape:zoom="0.49497475"
     inkscape:cx="302.98088"
     inkscape:cy="537.37788"
     inkscape:document-units="mm"
     inkscape:current-layer="layer1"
     inkscape:document-rotation="0"
     showgrid="false"
     inkscape:window-width="2160"
     inkscape:window-height="1369"
     inkscape:window-x="-8"
     inkscape:window-y="-8"
     inkscape:window-maximized="1"
     showguides="false" />
  <metadata
     id="metadata5">
    <rdf:RDF>
      <cc:Work
         rdf:about="">
        <dc:format>image/svg+xml</dc:format>
        <dc:type
           rdf:resource="http://purl.org/dc/dcmitype/StillImage" />
        <dc:title></dc:title>
      </cc:Work>
    </rdf:RDF>
  </metadata>
  <g
     inkscape:label="Layer 1"
     inkscape:groupmode="layer"
     id="layer1">
    <path
       style="fill:none;stroke:#000000;stroke-width:0.264583px;stroke-linecap:butt;stroke-linejoin:miter;stroke-opacity:1"
       d="m 27.840537,44.980878 0.377976,-2.83482 2.078868,-1.700893 2.456847,-0.377975 h 2.83482 l 1.13393,2.078868 h 1.889879 l 0.708705,1.039434 -0.708705,0.566965 1.559153,1.41741 0.04725,3.071056 -0.566965,0.377978 0.283483,4.299479 -2.362351,3.921501 1.606399,3.968732 -0.566965,1.417411 -3.071056,2.645815 -0.425222,1.606391 0.377976,0.56696 0.614211,0.0945 1.133928,-1.889881 h 1.181177 l 0.236233,0.614214 1.13393,-0.614214 1.606399,1.322911 2.598587,0.23624 1.039434,0.89769 -0.236236,1.6064 h 0.755952 l 0.708705,-1.27567 1.653645,0.18899 0.803201,4.06324 1.889882,0.51972 2.882066,2.78757 0.236236,1.98438 1.322917,0.42522 0.614212,-0.28348 0.472469,-3.26005 3.212798,0.14174 0.850448,1.88989 1.842632,0.18898 0.992188,-0.7087 0.992187,0.23623 0.330729,2.69308 2.740327,0.47248 3.496281,3.96875 -0.236236,1.79538 h -1.133928 l -1.842635,-1.98437 -0.661458,0.33073 0.283482,0.85044 1.559153,1.74814 -0.377976,1.18118 -1.511906,1.32291 0.141743,1.08669 3.685267,2.17336 0.283483,2.64583 -2.031624,0.47247 -0.09449,1.32292 1.984375,0.14174 0.377976,1.32292 3.96875,1.70089 0.897694,4.01599 0.944941,-0.0472 -0.708705,-2.69308 3.071056,0.33073 -0.09449,-0.0472 1.133927,0.85045 3.260045,-0.18899 2.315104,3.26004 0.708705,-0.89769 2.315104,0.33073 0.141743,-0.51972 -3.732517,-2.36235 5.149927,-0.14174 13.229173,-5.81139 2.36235,-0.51971 -0.14174,-0.75595 7.60677,-6.23661 0.37797,0.18899 -0.47247,2.22061 -0.99219,1.18117 0.23624,0.51972 1.84264,-1.27567 1.13392,-2.3151 -1.46465,-1.88988 5.85863,-6.28386 0.89769,-2.45684 -0.42522,-4.53572 15.02455,0.18899 2.3151,-5.6224 19.74926,8.55172 9.07143,-0.51972 7.70126,-2.45685 17.38691,6.37835 4.7247,11.1503 v 2.07887 l 0.70871,2.64583 6.28385,6.75633 -0.28348,10.20535 -0.0473,2.03163 -1.37016,3.73251 -0.18899,4.016 -6.75632,5.81138 -0.18899,4.67746 -2.78758,3.96875 -0.7087,3.827 -2.97657,1.65365 -2.03162,2.55134 -1.13393,0.0472 -3.1183,-4.34673 -5.85863,-4.86644 -3.59077,-0.37798 -6.47285,2.92932 -11.67001,1.32291 -4.58296,-9.40215 -0.8032,-0.28349 -0.0472,1.74814 -0.85045,0.47247 -4.39397,13.93788 -2.78757,3.59077 -13.51265,1.37016 -3.16555,-1.84263 -8.26823,0.37797 -3.44904,-3.07105 -1.84263,-0.42522 -3.07105,-2.83483 -0.23624,-2.26785 -1.65365,-1.65365 -1.55915,-0.0945 0.0945,-1.84264 -2.59859,-3.9215 -1.37017,-0.0945 0.28349,-1.7009 -1.039439,-0.94494 -1.27567,-0.0945 -3.874254,4.20498 h -1.086684 l -2.315104,2.55134 h -1.086681 l -11.481027,9.26042 -1.511903,0.18899"
       id="path24" />
    <path
       style="fill:none;stroke:#000000;stroke-width:0.264583px;stroke-linecap:butt;stroke-linejoin:miter;stroke-opacity:1"
       d="m 74.28436,139.23864 1.795388,4.72471 1.086681,5.90587 12.520462,21.35566 1.937128,1.6064 h 1.889879 l 2.693083,-0.94495 1.41741,-2.59858 5.055439,-1.93713 0.75595,0.0945 4.7247,-7.60678 1.98438,-1.03943 v -4.39397 l 1.98437,-0.23624 3.68528,-4.48843"
       id="path26" />
    <path
       style="fill:none;stroke:#000000;stroke-width:0.264583px;stroke-linecap:butt;stroke-linejoin:miter;stroke-opacity:1"
       d="m 74.28436,139.23864 -7.600614,-0.17258 7.14946,-20.91384 -15.434815,1.20271 -5.479026,-1.20271 -0.133633,-1.87089 -23.252449,2.93997 0.267269,1.5368 0.601357,0.20045 -0.26727,1.9377 3.207234,3.34087 -0.334087,3.14042 3.407687,5.07812 -0.26727,1.20271 -3.073599,1.87089 -0.868626,2.53906 3.274052,0.26727 2.138156,-1.33635 1.804069,1.46998 h 3.407687 l 0.400904,-1.06907 2.605878,0.20045 1.403165,-2.87315 2.271791,-0.86862 3.073599,-3.14042 1.670435,-0.80181 5.278573,4.54358 7.283095,2.60588"
       id="path28" />
    <path
       style="fill:none;stroke:#000000;stroke-width:0.264583px;stroke-linecap:butt;stroke-linejoin:miter;stroke-opacity:1"
       d="m 27.840537,44.980878 v 0 0 0 l -0.472471,0.496096 -0.897693,0.04725 -1.015811,-1.015812 -2.14974,-0.236236 -3.354538,1.866259 -2.409598,2.69308 -2.244234,4.323101 -0.566964,4.464844 -0.944941,1.086675 -0.09449,6.827161 0.779576,0.850434 -0.779576,1.06306 0.165365,1.77176 -1.960751,1.6064 -0.03458,5.49959 -0.801809,0.63476 0.334087,2.73951 1.804069,0.50114 0.23386,3.77518 1.069078,0.83521 0.100227,1.9043 -2.706104,2.20497 -0.06682,1.63703 0.734991,0.60135 -0.133634,4.9779 -1.202713,1.87089 -0.03341,2.50565 2.672694,3.04019 -0.167043,0.96885 -1.804069,0.80181 -0.06682,1.1359 -0.601356,0.13363 -0.03341,3.80859 -0.367496,0.63477 H 9.6885202 l -0.5011304,0.7684 0.033409,1.63702 0.7349913,0.3675 0.2004519,2.33861 1.703844,1.46998 0.03341,2.80633 1.202712,1.26953 1.436574,0.10023 1.403165,-1.9043 1.236122,1.26953 h 2.071339 l 1.302939,-1.1693 -0.03341,-3.8086 0.601356,-0.43431 2.03793,-0.0334 1.703843,-1.40316 1.302939,-0.13364 1.236122,0.70159 0.534539,2.57247 1.603618,1.77066"
       id="path30" />
    <path
       style="fill:none;stroke:#000000;stroke-width:0.264583px;stroke-linecap:butt;stroke-linejoin:miter;stroke-opacity:1"
       d="m 10.122833,115.0118 1.436574,-0.63476 4.643808,-5.51244 1.904295,-4.17608 5.144938,-5.31199 8.753078,-0.0668 3.107007,0.66817 1.503392,-0.83522 3.841999,0.56795"
       id="path32" />
    <path
       style="fill:none;stroke:#000000;stroke-width:0.264583px;stroke-linecap:butt;stroke-linejoin:miter;stroke-opacity:1"
       d="m 14.469633,66.38373 3.968746,3.77977 5.622396,3.21279 2.173363,-0.18899 6.66183,6.47285 -1.181177,6.94531 -6.472841,5.19717 -2.645833,-0.0945 -5.433408,4.67745 -5.811383,2.97656"
       id="path34" />
    <path
       style="fill:none;stroke:#000000;stroke-width:0.264583px;stroke-linecap:butt;stroke-linejoin:miter;stroke-opacity:1"
       d="m 31.714791,86.60546 8.835194,7.55952 -0.09206,5.54565 2.265426,2.72258 7.654017,3.30729 3.118302,5.29167 -0.709937,5.24916"
       id="path36" />
    <path
       style="fill:none;stroke:#000000;stroke-width:0.264583px;stroke-linecap:butt;stroke-linejoin:miter;stroke-opacity:1"
       d="m 43.999022,66.80896 -0.897696,2.97656 -3.307292,2.78757 -1.322917,0.0945 -0.897694,1.98437 -4.677455,5.00819 3.449033,1.13393 5.338914,5.57515 5.527902,3.49627 2.267857,-0.0945 14.882815,-10.86682"
       id="path38" />
    <path
       style="fill:none;stroke:#000000;stroke-width:0.264583px;stroke-linecap:butt;stroke-linejoin:miter;stroke-opacity:1"
       d="m 48.487485,89.81826 0.566965,3.0238 16.300223,13.60715 8.478533,11.70301"
       id="path40" />
    <path
       style="fill:none;stroke:#000000;stroke-width:0.264583px;stroke-linecap:butt;stroke-linejoin:miter;stroke-opacity:1"
       d="m 65.354673,106.44921 4.346725,-9.92188"
       id="path42" />
    <path
       style="fill:none;stroke:#000000;stroke-width:0.264583px;stroke-linecap:butt;stroke-linejoin:miter;stroke-opacity:1"
       d="m 74.28436,139.23864 2.976563,-2.3151 5.10268,-14.55208 8.031993,-1.51191"
       id="path44" />
    <path
       style="fill:none;stroke:#000000;stroke-width:0.264583px;stroke-linecap:butt;stroke-linejoin:miter;stroke-opacity:1"
       d="m 13.855418,60.619633 7.370535,3.165532 h 3.02381 l 13.323663,-6.945284"
       id="path46" />
    <path
       style="fill:none;stroke:#000000;stroke-width:0.264583px;stroke-linecap:butt;stroke-linejoin:miter;stroke-opacity:1"
       d="m 37.431683,34.444794 3.449032,-0.283483 3.354538,3.496278 0.236236,0.850448 0.850447,1.086681 0.661459,2.740326 -0.0945,1.889882 -1.27567,0.188989 -0.614209,-0.708705 -3.68527,-0.236236 -0.614209,-2.173364 -1.984375,-0.04725 -1.086684,-0.944941 -0.330729,-3.260045 z"
       id="path48" />
    <path
       style="fill:none;stroke:#000000;stroke-width:0.264583px;stroke-linecap:butt;stroke-linejoin:miter;stroke-opacity:1"
       d="m 43.432055,45.028127 2.83482,0.472469 -1.842633,2.55134 -2.126117,-0.188989 -0.33073,-1.370163 z"
       id="path50" />
    <path
       style="fill:none;stroke:#000000;stroke-width:0.264583px;stroke-linecap:butt;stroke-linejoin:miter;stroke-opacity:1"
       d="m 47.259062,47.343231 2.740329,0.472469 0.661459,0.755952 1.559149,0.425225 -0.04725,3.590774 0.566965,0.661458 2.69308,0.33073 0.04725,1.417409 -3.165549,4.771941 0.566963,3.732499 -0.944938,0.566957 0.236233,0.850444 1.181177,-0.708707 1.842632,0.28348 0.330729,0.803194 -0.708705,0.944937 v 1.559147 l -1.181174,1.41741 -1.322917,0.0472 -1.13393,1.32292 -0.944941,-0.0472 -1.181174,-3.44903 -1.322916,-0.23624 -0.09449,-1.559144 -4.063245,-2.693062 -1.039435,-1.653631 1.181177,-0.23624 -2.267857,-2.078858 -0.330729,-1.181172 -0.472472,-0.14174 -0.992188,1.086682 -0.377976,-0.330727 -0.04725,-1.748143 2.834822,-5.338913 1.181174,-0.614212 0.897695,0.377976 0.188989,1.27567 h 0.708705 l 0.803198,-3.685267 z"
       id="path52" />
    <path
       style="fill:none;stroke:#000000;stroke-width:0.264583px;stroke-linecap:butt;stroke-linejoin:miter;stroke-opacity:1"
       d="m 114.44435,90.85778 0.61518,2.03747 -1.20271,2.07134 0.60136,1.73725 0.26727,2.80633 1.80407,2.40542 -0.0668,1.73725 -1.73725,2.93997 0.73499,6.21402 0.80181,2.67269 -0.0668,3.47451 -1.5368,6.48128 -4.40995,1.5368 -0.73499,1.40317 1.46998,1.33634 0.33409,2.13816 2.33861,2.47224 5.21175,0.33409 4.74404,-2.13816 -5.07812,-5.54584 -3.87541,-1.67043"
       id="path54" />
    <path
       style="fill:none;stroke:#000000;stroke-width:0.264583px;stroke-linecap:butt;stroke-linejoin:miter;stroke-opacity:1"
       d="m 100.41197,131.77363 10.57174,-2.06201"
       id="path56" />
    <path
       style="fill:none;stroke:#000000;stroke-width:0.264583px;stroke-linecap:butt;stroke-linejoin:miter;stroke-opacity:1"
       d="m 77.57498,100.98015 1.00226,2.47224 4.009044,1.60362 h 1.670433 l 0.668174,2.13816 0.935445,0.33408 3.340867,0.40091 0.734991,1.73725 -0.601355,0.93544 0.868624,1.33635 2.071341,-0.73499 0.133633,-1.33635 -0.868624,-1.20271 h -0.868627 l -0.601356,0.93544"
       id="path58" />
    <path
       style="fill:none;stroke:#000000;stroke-width:0.264583px;stroke-linecap:butt;stroke-linejoin:miter;stroke-opacity:1"
       d="m 90.203461,111.9382 0.192135,8.92135"
       id="path60" />
    <path
       style="fill:none;stroke:#000000;stroke-width:0.264583px;stroke-linecap:butt;stroke-linejoin:miter;stroke-opacity:1"
       d="m 82.586284,105.05601 -1.737254,1.67044 -1.269529,0.33408 -0.200451,1.00226 -3.274052,2.93997 -2.271792,7.14946"
       id="path62" />
    <path
       style="fill:none;stroke:#000000;stroke-width:0.264583px;stroke-linecap:butt;stroke-linejoin:miter;stroke-opacity:1"
       d="m 79.37905,108.06279 1.937702,1.06908 h 1.403165 l 0.53454,-0.60136 -0.734991,-1.9377 -1.670436,0.13364"
       id="path64" />
    <path
       style="fill:none;stroke:#000000;stroke-width:0.264583px;stroke-linecap:butt;stroke-linejoin:miter;stroke-opacity:1"
       d="m 93.677969,108.4637 2.138156,2.80633 h 1.202711 l 1.135896,-1.1359 1.33635,0.13364 0.133633,-1.06908 0.868625,-0.53454 -0.73499,-1.06908 -1.603618,-0.20045 -2.204974,1.60361 -1.937702,-0.46772 z"
       id="path66" />
    <path
       style="fill:none;stroke:#000000;stroke-width:0.264583px;stroke-linecap:butt;stroke-linejoin:miter;stroke-opacity:1"
       d="m 93.277064,100.17834 2.672694,8.81989"
       id="path68" />
    <path
       style="fill:none;stroke:#000000;stroke-width:0.264583px;stroke-linecap:butt;stroke-linejoin:miter;stroke-opacity:1"
       d="m 98.021099,98.107 5.879931,7.21628 0.53454,6.74856 5.47902,0.20045 5.21176,4.47676 4.27631,0.46773 2.13816,-1.06908 2.47224,0.13363 3.60814,-3.34087 1.20272,-0.13363 1.53679,-1.1359 2.13816,0.0668 0.66818,-1.00226"
       id="path70" />
    <path
       style="fill:none;stroke:#000000;stroke-width:0.264583px;stroke-linecap:butt;stroke-linejoin:miter;stroke-opacity:1"
       d="m 116.06179,84.67671 2.00453,2.33861 1.60361,0.4009 1.1359,3.80859 v 1.46999 l 12.36122,18.04067 2.47224,7.28311 0.0668,2.00452 4.07585,5.61266 0.0668,2.93997 -2.07134,-0.26727 -1.06907,0.73499 0.20045,1.26953 -4.94449,0.13364 -1.46998,2.00452 -0.86863,3.0736 -3.74177,3.40768 -0.33409,7.41673 1.00226,1.20272 -1.00226,0.8018 0.13364,1.80407"
       id="path72" />
    <path
       style="fill:none;stroke:#000000;stroke-width:0.264583px;stroke-linecap:butt;stroke-linejoin:miter;stroke-opacity:1"
       d="m 116.00208,134.30865 -0.18757,15.37162"
       id="path74"
       sodipodi:nodetypes="cc" />
    <path
       style="fill:none;stroke:#000000;stroke-width:0.264583px;stroke-linecap:butt;stroke-linejoin:miter;stroke-opacity:1"
       d="m 90.395596,120.85955 3.683278,2.83851 0.467719,1.87089 2.939966,1.20271 1.885981,4.05703"
       id="path76" />
    <path
       style="fill:none;stroke:#000000;stroke-width:0.264583px;stroke-linecap:butt;stroke-linejoin:miter;stroke-opacity:1"
       d="m 90.203463,114.94498 6.68174,-1.13589 2.405425,-0.20045 1.336352,1.00226 1.60362,-1.33635 -0.46773,-1.00226 -2.138155,-0.60136 -0.467723,0.80181 0.133636,1.1359"
       id="path78"
       sodipodi:nodetypes="ccccccccc" />
    <path
       style="fill:none;stroke:#000000;stroke-width:0.264583px;stroke-linecap:butt;stroke-linejoin:miter;stroke-opacity:1"
       d="m 95.816125,111.27003 1.069078,2.53906"
       id="path80" />
    <path
       style="fill:none;stroke:#000000;stroke-width:0.264583px;stroke-linecap:butt;stroke-linejoin:miter;stroke-opacity:1"
       d="m 102.2306,113.27455 2.20497,-1.20271"
       id="path82" />
    <path
       style="fill:none;stroke:#000000;stroke-width:0.264583px;stroke-linecap:butt;stroke-linejoin:miter;stroke-opacity:1"
       d="m 156.19728,76.02697 0.34415,12.51562 1.13393,1.79538 0.0945,10.48884 -1.98438,2.83482 -4.91369,3.59078 -19.93824,-0.37798 c -0.30711,0.0236 0,0 0,0"
       id="path84"
       sodipodi:nodetypes="cccccccc" />
    <path
       sodipodi:nodetypes="cccccccccc"
       style="fill:none;stroke:#000000;stroke-width:0.264583px;stroke-linecap:butt;stroke-linejoin:miter;stroke-opacity:1"
       d="m 129.2799,73.42354 1.84263,10.48884 -0.0945,6.42559 2.07887,1.13393 v 2.17337 l 5.10268,2.07886 h 3.21279 l 2.74033,-0.37797 3.11831,1.5119 9.26041,-8.31547"
       id="path86" />
    <path
       style="fill:none;stroke:#000000;stroke-width:0.264583px;stroke-linecap:butt;stroke-linejoin:miter;stroke-opacity:1"
       d="m 120.80583,92.6948 4.0801,-0.93942 7.27604,-9.54389 4.15774,-1.22843 3.30729,1.22843 5.48065,0.47247 1.98438,-0.94494 3.77976,0.18898 2.55134,9.26042"
       id="path88" />
    <path
       style="fill:none;stroke:#000000;stroke-width:0.264583px;stroke-linecap:butt;stroke-linejoin:miter;stroke-opacity:1"
       d="m 166.60506,75.97497 0.42521,9.92178 3.40179,8.78795 0.28348,8.12649 -2.17336,7.37053 -5.48066,3.49628 h -1.88988 l -3.59077,1.79539 0.18899,3.1183 -2.07888,0.56697 -0.56696,0.94494 1.70089,2.83482 2.74033,0.0945 3.49628,-2.74032 3.49628,0.28348 1.51191,-1.13393 18.52083,-0.47247 16.72544,-6.23661"
       id="path90" />
    <path
       style="fill:none;stroke:#000000;stroke-width:0.264583px;stroke-linecap:butt;stroke-linejoin:miter;stroke-opacity:1"
       d="m 201.89857,101.20479 -8.88244,4.34673 -8.78794,3.30729 -3.77976,2.92931 -1.32292,2.26786 -8.40997,5.38616 0.75595,8.88244 2.31511,7.18155"
       id="path92" />
    <path
       style="fill:none;stroke:#000000;stroke-width:0.264583px;stroke-linecap:butt;stroke-linejoin:miter;stroke-opacity:1"
       d="m 158.43131,123.17465 2.74033,9.5439 2.83482,5.85864"
       id="path94" />
    <path
       style="fill:none;stroke:#000000;stroke-width:0.264583px;stroke-linecap:butt;stroke-linejoin:miter;stroke-opacity:1"
       d="m 123.6122,132.51795 6.89612,3.74413 5.5279,1.65365 10.20536,-0.37798"
       id="path96" />
    <path
       style="fill:none;stroke:#000000;stroke-width:0.264583px;stroke-linecap:butt;stroke-linejoin:miter;stroke-opacity:1"
       d="m 136.90878,130.31298 5.83652,0.0905 1.03943,2.22061 0.47248,4.77195"
       id="path98" />
    <path
       style="fill:none;stroke:#000000;stroke-width:0.264583px;stroke-linecap:butt;stroke-linejoin:miter;stroke-opacity:1"
       d="m 142.7453,130.40348 1.18118,-0.80323 3.26004,-0.51972 2.12612,-1.98437 3.26004,-1.74814 2.59859,-0.8977 1.65364,-1.5119"
       id="path100" />
    <path
       style="fill:none;stroke:#000000;stroke-width:0.264583px;stroke-linecap:butt;stroke-linejoin:miter;stroke-opacity:1"
       d="m 149.31264,127.09616 -0.47251,2.92935"
       id="path102" />
    <path
       style="fill:none;stroke:#000000;stroke-width:0.264583px;stroke-linecap:butt;stroke-linejoin:miter;stroke-opacity:1"
       d="m 135.84723,118.96967 8.22099,-0.0472 7.46503,-0.99219 4.15773,-1.13392 2.07888,1.79538"
       id="path104" />
    <path
       style="fill:none;stroke:#000000;stroke-width:0.264583px;stroke-linecap:butt;stroke-linejoin:miter;stroke-opacity:1"
       d="m 150.87179,107.25241 0.56696,1.22842 4.25223,2.97656 v 5.33897"
       id="path106" />
    <path
       style="fill:none;stroke:#000000;stroke-width:0.264583px;stroke-linecap:butt;stroke-linejoin:miter;stroke-opacity:1"
       d="m 147.28101,96.85806 -1.27566,1.74814 -0.14174,2.36235 0.7087,1.03944 0.56697,5.33891"
       id="path108" />
    <path
       style="fill:none;stroke:#000000;stroke-width:0.264583px;stroke-linecap:butt;stroke-linejoin:miter;stroke-opacity:1"
       d="m 141.42237,95.72413 -2.45683,4.39398 -1.22842,1.93712 0.33073,2.64584 1.14252,2.37955"
       id="path110"
       sodipodi:nodetypes="ccccc" />
    <path
       style="fill:none;stroke:#000000;stroke-width:0.264583px;stroke-linecap:butt;stroke-linejoin:miter;stroke-opacity:1"
       d="m 133.1069,93.64527 -6.1421,7.55952"
       id="path112" />
    <path
       style="fill:none;stroke:#000000;stroke-width:0.264583px;stroke-linecap:butt;stroke-linejoin:miter;stroke-opacity:1"
       d="m 139.06003,106.77994 c 0,0 0,0 0,0 z"
       id="path114" />
    <path
       style="fill:none;stroke:#000000;stroke-width:0.264583px;stroke-linecap:butt;stroke-linejoin:miter;stroke-opacity:1"
       d="m 103.1523,104.03961 13.37722,-2.12402 4.19867,-0.28558 4.63021,4.016 0.51971,1.79538 1.88989,0.37798 3.16555,-0.94494"
       id="path116" />
    <path
       style="fill:none;stroke:#000000;stroke-width:0.264583px;stroke-linecap:butt;stroke-linejoin:miter;stroke-opacity:1"
       d="m 120.72819,101.63001 6.23661,-0.42522"
       id="path118" />
    <path
       style="fill:none;stroke:#000000;stroke-width:0.264583px;stroke-linecap:butt;stroke-linejoin:miter;stroke-opacity:1"
       d="m 155.78548,103.66163 1.93713,1.41741 4.34672,0.33073 2.52772,-0.18898 2.24423,-0.96857 2.26786,-0.18899 1.6064,-1.25204 7.74851,-0.21261 0.11812,3.28366 3.44903,4.74833"
       id="path120" />
    <path
       style="fill:none;stroke:#000000;stroke-width:0.264583px;stroke-linecap:butt;stroke-linejoin:miter;stroke-opacity:1"
       d="m 168.54218,110.18172 10.58333,3.87426"
       id="path122" />
    <path
       style="fill:none;stroke:#000000;stroke-width:0.264583px;stroke-linecap:butt;stroke-linejoin:miter;stroke-opacity:1"
       d="m 178.46405,102.59858 7.68918,-4.1909 2.07134,0.13364 4.04245,-4.34313 4.15091,-1.07255"
       id="path124" />
    <path
       id="Bolinao"
       style="fill:#d7eef4;stroke:#002b22;stroke-width:0.0473215;stroke-linejoin:round"
       d="m 40.823649,34.321951 -1.606103,0.128675 c -0.928748,0.07434 -1.630082,0.150664 -1.661914,0.180866 -0.03028,0.02873 -0.289541,0.591889 -0.576709,1.251604 l -0.522449,1.199409 0.140044,1.375627 c 0.07685,0.756517 0.15113,1.46277 0.165364,1.569413 0.02347,0.175609 0.0726,0.235042 0.519348,0.627353 l 0.492993,0.433049 1.026811,0.0341 1.026811,0.03462 0.299207,1.061434 c 0.164676,0.58374 0.309308,1.071021 0.321426,1.083138 0.02006,0.02006 3.081819,0.232093 3.470074,0.240295 0.145867,0.0031 0.200877,0.04544 0.468704,0.359669 0.23676,0.277781 0.325128,0.351092 0.401526,0.333312 0.05389,-0.01254 0.29268,-0.04949 0.530199,-0.08216 l 0.431498,-0.05943 0.02946,-0.92501 0.02946,-0.924491 -0.31936,-1.288293 -0.31936,-1.287778 -0.42323,-0.541051 c -0.387765,-0.496501 -0.43257,-0.577038 -0.543121,-0.966349 l -0.120403,-0.424264 -1.34669,-1.400429 c -0.740598,-0.770147 -1.473957,-1.537769 -1.629873,-1.706356 z m -5.324223,5.913334 -1.424718,0.0016 c -1.410353,0.0013 -1.436063,0.0029 -2.562119,0.178801 l -1.137396,0.177765 -0.997358,0.815973 c -0.746977,0.611015 -1.00401,0.847825 -1.023192,0.943094 -0.01409,0.06996 -0.08993,0.626467 -0.168982,1.237133 -0.194883,1.50541 -0.191881,1.494756 -0.491959,1.791107 l -0.249597,0.246497 -0.531234,0.0279 -0.530717,0.02791 -0.527616,-0.519863 -0.527617,-0.520383 -0.985469,-0.104386 -0.98547,-0.104386 -1.660364,0.922941 -1.660363,0.92294 -1.181324,1.326018 -1.181323,1.326017 -1.117244,2.160075 -1.117762,2.160077 -0.280086,2.226735 -0.280603,2.226739 -0.481107,0.546735 -0.481625,0.547261 0.01292,0.839734 0.01292,0.839737 3.638021,1.567861 3.638021,1.567851 1.498616,0.004 1.498617,0.004 6.580477,-3.429232 c 3.619408,-1.88604 6.616203,-3.464898 6.659026,-3.508303 0.04282,-0.0434 0.582535,-0.918663 1.199409,-1.9451 l 1.121378,-1.866038 -0.126608,-2.008145 c -0.06955,-1.104397 -0.136697,-2.082562 -0.149344,-2.173512 -0.02201,-0.158571 -0.01101,-0.172384 0.262001,-0.347266 l 0.284736,-0.182417 -0.0031,-1.305864 c -0.0016,-0.718249 -0.01714,-1.383353 -0.03514,-1.477428 -0.02782,-0.145466 -0.151204,-0.278138 -0.82424,-0.889868 -0.435264,-0.395613 -0.790422,-0.733303 -0.789099,-0.750343 0.0013,-0.01704 0.160732,-0.155355 0.354499,-0.306959 0.227915,-0.178321 0.339797,-0.295581 0.316778,-0.332279 -0.01955,-0.0312 -0.148037,-0.220671 -0.285253,-0.421161 l -0.249597,-0.364321 -0.954982,-0.0016 -0.955497,-0.0011 -0.559655,-1.038696 z" />
    <path
       style="fill:#d7eef4;stroke:#002b22;stroke-width:0.0473215;stroke-linejoin:round"
       d="m 30.275622,76.89188 c -1.422617,-1.38114 -2.896154,-2.8173 -3.274524,-3.19146 l -0.687946,-0.6803 -1.097883,0.0995 -1.097884,0.0995 -2.795074,-1.59728 -2.795075,-1.59728 -2.033679,-1.94033 c -1.118524,-1.06718 -2.169934,-2.094357 -2.336466,-2.282627 l -0.302787,-0.342297 0.02832,-2.293588 c 0.01558,-1.261471 0.03673,-2.301995 0.04701,-2.312275 0.01028,-0.0103 1.652935,0.682987 3.650343,1.540601 l 3.63165,1.559291 1.537814,-7.9e-4 1.537813,-8e-4 6.590961,-3.438572 c 5.116507,-2.669341 6.599872,-3.424033 6.630807,-3.373543 0.02191,0.03577 0.367628,0.875781 0.76825,1.866682 l 0.728403,1.801641 -0.265697,0.663317 -0.265698,0.663314 -1.541989,1.327554 -1.541986,1.327551 -0.223396,0.861277 -0.223395,0.861254 0.231309,0.34279 0.231307,0.34278 0.390829,0.0553 c 0.309935,0.0438 0.398674,0.043 0.428731,-0.004 0.02085,-0.0325 0.276944,-0.45782 0.569111,-0.945047 l 0.531209,-0.885877 h 0.499282 0.499284 l 0.08717,0.24805 c 0.163377,0.464897 0.100967,0.455947 0.756129,0.10839 0.320561,-0.17006 0.593169,-0.30919 0.605797,-0.30919 0.01262,0 0.3677,0.28338 0.789051,0.629727 l 0.766094,0.629727 1.212103,0.10783 c 0.666658,0.0593 1.219177,0.11432 1.227821,0.12225 0.0087,0.008 -0.16968,0.62747 -0.396277,1.37674 l -0.411996,1.36232 -1.599261,1.34613 c -0.879594,0.74037 -1.64928,1.3595 -1.710412,1.37585 -0.06113,0.0164 -0.376121,0.045 -0.699971,0.0637 l -0.588817,0.034 -0.470043,1.03347 -0.47004,1.03348 -2.244233,2.40757 c -1.234329,1.32416 -2.26027,2.40927 -2.279865,2.41134 -0.0196,0.002 -1.199591,-1.12625 -2.622211,-2.50739 z"
       id="Bani" />
    <path
       style="fill:#d7eef4;stroke:#002b22;stroke-width:0.0473215;stroke-linejoin:round"
       d="m 50.478414,70.3927 c -0.137208,-0.0211 -0.07129,0.14683 -0.979389,-2.4943 l -0.324898,-0.94495 -0.639765,-0.11418 -0.639766,-0.11418 -0.02574,-0.26379 c -0.01416,-0.145087 -0.03881,-0.487497 -0.05479,-0.760924 l -0.02905,-0.497127 -2.047864,-1.361464 -2.047864,-1.361461 -0.428792,-0.681287 C 43.024659,61.42433 42.831704,61.1018 42.831704,61.0823 c 0,-0.0195 0.265764,-0.0866 0.590587,-0.149047 0.324824,-0.0625 0.590587,-0.12655 0.590587,-0.14236 0,-0.0158 -0.547473,-0.530157 -1.216609,-1.143004 l -1.21661,-1.114264 -0.165365,-0.602938 -0.165364,-0.602938 -0.283483,-0.08831 c -0.155916,-0.04857 -0.307985,-0.08862 -0.337936,-0.089 -0.02995,-2.65e-4 -0.267394,0.231089 -0.527654,0.514381 l -0.473202,0.515075 -0.09329,-0.101663 c -0.08181,-0.08915 -0.09744,-0.199041 -0.127015,-0.892911 l -0.03372,-0.791247 1.402765,-2.6441 1.402763,-2.644098 0.537956,-0.282554 0.537953,-0.282551 0.35583,0.154729 c 0.195705,0.0851 0.364485,0.163568 0.375066,0.174371 0.01058,0.0108 0.05365,0.264146 0.09571,0.562983 0.120044,0.852881 0.04567,0.761407 0.606372,0.745778 l 0.48255,-0.01344 0.406661,-1.866143 0.406662,-1.866146 0.663694,-0.46191 0.663695,-0.461909 1.301191,0.226203 1.301195,0.2262 0.328609,0.377335 0.328613,0.377336 0.418563,0.108895 c 0.230211,0.05989 0.564086,0.151751 0.741944,0.204131 l 0.323382,0.09523 -0.01468,1.769872 -0.01469,1.769869 0.311119,0.366038 0.311118,0.366038 1.329132,0.161986 1.329134,0.161986 v 0.626435 0.626438 l -1.579713,2.375816 -1.579714,2.375817 0.279374,1.819001 c 0.153657,1.000454 0.279844,1.832328 0.280421,1.848608 5.29e-4,0.0163 -0.20625,0.15236 -0.459613,0.302377 -0.253362,0.15002 -0.468421,0.27911 -0.477909,0.28687 -0.02974,0.0243 0.292571,1.152894 0.32925,1.152894 0.01916,0 0.320096,-0.17087 0.668751,-0.37971 l 0.633917,-0.379707 0.842712,0.13167 0.842713,0.13166 0.129482,0.316227 0.129485,0.316217 -0.349092,0.46335 -0.349091,0.463347 -0.0019,0.779577 -0.0019,0.77957 -0.538017,0.64243 -0.538014,0.64241 -0.295154,0.0309 c -0.162335,0.017 -0.460462,0.0309 -0.662503,0.0309 h -0.36735 l -0.558848,0.65842 -0.55885,0.65841 -0.259858,-0.004 c -0.142923,-0.002 -0.316304,-0.0127 -0.385294,-0.0233 z"
       id="Anda" />
    <path
       style="fill:#d7eef4;stroke:#002b22;stroke-width:0.0473215;stroke-linejoin:round"
       d="m 43.295022,47.800429 c -0.459793,-0.04348 -0.844976,-0.0891 -0.855962,-0.101381 -0.01098,-0.01228 -0.08051,-0.27283 -0.15449,-0.578995 l -0.134517,-0.556662 0.683371,-0.682324 0.683371,-0.68232 1.181177,0.194892 c 0.649647,0.10719 1.198481,0.210039 1.219631,0.228555 0.02114,0.01852 -0.321381,0.530881 -0.761182,1.138586 -0.638538,0.882314 -0.822383,1.106311 -0.912527,1.111809 -0.06209,0.0038 -0.489079,-0.02869 -0.948872,-0.07216 z"
       id="path216" />
    <path
       style="fill:#d7eef4;stroke:#002b22;stroke-width:0.0473215;stroke-linejoin:round"
       d="m 44.52031,87.97371 -2.729,-1.72936 -2.676348,-2.79463 -2.676347,-2.79463 -1.629178,-0.53537 -1.629177,-0.53537 0.258853,-0.26783 c 0.142367,-0.1473 1.161192,-1.23521 2.264052,-2.41757 l 2.005203,-2.14974 0.39246,-0.87406 c 0.215852,-0.48074 0.422973,-0.92191 0.460269,-0.98038 0.05803,-0.091 0.11026,-0.10673 0.362016,-0.10923 0.161811,-0.002 0.443423,-0.0179 0.625803,-0.0363 l 0.3316,-0.0333 1.679821,-1.41658 1.679823,-1.41659 0.411576,-1.36781 c 0.226366,-0.7523 0.420997,-1.37724 0.432511,-1.38875 0.01151,-0.0115 0.186206,0.12465 0.388202,0.3026 0.201996,0.17795 0.37447,0.32818 0.383276,0.33383 0.0088,0.006 -0.03903,0.37468 -0.106307,0.82004 -0.06727,0.44537 -0.122317,0.82973 -0.122317,0.85413 0,0.025 0.225462,0.0444 0.514961,0.0444 h 0.514959 l 0.34278,-0.62602 c 0.188527,-0.34431 0.346528,-0.63128 0.351111,-0.63771 0.0046,-0.006 0.328461,0.0236 0.719732,0.0667 l 0.711399,0.0784 0.386797,1.96489 c 0.212738,1.08069 0.402563,1.99534 0.421833,2.03255 0.02032,0.0393 0.433528,0.17807 0.984411,0.33073 l 0.949373,0.26308 1.412994,1.36243 1.412994,1.36244 0.109956,0.97629 c 0.06047,0.53696 0.133479,1.00042 0.162231,1.0299 0.02875,0.0295 0.365567,0.15226 0.748478,0.27283 l 0.696203,0.21921 0.373555,-0.17076 0.373552,-0.17075 0.04961,-0.3383 c 0.02729,-0.18607 0.128768,-0.90173 0.225507,-1.59035 0.09674,-0.68863 0.181182,-1.25907 0.187645,-1.26765 0.01543,-0.0204 2.537839,0.0817 2.786941,0.11286 l 0.192045,0.024 0.41832,0.93475 0.418319,0.93475 0.877914,0.0837 c 0.482854,0.046 0.931069,0.0938 0.996035,0.10616 0.09099,0.0173 0.232293,-0.0587 0.615161,-0.33101 l 0.497047,-0.35349 0.405101,0.093 0.4051,0.093 0.151427,1.23376 c 0.123939,1.0098 0.140282,1.24432 0.09004,1.29198 -0.03376,0.032 -3.346233,2.4562 -7.361049,5.38705 -7.123626,5.20032 -7.305932,5.32964 -7.559525,5.36253 -0.142922,0.0186 -0.642559,0.0466 -1.110305,0.0623 l -0.850445,0.0286 z"
       id="Alaminos" />
    <path
       style="fill:#d7eef4;stroke:#002b22;stroke-width:0.0473215;stroke-linejoin:round"
       d="m 11.36573,98.62583 5.29e-4,-0.53658 0.607618,-0.94495 0.607618,-0.94494 0.05359,-2.17336 c 0.02948,-1.19535 0.06495,-2.34562 0.07883,-2.55616 l 0.02523,-0.3828 -0.38205,-0.30228 -0.382049,-0.30229 0.02546,-0.3071 c 0.014,-0.16891 0.02581,-0.49846 0.02625,-0.73233 l 7.94e-4,-0.42522 1.372084,-1.11031 1.372083,-1.1103 -0.02438,-0.25986 c -0.01341,-0.14293 -0.0388,-0.60779 -0.05643,-1.03303 l -0.03205,-0.77316 -0.531753,-0.42007 -0.531753,-0.42006 -0.02851,-0.31868 c -0.01568,-0.17527 -0.07247,-1.03065 -0.126214,-1.90083 -0.05374,-0.87019 -0.102453,-1.58691 -0.108253,-1.59271 -0.0058,-0.006 -0.40295,-0.11916 -0.882556,-0.25192 -0.479606,-0.13275 -0.884162,-0.25585 -0.899013,-0.27354 -0.01485,-0.0177 -0.08516,-0.53182 -0.156241,-1.14249 -0.07108,-0.61067 -0.140014,-1.16725 -0.153185,-1.23685 -0.0213,-0.11259 0.02064,-0.16211 0.380135,-0.44885 l 0.404082,-0.3223 9.53e-4,-2.74033 9.52e-4,-2.74033 0.924039,-0.75595 c 0.508222,-0.41577 0.956209,-0.78079 0.995527,-0.81116 0.06374,-0.0492 0.06266,-0.15254 -0.01,-0.95378 l -0.08146,-0.89858 0.275207,-0.38223 c 0.151364,-0.21023 0.298931,-0.40192 0.327926,-0.42598 0.03571,-0.0296 0.669579,0.54335 1.964043,1.77539 l 1.911324,1.81914 2.843776,1.62625 2.843776,1.62624 1.072703,-0.0971 1.072703,-0.0971 0.406624,0.40014 c 0.223643,0.22008 1.682293,1.63798 3.241445,3.15088 1.559152,1.51291 2.835148,2.76449 2.835545,2.78129 2.64e-4,0.0168 0.01413,0.0518 0.03052,0.0778 0.01638,0.026 -0.226955,1.55679 -0.540753,3.40178 l -0.570545,3.35454 -3.179174,2.55134 -3.179173,2.55134 -0.745642,-0.0103 c -0.410103,-0.006 -1.011406,-0.0226 -1.336229,-0.0377 l -0.590588,-0.0274 -2.732571,2.3528 -2.732573,2.3528 -2.795329,1.43472 c -1.537432,0.7891 -2.821906,1.44516 -2.854389,1.45791 -0.04516,0.0177 -0.05893,-0.10312 -0.05853,-0.51341 z"
       id="Agno" />
    <path
       style="fill:#d7eef4;stroke:#002b22;stroke-width:0.0473215;stroke-linejoin:round"
       d="m 10.161139,114.33041 c -0.01744,-0.25336 -0.04245,-0.49891 -0.05558,-0.54567 -0.01322,-0.0471 -0.1772266,-0.16089 -0.3674785,-0.25503 l -0.3436006,-0.17002 -0.032558,-0.72981 -0.032558,-0.72982 0.2180732,-0.34988 0.2180733,-0.34989 h 0.5787776 0.578778 l 0.221065,-0.39384 0.221066,-0.39384 v -1.84801 -1.84802 l 0.287637,-0.0566 c 0.158201,-0.0311 0.296333,-0.08 0.306961,-0.10868 0.01063,-0.0286 0.03533,-0.2925 0.0549,-0.58633 l 0.03558,-0.53423 0.850446,-0.3776 c 0.467745,-0.20768 0.873859,-0.40313 0.902475,-0.43433 0.04955,-0.054 0.20783,-0.85625 0.20783,-1.05335 0,-0.0551 -0.543344,-0.71166 -1.322917,-1.5986 l -1.322916,-1.50512 v -0.48936 c 0,-0.3326 0.01712,-0.48936 0.05345,-0.48936 0.0294,0 1.352092,-0.66441 2.939322,-1.47647 l 2.885871,-1.47647 2.694886,-2.32778 2.694885,-2.32777 0.992188,0.0257 c 0.545703,0.0141 1.141737,0.0378 1.324521,0.0527 l 0.332333,0.027 3.208961,-2.57652 c 3.171046,-2.54608 3.210222,-2.57558 3.315643,-2.49688 0.05868,0.0438 2.010828,1.70613 4.338114,3.69405 l 4.23143,3.61439 -0.0301,2.64584 c -0.01656,1.4552 -0.03431,2.65075 -0.03946,2.65676 -0.0051,0.006 -0.846106,-0.11338 -1.868813,-0.26532 l -1.859463,-0.27625 -0.746704,0.41637 -0.746704,0.41636 -1.521045,-0.32717 -1.521045,-0.32718 -4.431376,0.0303 -4.431376,0.0303 -2.601925,2.68524 -2.601925,2.68523 -0.95253,2.09077 -0.952529,2.09077 -2.308708,2.74032 -2.308708,2.74033 -0.599749,0.26895 c -0.329861,0.14792 -0.61371,0.27018 -0.630774,0.27167 -0.01706,0.002 -0.04529,-0.20458 -0.06273,-0.45794 z"
       id="Burgos" />
    <path
       style="fill:#d7eef4;stroke:#002b22;stroke-width:0.0473215;stroke-linejoin:round"
       d="m 13.567343,121.575 -0.372816,-0.0276 -0.583936,-0.60871 -0.583935,-0.60871 -0.0026,-1.39929 -0.0026,-1.39929 -0.828347,-0.7087 c -0.455591,-0.38979 -0.845525,-0.7406 -0.86652,-0.77958 -0.02099,-0.039 -0.04572,-0.26026 -0.05495,-0.49173 l -0.01678,-0.42087 0.70115,-0.30783 0.70115,-0.30782 2.341856,-2.78031 2.341856,-2.7803 0.949367,-2.08294 0.949367,-2.08294 2.521467,-2.60542 c 1.386806,-1.43298 2.54554,-2.61858 2.574963,-2.63465 0.02942,-0.0161 1.98723,-0.0415 4.350683,-0.0565 l 4.297186,-0.0273 1.514197,0.32807 c 0.832808,0.18044 1.554724,0.3281 1.604259,0.32814 0.04953,4e-5 0.418682,-0.18281 0.82033,-0.40634 l 0.730271,-0.40641 1.856629,0.27291 1.856626,0.27292 1.126427,1.35407 1.126426,1.35408 3.821737,1.652 3.82174,1.65201 1.528987,2.59448 c 0.840941,1.42696 1.529106,2.61654 1.529252,2.64351 5.29e-4,0.0908 -0.671555,5.0098 -0.686663,5.02597 -0.01376,0.0147 -5.519213,0.71422 -17.905306,2.27491 -2.676543,0.33726 -4.923668,0.6234 -4.993611,0.63587 -0.114527,0.0204 -0.201369,-0.0596 -0.873686,-0.80507 -0.410585,-0.45527 -0.759795,-0.85314 -0.776022,-0.88415 -0.01623,-0.031 -0.142078,-0.60918 -0.279669,-1.28481 -0.137592,-0.67564 -0.273316,-1.25353 -0.30161,-1.28422 -0.02829,-0.0307 -0.332683,-0.21694 -0.676419,-0.41388 l -0.624977,-0.35807 -0.643388,0.0713 c -0.353863,0.0392 -0.671907,0.0713 -0.706764,0.0713 -0.03486,0 -0.450171,0.31892 -0.922919,0.70871 l -0.859543,0.7087 H 22.07954 21.088844 l -0.370768,0.26129 -0.370767,0.26129 0.0284,1.90073 0.0284,1.90073 -0.616351,0.55469 -0.61635,0.55468 h -0.970073 -0.970083 l -0.626657,-0.66146 c -0.344661,-0.3638 -0.649303,-0.66093 -0.676983,-0.66029 -0.02768,5.3e-4 -0.368911,0.43649 -0.758291,0.96856 l -0.707965,0.9674 -0.260599,-0.008 c -0.14333,-0.004 -0.428368,-0.0202 -0.633417,-0.0354 z"
       id="Dasol" />
    <path
       style="fill:#d7eef4;stroke:#002b22;stroke-width:0.0473215;stroke-linejoin:round"
       d="m 38.543108,139.54764 -0.910445,-0.74965 -1.097552,0.68817 -1.097555,0.68816 -1.48195,-0.12152 c -0.815073,-0.0668 -1.490483,-0.13006 -1.500907,-0.14048 -0.01042,-0.0104 0.155212,-0.52709 0.36808,-1.14814 l 0.387038,-1.12918 1.539425,-0.93414 1.539425,-0.93415 0.148429,-0.67225 0.148428,-0.67225 -1.360603,-2.03163 c -0.748332,-1.11739 -1.515698,-2.26047 -1.705256,-2.54018 l -0.344654,-0.50855 0.105675,-1.02697 c 0.05812,-0.56484 0.132897,-1.27759 0.166171,-1.58389 l 0.0605,-0.55692 -1.344255,-1.40384 c -0.739339,-0.7721 -1.460468,-1.52341 -1.60251,-1.66957 l -0.258257,-0.26573 0.130035,-0.94462 c 0.07152,-0.51954 0.118266,-0.97528 0.10388,-1.01277 -0.01439,-0.0375 -0.155937,-0.10745 -0.314563,-0.15548 -0.158623,-0.048 -0.288406,-0.10162 -0.288406,-0.11909 0,-0.0175 -0.0422,-0.26392 -0.09378,-0.54767 -0.123729,-0.68069 -0.122705,-0.72852 0.01561,-0.72852 0.06095,0 2.373098,-0.2863 5.138116,-0.63622 2.765014,-0.34992 7.812513,-0.98729 11.216663,-1.41638 3.404148,-0.42909 6.244603,-0.79009 6.312128,-0.8022 l 0.122766,-0.022 0.06032,0.91527 0.06032,0.91528 0.336632,0.0736 c 0.185148,0.0405 1.449975,0.31826 2.810727,0.61724 l 2.474098,0.5436 2.699453,-0.21148 c 9.064033,-0.71008 12.470157,-0.97045 12.486124,-0.95449 0.02358,0.0236 -6.926064,20.36015 -6.97576,20.41305 -0.02085,0.0222 -1.601288,-0.51996 -3.512066,-1.2048 l -3.474146,-1.24517 -2.647053,-2.27967 c -1.45588,-1.25381 -2.667418,-2.27966 -2.69231,-2.27966 -0.0249,0 -0.434983,0.1885 -0.911315,0.4189 l -0.866061,0.4189 -1.088493,1.10482 c -0.598673,0.60764 -1.289661,1.31249 -1.53553,1.56632 l -0.447035,0.46151 -1.149982,0.43896 -1.149983,0.43896 -0.678463,1.38388 c -0.373155,0.76114 -0.684847,1.39924 -0.69265,1.41801 -0.01148,0.0276 -1.267415,-0.0513 -2.409465,-0.15143 l -0.221914,-0.0194 -0.198692,0.53616 -0.198688,0.53617 -1.634641,-0.004 -1.634644,-0.004 z"
       id="Infanta" />
    <path
       style="fill:#d7eef4;stroke:#002b22;stroke-width:0.0473215;stroke-linejoin:round"
       d="m 55.706528,118.60694 c -1.429221,-0.31408 -2.607482,-0.5783 -2.618354,-0.58715 -0.01087,-0.009 -0.0483,-0.39344 -0.08317,-0.85464 l -0.06339,-0.83855 0.358934,-2.66946 0.358934,-2.66946 -1.583759,-2.68744 -1.583759,-2.68745 -3.832846,-1.65535 -3.832847,-1.65535 -1.110083,-1.32684 -1.110083,-1.32685 0.02569,-1.2048 c 0.01413,-0.66264 0.03755,-1.91705 0.05202,-2.78758 l 0.02633,-1.58277 -4.416848,-3.77196 c -2.429266,-2.07457 -4.408736,-3.79673 -4.398817,-3.82701 0.0099,-0.0303 0.266139,-1.52207 0.569378,-3.3151 0.303242,-1.79302 0.556186,-3.26555 0.5621,-3.27229 0.0059,-0.007 0.733639,0.22479 1.61717,0.5145 l 1.606418,0.52676 2.660118,2.78049 2.660118,2.7805 2.795368,1.76764 2.795365,1.76764 0.594212,-0.0257 0.594212,-0.0257 0.0478,0.23106 c 0.0263,0.12709 0.150945,0.79159 0.277011,1.47667 l 0.229211,1.24561 8.16619,6.81806 8.16619,6.81807 4.132427,5.7039 c 2.272831,3.13714 4.115318,5.71858 4.094411,5.73652 -0.0209,0.0179 -0.665218,0.0798 -1.431801,0.13756 -0.766583,0.0577 -2.871438,0.22032 -4.677455,0.36134 -7.702166,0.60139 -8.771339,0.68298 -8.905983,0.67963 -0.078,-0.002 -1.311185,-0.2605 -2.740409,-0.57458 z"
       id="Mabini" />
    <path
       style="fill:#d7eef4;stroke:#002b22;stroke-width:0.0473215;stroke-linejoin:round"
       d="m 57.312564,99.52449 c -4.391411,-3.66517 -8.013832,-6.69237 -8.049823,-6.72712 -0.0531,-0.0513 -0.568738,-2.57627 -0.57163,-2.79918 -5.29e-4,-0.0429 0.113917,-0.0591 0.41719,-0.0591 h 0.417957 l 6.066697,-4.42959 c 3.336685,-2.43628 6.686386,-4.88182 7.443783,-5.43454 l 1.377084,-1.00494 1.2993,0.22587 1.2993,0.22587 1.646719,1.86935 c 0.905695,1.02814 1.674977,1.90391 1.709513,1.94615 0.05252,0.0642 0.04669,0.199 -0.03563,0.82342 -0.05414,0.41063 -0.09834,0.76255 -0.09823,0.78204 9.5e-5,0.0195 -0.210085,0.0354 -0.467101,0.0354 h -0.467299 l -0.909995,-0.98037 c -0.500499,-0.53921 -0.936778,-0.98689 -0.96951,-0.99484 -0.04849,-0.0118 -0.795139,0.33132 -0.868301,0.39901 -0.01143,0.0106 0.05085,0.2408 0.13839,0.51163 l 0.159155,0.49243 0.766511,0.85996 0.766514,0.85995 -0.06499,0.21751 c -0.250672,0.83899 -0.208942,0.77872 -1.047904,1.51331 l -0.767741,0.67222 0.02796,0.17486 c 0.01537,0.0962 0.05275,0.37625 0.08303,0.62239 l 0.05507,0.44752 1.842265,1.08816 1.842262,1.08817 0.131715,1.19759 c 0.07245,0.65867 0.124079,1.20523 0.114742,1.21457 -0.0093,0.009 -0.44068,0.11578 -0.958541,0.23655 -0.517858,0.12077 -0.965134,0.23807 -0.993942,0.26066 -0.02983,0.0234 -0.06596,0.29019 -0.08391,0.61962 -0.01733,0.31819 -0.04352,0.66554 -0.05817,0.77189 l -0.02664,0.19336 0.508252,0.0311 c 0.279537,0.0171 0.514612,0.0375 0.522385,0.0452 0.0078,0.008 -0.922552,2.14983 -2.067393,4.76011 -1.144844,2.61028 -2.095733,4.78234 -2.11309,4.82681 -0.02511,0.0643 -1.660535,-1.27875 -8.015941,-6.5831 z"
       id="Sual" />
    <path
       style="fill:#d7eef4;stroke:#002b22;stroke-width:0.0473215;stroke-linejoin:round"
       d="m 69.690934,112.16013 c -2.234393,-3.08231 -4.079626,-5.63883 -4.100518,-5.68116 -0.02651,-0.0537 0.577607,-1.48258 1.999568,-4.72943 1.120656,-2.55887 2.092089,-4.77474 2.158743,-4.92415 l 0.12119,-0.27167 h 0.294867 c 0.180213,0 0.3125,0.023 0.340215,0.0591 0.02495,0.0325 0.115784,0.3142 0.20188,0.62603 0.0861,0.31183 0.179914,0.59035 0.208486,0.61894 0.02858,0.0286 0.913029,0.41891 1.965457,0.86738 1.052428,0.44846 1.929461,0.83011 1.948966,0.8481 0.0195,0.018 0.22643,0.89271 0.459841,1.94382 0.23341,1.05112 0.435395,1.95741 0.448857,2.01398 0.02402,0.10095 0.03612,0.10237 0.650462,0.0763 0.344295,-0.0146 0.630664,-0.0302 0.636379,-0.0345 0.0057,-0.004 -0.14574,-0.60209 -0.336569,-1.32831 -0.190828,-0.72622 -0.344331,-1.32271 -0.341119,-1.32552 0.0296,-0.0259 1.03043,0.11346 1.064099,0.14821 0.02445,0.0252 0.259522,0.57742 0.522377,1.22707 0.262856,0.64965 0.49312,1.20566 0.511699,1.23558 0.01857,0.0299 0.873596,0.38914 1.900036,0.79827 1.026443,0.40913 1.880942,0.75672 1.898888,0.77242 0.01794,0.0157 -0.311599,0.35854 -0.732326,0.76187 l -0.764961,0.73332 -0.627486,0.15944 c -0.345117,0.0877 -0.641424,0.18199 -0.658455,0.20955 -0.01704,0.0276 -0.07484,0.26551 -0.128466,0.52878 l -0.0975,0.47867 -1.639785,1.47296 c -1.271198,1.14187 -1.649555,1.50733 -1.68325,1.62589 -0.131601,0.46305 -2.103223,6.63122 -2.128689,6.65957 -0.01669,0.0186 -1.858497,-2.48811 -4.09289,-5.57042 z"
       id="Labrador" />
    <path
       style="fill:#d7eef4;stroke:#002b22;stroke-width:0.0473215;stroke-linejoin:round"
       d="m 69.935758,138.99218 c -1.650103,-0.0381 -3.005918,-0.0743 -3.012918,-0.0803 -0.007,-0.006 1.599326,-4.72875 3.569623,-10.49494 2.394201,-7.00678 3.94185,-11.61749 4.666258,-13.90158 l 1.0839,-3.4176 1.532329,-1.37797 c 0.84278,-0.75789 1.558366,-1.39379 1.590191,-1.41312 0.03431,-0.0208 0.422767,0.16664 0.954418,0.46065 l 0.896554,0.49582 h 0.803248 0.803251 l 0.3101,-0.34649 0.310102,-0.34648 -0.407876,-1.076 -0.407877,-1.07601 -0.262599,0.0271 c -0.144428,0.0149 -0.443317,0.0399 -0.664196,0.0555 l -0.401601,0.0284 0.685083,-0.6626 0.685083,-0.6626 0.734182,-0.002 0.734184,-0.002 0.327692,1.06014 0.327692,1.06015 0.473651,0.17139 c 0.433216,0.15676 0.616025,0.18879 2.14125,0.37515 0.917175,0.11207 1.673923,0.21165 1.681657,0.22131 0.03378,0.0421 0.64312,1.51381 0.64312,1.55324 0,0.0241 -0.118399,0.22732 -0.26311,0.45164 -0.144708,0.22432 -0.27409,0.43647 -0.287509,0.47144 -0.01342,0.035 0.179393,0.37756 0.428474,0.76129 l 0.452874,0.6977 0.0026,0.56883 c 0.0013,0.31286 0.04092,2.26973 0.08786,4.3486 0.04694,2.07887 0.08301,3.78251 0.08016,3.78588 -0.0029,0.003 -1.791118,0.34109 -3.97393,0.75051 -2.182813,0.40941 -3.983435,0.75747 -4.001387,0.77346 -0.01794,0.016 -1.172839,3.28123 -2.566424,7.25609 -1.393584,3.97487 -2.54826,7.25233 -2.56595,7.28326 -0.01767,0.0309 -0.67769,0.55793 -1.466675,1.17113 l -1.434513,1.1149 -0.644355,-0.007 c -0.354397,-0.004 -1.99444,-0.0385 -3.644541,-0.0766 z"
       id="Bugallon" />
    <path
       style="fill:#d7eef4;stroke:#002b22;stroke-width:0.0473215;stroke-linejoin:round"
       d="m 76.49017,145.32888 -0.269372,-1.45727 -0.872281,-2.29016 c -0.479753,-1.2596 -0.85571,-2.30139 -0.835456,-2.31511 0.02024,-0.0137 0.676809,-0.52325 1.459015,-1.13229 l 1.422191,-1.10736 0.548217,-1.5621 c 0.301519,-0.85916 1.446583,-4.12402 2.544588,-7.25525 l 1.996368,-5.69315 0.281684,-0.058 c 0.154924,-0.0319 1.925015,-0.36636 3.933536,-0.74323 l 3.651853,-0.68523 1.781554,1.37342 c 0.979855,0.75539 1.79451,1.39807 1.810345,1.4282 0.01582,0.0301 0.129114,0.46054 0.251733,0.95649 l 0.222943,0.90172 1.475123,0.60267 1.475124,0.60268 0.859925,1.85014 c 0.472958,1.01758 0.859919,1.8665 0.859917,1.88648 -3e-6,0.02 -0.04784,0.0266 -0.106313,0.0147 -0.05847,-0.0119 -0.297656,-0.0339 -0.531529,-0.0488 l -0.425222,-0.0272 -1.93643,2.10319 -1.936427,2.10319 h -0.54595 -0.545949 l -1.153361,1.27429 -1.153361,1.2743 -0.552953,0.0132 -0.552955,0.0132 -5.680234,4.58296 c -3.124128,2.52063 -5.725321,4.60641 -5.780428,4.63508 -0.05511,0.0287 -0.323438,0.0777 -0.596289,0.10904 -0.272852,0.0313 -0.571275,0.0683 -0.663165,0.0822 l -0.167069,0.0253 z"
       id="Aguilar" />
    <path
       style="fill:#d7eef4;stroke:#002b22;stroke-width:0.0473215;stroke-linejoin:round"
       d="m 99.993404,131.17209 -0.483947,-0.43569 -0.955283,-2.0478 -0.955284,-2.04781 -1.461574,-0.59776 -1.461574,-0.59776 -0.239319,-0.93333 -0.23932,-0.93332 -1.819011,-1.39863 c -1.000456,-0.76924 -1.821693,-1.40167 -1.824971,-1.4054 -0.02352,-0.0267 -0.118319,-5.66238 -0.09564,-5.68506 0.0159,-0.0159 0.257871,-0.0683 0.537723,-0.1164 5.474965,-0.94153 5.810602,-0.99399 7.022486,-1.09766 l 1.222002,-0.10453 0.683469,0.51367 c 0.375909,0.28251 0.708349,0.5033 0.738749,0.49063 0.0304,-0.0127 0.42054,-0.32789 0.86696,-0.70049 0.76316,-0.63697 0.87579,-0.71242 1.88425,-1.2621 l 1.07257,-0.58462 2.179,0.0771 c 1.19844,0.0424 2.40767,0.0903 2.68716,0.10644 l 0.50818,0.0293 2.59857,2.23206 2.59857,2.23205 0.34229,0.0324 c 0.18826,0.0178 0.41671,0.0437 0.50766,0.0575 l 0.16536,0.0251 -0.0167,0.95261 -0.0167,0.95261 -0.7511,3.16404 c -0.4131,1.74022 -0.7511,3.177 -0.7511,3.19283 0,0.0159 -0.9727,0.3651 -2.16155,0.77614 -1.29737,0.44855 -2.1932,0.78273 -2.24071,0.83586 -0.0857,0.0959 -0.79491,1.43715 -0.79491,1.50342 0,0.0222 0.28716,0.3006 0.63814,0.61869 0.35099,0.31809 0.63034,0.58616 0.62079,0.5957 -0.01,0.01 -2.24742,0.45216 -4.97306,0.98359 -2.72563,0.53143 -4.99904,0.97661 -5.052,0.98928 -0.0717,0.0171 -0.21997,-0.0883 -0.580248,-0.41264 z"
       id="SanCarlos" />
    <path
       style="fill:#d7eef4;stroke:#002b22;stroke-width:0.0473215;stroke-linejoin:round"
       d="m 90.421596,114.59342 c -0.01365,-0.0862 -0.03166,-0.693 -0.04,-1.34847 -0.01212,-0.95304 -0.0027,-1.19654 0.04707,-1.21564 0.03423,-0.0131 0.492168,-0.1754 1.017641,-0.36059 0.525473,-0.18519 0.959434,-0.34025 0.964358,-0.34459 0.01,-0.009 0.156411,-1.38072 0.156411,-1.4654 0,-0.0295 -0.20811,-0.34037 -0.462465,-0.69078 l -0.462465,-0.63711 -0.530505,-0.0134 -0.530503,-0.0134 -0.289192,0.45198 -0.289193,0.45197 -0.33316,-0.79296 c -0.183238,-0.43613 -0.339852,-0.80189 -0.348033,-0.81282 -0.0082,-0.0109 -0.773854,-0.11102 -1.701499,-0.22244 -1.455906,-0.17487 -1.746604,-0.22326 -2.125064,-0.35371 l -0.438436,-0.15113 -0.193466,-0.61862 c -0.106407,-0.34023 -0.258479,-0.82591 -0.337934,-1.07927 l -0.144462,-0.46066 h -0.856697 -0.856695 l -1.982522,-0.79354 -1.982526,-0.79353 -0.445016,-1.09733 c -0.244761,-0.60353 -0.432697,-1.10965 -0.417639,-1.12471 0.01505,-0.0151 0.298741,1.1e-4 0.630409,0.0337 l 0.603033,0.0611 0.553678,0.41295 0.553675,0.41296 1.504071,-0.0903 c 0.827241,-0.0497 1.557224,-0.0904 1.62219,-0.0905 0.09542,-1.7e-4 0.177043,0.0836 0.424728,0.43604 0.168634,0.23994 0.704032,0.99597 1.189767,1.68008 l 0.883161,1.24382 0.387077,-0.48787 c 0.212895,-0.26833 0.391565,-0.49323 0.397047,-0.49979 0.0055,-0.007 0.536554,0.0639 1.180164,0.15656 0.643607,0.0927 1.176231,0.1618 1.183611,0.15366 0.0074,-0.008 0.05707,-0.17428 0.110434,-0.36917 0.07487,-0.27348 0.08418,-0.3668 0.04077,-0.40886 -0.03093,-0.03 -0.789755,-0.51668 -1.686269,-1.08157 -0.896512,-0.56488 -1.635218,-1.03102 -1.641573,-1.03585 -0.0064,-0.005 1.035444,-0.0351 2.315104,-0.0672 l 2.326656,-0.0584 1.359043,-0.59477 c 0.747471,-0.32712 1.366242,-0.58622 1.375039,-0.57577 0.04727,0.0561 2.537545,8.37026 2.514111,8.39369 -0.01535,0.0154 -0.394534,-0.0607 -0.842653,-0.16898 -0.931733,-0.22514 -1.468252,-0.33919 -1.490581,-0.31686 -0.0085,0.008 0.516388,0.71297 1.166379,1.56553 l 1.181798,1.55011 0.489845,1.15958 c 0.269414,0.63777 0.477816,1.16413 0.46311,1.16968 -0.01471,0.006 -1.355553,0.23434 -2.979671,0.50842 -1.624115,0.27409 -3.010178,0.51015 -3.080133,0.52459 -0.114618,0.0237 -0.129654,0.0108 -0.152033,-0.13045 z"
       id="Lingayen" />
    <path
       style="fill:#d7eef4;stroke:#002b22;stroke-width:0.0669226;stroke-linejoin:round"
       d="m 115.46233,116.6253 c -0.20264,-0.0216 -0.6347,-0.36538 -2.83566,-2.25604 l -2.59659,-2.23052 -0.4718,-0.0376 c -0.25949,-0.0207 -1.47907,-0.0713 -2.71018,-0.11253 -1.23111,-0.0412 -2.24294,-0.0789 -2.24852,-0.0839 -0.006,-0.005 -0.1194,-1.4221 -0.25293,-3.14933 -0.13354,-1.72723 -0.25677,-3.23062 -0.27385,-3.34087 -0.0177,-0.11387 -0.2072,-0.41592 -0.43885,-0.69929 -0.22428,-0.27435 -0.38213,-0.50695 -0.35077,-0.51687 0.0314,-0.01 2.91345,-0.46973 6.40466,-1.02178 3.49121,-0.55205 6.41792,-1.01977 6.50381,-1.03936 l 0.15615,-0.0356 -0.0236,0.75443 -0.0236,0.75443 -0.87562,1.46998 -0.87562,1.46998 0.38566,3.20724 0.38566,3.20723 0.37407,1.23062 c 0.33959,1.11716 0.37408,1.28809 0.37408,1.85418 v 0.62357 l -0.18375,-0.0112 c -0.10106,-0.006 -0.29133,-0.0227 -0.42282,-0.0368 z"
       id="Calasiao" />
    <path
       style="fill:#d7eef4;stroke:#002b22;stroke-width:0.0669226;stroke-linejoin:round"
       d="m 100.7009,101.12119 c -1.304611,-1.60132 -2.380092,-2.94413 -2.389961,-2.98402 -0.0099,-0.0399 1.199066,-0.60624 2.686521,-1.25857 l 2.70446,-1.18605 1.21668,-0.26718 c 0.66918,-0.14695 1.22673,-0.27723 1.23901,-0.2895 0.0123,-0.0123 -0.0123,-0.19462 -0.0546,-0.4052 -0.0633,-0.31539 -0.0604,-0.39807 0.0167,-0.46908 0.0515,-0.0474 1.68719,-1.38829 3.63492,-2.97972 1.94772,-1.59144 3.58711,-2.93233 3.64307,-2.97977 0.23875,-0.20238 0.243,0.008 0.0208,1.03128 l -0.22241,1.02408 -0.50133,0.5909 c -0.27573,0.325 -0.50133,0.62437 -0.50133,0.66528 0,0.11133 0.32881,0.73859 0.38533,0.73508 0.0269,-0.002 0.42483,-0.26901 0.8842,-0.59408 0.45937,-0.32507 0.85469,-0.57176 0.87848,-0.5482 0.0238,0.0236 0.15313,0.40676 0.28741,0.85157 l 0.24415,0.80873 -0.6047,1.04187 -0.60469,1.04187 0.323,0.92232 c 0.31241,0.89208 0.32704,0.96795 0.44631,2.31427 l 0.1233,1.39195 0.82176,1.0939 c 0.45197,0.60164 0.79983,1.10603 0.77302,1.12086 -0.0268,0.0149 -2.97204,0.48956 -6.54496,1.05495 -4.13933,0.65502 -6.50291,1.05627 -6.51469,1.10597 -0.0102,0.0429 -1.0859,-1.23219 -2.39051,-2.83351 z"
       id="Dagupan" />
    <path
       style="fill:#d7eef4;stroke:#002b22;stroke-width:0.0669226;stroke-linejoin:round"
       d="m 117.73933,116.86953 c -0.56961,-0.0674 -1.10332,-0.12414 -1.186,-0.12601 -0.14599,-0.003 -0.15034,-0.0234 -0.15034,-0.69358 0,-0.64809 -0.0241,-0.77131 -0.39561,-2.02122 l -0.39561,-1.33107 -0.33938,-2.88065 c -0.18667,-1.58437 -0.33939,-2.95921 -0.33939,-3.05521 0,-0.10397 0.34137,-0.74932 0.84428,-1.5961 l 0.84428,-1.42157 0.0328,-0.83989 0.0328,-0.83989 1.94598,-0.12853 c 1.07028,-0.0707 1.96521,-0.12873 1.98872,-0.12896 0.0235,-2.4e-4 1.06085,0.88211 2.3052,1.96078 l 2.26245,1.96121 0.26913,0.906 c 0.20358,0.68535 0.30122,0.91901 0.4009,0.95937 0.0725,0.0293 0.53203,0.13193 1.02123,0.22797 l 0.88945,0.17461 1.37198,-0.41058 c 0.75459,-0.22582 1.37995,-0.4009 1.38969,-0.38908 0.21595,0.26211 2.37406,3.49045 2.37177,3.54795 -0.002,0.0449 -0.11789,0.24625 -0.258,0.44739 l -0.25476,0.3657 -1.06163,-0.0192 -1.06164,-0.0192 -0.7684,0.56424 c -0.72999,0.53602 -0.79011,0.56647 -1.20271,0.60913 -0.23887,0.0247 -0.51374,0.06 -0.61082,0.0785 -0.11145,0.0212 -0.83418,0.6418 -1.96074,1.68362 l -1.78421,1.65001 -1.24886,-0.0577 -1.24885,-0.0577 -1.01578,0.50874 c -1.16446,0.5832 -1.03981,0.566 -2.68789,0.37089 z"
       id="path252" />
    <path
       style="fill:#d7eef4;stroke:#002b22;stroke-width:0.0669226;stroke-linejoin:round"
       d="m 115.78865,100.64562 c -0.45223,-0.60324 -0.84188,-1.13007 -0.86589,-1.17072 -0.024,-0.0406 -0.0953,-0.66023 -0.15839,-1.37684 -0.10617,-1.20564 -0.13714,-1.37077 -0.41476,-2.21123 l -0.30001,-0.90829 0.59831,-1.02591 0.59831,-1.02591 -0.22528,-0.7385 c -0.43026,-1.41051 -0.44657,-1.17729 0.17264,-2.46815 0.29768,-0.62057 0.54083,-1.16179 0.54033,-1.20271 -5.2e-4,-0.0409 -0.30117,-0.45771 -0.66817,-0.92618 -0.367,-0.46847 -0.66728,-0.88441 -0.66728,-0.92433 0,-0.10017 1.54895,-1.73891 1.62095,-1.71491 0.032,0.0107 0.48462,0.51329 1.00594,1.11698 l 0.94784,1.09762 0.7673,0.19165 c 0.42202,0.10541 0.77524,0.19959 0.78495,0.2093 0.01,0.01 0.25826,0.82624 0.55235,1.81453 0.53383,1.79399 0.53469,1.79813 0.53469,2.56879 v 0.77192 l 2.862,4.17435 c 1.99675,2.91234 2.83002,4.17913 2.75622,4.19015 -0.0582,0.009 -2.13536,0.15113 -4.61596,0.31654 -2.48059,0.16542 -4.62125,0.30928 -4.75702,0.3197 -0.24667,0.0189 -0.2474,0.0182 -1.06907,-1.07785 z"
       id="Mangaldan" />
    <path
       style="fill:#d7eef4;stroke:#002b22;stroke-width:0.0669226;stroke-linejoin:round"
       d="m 123.95335,96.98532 c -1.52511,-2.22842 -2.78111,-4.08487 -2.79112,-4.12546 -0.0112,-0.0454 0.72154,-0.24228 1.90356,-0.51152 l 1.92177,-0.43774 2.9407,-3.85203 c 1.61738,-2.11861 2.96172,-3.87201 2.98742,-3.89644 0.0438,-0.0416 0.0198,2.92843 -0.0423,5.24967 l -0.0277,1.03566 1.06273,0.56795 1.06273,0.56795 0.001,0.97206 0.001,0.97206 -3.03607,3.73857 c -1.66984,2.05621 -3.07551,3.74584 -3.12371,3.75474 -0.0495,0.009 -1.293,-1.74501 -2.86057,-4.03547 z"
       id="SanJacinto" />
    <path
       style="fill:#d7eef4;stroke:#002b22;stroke-width:0.0669226;stroke-linejoin:round"
       d="m 120.94657,91.7932 c 0,-0.68592 -0.0123,-0.74226 -0.56364,-2.58707 -0.31001,-1.03723 -0.59444,-1.9049 -0.63208,-1.92817 -0.0376,-0.0233 -0.40869,-0.12528 -0.82454,-0.22671 l -0.75609,-0.1844 -0.86691,-1.01145 c -0.4768,-0.5563 -0.90594,-1.06575 -0.95363,-1.1321 -0.0778,-0.1083 0.11089,-0.33229 1.84309,-2.18755 l 1.92981,-2.06689 0.45733,-1.25637 0.45732,-1.25636 -0.18202,-2.03969 c -0.10011,-1.12183 -0.19748,-2.11222 -0.21637,-2.20088 l -0.0344,-0.1612 4.26036,0.0466 c 2.34319,0.0256 4.26696,0.0532 4.27503,0.0613 0.0239,0.0239 1.70232,9.62027 1.71456,9.80283 0.008,0.12599 -0.73406,1.1442 -3.02094,4.14268 -1.66768,2.18659 -3.03503,3.97985 -3.03854,3.985 -0.004,0.005 -0.81822,0.19544 -1.81046,0.42286 -0.99224,0.22742 -1.85669,0.42819 -1.921,0.44615 -0.10601,0.0296 -0.11693,-0.0328 -0.11693,-0.66854 z"
       id="SanFabian" />
    <path
       style="fill:#d7eef4;stroke:#002b22;stroke-width:0.0669226;stroke-linejoin:round"
       d="m 126.82357,107.45819 c -0.38748,-0.0813 -0.7355,-0.16698 -0.77337,-0.19039 -0.0379,-0.0234 -0.1711,-0.41237 -0.29607,-0.86438 -0.18518,-0.66981 -0.2646,-0.85642 -0.42934,-1.0089 -0.11117,-0.10289 -1.09357,-0.95983 -2.18311,-1.90429 l -1.98098,-1.71722 2.0478,-0.1439 c 1.12628,-0.0791 2.3457,-0.15431 2.70981,-0.16704 l 0.66201,-0.0232 1.85644,2.70563 c 1.2113,1.76539 1.82877,2.72073 1.77682,2.74909 -0.184,0.10046 -2.37809,0.72531 -2.52507,0.71912 -0.0882,-0.004 -0.47746,-0.0733 -0.86494,-0.15458 z"
       id="Mapandan" />
    <path
       style="fill:#d7eef4;stroke:#002b22;stroke-width:0.0669226;stroke-linejoin:round"
       d="m 126.56479,133.92421 -2.83418,-1.54177 -2.54462,-2.77844 -2.54462,-2.77845 -1.46998,-0.62841 c -0.80849,-0.34562 -1.65339,-0.70977 -1.87755,-0.80922 l -0.40757,-0.18081 0.72383,-3.03079 c 0.71424,-2.99063 0.72442,-3.04468 0.76868,-4.07943 l 0.0448,-1.04864 0.17342,0.0283 c 0.0954,0.0156 0.77595,0.0924 1.51235,0.17078 l 1.33893,0.14248 1.08087,-0.54123 1.08087,-0.54124 1.24465,0.0744 1.24465,0.0743 0.3446,-0.33045 c 0.40002,-0.3836 2.95522,-2.73884 3.15302,-2.90627 0.0834,-0.0706 0.35881,-0.14109 0.73327,-0.18763 l 0.59965,-0.0745 0.75284,-0.56548 0.75284,-0.56547 1.08531,0.0419 1.0853,0.042 0.23386,-0.37429 c 0.12862,-0.20586 0.2489,-0.37425 0.26727,-0.3742 0.0184,5e-5 0.5674,1.58597 1.22005,3.52427 l 1.18664,3.52418 -5.3e-4,0.92309 -5.2e-4,0.9231 2.05374,2.81868 2.05375,2.81867 0.0236,1.35583 0.0236,1.35583 -0.15632,-0.0335 c -0.086,-0.0184 -0.5237,-0.0811 -0.97273,-0.13939 l -0.81641,-0.10593 -0.55335,0.3818 c -0.30434,0.20998 -0.5756,0.40045 -0.6028,0.42327 -0.0272,0.0228 -0.005,0.29378 0.0491,0.60216 0.0542,0.30838 0.0859,0.57337 0.0704,0.58888 -0.0308,0.0308 -3.16078,0.13939 -4.17932,0.14493 l -0.63477,0.003 -0.7654,1.04823 -0.76542,1.04823 -0.42534,1.50734 c -0.23394,0.82904 -0.44576,1.5262 -0.47071,1.54925 -0.0249,0.0231 -1.32075,-0.65188 -2.87955,-1.49985 z"
       id="Malasiqui" />
    <path
       style="fill:#d7eef4;stroke:#002b22;stroke-width:0.0669226;stroke-linejoin:round"
       d="m 116.00208,134.30865 c -1.23111,-0.0841 -2.24238,-0.15508 -2.24727,-0.15775 -0.005,-0.003 -0.52103,-0.53976 -1.14696,-1.19353 l -1.13806,-1.18866 -0.14856,-1.03302 -0.14857,-1.03301 -0.71766,-0.70158 -0.71766,-0.70159 0.31963,-0.5954 0.31963,-0.5954 2.18184,-0.75765 c 1.20001,-0.41671 2.2201,-0.75765 2.26687,-0.75765 0.0468,0 0.8769,0.34291 1.84476,0.76202 l 1.75973,0.76201 2.43066,2.65606 c 1.33687,1.46083 2.40678,2.67784 2.37758,2.70446 -0.0292,0.0266 -1.03029,0.48807 -2.22465,1.02544 -1.83679,0.82643 -2.21792,0.97559 -2.47225,0.9676 -0.16537,-0.005 -1.30795,-0.0783 -2.53906,-0.16235 z"
       id="Basista" />
    <path
       style="fill:#d7eef4;stroke:#002b22;stroke-width:0.0236607;stroke-linejoin:round"
       d="m 114.05094,147.91193 -1.6122,-1.43579 -0.91552,-0.21031 -0.91551,-0.21031 -0.10631,-0.0966 c -0.0585,-0.0531 -0.73351,-0.67435 -1.50009,-1.38054 -0.76658,-0.70617 -1.39744,-1.28665 -1.40191,-1.28995 -0.004,-0.003 -0.061,-0.51437 -0.12564,-1.13573 l -0.11751,-1.12975 -0.86655,-0.86785 -0.86655,-0.86785 -0.72708,-0.0443 c -0.39989,-0.0243 -0.73046,-0.0484 -0.73461,-0.0535 -0.004,-0.005 0.0128,-0.39972 0.0377,-0.87703 l 0.0452,-0.86783 -1.32696,-2.00242 c -0.72983,-1.10133 -1.32919,-2.00486 -1.3319,-2.00784 -0.003,-0.003 -0.28384,-0.0239 -0.62473,-0.0466 -0.3409,-0.0226 -0.62868,-0.0468 -0.63953,-0.0537 -0.0145,-0.009 0.20003,-1.41006 0.2196,-1.43384 0.006,-0.007 10.18467,-1.98925 10.25457,-1.99667 l 0.0696,-0.007 0.15871,1.01294 0.15871,1.01294 0.10521,0.10918 c 0.0579,0.06 0.59729,0.63007 1.19873,1.26672 l 1.09353,1.15755 0.22661,0.0175 c 0.12463,0.01 0.63438,0.0436 1.13278,0.0754 0.49839,0.0318 0.90854,0.0612 0.91145,0.0652 0.007,0.009 -0.17013,14.27854 -0.18017,14.54037 l -0.007,0.19363 z"
       id="Urbiztondo" />
    <path
       style="fill:#d7eef4;stroke:#002b22;stroke-width:0.0669226;stroke-linejoin:round"
       d="m 90.7711,171.89773 -0.935442,-0.77331 -6.242452,-10.63388 -6.242452,-10.63388 -0.259821,-1.35991 c -0.142901,-0.74795 -0.249179,-1.37055 -0.23617,-1.38356 0.01302,-0.013 0.353198,-0.0639 0.755978,-0.11303 l 0.732327,-0.0894 5.728767,-4.62415 5.728766,-4.62415 h 0.552749 0.552749 l 1.135213,-1.2643 1.135216,-1.2643 0.567947,-0.008 0.567946,-0.008 1.93484,-2.10914 1.934837,-2.10914 0.534368,0.0466 c 0.590828,0.0515 0.610587,0.0613 1.139667,0.56166 l 0.371247,0.3511 -0.13444,0.78798 c -0.0739,0.43339 -0.134448,0.83283 -0.134448,0.88765 0,0.0793 0.146608,0.10915 0.716228,0.14597 0.39393,0.0255 0.73219,0.0714 0.7517,0.10199 0.0195,0.0306 0.58877,0.88608 1.26503,1.901 l 1.22956,1.84531 -0.0456,0.96568 -0.0456,0.96568 0.21923,0.0333 c 0.12057,0.0183 0.48867,0.0489 0.81798,0.068 l 0.59876,0.0347 0.7952,0.7952 0.79519,0.79519 0.12283,1.12806 c 0.0676,0.62044 0.12432,1.13105 0.12614,1.1347 0.002,0.004 0.70372,0.65358 1.55978,1.44429 l 1.55645,1.43767 0.93002,0.21853 0.93001,0.21852 1.60609,1.43224 c 0.88335,0.78772 1.6061,1.46862 1.6061,1.51309 0,0.0445 -0.7807,1.03144 -1.73489,2.19327 l -1.73488,2.11241 -1.02134,0.11683 -1.02133,0.11683 v 2.22302 2.22301 l -0.75169,0.38375 c -0.41344,0.21106 -0.85976,0.45159 -0.99184,0.53451 -0.19425,0.12195 -0.68504,0.86735 -2.56877,3.90146 l -2.32862,3.7507 -0.3499,-0.0437 c -0.33485,-0.0418 -0.46045,-10e-4 -2.92192,0.94217 l -2.572033,0.98589 -0.648028,1.19555 c -0.356415,0.65756 -0.696947,1.25107 -0.756735,1.31891 -0.05979,0.0678 -0.679995,0.32231 -1.378238,0.56548 l -1.269529,0.44214 -0.868627,-0.002 -0.868625,-0.002 -0.935445,-0.7733 z"
       id="Mangatarem" />
    <path
       style="fill:#d7eef4;stroke:#002b22;stroke-width:0.0669226;stroke-linejoin:round"
       d="m 124.78857,149.51225 -0.66076,-0.37622 -4.03614,0.18472 c -2.21988,0.1016 -4.05198,0.16889 -4.07134,0.14954 -0.049,-0.049 0.12425,-14.666 0.17477,-14.74774 0.027,-0.0437 0.50582,-0.0405 1.40696,0.01 l 1.36598,0.0758 2.32076,-1.04767 2.32077,-1.04767 2.74065,1.4886 c 1.50736,0.81873 2.74065,1.50749 2.74065,1.53058 0,0.0231 -0.75226,0.72706 -1.67169,1.56439 -0.93148,0.8483 -1.68377,1.58451 -1.69897,1.66266 -0.0316,0.16275 -0.30869,6.65194 -0.30606,7.16899 0.002,0.31961 0.0295,0.38024 0.35319,0.7684 0.19329,0.23177 0.38925,0.47022 0.43547,0.52988 0.0726,0.0936 0.0218,0.15877 -0.37097,0.47611 l -0.45502,0.36764 0.0554,0.69299 c 0.0818,1.02202 0.1236,0.98631 -0.64369,0.54944 z"
       id="Bayambang" />
    <path
       style="fill:#d7eef4;stroke:#002b22;stroke-width:0.0669226;stroke-linejoin:round"
       d="m 126.54371,150.54215 -0.70968,-0.41822 -0.0486,-0.83522 -0.0486,-0.83522 0.31967,-0.26727 c 0.17581,-0.14699 0.40986,-0.34575 0.52011,-0.44167 l 0.20044,-0.1744 -0.12931,-0.17093 c -0.0711,-0.094 -0.30769,-0.38641 -0.52572,-0.64977 l -0.39641,-0.47884 0.15714,-3.62311 0.15713,-3.6231 1.46342,-1.33243 c 0.80489,-0.73283 1.58037,-1.43164 1.7233,-1.5529 l 0.25987,-0.22048 0.5205,0.26502 c 0.35799,0.18228 1.37366,0.52001 3.25301,1.0817 l 2.7325,0.81667 4.97157,-0.18411 c 2.73437,-0.10126 4.98915,-0.16652 5.01064,-0.14503 0.0493,0.0493 -2.49981,8.17399 -2.62991,8.38211 -0.14013,0.22417 -2.62723,3.41288 -2.69425,3.4543 -0.0496,0.0307 -11.69362,1.23076 -12.92938,1.33258 l -0.46773,0.0385 z"
       id="Bautista" />
    <path
       style="fill:#d7eef4;stroke:#002b22;stroke-width:0.0669226;stroke-linejoin:round"
       d="m 133.23355,136.90073 c -2.65513,-0.80101 -3.50757,-1.13069 -3.44039,-1.33056 0.0147,-0.0436 0.21192,-0.74074 0.43839,-1.54923 l 0.41176,-1.46998 0.71047,-0.97454 0.71047,-0.97454 1.92055,-0.0479 c 2.34601,-0.0585 6.27262,-0.0576 7.64435,0.002 l 1.01228,0.0438 0.48255,1.00917 0.48255,1.00916 0.2456,2.42213 0.24559,2.42213 -0.20362,0.001 c -0.112,5.3e-4 -1.75212,0.0604 -3.64472,0.13286 -1.89261,0.0725 -3.63654,0.12937 -3.87541,0.12644 -0.35375,-0.004 -0.93628,-0.15675 -3.14042,-0.82171 z"
       id="Alcala" />
    <path
       style="fill:#d7eef4;stroke:#002b22;stroke-width:0.0669226;stroke-linejoin:round"
       d="m 144.32475,137.39551 c 0.0761,-0.047 0.0521,-0.4531 -0.14509,-2.45046 l -0.2363,-2.39409 -0.47724,-1.02448 c -0.26248,-0.56346 -0.47723,-1.03611 -0.47723,-1.05034 0,-0.0142 0.2321,-0.18248 0.51578,-0.37391 l 0.51578,-0.34804 1.63271,-0.25805 1.6327,-0.25804 0.90067,-0.84922 c 0.78536,-0.7405 0.89541,-0.82356 0.85956,-0.64878 -0.20271,0.98842 -0.37772,2.3277 -0.37772,2.89059 0,0.99118 -0.0122,1.02416 -0.47128,1.27655 l -0.39262,0.21585 -0.36486,1.14937 c -0.20068,0.63216 -0.56652,1.79584 -0.81299,2.58596 -0.24647,0.79011 -0.46671,1.45541 -0.48942,1.47843 -0.0227,0.023 -0.46033,0.0583 -0.97248,0.0785 -0.51604,0.0203 -0.89051,0.0115 -0.83997,-0.0198 z"
       id="StoTomas" />
    <path
       style="fill:#d7eef4;stroke:#002b22;stroke-width:0.0669226;stroke-linejoin:round"
       d="m 139.10641,130.19569 -2.045,-0.0187 -0.0764,-0.46294 c -0.042,-0.25461 -0.0764,-0.49449 -0.0764,-0.53305 0,-0.0386 0.21139,-0.21069 0.46977,-0.3825 l 0.46977,-0.31237 0.91669,0.11439 c 0.50418,0.0629 0.99186,0.12885 1.08373,0.14652 l 0.16705,0.0321 -0.0183,-1.4884 c -0.0101,-0.81862 -0.0457,-1.56979 -0.079,-1.66928 -0.0334,-0.0995 -0.96475,-1.42652 -2.06969,-2.94895 l -2.009,-2.76807 v -0.3645 -0.3645 l 1.71468,-0.0441 c 0.94308,-0.0243 2.80018,-0.0441 4.12689,-0.0441 h 2.41221 l 3.75367,-0.49793 3.75368,-0.49793 1.96718,-0.53774 c 1.08194,-0.29576 1.99937,-0.53774 2.03871,-0.53774 0.0698,0 1.69655,1.37849 1.73329,1.46878 0.0102,0.025 -0.23036,0.11209 -0.53454,0.19346 -1.32728,0.35507 -1.21134,0.29008 -1.55102,0.86948 -0.16774,0.28612 -0.30498,0.53819 -0.30498,0.56017 0,0.022 0.36082,0.64024 0.80181,1.37392 0.441,0.73369 0.80181,1.36365 0.80181,1.39991 0,0.0363 -0.3418,0.37752 -0.75955,0.75836 l -0.75956,0.69242 -1.26167,0.42716 c -1.09692,0.37138 -1.47544,0.54127 -2.8987,1.30101 l -1.63702,0.87386 -0.8608,0.80373 c -1.40875,1.31536 -1.09177,1.15817 -2.92676,1.45136 l -1.59763,0.25526 -0.5956,0.40048 -0.5956,0.40048 -0.75426,-0.0157 c -0.41484,-0.009 -1.67451,-0.0241 -2.79926,-0.0344 z"
       id="Villasis" />
    <path
       style="fill:#d7eef4;stroke:#002b22;stroke-width:0.0669226;stroke-linejoin:round"
       d="m 153.18995,137.18245 c -0.63471,-1.29784 -1.66284,-3.40539 -2.28474,-4.68345 l -1.13072,-2.32374 -0.37302,-0.13601 -0.37302,-0.13601 0.21798,-1.34039 c 0.1199,-0.73722 0.2268,-1.34766 0.23757,-1.35653 0.0108,-0.009 0.71114,-0.38767 1.55638,-0.84178 1.31123,-0.70447 1.73406,-0.89463 2.8807,-1.29554 l 1.34389,-0.46989 0.82767,-0.75738 0.82767,-0.75738 0.66672,0.0435 c 0.36669,0.0239 0.66947,0.0492 0.67284,0.0561 0.003,0.007 0.62659,2.17747 1.38492,4.82344 l 1.37878,4.81086 1.3632,2.80633 c 0.74975,1.54348 1.35662,2.81469 1.34859,2.82492 -0.008,0.0102 -1.99571,0.24217 -4.41708,0.51542 -2.42137,0.27325 -4.53115,0.51491 -4.68841,0.53703 l -0.28591,0.0402 z"
       id="Rosales" />
    <path
       style="fill:#d7eef4;stroke:#002b22;stroke-width:0.0669226;stroke-linejoin:round"
       d="m 163.84363,137.84623 c -0.14214,-0.30318 -0.76823,-1.60361 -1.39133,-2.88985 l -1.1329,-2.33861 -1.32383,-4.6104 c -0.72811,-2.53572 -1.33848,-4.66467 -1.35638,-4.73101 -0.0296,-0.10962 0.0158,-0.11946 0.49712,-0.10785 l 0.52967,0.0128 1.7286,-1.35773 1.72859,-1.35773 1.50897,0.11744 c 0.82993,0.0646 1.61421,0.13272 1.74283,0.15138 0.21147,0.0307 0.30423,-0.0191 0.96885,-0.52065 0.69689,-0.52583 0.75751,-0.55711 1.16931,-0.60336 0.23887,-0.0268 0.80264,-0.0503 1.25282,-0.0522 l 0.81852,-0.003 5.3e-4,0.18375 c 2.6e-4,0.10106 0.16465,2.09305 0.36512,4.42665 l 0.3645,4.2429 1.12999,3.49598 1.12999,3.49598 -0.64388,-0.0456 -0.64388,-0.0456 -3.20655,1.45414 -3.20652,1.45414 -0.70158,0.0869 c -1.13438,0.14055 -1.03144,0.17603 -1.32863,-0.4579 z"
       id="Balungao" />
    <path
       style="fill:#d7eef4;stroke:#002b22;stroke-width:0.0669226;stroke-linejoin:round"
       d="m 158.20329,122.82121 c -0.69086,-0.0238 -1.2666,-0.0543 -1.27944,-0.0678 -0.0128,-0.0135 -0.37528,-0.61033 -0.80542,-1.32626 l -0.78207,-1.30167 0.1529,-0.27991 c 0.2888,-0.52866 0.29828,-0.53431 1.39764,-0.83233 0.56962,-0.15442 1.04146,-0.2844 1.04855,-0.28884 0.007,-0.004 -0.0318,-0.71011 -0.0864,-1.56814 -0.0546,-0.85803 -0.0904,-1.56801 -0.0797,-1.57774 0.0107,-0.01 0.80862,-0.41191 1.77302,-0.89375 l 1.75346,-0.87606 h 0.94548 0.94548 l 2.6679,-1.70384 c 1.46734,-0.93712 2.69509,-1.70385 2.72832,-1.70385 0.0561,0 10.0982,3.66336 10.127,3.69435 0.007,0.008 -1.78056,1.1603 -3.97274,2.56132 l -3.98579,2.54731 -1.3902,0.0436 -1.39019,0.0436 -0.74796,0.55833 -0.74796,0.55833 -1.43658,-0.12306 c -2.28292,-0.19555 -1.84362,-0.32873 -3.67495,1.11411 -0.86362,0.68041 -1.64538,1.2885 -1.73725,1.35131 -0.14894,0.10182 -0.30319,0.10951 -1.42313,0.071 z"
       id="StaMaria" />
    <path
       style="fill:#d7eef4;stroke:#002b22;stroke-width:0.0669226;stroke-linejoin:round"
       d="m 135.82531,118.3733 c -0.024,-0.36786 -0.26513,-1.14859 -1.25509,-4.06349 l -1.2254,-3.60814 -1.22809,-1.80407 -1.22809,-1.80407 0.28713,-0.023 c 0.15791,-0.0127 2.04609,0.0104 4.19594,0.0513 6.40096,0.12171 10.93574,0.21139 11.86008,0.23453 0.47775,0.012 1.46421,0.0254 2.19215,0.0298 l 1.32352,0.008 0.27197,0.59706 0.27195,0.59706 2.12928,1.49098 2.12926,1.49098 2.7e-4,2.54508 2.6e-4,2.54507 -2.01919,0.55109 -2.0192,0.55109 -3.67699,0.48796 -3.67698,0.48796 -4.1516,0.0451 -4.15159,0.0451 -0.0297,-0.45535 z"
       id="Urdaneta" />
    <path
       style="fill:#d7eef4;stroke:#002b22;stroke-width:0.0669226;stroke-linejoin:round"
       d="m 134.5699,106.78166 c -1.37811,-0.0312 -2.82258,-0.0489 -3.20993,-0.0394 l -0.70429,0.0172 -1.80137,-2.62817 c -0.99075,-1.44548 -1.81255,-2.65919 -1.82621,-2.69712 -0.0137,-0.0379 0.004,-0.088 0.0399,-0.11135 0.0356,-0.0233 1.39392,-1.68109 3.01851,-3.68394 1.62459,-2.00285 2.99364,-3.66916 3.04234,-3.70291 0.0607,-0.042 0.85378,0.25253 2.51876,0.93545 l 2.43024,0.9968 1.51513,0.0334 1.51512,0.0334 -1.14118,2.03793 c -0.62765,1.12086 -1.42556,2.48558 -1.77314,3.0327 l -0.63195,0.99478 0.17588,1.39892 c 0.14294,1.13689 0.20754,1.46138 0.34485,1.73235 0.0929,0.18339 0.31585,0.6472 0.49538,1.0307 l 0.32641,0.69726 -0.91438,-0.0107 c -0.50291,-0.006 -2.04192,-0.0362 -3.42003,-0.0673 z"
       id="Manaoag" />
    <path
       style="fill:#d7eef4;stroke:#002b22;stroke-width:0.0669226;stroke-linejoin:round"
       d="m 142.15367,106.92322 c -1.10249,-0.0245 -2.19457,-0.0488 -2.42686,-0.054 l -0.42233,-0.01 -0.5385,-1.11384 -0.53851,-1.11384 -0.15948,-1.25678 -0.15948,-1.25678 0.66136,-1.05377 c 0.36375,-0.57958 1.16385,-1.95581 1.778,-3.05829 0.61415,-1.10249 1.15143,-2.03765 1.19395,-2.07814 0.0425,-0.0405 0.36296,-0.10977 0.71208,-0.15396 0.34912,-0.0442 0.91395,-0.11924 1.25518,-0.16678 l 0.62043,-0.0864 1.4175,0.69106 c 0.77963,0.38008 1.40957,0.72255 1.39987,0.76105 -0.01,0.0385 -0.26276,0.40561 -0.56235,0.81582 l -0.5447,0.74584 -0.0677,1.25673 -0.0677,1.25672 0.35338,0.51697 0.35339,0.51698 0.25972,2.43883 c 0.14284,1.34136 0.25983,2.44635 0.25998,2.45554 5.3e-4,0.025 -2.5098,-0.003 -4.77718,-0.0534 z"
       id="Laoac" />
    <path
       style="fill:#d7eef4;stroke:#002b22;stroke-width:0.0669226;stroke-linejoin:round"
       d="m 147.44895,107.01227 c -0.10106,-0.0153 -0.18375,-0.039 -0.18375,-0.0526 0,-0.0136 -0.12011,-1.15086 -0.26691,-2.52721 l -0.26691,-2.50246 -0.34543,-0.50617 -0.34544,-0.50618 0.0638,-1.12155 0.0638,-1.12156 0.59866,-0.8239 c 0.59205,-0.81481 0.64911,-0.86925 5.16766,-4.9302 2.51296,-2.25846 4.57566,-4.09769 4.5838,-4.08717 0.008,0.0105 0.23363,0.3649 0.50111,0.78752 l 0.48633,0.7684 0.0511,5.17835 0.0511,5.17834 -0.97856,1.39889 -0.97856,1.39888 -2.40533,1.75824 -2.40532,1.75824 -1.60372,-0.01 c -0.88204,-0.006 -1.6864,-0.0225 -1.78746,-0.0378 z"
       id="Binalonan" />
    <path
       style="fill:#d7eef4;stroke:#002b22;stroke-width:0.0669226;stroke-linejoin:round"
       d="m 156.70316,117.43854 -0.81852,-0.70709 -10e-4,-2.6808 -0.001,-2.6808 -2.14631,-1.49896 -2.14631,-1.49894 -0.23108,-0.48658 c -0.12709,-0.26762 -0.21958,-0.52106 -0.20553,-0.5632 0.014,-0.0421 1.06158,-0.83381 2.32785,-1.75928 l 2.30232,-1.68266 0.93582,0.68092 0.93583,0.68091 2.23838,0.16719 c 2.15859,0.16124 2.28363,0.1637 3.50791,0.0691 l 1.26953,-0.0981 1.1359,-0.48906 1.13589,-0.48907 1.11229,-0.0839 1.1123,-0.0839 0.58961,-0.45438 c 0.32429,-0.24992 0.59645,-0.44757 0.60479,-0.43922 0.0482,0.0482 -1.94907,6.64541 -2.03966,6.73741 -0.0604,0.0613 -1.29309,0.86565 -2.73934,1.78736 l -2.62954,1.67585 h -0.96237 -0.96237 l -1.80359,0.90227 c -1.69696,0.84893 -1.8036,0.91302 -1.8036,1.084 0,0.0999 0.0329,0.6659 0.073,1.25767 0.0401,0.59178 0.0627,1.13993 0.0501,1.21811 -0.0197,0.12236 -0.13692,0.0436 -0.84138,-0.56492 z"
       id="Asingan" />
    <path
       style="fill:#d7eef4;stroke:#002b22;stroke-width:0.0669226;stroke-linejoin:round"
       d="m 159.80327,105.07835 -1.99471,-0.1597 -0.89152,-0.64732 c -0.54401,-0.39499 -0.87103,-0.67434 -0.83895,-0.71663 0.0289,-0.0381 0.4598,-0.65563 0.95752,-1.37224 l 0.90495,-1.30294 -0.0522,-5.31198 -0.0522,-5.31199 -0.56774,-0.90203 -0.56774,-0.90203 -0.16726,-6.1138 c -0.092,-3.36258 -0.16043,-6.12122 -0.15209,-6.1303 0.008,-0.009 0.25986,0.0895 0.55892,0.21912 l 0.54376,0.23564 4.46217,-0.25404 4.46217,-0.25404 0.0464,0.50264 c 0.0255,0.27645 0.12681,2.47208 0.22505,4.87918 l 0.17861,4.37653 1.7029,4.40878 1.70291,4.40877 0.12475,3.44227 c 0.0686,1.89325 0.12562,3.69894 0.12668,4.01266 l 0.002,0.57039 -0.31738,0.23945 c -0.17456,0.13171 -0.51282,0.39116 -0.7517,0.57658 l -0.43431,0.33711 -1.06908,0.0803 -1.06908,0.0803 -1.17389,0.49457 -1.1739,0.49457 -1.23153,0.0975 c -0.67734,0.0537 -1.29166,0.0941 -1.36516,0.0899 -0.0735,-0.004 -1.03125,-0.0795 -2.12834,-0.16733 z"
       id="SanManuel" />
    <path
       style="fill:#d7eef4;stroke:#002b22;stroke-width:0.0669226;stroke-linejoin:round"
       d="m 145.76181,95.92792 c -0.80849,-0.39592 -1.54546,-0.72167 -1.6377,-0.72387 -0.0922,-0.002 -0.6936,0.0708 -1.33635,0.16214 -0.9977,0.14184 -1.41838,0.16628 -2.87613,0.16704 l -1.7075,7.9e-4 -2.43517,-0.99175 -2.43518,-0.99176 -0.0334,-1.0958 -0.0334,-1.09581 -1.03567,-0.56267 -1.03567,-0.56266 0.049,-3.29928 0.049,-3.29928 0.48166,-0.63089 c 0.41849,-0.54814 0.5216,-0.64365 0.78624,-0.72827 0.16753,-0.0536 1.08058,-0.32612 2.02899,-0.60567 l 1.7244,-0.50826 1.61798,0.60215 1.61798,0.60216 1.93619,0.16874 c 1.06491,0.0928 2.32708,0.20232 2.80483,0.24336 l 0.86862,0.0746 0.99572,-0.47531 0.99572,-0.47531 1.76224,0.0913 c 0.96924,0.0502 1.78101,0.11007 1.80395,0.13302 0.0229,0.0229 0.57458,1.97405 1.22585,4.33581 0.65128,2.36176 1.21508,4.40487 1.25288,4.54024 l 0.0687,0.24612 -2.78301,2.4979 c -1.53066,1.37384 -2.88825,2.58859 -3.01688,2.69943 l -0.23386,0.20153 z"
       id="Pozorrubio" />
    <path
       style="fill:#d7eef4;stroke:#002b22;stroke-width:0.0669226;stroke-linejoin:round"
       d="m 153.51849,90.87453 c -0.0204,-0.0648 -0.59018,-2.12621 -1.26615,-4.58087 -0.67596,-2.45467 -1.24224,-4.47624 -1.2584,-4.4924 -0.0162,-0.0161 -0.90898,-0.0758 -1.98407,-0.13248 l -1.95471,-0.10312 -0.99806,0.47392 -0.99807,0.4739 -2.6888,-0.23305 -2.6888,-0.23305 -1.63167,-0.60654 c -0.89741,-0.3336 -1.67918,-0.60625 -1.73725,-0.60589 -0.0581,2.6e-4 -1.04412,0.27904 -2.19121,0.6193 l -2.08563,0.61867 -0.41898,0.56163 c -0.418,0.56032 -0.4191,0.56118 -0.47106,0.36625 -0.0286,-0.10746 -0.3976,-2.17986 -0.81988,-4.60533 -0.42229,-2.42547 -0.78416,-4.48116 -0.80415,-4.56821 l -0.0363,-0.15825 3.05516,0.0246 3.05517,0.0246 1.12659,-2.73635 c 0.61963,-1.505 1.13981,-2.74958 1.15597,-2.76574 0.0162,-0.0162 0.62395,0.2275 1.35064,0.54146 0.7267,0.31395 4.14764,1.79427 7.6021,3.2896 3.45446,1.49533 6.91226,2.99163 7.684,3.32511 0.77174,0.33348 1.42843,0.62814 1.45931,0.65481 0.0488,0.0421 0.37372,10.35114 0.37473,11.88981 l 5.3e-4,0.56795 -0.68335,0.60849 c -0.37584,0.33468 -1.00442,0.89886 -1.39684,1.25374 -0.57535,0.52031 -0.72069,0.62243 -0.75062,0.5274 z"
       id="Sison" />
    <path
       style="fill:#d7eef4;stroke:#002b22;stroke-width:0.0669226;stroke-linejoin:round"
       d="m 170.85053,102.16575 c -5.3e-4,-0.24806 -0.059,-2.04725 -0.12961,-3.9982 l -0.12841,-3.54719 -1.70168,-4.40408 -1.70168,-4.40408 -0.20693,-4.8384 c -0.11381,-2.66112 -0.19529,-4.85004 -0.18105,-4.86428 0.0564,-0.0564 7.36676,-2.36882 7.49166,-2.36976 0.0735,-5.3e-4 2.92994,1.02604 6.34765,2.28131 3.41771,1.25528 7.25136,2.66114 8.51922,3.12415 1.26786,0.46301 2.33868,0.87461 2.37961,0.91467 0.0409,0.0401 1.11585,2.53469 2.38872,5.54363 l 2.31431,5.4708 v 0.9578 0.95779 l -0.25056,0.0667 c -0.13782,0.0367 -1.05852,0.27671 -2.04601,0.53341 l -1.79544,0.46672 -0.30931,0.33957 c -0.17012,0.18677 -1.061,1.15085 -1.97974,2.14239 l -1.67043,1.80281 -1.06908,-0.0412 -1.06908,-0.0412 -3.82511,2.0871 -3.82511,2.08709 -2.99026,0.0886 c -1.64465,0.0488 -3.34356,0.09 -3.77537,0.0917 l -0.7851,0.003 -0.001,-0.45102 z"
       id="SanNicolas" />
    <path
       style="fill:#d7eef4;stroke:#002b22;stroke-width:0.0669226;stroke-linejoin:round"
       d="m 181.85391,110.08361 c -0.0897,-0.11943 -0.82791,-1.13228 -1.64042,-2.25077 l -1.4773,-2.03361 -0.007,-0.43863 c -0.004,-0.24125 -0.0265,-0.93691 -0.0501,-1.54592 l -0.043,-1.10728 3.77518,-2.05937 3.77519,-2.05937 1.06226,0.0597 1.06227,0.0596 2.03594,-2.18827 c 1.11977,-1.20355 2.05493,-2.18885 2.07815,-2.18958 0.0232,-7.9e-4 0.89854,-0.22432 1.94516,-0.4969 1.04662,-0.27258 1.90993,-0.48862 1.91845,-0.4801 0.009,0.009 0.16665,0.57852 0.35137,1.26666 l 0.33587,1.25114 2.40459,2.58387 c 1.32252,1.42112 2.39252,2.59593 2.37777,2.61068 -0.0147,0.0147 -2.00603,0.99592 -4.42505,2.18038 l -4.39823,2.15356 -4.40657,1.65881 -4.40658,1.65881 -1.01905,0.79188 c -0.56048,0.43553 -1.03404,0.79188 -1.05235,0.79188 -0.0183,0 -0.1067,-0.0977 -0.19642,-0.21716 z"
       id="Natividad" />
    <path
       style="fill:#d7eef4;stroke:#002b22;stroke-width:0.0669226;stroke-linejoin:round"
       d="m 173.8982,111.96466 c -2.78951,-1.02461 -5.08576,-1.87685 -5.10277,-1.89386 -0.03,-0.03 1.98461,-6.93984 2.05485,-7.04809 0.0192,-0.0296 1.43302,-0.0881 3.14187,-0.1301 1.70886,-0.042 3.38514,-0.094 3.72507,-0.11552 l 0.61806,-0.0392 0.007,0.79134 c 0.004,0.43524 0.0263,1.16719 0.0503,1.62656 l 0.0436,0.83522 1.62217,2.22779 c 0.89219,1.22529 1.62877,2.25768 1.63683,2.29421 0.008,0.0365 -0.29998,0.313 -0.68455,0.61437 l -0.69922,0.54794 -0.6209,1.06666 c -0.3415,0.58666 -0.64324,1.07092 -0.67054,1.07612 -0.0273,0.005 -2.33196,-0.82887 -5.12148,-1.85348 z"
       id="Tayug" />
    <path
       style="fill:#d7eef4;stroke:#002b22;stroke-width:0.0669226;stroke-linejoin:round"
       d="m 171.54745,119.13737 c 0.0274,-0.0276 1.76882,-1.15033 3.86984,-2.49505 l 3.82003,-2.44493 0.6728,-1.1443 0.67281,-1.1443 1.87989,-1.45548 1.8799,-1.45548 4.26267,-1.59657 4.26267,-1.59658 4.10927,-2.00138 c 2.2601,-1.10076 4.32263,-2.11238 4.5834,-2.24803 l 0.47413,-0.24665 0.61821,0.66079 0.61822,0.6608 -0.0389,0.57793 c -0.0214,0.31786 -0.089,2.57744 -0.15039,5.02129 -0.0613,2.44385 -0.11446,4.44669 -0.11804,4.45077 -0.004,0.004 -3.68999,1.38031 -8.19201,3.0583 l -8.1855,3.05087 -0.86826,0.0355 c -0.6869,0.0281 -13.71208,0.36264 -14.11766,0.36264 -0.0566,0 -0.0805,-0.0225 -0.0531,-0.0501 z"
       id="SanQuintin" />
    <path
       style="fill:#d7eef4;stroke:#002b22;stroke-width:0.0669226;stroke-linejoin:round"
       d="m 183.50204,142.74537 -1.52521,-2.1334 -2.96599,-2.46764 -2.96598,-2.46764 -1.04627,-0.10555 -1.04627,-0.10555 -1.15843,-3.59967 -1.15842,-3.59967 -0.3567,-4.15519 c -0.19619,-2.28535 -0.3575,-4.24843 -0.35846,-4.3624 l -0.002,-0.20722 1.58692,-0.044 c 0.8728,-0.0242 2.77459,-0.0743 4.22619,-0.11134 1.45161,-0.037 4.2803,-0.11022 6.28597,-0.16266 l 3.64667,-0.0953 8.07285,-3.01049 c 4.44007,-1.65577 8.09852,-3.01049 8.12989,-3.01049 0.0314,0 0.057,0.3549 0.057,0.78867 v 0.78868 l -0.69416,1.90072 -0.69416,1.90073 -0.0824,1.9377 c -0.0596,1.40166 -0.10663,1.96543 -0.16991,2.03793 -0.0481,0.0551 -1.57307,1.37748 -3.3888,2.93857 l -3.30133,2.83834 -0.0865,2.3386 -0.0865,2.33861 -1.3938,1.98456 -1.39381,1.98456 -0.35066,1.89826 -0.35065,1.89827 -1.47115,0.81583 -1.47115,0.81583 -1.00162,1.25963 -1.00162,1.25962 -0.47931,0.0233 -0.4793,0.0233 z"
       id="Umingan" />
    <path
       style="fill:#d7eef4;stroke:#002b22;stroke-width:0.0167307;stroke-linejoin:round"
       d="m 96.506963,112.5432 c -0.259115,-0.61561 -0.47112,-1.12391 -0.47112,-1.12956 0,-0.006 0.238622,-0.0103 0.530273,-0.0103 h 0.530272 l 0.561057,-0.56087 0.561057,-0.56088 0.689306,0.0693 c 0.379118,0.0381 0.693777,0.0648 0.699241,0.0593 0.0055,-0.005 0.04091,-0.2579 0.07877,-0.56097 0.03786,-0.30307 0.07588,-0.55794 0.08449,-0.56637 0.0086,-0.008 0.218615,-0.14035 0.466671,-0.29314 0.24806,-0.15279 0.44929,-0.28442 0.44717,-0.29251 -0.004,-0.0145 -0.815164,-1.19959 -0.837236,-1.22292 -0.0062,-0.007 -0.39814,-0.0604 -0.870982,-0.1196 l -0.859716,-0.10769 -0.284316,0.20554 c -0.156374,0.11305 -0.625961,0.45415 -1.04353,0.75799 -0.417565,0.30384 -0.760436,0.55081 -0.761931,0.54882 -0.01095,-0.0146 -2.599835,-8.58338 -2.594702,-8.58804 0.0036,-0.003 1.012531,-0.44773 2.242029,-0.98764 2.180621,-0.95758 2.236181,-0.98089 2.265185,-0.94996 0.01635,0.0174 1.333764,1.63295 2.927579,3.59004 l 2.89784,3.55835 0.26128,3.29838 c 0.14371,1.81411 0.25581,3.30385 0.24913,3.31054 -0.0182,0.0182 -1.97772,1.0857 -1.98184,1.07965 -0.002,-0.003 -0.096,-0.20441 -0.20893,-0.44788 -0.11295,-0.24347 -0.21192,-0.44968 -0.21993,-0.45825 -0.0136,-0.0146 -2.306062,-0.66584 -2.311856,-0.65677 -0.0016,0.002 -0.123862,0.2126 -0.271984,0.46734 l -0.269314,0.46316 0.06018,0.51064 c 0.03541,0.3005 0.05397,0.51608 0.04508,0.52386 -0.0083,0.007 -0.451083,0.0488 -0.983951,0.0923 -0.532868,0.0435 -1.010544,0.0832 -1.061503,0.0883 l -0.09265,0.009 z"
       id="Binmaley" />
  </g>
</svg>
