<?xml version="1.0" encoding="UTF-8" standalone="no"?>
<!-- Created with Inkscape (http://www.inkscape.org/) -->

<svg
   version="1.1"
   id="svg1099"
   width="480"
   height="435"
   viewBox="0 0 480 435"
   sodipodi:docname="PHL_pangasinan_manaoag_labs.svg"
   inkscape:version="1.2.2 (732a01da63, 2022-12-09)"
   xmlns:inkscape="http://www.inkscape.org/namespaces/inkscape"
   xmlns:sodipodi="http://sodipodi.sourceforge.net/DTD/sodipodi-0.dtd"
   xmlns="http://www.w3.org/2000/svg"
   xmlns:svg="http://www.w3.org/2000/svg">
  <defs
     id="defs1103">
    <inkscape:path-effect
       effect="bspline"
       id="path-effect16236"
       is_visible="true"
       lpeversion="1"
       weight="33.333333"
       steps="2"
       helper_size="0"
       apply_no_weight="true"
       apply_with_weight="true"
       only_selected="false" />
  </defs>
  <sodipodi:namedview
     id="namedview1101"
     pagecolor="#ffffff"
     bordercolor="#000000"
     borderopacity="0.25"
     inkscape:showpageshadow="2"
     inkscape:pageopacity="0.0"
     inkscape:pagecheckerboard="0"
     inkscape:deskcolor="#d1d1d1"
     showgrid="false"
     inkscape:zoom="1.4142136"
     inkscape:cx="331.27953"
     inkscape:cy="87.681241"
     inkscape:window-width="1920"
     inkscape:window-height="1017"
     inkscape:window-x="1358"
     inkscape:window-y="-8"
     inkscape:window-maximized="1"
     inkscape:current-layer="g1105"
     inkscape:lockguides="true"
     showguides="true" />
  <g
     inkscape:groupmode="layer"
     inkscape:label="Image"
     id="g1105">
    <path
       style="opacity:1;fill:none;fill-opacity:1;stroke:#000000;stroke-width:1;stroke-dasharray:none;stroke-opacity:1"
       d="m 444.81286,405.0625 -1.25,1.4375 c -1.25,1.4375 -1.1875,1.6875 -2.3125,3.6875 -1.125,2 -2.25,2.1875 -2.25,2.1875 l -14.6875,5.5 c 0,0 -13.875,4.3125 -19.9375,5.0625 -6.0625,0.75 -13.9375,-1.625 -13.9375,-1.625 0,0 -14.875,-4.9375 -17.1875,-5.875 -2.3125,-0.9375 -5.6875,1.875 -9.625,2.0625 -3.9375,0.1875 -20,-4.375 -23.5,-5.125 -3.5,-0.75 -8.0625,-4.3125 -8.0625,-4.3125 l -10.4375,-0.3125 c 0,0 -4.6875,0.4375 -5.9375,1.4375 -1.25,1 -5.6875,0.625 -5.6875,0.625 l -29.9375,2.4375 -7.625,2.375 -6.6875,-2.75 -17.7734,4.05936 -7.8516,7.56564 -4.0625,-5.4375 -3.125,-2.9375 -1.25,-4.5625 -5.1875,-6.0625 -6.75,-8.625 -9.0625,-10.125 -10,-13.5625 -7.1875,-7.4375 -4.125,-6.625 -8.75,-9.875 -8.375,-5.875 -2.625,-3.5 c 0,0 2.875,-6.625 2.75,-10 -0.125,-3.375 -5.25,-6.875 -5.25,-6.875 l -2.5,-5.625 -20.125,-20.75 -5.625,-10.125 -9.25,-3.75 -3,-11.625 -9,-5.625 -8.5,0.125 c 0,0 -3.25,-4.375 -6.375,-8.875 -3.124998,-4.5 -4.305428,-11.74791 -4.305428,-11.74791 l -5.65686,-1.41421 c 0,0 -2.47487,2.12132 -7.77817,1.06066 -5.3033,-1.06066 -8.13173,-5.3033 -8.13173,-5.3033 l -9.89949,2.82842 c 0,0 -2.47488,-6.0104 -6.71752,-8.48528 -4.24264,-2.47487 -22.62742,-4.94974 -22.62742,-4.94974 l -10.6066,-7.07107 -8.83883,-16.26346 27.372048,-36.49022 4.094202,-2.7542 7.77817,-7.42463 26.51651,-18.73833 12.83147,-10.87436 21.109648,-19.53123 50.16169,-48.954578 49.89392,-38.726659 c 0,0 55.86144,11.667261 65.2306,13.435028 9.36917,1.767767 45.25484,9.369165 56.74532,10.783379 11.49049,1.414213 47.37616,1.944543 55.68466,-1.06066 8.30851,-3.005204 8.48528,-3.005204 8.48528,-3.005204 l -20.13998,66.684024 c 0,0 -2.47939,-4.35256 -4.69714,-3.1328 -1.76777,0.97227 -6.14299,6.8059 -6.14299,6.8059 l -5.3475,6.8501 c 0,0 -4.5078,5.48007 -5.78944,6.85009 -1.0149,1.0849 -5.12652,5.3475 -5.12652,5.3475 l -32.52691,-6.89429 c 0,0 -9.54594,23.06936 -8.04334,28.28427 1.5026,5.21491 6.28412,18.22125 10.51821,19.53382 4.41943,1.37002 4.24264,1.72358 4.24264,1.72358 l -0.26516,6.76171 c 0,0 -51.83977,17.63347 -52.41429,19.00349 -0.57452,1.37002 -3.0052,13.43503 -4.33103,14.98183 -1.32582,1.54679 -4.78055,3.86541 -4.78055,3.86541 l -0.8763,30.73862 20.55029,2.69585 c 0,0 -5.25911,21.2574 -0.48614,28.0191 4.77297,6.76171 8.66206,11.09274 11.18113,11.88824 l 0.0803,0.0259 c 0,0 -3.92516,3.73062 -5.03001,7.39874 -1.10485,3.66811 0.66291,5.43588 0.66291,5.43588 l 2.25391,2.16552 -2.65165,4.37522 c 0,0 -3.22829,0.84939 -3.64667,1.97671 -0.58275,1.57024 0.65536,4.81942 2.33064,6.03538 1.73874,1.26202 7.81257,4.45067 16.25366,3.16903 8.44108,-1.28163 12.55114,-4.90555 12.55114,-4.90555 0,0 0.39774,-0.0442 1.5026,-2.87262 1.10485,-2.82843 3.53554,-10.42982 3.53554,-10.42982 l 7.46881,-1.63519 10.91596,0.26517 c 0,0 2.2981,3.7565 6.80591,1.63518 4.5078,-2.12132 5.08233,-2.60746 5.08233,-2.60746 0,0 0.88388,-0.57452 1.19324,-2.51906 0.30936,-1.94455 2.16551,-3.00521 2.16551,-3.00521 0,0 4.06587,-1.98874 8.13173,-2.12132 4.06587,-0.13258 40.52606,4.86136 40.52606,4.86136 l 21.78773,3.71231 -3.62393,8.39689 -0.13258,12.1976 c 0,0 -0.15455,21.25145 0.78295,22.31395 0.9375,1.0625 0.75,11.5625 0.75,11.5625 l 0.5625,19.0625 c 0,0 2.3125,9.0625 9.125,10.0625 6.8125,1 19.4375,2.4375 19.4375,2.4375 0,0 0.3125,1.875 2.0625,3.4375 1.75,1.5625 3.25,3.875 3.25,3.875 z"
       id="path20295"
       sodipodi:nodetypes="cssccscsssccsccccccccccccccccccsccccccccsccsccscccccccccccsssccsccsccssccsscccsccscccssscscccscscsccccsccscscc" />
    <path
       style="opacity:1;fill:none;fill-opacity:1;stroke:#000000;stroke-width:1;stroke-dasharray:none;stroke-opacity:1"
       d="m 168.50036,59 c 0,0 5,15.5 4,22.75 -1,7.25 -3.75,41.5 -3.75,41.5 0,0 -2,6.75 1.5,11.75 3.5,5 8.25,7 7,14.75 -1.25,7.75 -18.03726,25.91161 -20.28726,30.41161 -2.25,4.5 -5,12.25 -5,12.25 L 152.25036,204 c 0,0 2.75,0 4.75,6 2,6 3,24 3,24 l 15,-1.25 8.25,5 h 4.5 l 1.5,18.25 9.71875,42.1875 18.84018,2.81099 c 0,0 4.44107,0.75151 6.44107,2.75151 2,2 9.75,12.75 10.25,15 0.5,2.25 2.25,16.75 2.25,16.75 0,0 5.75,-0.25 7.5,1.5 1.75,1.75 2.5,6 4,5.5 1.5,-0.5 13,3 15.75,5.25 2.75,2.25 6.75,6 6.75,6 l 2.75,0.5 7.875,9.25 c 0,0.0996 2.61706,2.3507 5.375,7.375 2.37548,4.32754 3,5.875 3,5.875 l 3,-2.75 14.75,9.5 c 0,0 5.75,3 8,3.75 2.25,0.75 8.96875,5.23438 8.96875,5.23438 0,0 6.78125,6.51562 7.03125,10.51562 0.25,4 0.40625,5.10937 0.40625,5.10937"
       id="path25108"
       sodipodi:nodetypes="cscsssccscccccccsscssscccscccscsc" />
    <path
       style="opacity:1;fill:none;fill-opacity:1;stroke:#000000;stroke-width:1;stroke-dasharray:none;stroke-opacity:1"
       d="m 377.75924,105.64017 c 0,0 -63.75888,-11.76517 -68.13388,-19.51517 -4.375,-7.75 -25.75,-50.25 -25.75,-50.25 l -5.25,52.25 -9.07277,12.96385 55.07277,22.78615 -3.5,7.75 -13.125,-0.625 c 0,0 -47.375,33.375 -49.5,35.125 -2.125,1.75 -10.75,-0.5 -10.75,-0.5 0,0 -2.625,8.75 -0.75,17.125 1.875,8.375 4,13 4,13 0,0 14.11321,-0.33513 19.125,1.125 l 3.96875,1.15625 c 0,0 0.12225,0.11808 2.25,0.34375 2.0625,0.21875 2.40625,0.25 2.40625,0.25"
       id="path25836"
       sodipodi:nodetypes="csccccccscscscsc" />
    <path
       style="opacity:1;fill:none;fill-opacity:1;stroke:#000000;stroke-width:1;stroke-dasharray:none;stroke-opacity:1"
       d="M 269.28207,101.46339 242.25036,155.75 c 0,0 0.5,2.5 2.625,4.375 2.125,1.875 2.75,5.875 2.75,5.875"
       id="path25838"
       sodipodi:nodetypes="ccsc" />
    <path
       style="opacity:1;fill:none;fill-opacity:1;stroke:#000000;stroke-width:1;stroke-dasharray:none;stroke-opacity:1"
       d="m 242.37536,156.125 c 0,0 -6.125,-7 -8.375,-6.125 -2.25,0.875 -3.125,6.375 -3.125,6.375 0,0 -13.625,-9.375 -14.25,-7.875 -0.625,1.5 -0.625,3.125 -0.625,3.125 l 10,17.875 -2.75,33.375 27.9375,-7.25 -27.9375,6.875 -3.25,15.125 c 0,0 8.75,6 12.75,5 4,-1 4.7279,-1.20786 4.7279,-1.20786 l 0.6471,-0.16714 c 0,0 11.875,-3.125 19.125,-2.875 7.25,0.25 8.25,0.375 8.25,0.375 l 3.5,-0.875"
       id="path25842"
       sodipodi:nodetypes="cscsccccccsccscc" />
    <path
       style="opacity:1;fill:none;fill-opacity:1;stroke:#000000;stroke-width:1;stroke-dasharray:none;stroke-opacity:1"
       d="m 219.81286,217.51563 c 0,0 -3.0625,-3.625 -6.9375,-3.75 -3.875,-0.125 -5.75,2.85937 -5.75,2.85937 0,0 -4.125,2 -3.625,3.125 0.5,1.125 -8,8.125 -7.875,9.375 0.125,1.25 -8,8.75 -8,8.75 l 1.5,16.125 c 0,0 4.75,-4.375 8.875,-4.5 4.125,-0.125 7.75,-0.875 9.125,-1.625 1.375,-0.75 -0.625,0.375 1.5,-0.875 2.125,-1.25 14,-8.5 14,-8.5 l 3.125,4.5 -1.875,5.625 c 0,0 2.75,-1 6.5,-0.625 3.75,0.375 10.75,0.625 14,0.125 3.25,-0.5 24,-2.625 24,-2.625"
       id="path25844"
       sodipodi:nodetypes="cscssccssscccssc" />
    <path
       style="opacity:1;fill:none;fill-opacity:1;stroke:#000000;stroke-width:1;stroke-dasharray:none;stroke-opacity:1"
       d="m 295.00036,298.625 c 0,0 -13.375,0.25 -19.125,-0.875 -5.75,-1.125 -17.625,2.25 -17.625,2.25 l -19.6875,0 c 0,0 -2.9375,-0.125 -3.1875,-4.625 -0.25,-4.5 -2,-6.375 -2,-6.375 0,0 -4.375,-1.875 -5.75,-0.75 -1.375,1.125 -9.5,12.875 -9.5,12.875 l -3.625,12.25 19.875,38.875 -7,10 4.25,8.125 c 0,0 20.75,-6.25 27.875,-6.125 l 6.96875,0.125 -18.57165,51.41161 -1.71562,1.87879"
       id="path25846"
       sodipodi:nodetypes="csccscscccccsccc" />
    <path
       style="opacity:1;fill:none;fill-opacity:1;stroke:#000000;stroke-width:1;stroke-dasharray:none;stroke-opacity:1"
       d="m 167.12536,321.875 c 0,0 -1.625,-5.125 3,-7.875 4.625,-2.75 4.25,-2.75 4.875,-3 0.625,-0.25 3.5,0.5 3.5,0.5 l 9.625,-9.25 10.57813,-4 5.4506,0.56976 14.09627,2.18024 -4.25,13.25 -20.5,50.5"
       id="path25848"
       sodipodi:nodetypes="cssccccccc" />
    <path
       style="opacity:1;fill:none;fill-opacity:1;stroke:#000000;stroke-width:1;stroke-dasharray:none;stroke-opacity:1"
       d="m 243.75036,336.25 -9.11696,15.67279 -7.42991,10.51471 4.42187,7.9375 -20.625,14.625 -0.375,0.375"
       id="path25850"
       sodipodi:nodetypes="cccccc" />
    <path
       style="opacity:1;fill:none;fill-opacity:1;stroke:#000000;stroke-width:1;stroke-dasharray:none;stroke-opacity:1"
       d="m 266.34411,364.76562 c 0,0 4.78125,-14.39062 10.03125,-20.89062 5.25,-6.5 16.9375,-25.5625 16.9375,-25.5625 0,0 2.09375,1.90625 6.21875,2.78125 4.125,0.875 5.1875,0.875 5.1875,0.875 l 4.53125,0.0312 55.88388,33.13388"
       id="path25852"
       sodipodi:nodetypes="cscsccc" />
    <path
       style="opacity:1;fill:none;fill-opacity:1;stroke:#000000;stroke-width:1;stroke-dasharray:none;stroke-opacity:1"
       d="M 324.85974,392.67188 371.12536,349.5 l 23.25,-18.25 35,25.5"
       id="path25854"
       sodipodi:nodetypes="cccc" />
    <path
       style="opacity:1;fill:none;fill-opacity:1;stroke:#000000;stroke-width:1;stroke-dasharray:none;stroke-opacity:1"
       d="m 216.0961,151.8086 c 0,0 -3.6302,-4.14981 -5.75152,-2.91237 -2.12132,1.23744 -5.48008,7.24784 -5.48008,7.24784 l -4.5962,5.65686 c 0,0 -2.82842,4.24264 -4.77297,4.41942 -1.94454,0.17677 -4.24264,3.71231 -4.24264,3.71231 0,0 -5.12652,1.23743 -5.48007,2.65165 -0.35356,1.41421 -3.35876,8.66205 -3.35876,8.66205 0,0 -0.53033,1.59099 -2.2981,2.82843 -1.76777,1.23744 -10.07627,3.53554 -10.07627,3.53554 0,0 -8.83884,0.88388 -13.08148,3.0052 l -4.94974,2.47487 -0.2328,10.91139 -11.08091,0.40232 c 0,0 -10.96016,-8.13173 -16.26346,-9.89949 -5.3033,-1.76777 -9.72272,-3.71231 -9.72272,-3.71231 0,0 -9.01561,4.59619 -12.19759,4.06586 -3.181978,-0.53033 -10.960148,-3.0052 -10.960148,-3.0052 l -12.37437,-9.8995 0.53033,-9.36916 c 0,0 -2.47488,-5.3033 -7.95495,-6.36396 -5.48008,-1.06066 -22.27387,-1.06066 -22.27387,-1.06066"
       id="path25856"
       sodipodi:nodetypes="csccscscscscccscscccsc" />
    <path
       style="opacity:1;fill:none;fill-opacity:1;stroke:#000000;stroke-width:1;stroke-dasharray:none;stroke-opacity:1"
       d="m 46.472582,167.10423 -0.30178,5.07475 c 0,0 9.67094,1.46599 12.14582,5.53185 2.47487,4.06586 4.41942,7.24785 4.77297,11.13693 0.35355,3.88909 1.76777,12.9047 1.76777,12.9047 l 10.25304,2.12132 1.23744,-17.84954 2.813725,-3.91053 -0.03152,-0.18455 -2.958985,3.73662 -1.06066,18.03122 c 0,0 3.35876,1.76777 3.88909,6.36397 0.53033,4.59619 -2.65165,13.25825 -4.41942,13.78858 -1.76776,0.53033 -5.12652,0.53033 -6.54073,2.82843 -1.41422,2.29809 -4.94975,8.48528 -4.94975,8.48528"
       id="path25858"
       sodipodi:nodetypes="ccsscccccccsssc" />
    <path
       style="opacity:1;fill:none;fill-opacity:1;stroke:#000000;stroke-width:1;stroke-dasharray:none;stroke-opacity:1"
       d="m 159.96322,233.92582 -53.91689,26.5165"
       id="path25860" />
    <path
       style="opacity:1;fill:none;fill-opacity:1;stroke:#000000;stroke-width:1.00115;stroke-dasharray:none;stroke-opacity:1"
       d="m 175.87312,233.39549 -0.53033,77.78175"
       id="path25862"
       sodipodi:nodetypes="cc" />
    <path
       style="opacity:1;fill:#d7eef4;fill-opacity:1;stroke:none;stroke-width:1;stroke-dasharray:none;stroke-opacity:1"
       d="m 283.8125,35 c 0,0 25.06176,49.357937 26.72411,51.510723 C 314.38994,91.500891 357.25,101.25 357.25,101.25 l 20.60616,3.83839 0.74775,-0.61965 c 0,0 0.44813,-0.58789 1.41865,-0.56694 1.66875,0.036 3.72487,2.60248 3.72487,2.60248 l 8.75305,-28.64487 8.78706,-29.672596 2.07398,-6.413897 c 0,0 -6.64061,2.608757 -8.63249,3.14981 -1.65617,0.449865 -13.61364,1.450825 -15.4698,1.450825 -1.85615,0 -15.51529,0.291054 -15.51529,0.291054 l -17.89734,-0.379442 -6.65057,-0.832107 -8.729,-1.299937 -10.12361,-1.93382 -7.96384,-1.429379 -16.40362,-3.520368 z"
       id="Lipit_Norte"
       sodipodi:nodetypes="cscccsccccsscccccccc"
       inkscape:highlight-color="#3b80ee"
       inkscape:label="Lipit Norte" />
    <path
       style="opacity:1;fill:#d7eef4;fill-opacity:1;stroke:none;stroke-width:1;stroke-dasharray:none;stroke-opacity:1"
       d="m 284,37.125 -5.25,51.5 -8.60983,12.47097 c 18.6874,7.6229 33.1977,13.63254 53.66031,21.90273 l 33.11871,6.97855 9.96967,-11.15403 6.39775,-8.39016 3.80048,-4.59467 -5.05546,-0.70451 -22.64905,-4.90533 c -12.50252,-2.932696 -17.03076,-4.141822 -26.54051,-6.941938 -4.13544,-1.366413 -6.84017,-2.549335 -10.76755,-4.368719 L 309.4558,86.972271 293.375,55.875 Z"
       id="Lipit_Sur"
       sodipodi:nodetypes="ccccccccccccccc"
       inkscape:highlight-color="#3b80ee"
       inkscape:label="Lipit Sur" />
    <path
       style="opacity:1;fill:#d7eef4;fill-opacity:1;stroke:none;stroke-width:1;stroke-dasharray:none;stroke-opacity:1"
       d="m 269.74071,101.67739 -27.02631,54.06288 c 0,0 0.26517,1.85615 1.5026,3.09359 1.23744,1.23744 1.76777,1.23744 2.38649,2.65165 0.61872,1.41421 1.32582,3.62392 1.32582,3.62392 -0.0783,0.35597 7.70615,1.58395 8.83884,1.23744 0.79186,-0.24224 1.41849,-0.54081 1.43566,-0.5723 l 4.04442,-2.96323 45.60839,-32.28385 12.99308,0.55243 2.82843,-6.89429 z"
       id="Sapang"
       sodipodi:nodetypes="ccsscscccccc"
       inkscape:highlight-color="#3b80ee"
       inkscape:label="Sapang" />
    <path
       style="fill:#d7eef4;fill-opacity:1;stroke:none;stroke-opacity:1"
       d="M 283.28818,34.888429 218.04961,21.5159 169.14297,59.412594 c -0.0126,0.0029 3.053,9.74794 3.65567,15.976651 0.60601,6.263185 0.21116,6.432138 0.21116,6.432138 -0.37678,2.859313 -0.63964,5.86102 -0.94017,8.815641 l -1.1306,12.192866 -1.17187,14.02857 -0.51808,6.52612 c 0,0 -0.69286,1.16291 -0.55492,5.69845 0.0937,1 0.45336,2.96408 1.10961,4.15158 0.65625,1.1875 1.50886,2.6395 4.85156,6.18306 1.60094,1.69714 2.58067,3.91783 2.58256,3.91466 0,0 0.64002,1.57397 0.73308,3.6355 0.0972,2.15428 -0.46139,3.93505 -0.46139,3.93505 0,0 -0.64308,2.13308 -2.10268,4.60784 -1.32976,2.25462 -5.50379,8.29139 -5.50379,8.29139 l -3.69129,4.83237 -5.34532,6.85117 c -0.91301,1.12532 -1.76019,2.3223 -2.60512,3.48689 -0.73702,1.05262 -1.22241,2.17766 -1.78505,3.28504 l -3.80112,9.41096 -0.13952,0.5931 c 1.44511,-0.72295 2.84641,-1.43059 4.15782,-2.07354 1.34519,-0.57454 2.80297,-1.10373 4.07767,-1.48137 2.35444,-0.50945 4.83625,-1.06394 6.97568,-1.24622 l 2.38377,-0.33616 c 2.76823,-0.81842 5.47358,-1.68923 8.06537,-2.65468 0.14917,-0.0213 2.28845,-0.91883 2.99307,-1.99843 0.84935,-1.30136 2.02177,-4.49117 2.02177,-4.49117 l 2.12847,-5.53786 c 0,0 0.47107,-0.81615 0.98266,-1.20645 0.72824,-0.55557 4.65528,-1.7623 4.65528,-1.7623 l 2.14932,-2.46117 c 0,0 1.31854,-1.28038 2.09999,-1.25448 0.89784,0.0298 1.86324,-1.00873 2.23471,-1.26539 0.49413,-0.34143 6.98691,-8.62557 6.97544,-8.63896 l 3.71954,-5.44721 c 0,0 1.97293,-2.30242 3.29688,-2.20312 1.87499,0.14062 4.18102,2.46339 4.18102,2.46339 0,0 0.31858,-2.58563 1.09833,-2.81629 1.10937,-0.32818 7.75189,3.7279 7.75189,3.7279 l 6.04688,3.95312 1.26563,-3.92187 c 0,0 1.3634,-2.05492 2.45312,-2.1875 1.15625,-0.14068 3.57812,1.68749 3.57812,1.68749 l 4.20313,3.85938 2.09375,-4.17187 6.53125,-13.01563 L 268.875,101.1875 278.14063,88 279.4375,74.5 283.46875,34.9375 Z"
       id="Pugaro"
       sodipodi:nodetypes="cccsccccccsscscsccccccccccccsccsccssccscscccsccccccccc"
       inkscape:highlight-color="#3b80ee"
       inkscape:label="Pugaro" />
    <path
       style="fill:#d7eef4;fill-opacity:1;stroke:none;stroke-opacity:1"
       d="m 320.47405,132.18478 -12.35227,-0.68501 -48.39262,34.29467 c 0,0 -1.5609,1.05038 -2.04476,1.22561 -0.50921,0.18441 -2.84896,0.36649 -5.20308,0.0781 -2.29335,-0.28093 -4.48192,-0.90598 -4.48192,-0.90598 -0.36106,1.96789 -0.72921,3.82221 -1.0504,6.42784 -0.0839,1.69456 -0.21614,3.36005 -0.10244,5.17313 0.11547,1.66465 0.33687,3.32929 0.61872,4.99394 0.61256,2.29987 1.23541,4.64602 1.76776,6.58494 0.61681,1.9676 1.33817,3.88292 2.03294,5.81153 l 12.70582,0.26516 5.65685,0.7513 4.75088,1.5026 4.24264,0.41985 11.29161,-4.41941 21.74353,-7.77818 18.60575,-6.34187 0.22097,-6.29766 -3.38085,-1.34793 c 0,0 -0.95018,-0.19887 -1.65728,-0.66291 -0.70711,-0.46403 -1.97465,-1.81998 -3.31457,-3.97748 -1.30372,-2.09922 -2.85053,-5.74523 -3.38085,-6.87219 -0.53861,-1.14456 -3.17434,-8.3921 -3.0936,-10.20886 0.0884,-1.98873 2.60746,-11.79983 2.60746,-11.79983 z"
       id="Pao"
       sodipodi:nodetypes="cccsscccccccccccccccsssscc"
       inkscape:highlight-color="#3b80ee"
       inkscape:label="Pao" />
    <path
       style="fill:#d7eef4;fill-opacity:1;stroke:none;stroke-opacity:1"
       d="m 216.51072,151.49209 c 0,0 0.11924,-2.55609 0.56597,-2.61709 0.65285,-0.0891 3.07433,1.22193 7.03477,3.70808 4.15979,2.6113 7.05524,4.61017 7.05524,4.61017 -0.0942,-0.0733 1.1792,-6.51737 3.02838,-6.72542 0.96686,-0.10878 2.92986,1.23524 2.92992,1.23549 1.69003,1.50736 2.62535,2.28678 4.73863,4.58839 0.0178,0 0.53145,1.80861 1.81629,3.29354 0.94989,1.09782 2.02143,1.82474 2.63572,3.67298 0.60512,1.82063 0.83487,2.76652 0.79734,2.77903 0,0 -0.91387,5.06953 -1.17266,7.30459 -0.25412,2.19476 0.0322,6.64386 0.27935,8.20895 0.26062,1.65014 2.80456,10.3195 3.09944,11.19606 0.30885,0.9181 0.97031,2.57983 0.97031,2.57983 l -5.54321,1.38605 c -5.72157,1.3571 -10.70167,2.64005 -16.04308,3.95914 -1.92729,0.42084 -3.30304,0.78988 -4.84376,1.15625 l 0.5625,-6.96876 c 0.36632,-6.40501 1.61429,-21.3239 1.74196,-19.51026 0.23207,-2.63265 0.34665,-5.57295 0.35179,-5.98974 z"
       id="Calaocan"
       sodipodi:nodetypes="csscsccsscssscccccccc"
       inkscape:highlight-color="#3b80ee"
       inkscape:label="Calaocan" />
    <path
       style="fill:#d7eef4;fill-opacity:1;stroke:none;stroke-opacity:1"
       d="m 168.29141,60.170367 -46.53646,45.343223 -22.53903,21.03642 -14.805048,12.79422 -22.870485,16.02039 -3.778602,2.71794 -6.761709,6.54073 c 7.30332,0.0407 13.14383,0.44546 19.975766,1.01647 5.668218,0.99016 9.367267,6.01973 9.19239,7.80028 -0.25901,2.63717 -0.386875,8.32483 -0.501762,8.27457 3.596445,2.94335 7.686717,6.35662 12.102732,9.71245 3.542899,1.0245 7.085799,2.15262 10.628698,2.96101 0.25742,0.19306 3.13861,0.078 6.56283,-1.5026 3.3744,-1.55756 5.64234,-2.63269 5.64234,-2.63269 3.92592,1.53543 7.99893,3.15186 11.96904,4.59933 4.95495,2.71052 9.7543,5.71592 14.29682,9.01561 l 10.48506,-0.3425 0.14364,-11.28057 c 1.62799,-4.13984 2.98086,-7.9986 5.43588,-13.12566 2.94873,-4.14934 6.87956,-8.8241 10.20886,-13.12567 2.36032,-3.17563 4.52393,-6.40045 6.65121,-9.63434 1.10006,-1.87071 2.09658,-3.89674 2.96102,-6.12089 0,0 0.6216,-3.48145 -0.11049,-5.98831 -0.7292,-2.49697 -5.06537,-6.72153 -5.06537,-6.72153 -0.87593,-1.07382 -1.76955,-2.1913 -2.45923,-3.3938 0,0 -1.16824,-2.13623 -1.40262,-5.44102 -0.22097,-3.11569 0.53033,-5.59056 0.53033,-5.59056 0.32577,-5.33028 1.2079,-12.47017 1.5247,-17.81025 0.71817,-6.303914 0.7123,-12.63797 1.92245,-20.616583 0.19353,-1.882916 0.41747,-3.725288 0.44194,-5.833631 0.0341,-2.450845 -0.46779,-4.700672 -0.88388,-6.982679 l -1.17116,-5.457981 z"
       id="Babasit"
       sodipodi:nodetypes="ccccccccscccscccccccccsccsccccccc"
       inkscape:highlight-color="#3b80ee"
       inkscape:label="Babasit" />
    <path
       style="fill:#d7eef4;fill-opacity:1;stroke:none;stroke-opacity:1"
       d="m 49.765625,165.64063 -3.087738,2.05792 0.0098,4.08822 c 0.176116,-0.16239 7.319944,1.83319 8.546712,2.71323 1.398702,1.00338 2.802838,2.04677 2.802838,2.04677 1.534725,2.2523 2.714994,4.47061 4.102936,6.92599 l 1.128062,3.29136 c 0.648853,4.84661 1.212796,9.69152 2.015086,14.5765 l 9.307966,1.91015 1.070923,-17.82274 2.994941,-3.6842 c 0,0 0.836434,-7.94424 0.501761,-9.02182 -0.446656,-1.43813 -2.49318,-3.35921 -2.49318,-3.35921 -0.882005,-0.70618 -1.709163,-1.43431 -2.9918,-1.98024 -1.199525,-0.52459 -2.487782,-0.90974 -3.977935,-0.97763 -2.814852,-0.21974 -5.755495,-0.39754 -8.691928,-0.57675 z"
       id="Bisal"
       sodipodi:nodetypes="cccscccccccsccccc"
       inkscape:highlight-color="#3b80ee"
       inkscape:label="Bisal" />
    <path
       style="fill:#d7eef4;fill-opacity:1;stroke:none;stroke-opacity:1"
       d="m 45.899135,168.25725 -27.155417,36.17646 8.647098,15.87121 10.522097,6.99621 13.313689,2.24935 c 3.019185,0.73211 6.314989,1.44949 8.674286,2.40847 1.950003,1.07029 2.585884,1.76115 3.113627,2.42991 0.218919,0.11266 4.077448,-7.75595 5.22032,-8.80491 1.103172,-1.01253 4.37847,-1.83745 4.371209,-1.78662 0,0 1.185521,-0.18802 1.943781,-0.52144 0.782466,-0.34407 2.471829,-4.0024 3.143957,-6.4817 0.287247,-1.05957 1.054081,-4.97402 0.768305,-5.27523 0,0 0.255606,-1.65364 -0.429267,-3.62814 -0.62289,-1.79581 -2.55264,-3.52243 -2.775237,-3.47791 l -10.967831,-2.23927 -1.864276,-14.29485 c -0.169827,-1.31091 -0.640297,-2.79169 -1.305568,-4.16226 -0.577086,-1.1966 -2.468403,-5.04372 -3.819432,-6.48451 -0.667668,-0.7424 -1.69936,-1.41705 -2.992418,-2.10984 -1.54222,-0.66789 -3.109232,-1.18703 -4.680568,-1.68024 -0.952177,-0.20178 -2.649415,-0.6322 -4.028704,-0.83427 z"
       id="Bucao"
       sodipodi:nodetypes="cccccccscsscsccccccccc"
       inkscape:highlight-color="#3b80ee"
       inkscape:label="Bucao" />
    <path
       style="opacity:1;fill:#d7eef4;fill-opacity:1;stroke:none;stroke-opacity:1"
       d="m 156.49157,210.077 c 0,0 -0.81759,-2.82843 -2.09923,-4.17635 -1.28163,-1.34792 -2.14341,-1.4363 -2.14341,-1.4363 l -6.98268,0.28726 -4.83926,0.13258 c -2.104,-1.54766 -4.23959,-3.08479 -6.51865,-4.57409 -2.53207,-1.59272 -4.98837,-3.40309 -7.84446,-4.52991 l -11.31371,-4.46361 c 0,0 -2.51947,1.19096 -4.57409,2.14342 -1.77839,0.52369 -4.46473,2.21422 -7.86657,1.81196 -3.417943,-0.40417 -10.915959,-3.00521 -10.915959,-3.00521 l -5.502175,-4.22054 -6.563711,-5.35048 -2.503141,3.43371 -1.257582,17.48798 c 0.172785,-0.16866 2.975222,1.23872 3.963388,6.2058 0.141053,3.32815 -0.622284,6.58708 -0.992417,7.50628 -0.699939,1.73827 -1.25195,3.81266 -2.360486,5.58904 0,0 -0.710247,0.92364 -1.743068,1.48679 -1.762024,0.23169 -4.171684,0.77145 -5.441291,1.86049 -0.5625,0.625 -5.28282,8.77458 -5.28282,8.77458 0.244522,-0.22026 3.290432,4.69953 3.539292,5.52792 0.156553,0.16838 9.951289,-2.94367 9.830806,-2.79909 -0.02596,-0.0516 3.158191,4.40455 6.716529,5.09015 3.53125,0.90487 3.640625,0.57906 3.640625,0.57812 0,0 2.03125,0.2031 3.609375,-0.48437 1.578125,-0.6875 1.53125,-0.79688 1.53125,-0.79688 l 6.241498,1.42011 c -0.09731,0.0907 1.280637,5.63148 2.004897,7.24797 0.69107,1.54237 0.9864,2.89756 2.62703,5.11631 1.64062,2.21875 2.76229,3.85604 2.76229,3.85604 l 11.35337,-5.59152 15.24464,-7.42992 17.54151,-8.69241 9.18761,-4.47243 -1.14905,-13.05938 c 0,0 -0.53033,-5.54636 -1.21534,-8.02124"
       id="Baritao"
       sodipodi:nodetypes="cccsccsccscscsccsscccccccsccssccccccc"
       inkscape:highlight-color="#3b80ee"
       inkscape:label="Baritao" />
    <path
       style="opacity:1;fill:#d7eef4;fill-opacity:1;stroke:none;stroke-opacity:1"
       d="m 152.5141,193.3937 0.0442,10.16466 c 0,0 1.98251,0.54193 3.34796,2.73851 1.4375,2.3125 2.28386,5.73192 2.75,8.75001 0.47392,3.06843 1.82812,18.42187 1.82812,18.42187 l 12.15626,-1 2.48437,-0.23828 c 2.61905,1.64933 2.73689,1.66729 8.22633,5.00561 l 4.21084,0.0186 c 0.11622,0.11621 6.16057,-6.07112 6.66786,-6.67894 1.28254,-1.53666 0.64669,-1.38405 1.30122,-2.38046 0.71403,-1.08699 7.14081,-7.11258 6.94184,-7.29497 0.0384,0.0405 0.43654,-0.71042 0.53863,-0.95893 0.07,-0.17042 -0.16381,-0.21786 0.14846,-1.00392 0.45459,-1.1443 3.66027,-2.69013 3.6211,-2.70311 0.6462,-0.68144 1.01599,-1.05086 1.59375,-1.45313 0.80062,-0.67004 2.75639,-1.35761 3.79688,-1.40625 1.25722,-0.0588 2.3038,0.18306 2.3038,0.18306 0.90736,0.25647 1.24267,0.36987 2.40468,0.9154 l 1.66567,1.21411 1.15598,1.02988 0.88351,-4.2266 2.18528,-10.2891 c 0.3142,-3.80446 0.70801,-7.56911 0.91762,-11.42586 0.63175,-7.11765 1.1706,-14.19762 1.8567,-21.08996 l -4.17646,-7.43149 -4.24241,-7.60101 -1.40403,-2.53628 c -0.71648,-0.75978 -1.67597,-1.84185 -2.67077,-2.39363 0,0 -0.888,-0.62778 -1.77811,-0.56629 -0.60728,0.0419 -1.3246,0.64724 -1.8529,1.24528 -2.64231,2.99116 -1.29397,1.75827 -4.41037,6.18312 -1.91731,2.72231 -4.31935,5.44707 -4.29636,5.47183 l -1.29008,1.69508 -1.7904,1.86553 c 0,0 -1.28713,1.04575 -1.96593,1.0723 -0.79617,0.0311 -2.1416,1.17626 -2.12311,1.25948 -0.76859,0.67151 -1.36692,1.54166 -1.96273,2.41475 l -2.1673,0.5846 -2.01387,0.86205 c 0,0 -0.8425,0.32544 -1.0925,0.85669 -0.25,0.53125 -2.1635,5.62247 -2.2885,5.96622 -0.125,0.34375 -1.45961,3.46338 -1.45961,3.46338 -0.25061,0.45023 -0.668,0.98833 -1.06438,1.4375 -0.59716,0.65142 -1.31588,1.23199 -2.93783,1.8444 -2.74945,0.8955 -5.60135,1.94535 -8.43148,2.73327 l -2.76929,0.36964 c -4.07119,0.69746 -7.46353,0.79221 -14.84259,4.91135 z"
       id="Poblacion"
       sodipodi:nodetypes="ccsscccccsscssccsccccccccccccssscccsccccssccccccc"
       inkscape:highlight-color="#3b80ee"
       inkscape:label="Poblacion" />
    <path
       style="opacity:1;fill:#d7eef4;fill-opacity:1;stroke:none;stroke-opacity:1"
       d="m 158.46926,191.06246 c 0,0 0.48613,-0.16573 0.48613,-0.16573"
       id="path16234"
       inkscape:path-effect="#path-effect16236"
       inkscape:original-d="m 158.46926,191.06246 0.48613,-0.16573" />
    <path
       style="opacity:1;fill:#d7eef4;fill-opacity:1;stroke:none;stroke-opacity:1"
       d="m 223.53125,203.34375 -3.0625,14.07812 c 0,0 3.58754,2.15688 4.6875,2.67188 1.54776,0.72466 5.68912,2.6047 7.18122,2.14331 1.39747,-0.43214 7.52575,-1.90818 8.55773,-2.17992 l 7.7298,-1.49464 c 0,0 6.25,-0.75 7.25,-0.65625 1,0.0937 9.625,0.35937 9.625,0.35937 l 3.46875,-0.89062 c 1.54903,-1.15686 3.44809,-2.50803 4.72656,-3.875 0,0 0.39703,-0.81715 0.55469,-1.20313 0.77298,-1.89237 3.58318,-13.1305 3.51562,-13.26562 0,0 -3.04687,-0.31245 -3.79687,-0.5625 -0.75,-0.25 -5.25477,-1.41762 -5.25477,-1.41762 l -3.02648,-0.39488 -5.03125,-0.375 -10.0625,-0.0625 -7.0625,1.90625 z"
       id="Tebuel"
       sodipodi:nodetypes="ccssccscccscscccccc"
       inkscape:highlight-color="#3b80ee"
       inkscape:label="Tebuel" />
    <path
       style="opacity:1;fill:#d7eef4;fill-opacity:1;stroke:none;stroke-opacity:1"
       d="m 159.91797,234.51172 -53.12659,26.12119 2.60983,3.48386 8.37154,-0.11742 9.3125,5.80871 2.94855,11.56282 9.25725,3.76831 5.61395,10.19129 20.10356,20.77275 1.36546,3.02513 c 0.28881,-0.25117 -0.17023,-3.03107 3.03001,-5.15457 3.83039,-2.54164 5.44803,-3.40735 5.41508,-3.43371 l 0.13951,-17.97206 0.40857,-58.99771 -0.47266,-0.30859 z"
       id="San_Ramon"
       sodipodi:nodetypes="ccccccccccsccccc"
       inkscape:highlight-color="#3b80ee"
       inkscape:label="San Ramon" />
    <path
       style="opacity:1;fill:#d7eef4;fill-opacity:1;stroke:none;stroke-opacity:1"
       d="m 176.34374,234.29687 6.79688,3.96875 4,-0.0157 0.62501,6.46875 0.96875,11.3125 1.28124,5.45312 5.625,24.64063 2.71875,11.70312 -10.48438,3.98438 -4.90624,4.70312 -4.60157,4.44531 -2.52343,-0.47656 z"
       id="Pantal"
       sodipodi:nodetypes="ccccccccccccc"
       inkscape:highlight-color="#3b80ee"
       inkscape:label="Pantal" />
    <path
       style="opacity:1;fill:#d7eef4;fill-opacity:1;stroke:none;stroke-opacity:1"
       d="m 175.18793,311.42968 c -1.90934,1.21198 -3.94693,2.26365 -5.72801,3.63595 0,0 -1.98084,1.54278 -2.07449,4.0605 -0.083,2.23277 0.19888,2.60746 0.19888,2.60746 0,0 3.18198,2.40858 4.11006,4.04377 0.92808,1.63518 1.0938,2.46382 1.0938,2.46382 0,0 -0.11291,2.09072 -0.18783,3.19303 -0.0773,1.138 -2.37543,7.35832 -2.37543,7.35832 l 2.30914,3.22618 8.44109,5.86678 8.81674,9.94369 3.62392,5.82811 7.50369,-18.31297 7.45336,-18.58248 5.07559,-12.37781 c 1.41008,-4.33506 2.74585,-8.67013 4.07391,-13.00519 l -8.48418,-1.15396 c -3.41343,-0.5048 -6.73697,-1.11746 -10.28194,-1.46441 l -10.35601,3.90535 -9.77962,9.38747 c -1.1197,-0.2671 -2.35969,-0.60604 -3.43267,-0.62361 z"
       id="Mermer"
       sodipodi:nodetypes="ccscscscccccccccccccc"
       inkscape:highlight-color="#3b80ee"
       inkscape:label="Mermer" />
    <path
       style="opacity:1;fill:#d7eef4;fill-opacity:1;stroke:none;stroke-opacity:1"
       d="m 214.46875,314.4375 -20.375,50.20313 6.98437,7.25 9.5,12.8125 20.37501,-14.48438 -4.29688,-7.76563 7.125,-10.28124 C 227.4237,339.69609 221.0056,327.21836 214.46875,314.4375 Z"
       id="Parian"
       sodipodi:nodetypes="cccccccc"
       inkscape:highlight-color="#3b80ee"
       inkscape:label="Parian" />
    <path
       style="opacity:1;fill:#d7eef4;fill-opacity:1;stroke:none;stroke-opacity:1"
       d="M 231.7923,370.84911 211.15625,385.5 l 9.27334,10.41302 c 2.75263,3.76387 6.17449,7.96001 7.98359,10.04972 l 3.74307,4.47476 1.1875,4.40625 3.1875,3.0625 3.75,5 5.63572,-5.70803 1.54642,-1.72633 5.66161,-15.59689 10.375,-28.53125 2.2818,-6.49007 -4.43805,-0.10372 c -1.37338,0.0214 -2.22881,-0.0997 -4.4375,0.1563 -2.90625,0.42221 -5.8125,0.80081 -8.71875,1.625 -2.77083,0.60041 -5.61198,1.34447 -8.40625,2.06641 -2.52083,0.68284 -7.27228,2.00719 -7.98895,2.2514 z"
       id="Matolong"
       sodipodi:nodetypes="ccccccccccccccccccc"
       inkscape:highlight-color="#3b80ee"
       inkscape:label="Matolong" />
    <path
       style="opacity:1;fill:#d7eef4;fill-opacity:1;stroke:none;stroke-opacity:1"
       d="M 218.57812,301.67187 214.9375,313.3125 234.48215,351.24556 242.875,336.75 c 0,0 -0.75,-0.3125 -2.0625,-0.5625 -1.3125,-0.25 -4.46875,-0.21875 -4.46875,-0.21875 -0.52304,-5.63104 -1.42951,-11.33945 -2.28125,-17.09375 -0.72071,-1.81673 -1.96173,-3.48267 -2.95312,-5.15625 -1.9759,-2.85756 -4.07047,-5.77856 -6.42189,-8.75001 0.0554,-0.0185 -1.35349,-1.53394 -2.47194,-2.03947 -0.72114,-0.32596 -3.61973,-1.38927 -3.63743,-1.2574 z"
       id="Oraan_West"
       sodipodi:nodetypes="ccccsccccsc"
       inkscape:highlight-color="#3b80ee"
       inkscape:label="Oraan West" />
    <path
       style="opacity:1;fill:#d7eef4;fill-opacity:1;stroke:none;stroke-opacity:1"
       d="m 243.75836,337.19744 -8.66461,14.92756 -7.1875,10.15625 4,7.5 13.39062,-3.625 c 2.01495,-0.48811 7.13959,-1.74215 10.60938,-2.17188 3.28784,-0.40719 3.791,-0.2222 5.21875,-0.21875 l 4.96875,0.23438 4.02952,-10.17093 c -2.46808,-2.24091 -5.58038,-5.2219 -7.62327,-6.51657 -1.30757,-0.6074 -2.63773,-1.19545 -4.04766,-1.71512 -1.59193,-0.58154 -3.39833,-1.19994 -5.32734,-1.75363 -1.08395,-0.28475 -2.17117,-0.56459 -3.31293,-0.76262 -0.52078,-0.0633 -0.79306,-0.2151 -1.39,-0.11626 -0.6259,0.10364 -1.15286,0.12804 -1.89255,-0.98706 -0.25897,-0.34152 -0.81059,-1.46583 -1.35496,-2.65246 -0.57112,-1.24491 -0.93907,-1.57701 -0.93907,-1.57701 z"
       id="Oraan_East"
       sodipodi:nodetypes="cccccscccccccscscc"
       inkscape:highlight-color="#3b80ee"
       inkscape:label="Oraan East" />
    <path
       style="opacity:1;fill:#d7eef4;fill-opacity:1;stroke:none;stroke-opacity:1"
       d="m 270.98596,354.29657 c -3.75721,8.35899 -7.44503,20.0727 -22.42471,61.01791 l 17.24349,-3.94531 6.62377,2.72932 7.62239,-2.33961 30.02033,-2.44853 c 0,0 3.96577,0.45429 5.18282,-0.44017 0.97671,-0.71783 1.97128,-0.8864 2.89759,-1.11466 1.3249,-0.3265 4.00937,-0.56755 3.9047,-0.48614 l 9.30775,0.27007 -0.32721,-4.22119 c 0,0 -0.0469,-0.63324 -0.27297,-1.52045 -0.2284,-0.89636 -1.25575,-2.43781 -2.18115,-3.87569 -0.87061,-1.35275 -3.93438,-4.58437 -3.93438,-4.58437 l -0.43391,-0.41826 c -2.89349,-1.80077 -5.56753,-3.83661 -8.91473,-5.18367 l -1.73698,-0.70756 -6.13449,-2.98423 -5.62005,-3.61901 -9.02449,-5.83004 -3.11347,3.02508 -2.67245,-5.14601 c -0.54676,-1.18139 -1.13433,-2.33828 -1.8876,-3.39576 -0.72131,-1.12949 -1.44716,-2.1276 -2.31955,-3.23624 -0.49702,-0.53564 -1.10658,-1.23911 -1.72689,-1.98024 l -4.15046,-4.80847 -3.65583,-4.34619 z"
       id="Baguinay"
       sodipodi:nodetypes="ccccccsscccssccccccccccccccc"
       inkscape:highlight-color="#3b80ee"
       inkscape:label="Baguinay" />
    <path
       style="opacity:1;fill:#d7eef4;fill-opacity:1;stroke:none;stroke-opacity:1"
       d="M 325.47266,392.78516 371.5625,349.875 394.42187,331.85937 c 11.53657,8.29301 22.81543,16.78768 34.43751,25.10938 l 0.51654,18.59911 c -0.35546,-0.45407 2.43569,8.72266 7.98261,10.10624 5.51023,1.37442 20.47402,2.71695 20.55622,2.82655 0,0 1.08081,2.38193 1.58081,2.69443 0.5,0.3125 3.63337,3.89948 3.45894,3.99242 -0.26895,0.14331 -4.33329,2.22346 -4.33329,2.22346 l -14.13258,7.2721 -2.3346,2.75758 c 0,0 -1.90284,4.03856 -3.12002,4.3542 -1.19322,0.30943 -4.6849,1.75943 -4.6849,1.75943 l -10.26646,3.93056 c -5.19422,1.55851 -10.38843,3.09784 -15.58265,4.19444 0,0 -4.81694,1.02589 -6.69194,0.96339 -1.875,-0.0625 -5.74177,-0.37121 -8.74177,-1.12121 -3,-0.75 -15.72366,-5.26078 -16.1237,-5.2721 -0.32915,-0.009 -2.85564,-1.35093 -4.7683,-1.48169 -1.67895,-0.11479 -6.14361,2.15963 -8.56673,2.27067 -2.37114,0.10865 -6.69541,-1.06067 -6.69541,-1.06067 l -11.42419,-2.76213 c 0,0 -4.59061,-1.26525 -5.18723,-1.33154 -0.59662,-0.0663 -0.65707,-0.12956 -1.90414,-0.57207 -1.33609,-0.47409 -4.92074,-2.74503 -4.88189,-2.79974 l -1.16042,-0.87829 c 0.005,0.002 -0.33956,-4.00443 -0.35378,-4.85976 -0.0138,-0.82956 -0.94465,-2.79962 -1.53071,-3.80652 -0.30802,-0.5292 -3.6697,-4.91974 -3.70588,-4.81119 z"
       id="Inamotan"
       sodipodi:nodetypes="cccccscsscccscccsssssccssccsscc"
       inkscape:highlight-color="#3b80ee"
       inkscape:label="Inamotan" />
    <path
       style="fill:#d7eef4"
       d="m 323.01522,316.12093 4.5078,-12.68373 z"
       id="path327" />
    <path
       style="fill:#d7eef4"
       d="m 327.83507,303.84345 c -2.41746,7.33789 -2.83872,9.15693 -5.00847,13.19732 0,0 -1.96395,1.41644 -2.56057,1.74789 -0.59663,0.33146 -2.92172,1.43631 -2.92172,1.43631 0,0 -2.8798,0.93291 -3.39079,1.052 -0.45641,0.10637 -3.58074,0.80622 -3.58074,0.80622 l 11.25817,6.66007 12.36097,7.35565 10.59209,6.25838 8.6027,5.10756 11.92124,7.05721 5.66508,-5.41222 12.3409,-9.66715 11.24899,-8.81405 18.31451,13.36318 16.16139,11.82972 c 0.0468,0.0624 0.0432,-9.77476 -0.50602,-10.40034 -0.42874,-0.48835 -0.48188,-1.05308 -0.59884,-1.85773 -0.11288,-0.77652 -0.46783,-17.13346 -0.46783,-17.13346 l 0.15847,-16.20254 3.35673,-7.78908 -15.92572,-2.75299 c -13.59845,-2.36225 -28.50176,-3.7762 -42.76276,-5.65306 0,0 -2.74523,-0.1079 -3.99042,0.002 -1.29994,0.11428 -6.16195,1.28607 -6.81838,1.98181 -0.56129,0.5949 -1.72382,1.4144 -1.82603,2.42957 -0.11965,1.18834 -0.65042,2.42689 -1.51221,3.04561 -0.86178,0.61872 -5.85351,3.31142 -7.60565,3.37549 -1.77334,0.0648 -3.09987,-0.74372 -3.09987,-0.74372 -0.56901,-0.5353 -1.13802,-0.88263 -1.70704,-1.61151 l -10.57377,-0.2415 z"
       id="Santa_Ines"
       sodipodi:nodetypes="ccscscccccccccccsscccccssssscccc"
       inkscape:highlight-color="#3b80ee"
       inkscape:label="Santa Ines" />
    <path
       style="fill:#d7eef4"
       d="m 293.48437,319.07812 c -5.85237,9.3388 -11.55745,18.43843 -17.95751,26.81584 -1.55516,2.2762 -2.9115,4.95566 -4.12467,7.48212 l 2.36092,0.40057 c 3.32197,3.87137 4.80527,5.76053 8.17526,9.6238 3.21375,3.51638 4.20063,5.30558 5.49566,7.64656 1.20487,2.17798 2.45234,4.81152 2.45234,4.81152 l 2.77903,-2.47725 15.05059,9.64147 c 2.30854,1.26169 4.53481,2.35882 6.66659,3.267 1.37519,0.48471 2.99157,1.21624 4.31066,2.03412 l 6.10095,3.7487 c 14.25971,-13.39927 26.86411,-24.87881 39.45072,-36.88128 l -22.55427,-13.40782 c -10.78091,-6.39564 -21.53745,-12.77666 -32.60336,-19.34329 -1.51257,-0.002 -3.10246,0.008 -4.38416,0.0442 -2.14619,-0.29519 -4.05954,-0.59473 -6.375,-1.14063 -1.36585,-0.49272 -3.77407,-1.37343 -4.84375,-2.26562 z"
       id="Leleman"
       sodipodi:nodetypes="cccccscccccccccccc"
       inkscape:label="Leleman"
       inkscape:highlight-color="#3b80ee" />
    <path
       style="fill:#d7eef4"
       d="m 232.125,289.06249 c 0,0 -3.53125,-1.26562 -4.28125,-0.37499 -0.75,0.89062 -2.15626,2.67187 -2.15626,2.67187 l -6.73437,9.37501 4.26562,1.70312 c 0.84233,0.49385 1.529,1.12785 2.17188,1.78125 1.67705,2.07638 3.23728,4.20757 4.67187,6.20313 1.76485,2.62615 3.54972,5.24969 4.92188,7.98436 0.4325,3.02574 0.9085,5.98623 1.26563,9.12501 0.55061,2.52881 0.64575,4.99254 0.93749,7.48437 0,0 2.02538,-0.0728 3.56251,0.21875 l 1.81249,0.34376 c 0,0 1.17507,0.48862 2.01563,1.03125 0.8965,0.57872 2.7303,5.43544 3.39063,5.42187 0.671,-0.0138 0.875,-0.0625 0.875,-0.0625 0.71504,-0.0149 1.35463,0.19652 2.03125,0.29687 2.61852,0.67263 5.25207,1.39788 7.95312,2.35938 l 4.60938,2.0625 7.14063,6.28125 c 1.13818,-2.59005 2.44051,-4.96125 3.82812,-7.21875 2.30646,-2.90507 4.45884,-5.91285 6.51562,-8.98438 l 5.90626,-8.98437 c 1.94203,-3.12097 3.8638,-6.12037 5.84374,-9.46875 -1.23782,-1.5017 -3.24654,-5.55805 -1.14062,-6.90626 1.80626,-1.15637 1.27827,-0.66147 3.09375,-1.40623 l 2.32813,-3.82814 -2.25001,-2.1875 c 0,0 -1.18239,-1.67378 -0.85937,-3.42187 l 0.26562,-1.4375 -8.60937,-0.0625 c 0,0 -7.10938,-0.29687 -8.07813,-0.54682 -0.96875,-0.25 -2.26562,-0.39062 -2.26562,-0.39062 0,0 -1.45313,-0.39063 -4.6875,-0.0312 -3.23438,0.35937 -7.03126,1.15625 -7.03126,1.15625 l -5.09375,1.23437 -10.96874,-0.0156 -7.04688,0.0156 c -0.0112,0.0484 -1.56147,0.0395 -2.96875,-0.32812 -0.7686,-0.2008 -1.8556,-1.60976 -1.70312,-1.62501 0,0 -0.58663,-1.11494 -0.71875,-2.32812 l -0.17188,-1.57813 c 0,0 -0.10937,-2.17187 -0.51562,-3.1875 -0.40605,-1.0151 -1.1875,-2.03125 -1.1875,-2.03125 z"
       id="Cabanbanan"
       sodipodi:nodetypes="csccccccccscsscccccccccscccsccscsccccscscscc"
       inkscape:label="Cabanbanan"
       inkscape:highlight-color="#3b80ee" />
    <path
       style="fill:#d7eef4"
       d="m 222.46685,239.15219 -14.07623,8.56656 c 0,0 -1.27415,0.69843 -2.89196,1.25115 -1.59478,0.54485 -5.12731,0.95018 -6.26531,0.93913 -1.138,-0.011 -2.8628,0.0282 -4.45858,0.88735 l -1.68775,0.90867 c -1.43548,0.87842 -2.38074,1.67513 -3.49401,2.49984 l 0.12153,1.72357 2.15196,9.19621 5.24242,22.88638 2.25,9.75045 7.10284,1.00065 3.48267,0.48765 3.59077,0.54133 4.46361,0.62976 5.85762,-8.24044 2.70141,-3.52658 c 0,0 0.85511,-1.11881 1.78038,-1.23299 0.80308,-0.0991 2.72344,0.27164 2.72344,0.27164 l 2.60154,0.89381 c 0.26109,0.29544 0.82291,1.11067 1.18542,1.97031 0.40337,0.95653 0.80266,2.68998 0.78804,2.6929 0,0 0.20299,1.07279 0.26928,2.36547 0.0663,1.29268 0.51282,2.20245 0.51282,2.20245 0,0 0.74963,1.63038 2.10726,1.67702 1.43678,0.0494 2.69201,0.0173 2.69201,0.0173 h 5.89808 l 11.04795,0.0162 c 0,0 6.2117,-1.44618 8.28608,-1.78395 l 1.96775,-0.32041 c 0,0 5.27362,-0.65376 7.01929,-0.27811 1.74567,0.37565 2.91349,0.49072 2.91349,0.49072 l 9.17944,0.49908 6.77027,0.0324 c 0,0 0.78624,-2.00346 0.99548,-2.33882 l 0.70802,-1.13481 c 0,0 0.8727,-1.22121 1.42625,-1.83267 0.63444,-0.70083 0.78333,-0.88814 0.78333,-0.88814 l 0.59034,-0.68867 c 0,0 -1.59421,-0.90862 -2.33078,-1.60204 l -1.22842,-1.15643 -2.84582,-3.2314 -2.80586,-3.63452 -1.88094,-2.6376 c 0,0 -0.92587,-1.61175 -1.3083,-3.79278 l -0.33147,-1.89042 c -0.0758,-1.70095 -0.1685,-3.41295 -0.13593,-5.1139 0.0888,-2.01072 0.28118,-3.99557 0.48614,-5.97727 0.33341,-2.55992 0.74568,-5.10407 1.22639,-7.63454 l 0.64082,-3.01625 -12.45171,-1.64624 -7.9881,-1.06065 0.12154,-2.87262 -10.90491,1.14905 -8.20907,0.91702 -5.15966,0.65186 c 0,0 -1.46999,0.0903 -2.27601,0.12154 l -1.42526,0.0552 -5.51322,-0.11044 -4.38628,-0.33146 c 0,0 -0.72915,-0.13154 -1.64623,-0.0884 l -0.93912,0.0442 c 0,0 -1.9829,0.17796 -2.85053,0.47509 l -1.56889,0.50823 2.11028,-6.34186 z"
       id="Licsi"
       sodipodi:nodetypes="ccsssccccccccccccsccscscscccscscccscsccsccccscccccccccccscccscsccc"
       inkscape:label="Licsi"
       inkscape:highlight-color="#3b80ee" />
    <path
       style="fill:#d7eef4"
       d="m 188.24508,237.97457 1.28163,15.01498 c 0,0 1.9777,-1.67938 3.85595,-2.58536 1.87825,-0.90598 2.31295,-1.23065 4.60723,-1.37002 l 2.36439,-0.14363 c 0,0 3.83571,-0.095 6.1209,-1.27058 2.2981,-1.1822 3.27036,-1.82301 3.27036,-1.82301 l 6.25349,-3.83385 6.7617,-4.13216 3.55764,5.10443 -1.75672,4.93871 c 0,0 2.49696,-0.47509 3.64601,-0.45299 1.14905,0.0221 1.5689,0.0221 1.5689,0.0221 0,0 4.40821,0.44024 5.6237,0.43089 l 1.43631,-0.011 c 0,0 4.5298,0.17598 7.00478,-0.15469 l 2.729,-0.3646 9.65643,-1.0717 c 3.87619,-0.40982 7.63625,-0.83255 11.75563,-1.21535 l 0.46405,-17.23572 0.27621,-9.39127 -3.22618,0.81759 -8.45213,-0.43089 c 0,0 -2.01334,-0.0128 -3.8007,0.18783 l -2.16552,0.24306 c 0,0 -5.47267,0.76814 -7.47986,1.2264 l -2.41962,0.55242 c -3.11569,0.76394 -6.23139,1.5256 -9.34708,2.23181 0,0 -1.35561,-0.13041 -3.29842,-0.66324 -2.10254,-0.57664 -9.19431,-4.6144 -9.09327,-4.79964 -0.15008,-0.44306 -2.53086,-2.29368 -3.79926,-2.81067 -1.416,-0.57715 -3.03125,-1.15625 -5.29688,-0.28125 -2.26562,0.875 -2.85147,2.31427 -2.85147,2.31427 -1.09184,0.46249 -2.23249,1.24187 -3.16004,1.96416 0,0 -0.46875,0.33334 -0.38919,0.78818 0.0813,0.465 -0.0952,0.70993 -0.0952,0.70993 0,0 -0.3372,0.60656 -0.66528,0.98156 -0.32812,0.375 -4.0691,4.22157 -4.0691,4.22157 l -2.60984,2.74666 c 0,0 -0.47901,0.44967 -0.41651,0.76217 0.0625,0.3125 -0.2415,0.80589 -0.54214,1.22776 -0.28008,0.39302 -3.32133,3.7181 -3.32133,3.7181 z"
       id="path520"
       sodipodi:nodetypes="ccsscscccccscscscccccccscsccscssccscsccsscc"
       inkscape:label="Tebeuel" />
  </g>
</svg>
