<?xml version="1.0" encoding="UTF-8" standalone="no"?>
<svg
   width="210mm"
   height="297mm"
   viewBox="0 0 210 297"
   version="1.1"
   id="svg1284"
   inkscape:version="1.4.2 (f4327f4, 2025-05-13)"
   sodipodi:docname="philippines.svg"
   xmlns:inkscape="http://www.inkscape.org/namespaces/inkscape"
   xmlns:sodipodi="http://sodipodi.sourceforge.net/DTD/sodipodi-0.dtd"
   xmlns="http://www.w3.org/2000/svg"
   xmlns:svg="http://www.w3.org/2000/svg"
   xmlns:rdf="http://www.w3.org/1999/02/22-rdf-syntax-ns#"
   xmlns:cc="http://creativecommons.org/ns#"
   xmlns:dc="http://purl.org/dc/elements/1.1/">
  <defs
     id="defs1278" />
  <sodipodi:namedview
     id="base"
     pagecolor="#ffffff"
     bordercolor="#666666"
     borderopacity="1.0"
     inkscape:pageopacity="0.0"
     inkscape:pageshadow="2"
     inkscape:zoom="31.678384"
     inkscape:cx="516.15638"
     inkscape:cy="807.26972"
     inkscape:document-units="mm"
     inkscape:current-layer="layer1"
     inkscape:document-rotation="0"
     showgrid="false"
     inkscape:window-width="1765"
     inkscape:window-height="1210"
     inkscape:window-x="113"
     inkscape:window-y="78"
     inkscape:window-maximized="0"
     inkscape:showpageshadow="2"
     inkscape:pagecheckerboard="0"
     inkscape:deskcolor="#d1d1d1" />
  <metadata
     id="metadata1281">
    <rdf:RDF>
      <cc:Work
         rdf:about="">
        <dc:format>image/svg+xml</dc:format>
        <dc:type
           rdf:resource="http://purl.org/dc/dcmitype/StillImage" />
        <dc:title />
      </cc:Work>
    </rdf:RDF>
  </metadata>
  <g
     inkscape:label="Layer 1"
     inkscape:groupmode="layer"
     id="layer1"
     style="display:inline">
    <path
       id="path1682"
       style="fill:none;stroke:#000000;stroke-width:0.264106px;stroke-linecap:butt;stroke-linejoin:miter;stroke-opacity:1"
       d="m 88.75874,268.76259 0.365505,0.44805 -0.353715,0.64847 -0.53057,0.21222 -0.282971,-0.64847 0.412665,-0.43623 z m 1.049348,-0.57774 0.282972,0.0119 0.09432,0.54237 -0.400873,0.2358 -0.377296,-0.27119 0.03537,-0.41267 z m -5.694783,-1.52096 0.353715,0.48343 c 0,0 -0.424458,0.37727 -0.459827,0.45981 -0.03538,0.0826 -0.471619,-0.28297 -0.471619,-0.31834 0,-0.0353 0.188648,-0.43624 0.188648,-0.43624 z m 0.825331,-2.4524 0.318343,0.0472 0.02359,0.73099 -0.389082,0.20046 -0.506989,-0.66027 z m -2.751095,5.1025 0.408518,0.17508 -0.03335,0.37516 -0.433529,0.21678 -0.316811,-0.39185 z m -1.559039,-0.54192 0.266787,0.24179 -0.166741,0.61695 -0.533576,0.0583 -0.316807,-0.62527 0.375169,-0.23345 z m 0.72584,17.5347 0.389086,0.059 0.04716,0.64849 -0.471619,0.0943 -0.259389,-0.37726 z m 1.992586,-3.938 -0.01181,0.43624 -0.448037,0.10612 -0.09432,-0.35371 0.353714,-0.47159 z M 82.86352,281.4609 c 0.117904,0.0353 0.28297,0.0708 0.28297,0.0708 v 0.55414 l -0.436247,0.0236 -0.05895,-0.45984 z m -3.313114,1.00218 0.212227,0.0119 -0.02359,0.3655 -0.377294,0.16507 -0.30655,-0.29478 0.224017,-0.29473 z m -1.579921,0.2594 h 0.459827 l 0.09433,0.50699 -0.412666,0.34193 -0.28297,-0.34193 z m -1.674241,6.18998 0.235807,0.2358 0.04716,0.48342 -0.459829,0.059 -0.212228,-0.22402 0.141486,-0.47161 z m 1.697823,-1.22621 0.282971,0.44806 -0.75459,0.43622 h -0.56594 l 0.165067,-0.48339 z m 0.754587,-0.63668 0.106116,0.2594 -0.176859,0.47162 -0.294761,-0.18865 -0.07074,-0.41266 z m -16.82496,4.29172 0.141487,0.30655 -0.05895,0.41266 -0.365501,-0.2122 -0.02359,-0.35372 z m 10.92974,-1.80393 c 0.08253,0 0.353714,0 0.353714,0 l -0.01178,0.43624 -0.271181,0.11791 -0.106115,0.4834 -0.318341,0.14148 v -1.07293 z m -3.077304,3.57249 0.377294,-0.0353 0.176855,0.3773 -0.707426,0.3655 -0.247599,-0.45984 z m -7.817065,2.00438 0.259392,0.0353 -0.07074,0.51876 -0.341922,0.0119 -0.05895,-0.43625 z m 0.188649,-1.36768 0.29476,0.45981 -0.02359,0.48342 -0.377294,0.0236 -0.176855,-0.42448 0.30655,-0.49519 z m -16.5302,-40.35869 0.77817,-0.21222 c 0,0 0.235809,0.33013 0.235809,0.44804 0,0.11789 -0.02359,1.08472 -0.02359,1.08472 l -0.683845,0.21222 -0.943235,-0.25939 -0.353714,-0.66026 0.377294,-0.56594 z m 74.979056,-61.48386 0.40017,0.21677 -0.13339,0.38351 -0.65029,0.20009 -0.0667,-0.53358 z m -43.519671,-3.47656 0.291797,0.10838 0.01666,0.57526 -0.133395,0.30848 -0.45854,-0.0751 -0.08337,-0.65029 0.200089,-0.30848 z m 0.325146,-1.05882 c 0,0 0.200089,0.0333 0.200089,0.12507 0,0.0917 0.07503,0.54191 0.07503,0.54191 l -0.266786,0.0333 -0.40852,-0.27514 c 0,0 0.0084,-0.29179 0.04169,-0.30847 0.03335,-0.0167 0.358495,-0.11672 0.358495,-0.11672 z m 16.886798,-4.74797 0.112552,-0.004 0.25428,0.2376 c 0,0 -0.04169,0.22928 -0.04169,0.27096 0,0.0417 -0.04586,0.27513 -0.06669,0.28347 -0.02084,0.008 -0.341821,0.0417 -0.341821,0.0417 l -0.191755,-0.32933 -0.03335,-0.26261 0.112551,-0.12506 z m 12.355997,-9.00691 h 0.22402 l 0.14149,0.43625 -0.33014,0.40088 -0.41267,-0.14149 -0.12969,-0.42446 0.25939,-0.30655 z m -17.237627,8.79567 0.389086,0.17686 0.01178,0.53057 -0.259388,0.22401 -0.412666,-0.30655 -0.02359,-0.40088 z m -4.621854,-5.9188 0.424458,0.0708 -0.02359,0.55415 -0.330133,0.34192 -0.30655,-0.37729 z m 4.397836,1.37948 0.200439,0.1179 0.04716,0.34192 c 0,0 -0.530569,0.16507 -0.542359,0.11791 -0.01178,-0.0471 -0.04717,-0.44804 -0.04717,-0.44804 l 0.165067,-0.16506 z m 0.884282,1.45022 0.212231,0.53057 -0.353715,0.40088 -0.341922,0.14148 -0.483409,-0.38908 0.09432,-0.38909 0.459826,-0.10611 z m -15.693076,-4.02054 0.2476,0.0825 0.02359,0.4952 -0.212227,0.20043 -0.365505,-0.15327 V 175.453 Z m 1.721405,-1.29694 0.176855,0.34192 -0.341921,0.67205 -0.400876,-0.43625 0.212228,-0.48341 z m -10.080827,11.44851 0.377294,0.12969 -0.03537,0.34193 -0.188649,0.29476 -0.271179,-0.16507 -0.07074,-0.41266 z m 1.438432,-3.99696 0.813541,0.64848 0.01178,0.54236 -0.624894,-0.18865 -0.731005,-0.48341 0.01178,-0.41267 0.30655,-0.11789 z m -0.483406,-1.20262 0.212227,0.0708 0.09432,0.38909 -0.141484,0.3655 -0.471619,-0.059 -0.129695,-0.43624 0.377294,-0.35371 z m -7.274704,-1.88647 0.389085,0.059 0.01178,0.48341 -0.448037,0.31834 -0.306551,-0.28298 0.07074,-0.44803 z m 1.473805,-0.43625 0.294762,0.2476 v 0.55415 l -0.341922,0.18865 -0.318344,-0.30655 0.129695,-0.54236 z m 5.341072,-0.89607 0.31834,0.77817 0.353714,-0.3773 c 0,0 0.247599,-0.53057 0.259389,-0.58952 0.01178,-0.059 0.04717,-0.6131 0.04717,-0.6131 l -0.294761,0.0708 z m -0.931446,1.8393 0.471616,0.15329 0.05895,0.50698 -0.436248,0.40087 c 0,0 -0.389083,0.16508 -0.471617,0.16508 -0.08253,0 -0.365503,-0.44804 -0.365503,-0.44804 l 0.247598,-0.45983 z m -45.294166,55.1341 0.300135,0.70032 c 0,0 0.283462,0.71698 0.283462,0.78368 0,0.0667 -0.133394,1.55071 -0.133394,1.55071 l 0.433529,1.23389 c 0,0 -0.183416,0.36682 -0.183416,0.43352 0,0.0667 -0.900406,1.28392 -0.900406,1.28392 l -0.400181,0.20009 -0.31681,-0.61695 -0.933755,-1.93421 0.266786,-1.05047 -0.01667,-0.85038 0.700316,-0.26679 0.0667,-0.76701 -0.266788,-0.36684 0.400181,-0.33348 z m 2.134297,-1.13385 0.733665,0.0667 0.05002,0.55025 -0.333483,0.40018 -0.783689,-0.10005 -0.183415,-0.3835 z m -1.167193,-1.11717 0.466877,0.11672 0.0667,0.36684 -0.183417,0.21676 h -0.60027 l -0.216765,-0.46688 z m 2.417759,-1.21722 0.283461,0.1334 v 0.63362 l -0.583597,0.41685 h -0.683642 l -0.266788,-0.31681 0.416856,-0.36683 z m 1.183869,-0.10004 0.466877,0.11672 0.366832,0.56692 -0.01668,0.71699 -0.01667,0.75034 -0.55025,0.46688 -0.433529,0.11672 -0.500226,-0.43354 0.11672,-1.91752 z m 45.087042,-57.1425 0.366833,0.23344 -0.03335,0.73368 -0.433529,1.00045 -0.366833,0.50022 -0.166744,-0.70032 -0.600269,0.0333 -0.133395,0.30014 -0.500225,-0.33349 -0.333484,-0.76701 v -0.60027 h 0.666968 l 0.233438,0.13339 0.666967,0.1334 0.433531,-0.1334 -0.20009,-0.43353 z m 1.333935,-8.67058 1.567374,0.63362 0.800362,1.80082 -0.133392,1.00045 0.400179,0.86706 -0.967103,1.20054 -1.167195,0.50023 -0.400178,-0.9671 0.867057,-1.36729 -0.200089,-0.43353 -0.633623,0.83371 -0.633618,-1.0338 0.23344,-0.90041 -0.800362,-0.56693 -0.43353,-1.13384 0.733665,-0.33348 z m -7.75887,10.09704 0.471616,1.2262 -0.04716,0.70742 0.82533,-0.16506 0.282972,1.2262 -0.943236,2.54674 0.117905,0.56594 1.697823,0.0708 0.495198,0.91964 -0.471616,0.63669 -0.966817,-0.4952 -0.282972,0.58952 -0.565939,-0.0943 -0.471619,0.25939 0.141486,1.57992 0.518778,1.39127 1.013979,-0.28297 0.282972,1.69782 -0.282972,1.20263 0.990398,-0.0236 0.400875,0.49521 -0.235809,0.82533 0.801749,1.17904 v 0.75459 l -2.358088,2.31092 -2.122278,0.0708 -2.641059,1.27337 -0.848913,2.00438 -0.188645,1.29694 -0.141487,0.9904 -0.754588,0.40088 -4.103075,1.20263 -1.579919,-0.18865 -0.754586,0.58952 -1.013979,0.0471 -0.518779,1.01397 0.683844,1.69782 -0.09432,1.62708 -0.754588,-0.37729 0.04716,-1.01397 -0.660265,-0.0236 -0.141487,0.89607 1.179045,0.94323 -1.933633,2.64107 -1.839307,2.73538 -0.801751,1.62707 -1.485596,0.77818 -1.391273,1.2262 -3.749358,0.70743 -1.792149,4.26815 -0.990396,0.94323 -1.226207,0.21223 -0.990397,1.34411 -0.471617,0.0943 -0.282971,0.77817 -1.957212,0.77816 -1.650662,0.0471 -0.778169,0.54236 -0.141487,0.70743 -0.565939,1.53276 -1.603501,0.16506 -1.650661,0.94323 -2.051538,1.81573 -0.306551,0.25939 -0.306551,-0.40087 c 0,0 0.330132,-1.29695 0.353713,-1.39127 C 22.932706,228.55717 23.31,226.765 23.31,226.765 l 2.287346,-3.63145 1.462014,-0.63669 0.330133,-0.94324 1.910053,-2.64105 0.636683,-0.16507 0.707426,-0.63668 0.848912,-1.20263 0.542361,0.0708 0.28297,0.25939 0.471617,-0.1179 0.400876,-1.79215 2.806125,-1.98079 0.82533,-0.0471 0.330133,0.77818 0.613103,-0.11791 1.108302,-1.62708 0.424455,-0.0236 0.212227,-1.10829 0.848914,-0.25939 0.377294,-1.41486 2.240183,-1.83931 0.04716,-0.77816 0.54236,-0.47162 0.330132,0.14148 1.320529,-1.27337 2.688223,-2.7118 -0.07074,-0.73101 0.825331,-0.63668 -0.07074,-0.82533 1.226207,-0.75458 0.683844,-1.39128 0.424458,0.0471 -0.09433,0.9904 0.400877,0.63668 0.353713,-0.14148 0.235808,-0.87249 -0.542361,-0.66027 0.09433,-1.10831 0.424455,-0.28296 1.556339,-0.0236 0.495199,-1.27337 1.485595,-1.24979 -0.07074,-0.35371 -0.731008,0.0943 -0.165066,-0.47162 0.707426,-0.63669 0.613103,-0.18864 0.212228,0.40087 0.943235,-0.56594 -0.282971,-0.94323 0.731009,-0.0236 v 1.57992 l 0.966814,-0.47161 0.872496,-1.03757 0.353711,-0.47162 -0.04716,-0.37728 0.943235,-0.91966 0.188646,-1.55634 0.518781,-0.89607 -0.660265,-0.84891 -0.589521,0.25939 -0.330133,-0.28297 0.04716,-0.89608 -0.872493,-0.51878 0.613103,-0.42446 -0.377296,-0.87249 0.353715,-0.6131 0.51878,0.25939 0.259389,1.39128 2.452411,2.31092 0.400875,0.0943 -0.471616,-1.27337 0.188646,-0.63668 -0.471617,-0.51878 -0.636686,0.0708 -0.565939,-0.42445 0.282969,-0.80175 -0.778167,-0.23581 -0.09433,-1.46201 0.282972,0.0708 0.28297,0.30654 h 0.400876 l -0.872492,-1.462 0.188646,-0.73101 0.330132,0.40087 0.613103,1.06115 0.518781,0.0943 0.212227,-0.9904 -0.330132,-0.84892 -0.259391,-0.6131 0.09433,-0.51877 0.448037,-0.28298 0.04716,-2.02796 0.683845,-0.47161 0.02359,-1.17904 z m 36.208444,96.15103 0.530571,0.14149 0.0471,0.64849 -0.683843,0.57772 -0.2476,-0.34193 0.141485,-0.69563 0.212227,-0.28297 z m 1.013981,1.32054 0.31834,0.507 -0.22402,0.55415 -0.50699,0.29474 -0.353712,-0.40086 v -0.6131 z m 1.82751,-1.3677 0.53057,0.47164 -0.76637,1.04934 -0.36551,-0.0119 -0.10611,-0.49519 0.23581,-0.73099 z m 1.50918,-0.54235 1.32053,1.03754 h 0.80175 l 0.80175,-0.4598 0.38909,0.27118 -1.76857,1.09648 -0.55415,-0.0708 -0.64847,-0.51878 -1.03757,-1.12011 0.41268,-0.56592 z m 0.8725,-1.59171 0.81354,0.93145 -0.69564,0.47161 -0.731,-0.56595 0.0118,-0.58951 0.31834,-0.34194 0.23581,0.0354 z m -3.77294,-8.91358 0.4834,0.6131 -0.27118,1.70962 -0.45982,-0.15328 -0.1297,-0.88428 -0.47162,-0.40088 0.24761,-0.81354 z m -10.215908,17.60601 0.616943,0.0584 0.01666,0.52522 c 0,0 -0.483551,0.37519 -0.5169,0.40021 -0.03335,0.0251 -0.566924,-0.2418 -0.566924,-0.2418 l 0.108383,-0.70865 z m 2.175982,-2.84294 c 0.04168,0.008 1.075486,0.20844 1.075486,0.20844 l 0.241776,0.47521 -0.208427,0.53357 -1.317263,0.39185 -0.43353,-0.3835 0.100046,-0.76703 z m -6.869094,4.96823 0.365505,0.22991 0.05895,1.06704 -0.554152,0.43036 -0.571836,-0.66027 c 0,0 0.300657,-0.91966 0.300657,-0.94914 0,-0.0294 0.400873,-0.1179 0.400873,-0.1179 z m 1.591711,-0.32424 0.742798,0.81945 -0.04717,0.78407 -0.618998,0.57182 c 0,0 -0.843018,-0.48929 -0.843018,-0.51287 0,-0.0236 -0.04127,-1.23211 -0.04127,-1.23211 l 0.618998,-0.50108 z m 0.813541,-2.92991 0.294761,0.11201 0.365504,0.71921 c 0,0 -0.595419,0.50109 -0.613103,0.46573 -0.0177,-0.0353 -0.400876,-0.37731 -0.400876,-0.37731 l -0.170961,-0.77816 z m -1.755636,0.92044 1.100498,-0.10005 0.200092,0.70034 -0.733665,0.46685 -0.767014,-0.23342 -0.100045,-0.36683 z m -17.774698,13.83959 0.700317,0.20009 0.0667,0.63361 -0.100045,0.56694 -0.733666,0.0333 -0.100045,-0.46689 -0.200089,-0.76701 z m -6.03606,0.23345 0.566921,1.03379 0.366833,2.10096 -0.566922,1.80081 -0.366832,0.0333 -0.26679,-1.30059 0.0667,-2.10096 -0.233438,-0.86706 v -0.7003 z m 19.975693,-26.1785 0.166741,0.53358 -0.366833,1.53401 -0.20009,0.66697 -1.233892,0.0667 -0.566921,-0.20009 0.166742,-0.66697 0.566923,-0.10004 0.533573,-1.46735 z m -6.602985,18.37496 0.23344,0.90042 0.600271,0.76701 0.733664,0.10004 0.233438,0.46687 1.000452,-0.56691 -0.800359,1.50068 -0.233441,-0.1334 -0.666968,0.43353 -0.43353,-0.20009 -0.533572,0.40018 -0.03335,0.56692 h -0.833712 l -0.100043,-0.73365 -0.600273,-0.46689 -0.566922,0.56693 -0.500227,0.40017 -0.500224,-0.36681 -0.133394,-0.50025 -0.767015,0.36685 -0.466876,1.33392 -2.601175,0.76701 h -0.800362 l -0.233438,0.43353 -0.500228,-0.10004 0.100046,-0.80035 0.900406,-1.2339 0.86706,-0.46689 0.800362,-0.0333 1.133843,-0.66697 0.366833,-0.73366 h 0.600273 l 0.366833,0.16673 2.434432,-2.13429 z m 15.040129,-13.20595 1.600726,0.26677 0.633618,1.16719 1.433982,0.0333 1.100497,-0.10005 0.566923,0.23345 0.200091,-0.86707 c 0,0 0.900406,-0.50021 1.000451,-0.10004 0.100046,0.40017 0.20009,0.83371 0.20009,0.83371 l -0.333484,0.36683 0.200092,0.70031 -0.500227,0.53357 -0.500225,0.63362 h -0.833711 l -0.633619,0.76702 -1.000451,-0.40017 -0.400181,-0.90043 -0.533576,-0.40016 -0.500225,0.33348 -1.200543,0.70031 -0.500228,0.20011 -0.933754,-0.80038 -1.367284,0.60027 -1.167195,-0.53358 -0.233438,-0.90039 0.433528,-0.9671 1.534027,-0.73367 0.60027,-0.56692 z m 53.199415,-22.91184 0.24761,0.35371 -1.09652,1.46202 -0.31834,-0.17686 v -0.7428 l 1.01398,-0.93145 z m -38.17599,12.77393 0.26682,0.48353 -0.26678,1.26724 1.60071,0.10005 0.26679,-0.71699 -0.41686,-0.43353 0.11672,-1.56738 0.30014,-0.16673 0.0333,-0.33349 v -0.05 m -1.0004,-0.18344 1.81748,0.15007 0.33349,0.56692 0.5836,-0.0833 c 0,0 0.36683,0.15006 0.36683,0.21676 0,0.0667 0.0167,0.60028 0.0167,0.60028 l 1.73413,0.18341 0.28346,0.35016 h 0.9004 l 0.36683,0.38351 0.0333,0.53358 -0.26678,0.40017 -1.58405,0.05 -0.28347,0.43354 -0.11672,0.86705 0.0834,0.65029 -1.75078,0.55026 -0.98378,0.56693 -1.80082,-0.05 -0.18342,-0.55027 -1.43397,-1.36728 0.10004,-0.93375 -0.48355,-0.40019 -0.78368,-0.15006 -0.15007,-1.01713 0.58359,-0.61694 0.93375,0.0667 0.0167,0.21677 0.76702,-0.0167 0.53357,-0.51691 -0.20009,-0.65029 0.26679,-0.33348 z m 7.31998,-0.50022 0.70031,0.98377 -0.28346,0.25011 -0.76701,-0.41685 -0.21677,-0.5169 z m -2.40109,-3.85174 0.43353,-0.0167 0.36683,0.73366 -0.31681,0.35016 -0.85038,0.16675 -0.48356,0.13339 0.0834,-0.61695 z m 55.43645,27.81318 0.80765,0.0708 0.0236,1.25566 -0.3832,0.006 -0.22401,-0.30066 -0.58363,0.24761 -0.43625,-0.38909 0.0943,-0.45394 z m 1.77446,-1.17904 0.43625,0.47164 -0.112,0.8371 -0.1356,0.71921 -0.33013,0.1179 -0.22402,-0.38908 -0.14148,-1.08471 c 0,0 0.11201,-0.34194 0.1238,-0.36549 0.0118,-0.0235 0.38318,-0.30657 0.38318,-0.30657 z m 3.66093,-25.92128 0.3773,0.13559 0.24171,0.67795 -0.20044,0.4952 -0.30066,0.0353 -0.40087,-0.48931 -0.10022,-0.48929 z m 0.56595,-4.08538 c 0,0 0.82533,0.64846 0.8607,0.67205 0.0353,0.0236 0.54825,0.48931 0.54825,0.48931 l -0.13559,0.73689 -0.22991,0.64258 c 0,0 0.13559,1.39128 0.14149,1.42075 0.006,0.0295 0.14738,0.52468 0.14738,0.52468 0,0 -0.44215,0.59541 -0.47162,0.64257 -0.0294,0.0471 -0.3655,-0.0353 -0.3655,-0.0353 l -0.26528,-0.64848 -0.20634,-0.48931 c 0,0 -0.14739,-1.5976 -0.14739,-1.62118 0,-0.0236 -0.50698,-0.21223 -0.50698,-0.21223 0,0 -0.28887,-0.15917 -0.28887,-0.21223 0,-0.053 0.006,-0.4834 0.006,-0.4834 l 0.45393,-1.39128 z m -3.66168,-41.93963 0.31681,0.025 0.53357,0.43353 -0.1584,0.83371 -0.0833,0.55025 -0.0917,0.42519 h -0.10838 l 0.39184,0.55858 -0.24178,0.45021 -0.19175,0.10005 -0.26679,-0.14173 -0.25011,-1.37563 -0.32515,-0.69198 c 0,0 -0.10837,-0.63362 -0.10004,-0.66696 0.008,-0.0333 0.28346,-0.43354 0.28346,-0.43354 z m -32.74131,-42.79239 0.30656,0.11791 0.0236,0.58952 -0.40086,0.0472 -0.11791,-0.33013 z m 41.62865,39.2658 0.55026,-0.0333 0.46688,0.15007 v 0.35015 l -0.7837,0.10005 -0.13339,0.18341 -0.50022,-0.16674 -0.16674,-0.40017 z m -1.55069,-0.51691 0.60027,0.41686 0.0167,0.73366 0.40019,0.26679 0.13339,0.68364 -0.21676,0.46688 -0.0833,0.93376 -0.35016,0.23344 -0.68363,-0.55025 -0.46689,-0.6503 c 0,0 0.40019,-0.73366 0.45021,-0.85038 0.05,-0.11672 -0.21677,-1.00045 -0.21677,-1.00045 l 0.0667,-0.43353 z m -0.15007,-2.66786 0.95043,-0.91709 c 0,0 0.46688,0.18342 0.5169,0.11672 0.05,-0.0667 0.53357,-0.65029 0.53357,-0.65029 l -0.0834,-0.76702 0.70032,-0.51689 0.5836,1.13384 0.53357,1.6174 0.0167,0.75034 -0.0333,0.20009 0.51689,0.46687 0.23344,0.41686 -0.28346,0.48355 -0.46687,0.38351 -0.40018,0.28346 -0.86706,-0.13339 -0.50023,-0.31682 -0.40017,0.1334 -0.60028,-0.76701 -0.46688,-0.70032 c 0,0 -0.5836,-0.53357 -0.56692,-0.60027 0.0167,-0.0667 0.0833,-0.61694 0.0833,-0.61694 z m -4.63543,3.38486 0.48355,0.40017 -0.20008,0.51691 -0.43354,0.0667 -0.0167,-0.46689 z m 1.1005,-1.6174 0.50022,0.33348 -0.16673,0.55025 -0.8504,0.23344 c 0,0 0.0667,-0.48355 0.0667,-0.56692 0,-0.0833 0.45021,-0.55025 0.45021,-0.55025 z m -11.38848,-2.85129 0.18342,0.0667 0.30013,0.86707 -0.18342,0.58359 -0.40017,0.0667 -0.26679,-0.73366 -0.10005,-0.55026 z m 1.45065,-3.31817 0.5836,0.33349 h 0.28347 l 0.65029,1.33394 0.76701,1.33393 0.18341,1.1005 -0.30013,0.55024 -0.4502,-0.23343 -0.5836,-1.13384 -0.70032,-0.75035 -0.38351,-0.83371 -0.61694,-0.13339 -0.10004,-0.75034 0.05,-0.70032 z m 8.32043,-5.6859 0.60028,-0.0833 0.40017,1.35061 -0.58359,1.95088 c 0,0 0.0667,1.43398 0.11672,1.63407 0.05,0.2001 0.66696,1.01713 0.66696,1.01713 l -0.28345,0.36683 0.30013,0.80036 0.0667,0.9671 -0.50022,1.11718 0.43353,0.90041 0.20009,0.4502 -0.46688,0.70032 -0.05,0.35015 -1.31726,0.38351 -0.40019,-0.31681 0.0167,-0.66696 -0.0667,-0.73367 0.86706,-0.13339 0.25011,-0.35016 -1.01712,-0.95043 -0.20009,-0.70032 0.31681,-0.48355 -0.11672,-0.48356 -0.80036,-0.10004 -0.33349,0.46688 c 0,0 -0.25011,0.0333 -0.26679,-0.0667 -0.0167,-0.10004 -0.28346,-0.88373 -0.28346,-0.88373 l 0.33349,-1.90086 c 0,0 0.36683,0.0667 0.3835,-0.0333 0.0167,-0.10005 -0.20009,-2.10095 -0.20009,-2.10095 0,0 0.46689,-0.05 0.50024,-0.11672 0.0333,-0.0667 0.0833,-0.86705 0.0833,-0.86705 l 0.26679,0.0167 0.33348,0.31681 0.41686,-0.0167 -0.0167,-1.21722 z m -2.41776,-0.16675 0.31681,0.65031 -0.23344,0.40018 -0.46687,-0.0833 -0.16674,-0.51691 0.25011,-0.43353 z m 3.95179,-6.15277 0.30014,0.36683 -0.23344,0.70032 0.35016,0.40017 1.28391,-0.10003 0.3168,0.60026 -0.33347,0.55026 h -1.03381 l -0.93375,-0.75035 -0.70032,-0.55024 0.10005,-0.80037 0.53357,-0.51689 0.36683,0.0333 z m -1.31727,-3.51826 0.53358,0.38351 -0.0833,0.46688 -0.48356,0.0834 -0.35016,-0.35016 0.0333,-0.43353 z m -82.145451,-22.08498 0.516901,0.56693 -0.0917,0.37516 -0.441865,-0.025 c 0,0 -0.09171,-0.4502 -0.08337,-0.48355 0.0084,-0.0333 0.133394,-0.4502 0.100045,-0.43353 z m 0.745955,-0.86166 0.521287,0.11966 0.5169,1.11717 0.767013,1.10049 -0.23344,0.31682 -0.616946,-0.26679 c 0,0 -0.983776,-1.10883 -0.983776,-1.1672 0,-0.0584 -0.2918,-0.85038 -0.2918,-0.85038 z m 9.620996,5.25853 0.28297,1.81574 -0.70742,0.0236 -0.424459,-1.17904 z m -2.52315,1.9808 1.697822,0.40088 -0.02359,0.91966 h -1.061138 l -0.872495,-0.30656 -0.212228,-0.68384 z m -0.990398,-4.05591 0.683845,0.80175 0.259391,1.22621 -0.801752,0.2358 -0.589521,-0.73101 -0.165066,-1.01397 z m -1.249789,44.49712 0.212231,0.58953 -0.707428,0.47162 -0.542361,-0.23581 z m -1.320528,0.30656 0.28297,0.51878 -0.754587,0.63668 -0.306551,-0.35371 z m 54.018265,29.18405 0.83371,0.0333 0.43353,0.93376 -0.90041,1.0338 -0.0333,1.50068 -1.73411,0.30014 -1.73413,-0.70033 v -0.50022 l 1.73413,-0.86705 z m 19.71916,0.40996 10.86132,-0.17652 0.93376,1.00045 2.30104,-1.23389 2.60117,0.0667 0.25731,1.56947 m -27.77822,22.37822 v 0 l 0.2358,1.08475 0.73101,0.1179 0.49519,-0.8961 m -1.81573,-17.5678 -1.50917,-0.44797 -0.66026,0.42447 -1.72141,-0.84892 -1.29695,0.0236 -0.42445,0.44803 -0.30656,1.76857 0.91966,1.81573 -0.9904,2.40525 -0.94323,1.01398 -0.6131,1.17904 0.25939,0.37729 0.49519,-0.0943 0.70743,-1.01397 1.46201,-0.21223 0.28298,0.14148 c 0,0 -1.20263,2.07512 -1.27337,2.16944 -0.0708,0.0943 0.0708,1.01399 0.0708,1.01399 l 0.68385,0.37729 0.75458,0.0943 0.66027,0.87249 1.17905,0.33012 0.70742,0.0943 0.47162,-0.47161 0.18864,-0.77818 -0.51878,-0.54236 0.21223,-0.40087 0.47162,-0.23581 0.14148,-0.42445 -0.94323,-1.10831 0.35372,-0.40087 2.24018,2.26377 -0.23582,1.43843 0.0236,3.79652 0.66027,0.25939 1.20262,-0.18865 1.46202,1.03756 -2.07512,1.15547 -0.28298,0.2358 -0.8489,-1.08471 -0.6131,0.77816 c 0,0 -0.16508,-0.0943 -0.21223,-0.18865 -0.0471,-0.0943 -0.40088,-1.06113 -0.40088,-1.06113 l -0.56594,-0.9904 h -0.91966 l 0.47162,-1.62708 -2.19303,0.0708 -0.2358,0.6131 0.16507,0.47162 v 0.80175 l -0.9904,0.58953 -4.15024,0.0471 -0.0943,-0.37729 -4.90498,0.23569 m 3.5842,-9.52667 1.01414,1.34423 1.17905,0.77817 -0.14149,0.70742 -1.06114,-0.44803 -0.91966,0.23581 -1.1792,-1.29708 m -5.77716,-9.14925 0.51878,-0.91966 2.45242,0.96682 0.35371,-0.37729 -0.0471,-0.91966 0.73101,-0.94323 -0.23581,-1.34411 1.24979,-0.0708 0.6131,-0.42446 0.0236,-1.3441 1.03756,-0.77817 0.58952,0.1179 1.13188,-0.82533 -0.0708,-2.45241 0.66026,0.0471 0.94324,0.87251 2.09869,0.51877 1.53276,3.48997 0.9904,2.00438 1.67425,1.86289 0.37729,1.15546 0.35371,0.87249 1.06114,1.27337 -0.37729,1.1083 v 0.25939 l 0.6131,0.0472 0.0708,0.58953 0.54236,0.40087 0.73101,0.0471 0.18865,-0.0943 0.73101,0.4952 1.20262,0.1179 0.82533,-0.73101 1.2262,-0.18864 0.56595,-0.42446 -0.16507,-1.29695 0.82533,-0.94323 0.73106,0.2358 m -30.16027,-18.79372 -0.16488,8.88986 0.18865,1.15546 1.83912,0.73114 m -0.18865,0.94324 0.071,1.1789 -0.63668,1.22621 m 28.2734,-22.18961 0.16507,2.99477 0.33014,0.68385 -0.11791,7.78169 0.70742,1.69782 1.74499,2.07512 0.35372,4.38605 0.66025,1.41485 0.33014,2.52315 -0.23581,1.88647 -0.35371,0.54236 -0.75459,0.14149 -1.34411,-0.0943 -0.75459,-0.21222 0.0472,1.03755 -0.44804,4.4568 0.25939,3.207 0.80175,0.70742 0.18865,1.15546 -0.6131,0.49521 -0.16508,0.96681 -1.69782,1.55633 -0.33013,0.82533 h -0.42445 l -0.14149,1.08473 0.28297,1.1083 0.0471,0.84891 0.77816,1.29695 0.0471,1.43843 0.91965,0.89609 1.08473,0.0235 1.15546,-1.43842 1.20263,1.41486 v 1.17902 l -0.35371,0.61312 0.14147,0.47162 0.94325,0.66025 0.56593,1.20264 -0.0472,1.50915 0.44804,0.35372 -0.11791,1.13187 -0.70742,2.07514 -0.0236,1.69783 -1.50917,2.71179 -0.18865,0.75461 -1.13188,0.89605 -0.28312,0.63674 m 2.64136,-76.14268 1.13188,0.66025 0.94323,-0.30654 0.80175,1.29694 -0.0943,1.32053 1.72139,0.91966 2.8533,0.80175 1.36768,0.94323 -0.63668,1.24979 0.0471,0.6131 0.75458,0.0471 0.91965,-0.70742 0.33014,0.44803 -0.68385,1.29695 0.9904,1.41485 0.91966,0.0472 1.39126,-1.17904 0.58953,0.2358 -0.68385,3.53714 0.63668,0.51878 1.74499,2.3345 0.51878,2.14586 -0.75459,1.17905 -1.24979,0.73101 -0.1179,0.70742 -2.0987,0.96682 0.33013,0.66026 0.44804,0.84891 0.8725,0.16507 0.33013,-0.42446 2.57031,0.3773 0.73101,0.68384 -0.51878,1.08472 0.54236,0.63669 -1.17904,1.1083 0.51877,0.63669 h 0.70743 l -0.54236,0.77816 -0.84891,0.75458 0.47162,0.42447 1.86289,-1.01398 0.0943,1.74499 -0.40087,2.24018 -1.29695,2.26376 0.70743,1.08472 1.62708,1.53276 1.48559,0.37729 -0.33013,2.2166 0.3773,1.06114 0.42445,0.80175 -0.16506,0.91966 -0.7546,0.54236 0.16507,0.73101 0.0943,1.2262 0.44804,0.51879 -0.1179,0.68384 -0.94324,1.24979 -1.24979,2.0987 -0.14148,1.27336 -2.31093,-0.0236 -0.44804,1.17905 0.91966,1.29694 -0.0708,1.27337 -0.89607,-0.16506 -0.21224,-0.89608 -0.0236,-0.73101 -1.34412,-1.34411 -0.51878,0.66026 v 0.9904 l 1.34411,1.83931 -0.56594,2.07512 -0.0471,2.85329 -0.4952,2.05155 0.23581,1.50915 -0.40087,0.14151 -1.03757,-1.98079 -0.51877,-1.65067 -0.56595,-1.2498 v -1.7214 l 0.49521,-2.00437 -0.3773,-1.69783 -1.83931,-1.29695 0.0471,-2.0987 -1.20263,-0.91965 -1.15546,-2.92403 0.23582,-1.6035 -0.49521,-0.25939 -1.8393,1.29695 -1.06115,0.56594 0.0471,2.38167 -1.36769,1.48559 -0.63669,-0.0236 -0.91966,1.55634 -0.0708,0.96681 -1.32052,1.4856 c 0,0 -0.44804,0.80175 -0.47162,0.91965 -0.0236,0.11791 -0.0708,2.16944 -0.0708,2.16944 l 0.16507,0.70743 0.47162,0.30655 0.70743,-0.21223 0.77816,1.08472 0.77818,0.54236 c 0,0 0.54236,0.21225 0.58952,0.30656 0.0471,0.0943 0.1179,0.91965 0.1179,0.91965 l 0.80175,1.15546 0.70743,1.79217 0.89607,4.22097 -2.16944,3.32491 -2.00437,3.08908 -1.39128,2.07513 -1.79214,0.21222 -0.35372,-0.58952 0.18865,-1.34411 -0.54236,-0.8725 -0.66027,-0.0708 -0.82533,-1.34411 -0.16507,-0.89608 1.01398,-1.27337 0.80175,-0.80174 0.23581,-1.01399 -0.42445,-0.96681 -0.44804,-0.56595 -0.70743,0.0235 -0.47162,-0.16506 -0.30654,0.44803 -0.3773,1.29697 -0.63668,1.41484 -0.3773,1.6035 c 0,0 -2.38166,-0.0943 -2.52316,-0.0943 -0.14148,0 -4.83407,-1.93363 -4.83407,-1.93363 l -4.52753,-2.28736 -3.56072,-1.79214 -1.01397,-1.74498 -1.62708,-1.81573 -0.56595,-2.68823 0.3773,-1.74498 -0.80175,-1.76856 0.42445,-0.73101 -0.35371,-0.56595 -0.6131,0.23581 -0.47162,-0.94323 0.56594,-3.27774 1.67424,-2.59391 1.24979,-0.33013 1.1083,-1.32052 0.0708,-1.3677 0.63668,-0.33012 0.0236,-0.89608 c 0,0 -1.17905,-0.0471 -1.29696,-0.0471 -0.1179,0 -1.43843,-1.79214 -1.43843,-1.79214 l -1.15546,-1.9808 -1.15547,-0.18865 -2.02795,-1.10829 -1.74499,-0.30656 -0.94323,-1.50917 -2.66465,-0.94323 -1.79214,0.63667 -0.0943,0.68385 0.91966,0.80175 -0.51878,1.91006 -1.17904,0.47161 -0.63669,0.4952 0.35372,0.9904 0.84891,1.08472 0.3773,0.54236 -0.14149,0.87249 -0.42446,0.33013 -0.63668,-0.33013 -0.82533,-0.77816 -0.77817,-0.8725 -0.0472,-0.9904 -0.94323,-0.18865 -0.58952,1.20263 -0.63668,0.18865 -0.91966,-1.29696 0.23581,-0.75458 1.13189,-0.23581 0.18864,-0.44804 -0.77817,-0.51878 -0.49519,-0.37729 0.2358,-0.77817 -0.37729,-0.40078 -0.51878,0.77816 -0.68384,0.33013 -0.14149,0.73101 -0.21223,1.43843 -0.28297,0.77817 v 0.51879 l -0.68385,0.30654 c 0,0 -0.6131,-0.58952 -0.6131,-0.68384 0,-0.0943 -0.18865,-0.96681 -0.18865,-0.96681 l -0.731,0.14148 -0.37729,1.13188 -0.44804,0.91965 0.51878,0.66027 0.58952,-1.06114 0.731,0.33013 0.58953,1.01399 -1.20263,1.10829 -1.29695,0.68385 -0.99039,-1.39128 0.40087,-2.38166 -0.44803,-0.40088 0.0943,-0.77817 0.42445,-0.37729 -0.42445,-1.06114 0.18865,-1.65067 0.35371,-0.58951 -0.4952,-0.28298 -1.81573,-0.30655 -2.3345,0.82533 -2.0987,2.57032 0.96681,0.47161 -0.25939,1.13189 -0.58952,0.28298 -0.1179,-0.40088 0.18864,-0.56595 -0.54236,0.0708 -1.03755,1.32054 0.0236,1.2262 0.56595,0.0943 v 0.49521 l -1.01398,1.20262 -0.731,-0.0471 -0.44804,2.42883 -0.75459,2.05154 -0.54236,1.03755 -0.47162,1.29696 -0.82533,0.44803 -1.29695,-0.0236 -2.24018,-1.29695 -0.66027,-2.87687 0.77818,-1.36768 2.09869,-1.69782 -0.28297,-0.77818 0.66027,-2.97119 0.99039,-0.9904 -0.28297,-0.47161 0.51878,-1.24979 -0.77817,-1.27337 0.44804,-1.55634 1.06114,-1.27337 0.54236,-0.0236 0.42445,-0.44804 -0.28296,-0.75459 1.65066,-1.32053 2.7118,-0.84891 0.80175,0.23581 1.72141,-0.66027 1.20261,-1.2262 0.82534,1.03756 1.91005,-0.18865 0.87249,-0.51878 h 0.47162 l 1.65066,-1.17905 0.0708,-0.49519 -0.91966,-0.77818 v -0.68384 l 0.75459,-0.14148 -0.35372,-1.41486 1.60351,-2.07512 1.67424,-0.2358 1.62708,0.35371 h 0.89607 l 0.75459,-2.05154 0.51878,-0.25939 0.70743,0.30655 0.21222,-0.2358 -0.77816,-1.15547 0.1179,-0.33013 0.77817,-0.18864 0.73101,0.77816 0.63668,-0.0943 0.18865,0.4952 -0.23582,0.6131 0.47163,0.33013 0.63668,0.11791 0.30656,-0.75459 0.49519,-0.30655 0.6131,0.47161 1.20263,0.25939 0.75458,0.63668 0.66027,1.17905 0.6131,1.17905 0.73101,2.64106 -0.18865,0.87249 0.21223,2.24018 -1.67425,1.53276 -1.20262,0.3773 -0.66026,0.44803 -0.18865,0.54237 v 0.40087 l 0.54236,-0.0472 0.89607,-0.6131 2.0987,-1.9808 0.73101,-0.23581 1.95722,-1.3677 2.99476,-0.0943 0.75459,-0.33014 0.6131,-1.10829 -0.30654,-0.89608 0.35371,-0.91966 0.35372,-0.23581 -0.0236,-1.53275 0.42445,-1.03756 2.42884,-1.57992 0.75459,0.0943 0.2358,0.6131 1.65067,1.27337 0.96681,-0.1415 0.47162,0.84892 0.84891,-0.0471 0.4952,-0.35372 -0.16506,-0.91965 0.42445,-0.84891 -0.21223,-0.77816 -0.18865,-0.2594 0.0708,-0.84891 0.54235,-0.33013 -0.33013,-0.731 0.6131,-1.08473 -0.40086,-2.00437 0.54236,-1.27337 1.13187,-0.14148 3.01835,1.74498 0.9904,1.53275 1.15547,-0.21222 0.51878,-0.80175 -0.42446,-2.07512 0.33014,-1.36769 0.51877,-0.28297 1.46202,1.83931 h 1.15546 l 1.46202,0.30655 1.76856,-1.29695 -0.30655,-2.68822 -1.27337,-3.74936 -1.06114,-3.41922 0.0236,-2.54674 0.70743,-0.91966 z m -62.05337,-41.25225 0.28763,0.35849 c 0,0 -0.0375,0.99629 -0.0375,1.02547 0,0.0291 -0.24594,0.0542 -0.24594,0.0542 l -0.52524,-0.42102 -0.0875,-0.71282 0.4252,-0.30431 z m 21.87155,14.60585 0.1179,0.34192 c 0,0 -0.43625,0.54236 -0.4834,0.60131 -0.0471,0.059 -0.38909,-0.0353 -0.38909,-0.0353 L 128.3982,177.54 Z m 2.93582,-6.16641 0.25938,0.31835 -0.55415,0.93144 -0.12969,-0.51878 z m -1.27337,3.18342 0.18865,0.63669 -0.43625,0.22401 -0.30655,-0.28297 0.15328,-0.47161 z m -0.91966,-0.95502 0.40088,0.34192 -0.28297,0.60131 -0.40088,-0.15327 -0.15328,-0.44804 z m 21.44308,-7.56644 0.44187,0.0167 0.12505,0.82538 -0.19175,0.23344 -0.54191,-0.0417 -0.32515,-0.41686 0.1334,-0.39184 z m -1.81749,1.95922 0.28346,0.25012 v 0.71698 l -0.35016,0.21677 -0.36683,0.0251 -0.42519,-0.50856 0.10838,-0.57526 z m 1.46751,-3.16488 0.30656,0.18865 0.0236,0.51878 -0.54236,0.0236 -0.14148,-0.18865 -0.0708,-0.40087 z m -1.57991,0.63669 0.35371,0.51878 -0.63669,0.84891 -0.63668,-0.35371 -0.0471,-0.58952 z m 8.98431,6.55549 -0.14149,0.70742 -0.80175,0.16507 -0.30655,-0.56594 0.43986,-0.33204 0.77535,0.025 z m -1.20263,-2.49958 0.63669,1.74499 -0.28297,0.40087 -1.24979,-0.73101 -0.11791,-0.94323 0.35372,-0.42445 z m 1.13188,0.73101 0.11791,1.17905 0.94324,0.2358 0.25939,-1.08472 -1.24979,-0.42445 z m -11.60178,-7.21575 1.17904,0.0236 c 0,0 0.14148,0.70742 0.0471,0.70742 -0.0943,0 -1.32053,0.56595 -1.32053,0.56595 l -0.44804,-0.23581 -0.0236,-0.54236 z m -0.3773,-7.09785 0.80175,1.46202 -0.33013,0.54236 -0.61311,-0.25939 -0.33013,-0.66027 0.0472,-1.15546 z m 1.62708,0.44804 0.51878,0.70743 0.16506,1.15547 -0.40087,0.0943 -0.35371,-0.47162 -0.18865,-1.24979 z m 1.8393,-2.92403 0.82534,0.35371 -0.25939,0.51878 -0.56595,-0.14148 z m 0.0708,-1.20263 0.0471,0.68386 0.4952,0.30654 0.75459,-0.0943 -0.16506,-0.70743 -0.80175,-0.35371 z m -19.69004,1.65067 2.12228,1.88647 1.69782,-0.42445 2.31094,1.6035 0.8489,1.2262 2.26377,1.74499 0.0943,1.08472 0.94323,-0.94324 0.66027,0.18865 1.13188,1.27337 2.26377,3.67862 -0.66026,0.56594 1.03756,1.88647 -0.0943,2.07511 -0.47162,0.23581 -2.49957,-3.11268 -2.8297,-0.56593 -0.9904,-0.89608 0.6131,-0.33014 -1.83931,-1.50917 -1.50918,-2.49957 -1.50917,-0.33013 -0.75459,1.32052 -1.50918,1.32053 -0.80175,1.36769 -1.13188,1.17905 -0.80175,0.70743 -0.42445,-0.28298 0.23581,-1.32052 0.6131,-1.41485 0.14148,-1.17905 0.70743,-0.33013 0.80175,-1.17904 -0.42446,-0.61311 -0.80175,0.51878 v -1.03756 l 0.75459,-0.84891 0.3773,-1.98079 -0.66027,-0.51878 -0.28297,-2.07512 z m -4.07949,-10.09261 3.11268,4.22097 1.36769,0.18864 0.54236,1.8629 1.81573,2.07512 -0.4952,0.40087 -2.33451,-2.73538 -1.06113,-0.28297 -2.09871,-2.42883 -2.05153,-0.96681 -0.16507,-1.55635 0.58952,-0.80175 z m -16.43269,5.76711 -0.45019,1.23389 -0.83372,-0.28346 -0.0333,-0.53357 0.50023,-0.28346 0.65029,-0.18342 z m -0.35016,-2.55115 0.61695,0.15007 -0.23344,0.9671 -0.31681,0.35016 -0.75034,-0.60028 -0.0167,-0.55024 z m -6.1361,0.40018 0.41685,0.28347 -0.0667,0.66696 -0.3168,0.28346 -0.5836,-0.36683 -0.20009,-0.63362 0.30013,-0.26679 z m -6.394557,-4.8772 0.325149,1.20888 -0.37517,0.6753 -0.516901,0.27512 -0.350159,-0.61694 0.300135,-1.40897 z m -5.077293,-6.47793 0.383506,0.15007 0.216765,0.70031 -0.366833,0.21677 -0.750339,-0.38351 -0.01666,-0.5169 z m -3.835068,-1.6174 1.617397,0.18342 0.05003,0.65029 -1.050476,0.25011 -0.800362,-0.48354 -0.383506,-0.40019 0.316811,-0.23344 z m -14.456533,-4.41866 0.300135,0.4502 -0.266786,0.28346 -0.383506,-0.18342 -0.08337,-0.48354 z m 5.102306,4.15187 1.567376,0.56693 0.08337,0.63362 -1.133845,-0.40018 -0.867061,-0.21677 z m -0.250113,-2.81793 0.400181,0.51689 -0.116719,0.60028 c 0,0 -0.283462,0.28345 -0.316811,0.21677 -0.03335,-0.0667 -0.566921,-0.48356 -0.566921,-0.48356 l -0.01667,-0.63363 z m -3.434885,-0.50023 2.0676,0.81703 0.900409,1.45066 0.08337,1.01712 -0.333483,0.26679 -2.050928,-1.40063 -1.233892,-0.78369 -0.28346,-1.33393 0.750338,-0.0667 z m 74.645543,57.014 0.57773,0.55415 0.16507,1.41485 -0.96683,0.57774 -0.77816,-0.11791 -0.20044,-0.7428 0.47162,-0.63667 0.10612,-0.82534 z m 2.41704,0.15328 0.9904,0.8607 -0.47162,0.71922 -1.65067,0.18865 -0.35371,-0.76639 0.0353,-0.63668 0.62489,-0.55415 z m 1.45022,-1.82752 0.34193,0.28297 -0.31835,0.80175 -0.55414,0.34192 c 0,0 -0.56595,-0.0943 -0.56595,-0.14148 0,-0.0471 0.0118,-0.43625 0.0118,-0.43625 l 0.69564,-0.67205 0.40088,-0.1297 z m -4.49602,-13.3708 2.90131,2.96801 0.15007,-0.80036 1.06715,0.10005 1.20054,2.26769 0.91708,0.05 1.25057,-0.30014 1.18386,-0.98377 0.35017,-1.1672 h 1.63406 l 0.95044,0.45021 0.33348,2.78458 1.03379,0.60028 -0.18341,2.21767 0.5836,3.48491 -0.88373,1.51735 0.16674,1.30059 2.01758,1.18387 1.06715,1.60072 v 2.73457 l 0.53357,0.83371 0.66697,0.13339 0.26679,1.73412 -0.33349,0.83371 -1.30059,-0.10004 -0.86705,-0.2668 -0.0333,1.63408 -1.76747,-2.43443 -0.16674,-0.83371 -0.83371,-0.10005 0.86705,4.30194 0.1334,2.10095 -2.70122,-2.10095 -1.76747,-0.0667 -0.50022,-0.80036 0.23343,-1.40064 0.53358,-1.06715 -0.43353,-0.70032 -0.76701,-0.46687 -0.0667,-2.10095 0.90041,-1.00046 -0.1334,-1.1005 0.40019,-0.66696 v -1.73412 l -1.36729,-2.60117 -0.93375,-1.20054 -1.20055,-0.9671 -0.63361,0.13338 v 1.40064 l -0.93376,1.33393 -0.53357,-0.26679 -1.50069,-1.13384 0.2001,-1.66742 -0.60027,-1.26723 0.60027,-0.93376 -0.23344,-2.40108 -0.90041,-0.76702 -0.0333,-1.33394 -0.76701,-2.03425 z m 2.0676,-3.06804 2.10095,0.73366 1.73411,2.76792 -0.70031,1.16719 -2.26769,0.1334 -1.23389,-1.60073 -1.36729,-2.40109 z m -2.13447,-15.56041 0.89607,0.51877 1.67424,-0.25939 5.06988,0.94323 2.66465,-1.01397 1.95721,0.21223 0.0472,-1.24979 0.89607,0.0236 2.16944,0.91966 2.96708,3.19387 -0.66698,1.26724 1.43399,0.86706 1.73412,0.70032 1.00045,1.33394 -1.36729,1.20054 0.90041,0.76701 -1.40064,2.86796 0.70033,1.83416 -0.0667,3.53494 0.86705,2.43443 2.1343,1.9342 -1.73411,2.66788 0.53357,0.43352 1.00045,-0.46687 1.73412,2.1343 2.36774,2.93465 -0.53358,0.43353 -2.43444,-2.0009 -0.70031,-1.80082 -1.16719,0.83372 -0.63362,-1.0338 -0.56693,1.00045 -0.9671,-0.46688 -1.16719,0.43353 -1.86751,-0.76702 -0.93376,0.86707 -1.46732,-3.33484 -2.70123,-0.33349 -0.36683,-1.60072 0.0333,-1.1005 -1.60071,-0.83371 -0.63363,0.0667 -0.46688,-1.0338 1.06716,-0.70032 1.23389,-0.26678 0.63361,-0.66698 -0.20009,-0.93375 1.33394,-1.23389 -0.46688,-0.76701 -2.10095,0.76701 -2.63452,-2.70122 -2.46778,-2.86796 -1.63407,-0.0667 -2.30104,-2.10095 -1.0338,-2.30104 -0.2001,-2.06761 -0.93375,-1.23389 -0.33348,-1.73411 z m -31.79753,1.52073 2.40109,0.13339 1.20054,1.75079 -0.18342,1.35061 -1.21722,1.35061 -1.31726,-0.9004 -0.41686,-1.00046 -1.484,-0.5169 -0.3835,-1.1005 0.6503,-1.00045 z m -3.85174,-2.30104 0.46688,0.30012 0.61694,2.08429 -1.38396,0.21675 -0.3168,-1.48399 0.21676,-0.80037 0.41685,-0.23343 z m -4.7855,0.23344 2.06761,-1.00046 0.65029,0.30014 0.21676,0.56692 -0.71699,0.40018 -0.90041,5.06896 -0.55024,1.91753 0.43352,0.83372 -0.80036,1.30057 -1.05047,-0.88373 -0.23344,-0.88373 0.65029,-0.21676 0.28346,-0.5169 -1.65074,-1.13384 0.50022,-2.05094 h 0.68365 l 0.48355,-1.66741 -0.65029,-1.46734 z m 11.72196,33.66521 0.91708,1.00045 0.0167,1.11717 -1.06715,2.55116 -0.46687,0.98377 -0.9671,-0.11672 -0.60028,0.83371 -0.91708,-0.28346 -0.33348,-1.33394 0.63362,-1.00045 -0.20009,-0.9671 1.65074,-1.81749 0.41686,-0.63362 z m -13.23759,-22.34188 3.06552,2.73538 2.59389,0.33013 1.46202,1.55634 h 1.03755 l 2.07512,2.45241 1.93364,1.32053 0.51878,-0.70743 1.65065,-0.18864 0.14149,-0.6131 h 1.88648 l 1.2262,1.50917 -0.56595,1.46202 0.89608,0.2358 0.56594,-0.6131 3.39565,-2.07512 0.37729,1.83931 -1.27337,4.90483 0.66027,1.32052 -0.47162,0.47162 -1.36769,-0.51877 -0.89607,1.6035 -3.63146,1.41485 0.0471,1.74498 -0.94323,1.50918 -2.49957,0.33013 -0.9904,1.69782 -7.59305,1.65067 -2.35808,3.11267 -0.9904,-0.14149 -0.33013,-0.89607 0.18864,-1.08471 1.03756,-1.83932 v -1.55634 l -0.80175,-0.80175 0.89608,-3.48997 1.03755,-0.84891 -0.0943,-3.67861 0.51878,-0.56595 -0.70743,-0.9904 0.84892,-1.27337 -0.23581,-1.88646 0.56594,-4.71618 -0.94323,-0.28297 -3.25417,-0.28297 -0.0472,-0.94323 0.37729,-1.6035 0.70742,-0.23582 -0.37728,-1.03755 z m -15.374734,19.4778 0.660264,0.66027 -0.09433,1.6035 -0.990397,0.2358 -1.037558,-0.56593 0.424458,-1.41485 z m -21.317119,4.76334 2.546736,1.08472 v 1.17905 l -1.320529,0.42445 -0.330133,0.70743 -2.216603,0.18864 -0.471616,-1.8393 0.707426,-0.47162 z m 6.791296,-23.53372 0.943232,0.51878 -0.424454,1.46202 -0.188646,0.66026 -1.037561,-1.2262 -0.09432,-1.03757 z m -6.272515,-7.07427 2.924027,2.02796 1.556338,1.69783 0.943236,0.0471 0.754588,-1.27336 0.801752,0.75459 0.565939,1.08472 0.943235,1.03756 -0.04716,1.22621 H 77.64035 l -2.263766,-0.84892 -1.273368,0.80175 -0.754587,-0.28296 -1.462014,-0.42447 -1.980794,-3.39564 0.04716,-1.17905 z m 34.994022,-22.54331 0.94324,1.03755 1.65067,-0.42446 1.17903,1.13188 0.94324,0.3773 0.14148,1.22621 0.18865,1.03756 -1.6035,1.65066 v 0.89608 l -0.99039,0.37728 -2.2166,-1.55633 -0.94324,-1.27337 -0.42446,-2.16944 0.6131,-1.55634 z m -25.420184,0.89607 1.509175,0.51878 4.150237,0.6131 3.961588,-0.89608 1.414852,1.93364 h 1.037558 l 0.801752,0.23581 0.943236,-0.56595 3.112675,3.39565 1.037558,0.28297 0.23581,1.55634 1.509175,0.14148 0.707428,1.22622 -1.650661,0.99039 0.141484,4.62185 1.179047,2.5939 -2.358093,2.26377 -0.282968,1.60349 0.660265,0.47162 -0.04716,0.42446 h -1.131881 l 0.09432,1.41485 -0.330132,0.28297 -0.613103,-0.84891 -1.08472,0.42446 -0.565941,1.50917 -0.990398,-0.6131 -1.32053,-0.0472 -0.471616,-1.08471 0.707426,-0.33014 -0.330132,-0.8489 -0.660265,0.42445 -1.697823,-1.46202 -1.084719,-1.88647 0.330132,-1.55633 -1.273368,-2.12229 h -0.990398 l -0.565942,-2.12227 v -2.40525 l -2.216604,-3.96159 -2.2166,-0.66027 -0.660265,-1.2262 -0.23581,-2.31093 -0.707426,-0.14149 -0.565942,0.61311 -0.471616,0.75459 -0.896074,-0.42446 -0.377294,-1.08472 0.518778,-1.17904 z m 51.547804,57.16002 -1.2262,-0.7074 -2.26377,-0.0943 0.9904,2.73539 -3.39564,4.52753 -1.27337,3.06551 -4.71618,5.65941 -0.75459,2.07512 m 10.6114,-28.67437 2.16944,1.13188 0.9904,-0.28297 0.84891,0.47162 1.41485,0.0471 0.75459,2.35809 -1.74499,5.23496 -1.88647,1.55634 -0.51878,0.89607 v 2.26376 l -1.08472,1.83931 v 0.89608 l -1.93363,3.91442 -0.47162,1.69782 0.47162,2.21661 -0.14149,0.51878 h -0.80175 v 0.6131 l 0.94324,0.6131 -0.47162,0.47162 1.08473,1.08472 0.66026,0.42446 1.27336,2.16944 -0.37728,2.35809 -1.50919,2.16943 -1.41485,0.75459 -0.9904,-0.2358 -1.08472,0.6131 -1.41485,-0.89607 -0.9904,-2.92404 0.0943,-1.46201 -0.94323,-0.84891 -2.68822,-0.18865 -2.73539,-2.35809 v -0.84891 l -0.66027,-0.33013 -0.42445,-1.22621 v -0.37729 l -1.27337,-1.08472 0.0472,-2.26377 1.27337,-2.54673 h 2.16943 l 1.55634,0.14149 0.6131,-0.28298 1.46202,-1.50917 h 0.94323 l 0.51879,-0.61311 0.0471,-1.08471 -0.51877,-1.17905 v -1.55634 l 0.42445,-0.94323 -0.80175,-1.27337 -0.56594,-1.55634 0.61311,-0.66027 0.6131,0.0471 1.36769,-1.83932 0.56594,-2.35808 -0.51878,-1.22621 0.47162,-0.70743 1.08472,-0.33013 h 0.84891 l 0.6131,-0.70742 z m 26.03329,31.50406 0.66027,-0.0472 1.17904,1.22621 0.51878,1.41486 -0.75458,0.80175 -0.70744,-0.42447 -1.03755,-0.18863 -0.94323,-0.89608 v -1.27337 l 0.56593,-0.56594 z m -18.53457,-0.75459 0.94324,1.32053 -0.47162,0.89607 0.66027,0.28297 -0.28298,0.89607 h -0.89607 l -0.56594,0.61311 -2.87687,-1.74498 0.18864,-1.13189 1.03756,0.23581 1.22621,-0.47162 v -0.66026 l 0.66026,-0.51878 z m 9.73891,-16.36514 0.15327,0.60132 0.71922,0.059 0.66026,-0.55415 -0.28886,-0.34782 -1.21442,0.22403 z m -7.59305,5.683 0.47162,0.4952 -0.33013,0.40087 -0.42446,-0.35371 z m 1.13189,-0.33013 0.21222,0.30655 -0.47162,0.25938 -0.35372,-0.49519 z m 0.2123,4.59827 0.80175,0.731 m 5.44711,-9.85681 1.6035,0.11791 0.42445,-0.42445 0.87249,0.56594 0.87249,0.14148 0.0708,0.61311 1.43843,0.82533 0.44804,-0.42446 0.0472,-0.56594 1.67424,-0.82533 0.18865,1.2262 -0.70743,0.75459 -0.54236,0.21224 0.30656,0.89607 -0.16507,0.63667 -0.16506,0.63669 0.28296,0.25939 0.16507,0.82533 -0.70743,0.3773 1.13189,0.6131 v 0.87249 l -0.58953,0.68385 h -0.89607 l -0.30655,-0.33013 -1.43843,0.68384 -0.3773,1.10831 -2.19303,0.77816 -1.55633,-0.18865 -1.98079,0.4952 -3.34849,-0.70743 -0.44804,0.63669 -1.55633,0.73101 -0.73101,-0.89608 1.93363,-1.20262 0.16506,-0.58952 0.30656,-0.40087 -0.18865,-0.47162 -1.32053,-0.0708 0.0943,-1.13189 1.67424,-2.00437 1.86288,-1.01398 0.8725,0.0943 0.28297,-0.25939 0.0471,-1.43843 0.75458,-0.25939 0.42447,-0.47162 0.35371,-0.89607 z m -1.92185,-1.95131 -0.0236,0.45393 -0.40676,0.39499 -0.45983,-0.40678 0.33013,-0.64848 0.54826,0.059 z m -2.0987,-0.77817 0.56594,-0.006 1.10831,-0.39498 -1.5976,1.72141 h -0.67206 l -0.18865,-0.5011 z m 0.78997,-17.33784 0.94323,-0.0943 0.21223,0.96682 -0.75459,1.74499 -0.77817,1.13188 0.0943,0.25938 0.89608,-0.16506 0.18865,1.53276 -0.3773,0.80175 0.40087,0.68384 -0.33013,1.29695 0.0472,0.87249 -0.54236,0.63669 0.42445,2.40525 -0.18865,0.84891 0.28297,0.6131 -0.54236,2.24019 0.25939,0.28297 -0.75459,0.94323 -0.33013,-0.28296 -1.1083,1.20261 -1.03756,1.03757 -1.17904,0.0943 -1.65067,1.79214 -0.0708,0.96682 -0.63669,-0.23582 -0.30654,1.69782 -0.11791,1.95723 -0.70743,0.44803 -0.47161,0.9904 -0.0236,0.89607 -0.61311,0.37729 -0.0472,0.8725 -0.73101,2.02795 -1.43843,1.65067 -0.47162,1.06113 -0.80175,0.16507 -0.42445,-0.40088 0.1179,-2.05154 0.37729,-2.92402 0.30655,-1.74499 0.44804,-0.42446 -0.0943,-0.96681 0.51877,-0.21223 0.0708,-0.58952 -0.66026,-0.3773 0.0708,-0.91965 0.42445,-0.16507 0.0708,0.56595 0.21222,0.0471 0.16507,-1.6035 1.76857,-1.57992 -0.0236,-0.94324 1.10831,-0.96681 -0.0236,-1.55634 2.3581,-2.73538 -0.0236,-1.39128 0.68384,-0.58952 -0.0472,-0.66026 1.03756,-1.69783 0.56594,-0.0708 -0.0236,-1.20262 0.77817,-0.70743 0.11791,-1.34411 0.96681,-1.22621 -0.68384,-0.73101 0.73101,-1.48559 0.44803,0.0236 0.16507,-0.18865 -0.4952,-0.51879 0.18864,-1.13188 z m -6.14881,2.98045 0.40018,0.53358 -1.16719,0.9671 -0.0667,-0.46688 0.80036,-0.90041 z m 3.86841,-4.40199 0.36683,0.0333 0.0333,1.1005 -0.43353,0.43353 -0.23344,-0.46688 -0.0333,-0.80036 z m -2.83461,0.86706 -0.86706,1.53403 0.9004,1.63407 1.43399,0.0667 0.23344,-0.63361 -0.63363,-0.63362 -0.46687,-1.73412 z m -2.07716,-25.29017 1.91004,1.36769 0.51879,1.39127 0.75458,1.9808 0.3773,2.40524 -2.90046,-3.56071 -1.15546,-2.19301 0.42446,-0.56595 z m 8.60702,-9.31445 0.6131,-0.44804 1.32052,0.42446 0.3773,0.21223 -0.0236,0.47162 -0.0236,0.35371 c 0,0 -0.70744,0.0708 -0.77818,0.0708 -0.0708,0 -0.70743,-0.23581 -0.70743,-0.23581 l -0.75458,0.0472 -0.23581,-0.30656 z m -4.64543,-13.79481 0.731,0.28297 -0.21223,0.731 -0.16506,0.47162 -0.30656,0.21223 -0.44803,-0.44804 v -1.13188 z m 5.30568,-1.65067 0.70744,-0.0236 0.58952,-0.56593 1.29695,1.24979 0.6131,1.55633 0.47161,-0.37729 0.77818,1.43844 0.58952,0.25939 0.0708,1.93362 -0.42446,1.01398 0.28298,0.56595 -0.0471,0.58952 -0.94323,0.0943 c 0,0 -0.16507,1.57992 -0.23581,1.69782 -0.0708,0.11791 -0.58952,0.23581 -0.58952,0.23581 l -0.47162,-1.06114 -0.96682,0.23582 -0.14148,1.34411 c 0,0 -0.44804,0.14148 -0.54236,0.14148 -0.0943,0 -1.93364,-1.76857 -1.93364,-1.76857 l -0.63667,0.30655 -0.54236,-1.57992 0.63667,-0.82533 0.68385,-0.0471 0.58952,-0.89607 0.0236,-2.31093 0.30655,-0.23581 0.0236,-0.75459 -0.35371,-0.54236 z m -21.26994,-7.87601 0.47161,-0.18865 0.0708,0.77817 -0.56595,0.44803 -0.37729,-0.0943 z m -16.03501,1.03755 h 0.47162 l 0.14149,0.66027 -0.28297,0.23581 -0.49521,-0.30655 z m -3.53713,2.35809 0.63669,0.18865 v 0.56595 l -0.51879,0.58951 -0.49519,-0.42445 0.0708,-0.77816 z m 5.84806,-11.79043 0.66026,0.58952 -0.66026,0.77816 -0.42446,-0.30654 0.40088,-0.96682 z m 3.39565,4.26813 0.87249,-0.30655 0.80175,0.96682 -0.18865,0.25939 -1.55633,0.25939 -0.82533,-0.47162 0.77816,-0.66027 z m -3.84368,-2.12227 1.57991,-0.0471 -0.0471,0.70743 0.731,-0.0472 -0.0943,1.81573 -2.73538,-1.79215 0.0943,-0.54236 z m -1.55634,-0.63669 0.75459,0.33013 -0.18865,0.3773 -0.84892,-0.0943 -0.1179,-0.54236 z m -3.37207,-3.207 1.91005,-0.25939 c 0,0 1.62708,1.1083 1.67425,1.24978 0.0471,0.14149 0.30654,0.8725 0.30654,0.8725 l -0.40087,0.0943 -0.68385,-0.6131 0.42446,1.27336 -0.94323,0.54236 0.99039,2.90045 -1.1083,1.55634 -0.82533,0.33013 -0.47162,-0.56595 v -1.20261 l 0.44804,-0.35372 -0.94324,-1.95722 -0.66026,-1.65065 -0.6131,-0.0471 z m 8.48918,16.83678 -0.4035,1.14267 1.08382,0.23344 1.33393,-1.41731 6.01939,2.33439 -4.16638,0.91384 m -27.864762,-2.6146 1.217217,-0.05 0.433529,0.70032 -0.250114,0.5836 -0.933754,0.05 -0.366832,-0.28346 -0.01667,1.08382 0.400182,0.11672 0.800362,-0.73367 0.733665,0.0834 -0.08337,0.88374 -1.484005,1.60072 -0.817035,-0.58359 -0.183416,-0.88374 0.03335,-1.95088 z m 2.634524,-12.43897 -0.200091,1.96757 0.366832,0.51689 -0.08337,0.43353 h -0.750338 l 0.166749,1.63408 -0.733674,0.81703 0.194967,2.28002 m -1.83925,-2.12218 0.990339,2.31082 0.848913,-0.18864 2.027955,2.35808 0.04717,0.80175 1.509178,0.0943 2.782544,-2.02795 0.330132,-0.89607 0.330132,0.2358 0.377294,-0.56593 -0.377294,-0.66027 -0.952569,0.11437 -0.26679,0.76702 -1.534024,1.20054 -0.23344,-0.45021 0.783689,-1.81748 -0.416858,-1.25057 -0.817035,-0.6503 -0.483551,0.30014 -0.183416,0.81703 0.216764,0.98378 -0.05002,0.75035 0.483554,0.3168 -0.583597,1.00046 -0.500228,-0.55026 0.03335,-2.01757 -0.800362,-1.60073 -1.183868,-0.35016 m -3.085389,-3.12817 v 0 l 2.216546,-1.3678 0.801749,0.14149 2.169443,-1.27337 0.565942,0.18865 1.650661,-1.08472 0.235808,-3.39565 0.707428,-0.9904 -0.47162,-1.36769 1.03761,-0.28293 m -9.715373,-16.129358 2.263765,-0.282969 2.876866,0.565939 0.28297,3.678618 1.462017,2.027958 9.007898,-7.498721 2.54673,-2.593898 2.5939,-3.820104 3.91443,-0.141484 M 89.737345,46.18266 l 0.683847,-0.188648 1.155463,-1.532757 0.400875,0.02359 0.07074,1.320529 3.254162,1.179045 0.28297,0.518781 1.579919,0.636683 1.29695,0.731008 0.518778,1.6035 -0.54236,2.475993 -0.141484,0.919653 -0.660265,0.377294 -1.862889,3.631456 0.990397,0.23581 1.249785,1.650661 -0.02359,0.872493 0.613104,0.04716 3.607873,3.560712 -0.0471,0.731009 -0.66027,0.51878 -0.51877,0.282969 -1.179048,2.994773 0.235808,3.725778 0.40087,2.287347 -1.013972,1.509176 -3.018353,1.202627 -1.556339,2.523154 -6.508322,0.731005 -0.424457,0.848913 0.188648,2.829707 -0.801749,1.462014 -0.754591,-0.04716 -0.707426,1.131882 -0.02359,1.037555 1.697831,0.966821 0.84891,2.051538 -0.165066,2.381666 -1.438435,2.098699 -0.448034,0.02359 -0.801751,-0.872493 -2.263766,0.471616 -0.495198,-1.155463 -0.84891,2.027956 -2.004376,0.04716 -0.495199,-0.377293 -1.013976,0.82533 -0.707429,1.462017 -1.179043,0.6131 -1.697823,-2.358088 0.165066,-1.155463 -2.098699,-1.108302 -0.778169,0.848913 -1.344049,-0.400775 m 19.147568,-50.899451 -0.165066,2.67643 -0.530568,1.579918 0.282969,2.723593 0.271181,1.025768 -0.636682,0.896072 v 2.334508 L 88.652625,55.473528 87.45,55.143395 86.270956,56.204533 h -0.872493 l -0.235807,0.966818 -2.61748,0.84891 -1.815727,5.400023 0.259389,0.542359 1.320529,-0.09432 0.282971,0.731008 -0.589521,1.674241 0.282971,0.82533 1.013976,0.212231 1.013979,0.966815 -0.04717,1.296947 1.509175,0.565942 0.801752,-0.565942 0.919653,0.04717 -1.037558,1.179043 -0.07074,2.38167 -0.07074,1.391273 -0.565941,0.495199 -1.485596,-0.02359 -0.660265,0.589522 -0.353715,3.348487 -1.344108,1.62708 -0.02359,0.707426 -0.636682,0.589521 -0.330132,0.117905 -0.212229,0.731009 0.07074,1.744984 0.660265,2.617479 1.674244,1.061139 1.296947,0.212229 1.414855,-0.377296 m 0.458149,-45.278538 1.100498,-0.466879 1.467329,1.66742 2.034253,-1.100498 0.733665,0.300138 1.233892,-0.400181 13.572806,6.636331 3.43488,-2.0676 0.53357,-2.534479 1.66742,-0.0667 1.93421,3.634977 -0.20009,1.767465 -2.76792,3.068054 0.47693,3.07704 -0.89607,2.641059 0.33013,3.065514 1.6035,4.244559 0.94324,0.565939 1.27336,-0.188645 1.27337,1.697823 -0.28297,2.40525 1.6035,-0.04717 v 1.462016 l -4.33888,9.951133 -0.94324,1.839306 -0.0943,2.971192 -3.58429,4.480369 -0.28296,-0.565942 2.07511,-3.725779 -0.42445,-0.518781 -1.27337,1.792149 -5.4236,2.546736 -3.112681,2.829705 0.377291,2.263764 0.9904,-0.04716 -0.0471,2.310927 -3.11268,5.046301 -0.848911,-0.0471 -0.424454,1.2262 0.896072,1.50918 1.131883,0.6131 2.2166,6.64981 2.21661,2.2166 -2.21661,0.94324 1.13189,5.18779 0.9904,0.80175 0.0943,0.9904 0.42445,0.56594 -0.6131,1.2262 3.25415,2.82972 4.00876,1.69782 0.75459,-0.0943 0.51878,0.4716 0.56594,-0.6131 -2.35808,-1.74498 -3.48999,-2.92403 0.33014,-0.80175 4.33888,3.06552 1.13189,1.41484 0.70742,0.18865 0.14149,-0.99039 -2.35809,-1.83931 1.22621,-1.36769 0.66027,-0.84892 0.28296,0.47162 v 1.3677 l 0.94324,0.37729 v -1.46201 l 2.2166,-2.5939 3.44281,0.89607 0.3773,-0.94323 1.93363,0.66026 0.37729,0.84892 h 1.13188 l 2.87687,3.30132 0.47162,1.41485 0.89607,2.31092 -0.75459,0.70743 -0.18865,1.36769 1.08472,0.6131 1.9808,0.23582 1.69782,-0.9904 -0.51878,-1.79215 0.33013,-0.89607 -1.50917,-1.13189 0.9904,-1.65065 1.32052,-0.14149 1.60351,2.68822 2.16943,0.56594 2.07512,0.56594 0.51878,-0.94324 1.93364,1.93364 2.2166,0.56594 0.47162,1.36769 -1.93364,0.0943 -0.70743,0.84892 -4.15022,-0.89607 -1.03757,1.93362 1.74499,2.12228 0.61311,0.0943 1.69782,3.11269 0.94323,0.99039 h 0.42446 l 0.14148,-0.99039 -1.36769,-1.69783 3.63146,2.16944 1.98079,0.28297 -1.03756,1.27337 -1.88647,-0.42445 -0.51878,0.42445 -1.41485,0.14148 -0.3773,-0.51878 -0.33013,0.18865 -0.2358,1.50918 0.42445,0.51878 -0.37729,0.75459 0.66027,0.18864 0.66025,-0.66026 0.0943,-0.75459 0.80175,-0.42445 1.46201,0.99039 1.79215,1.55634 0.80175,-1.32053 1.55634,0.47162 v 1.03756 l -0.80175,0.0943 -0.66027,1.79215 0.7546,1.08472 -0.47162,3.15984 -0.75459,2.31092 -1.74499,0.0943 -1.32053,-1.50918 -1.36769,-1.08472 -0.28297,-2.45241 0.9904,-1.32053 0.56593,0.80175 1.83932,-0.80175 0.14148,-1.50917 -2.35808,-0.18865 -1.22622,1.88647 -1.36768,0.51878 -1.22621,-1.41485 -0.42445,1.13187 -1.93363,-1.46201 -0.42446,0.28297 -2.16945,-2.16945 -1.6035,0.84892 -0.47161,-1.55634 v -1.46201 l 0.66026,-0.66027 -1.50918,-1.46201 -0.70742,-1.17905 -0.0943,-1.46201 -3.86727,-1.65066 -3.06552,-2.26377 0.94325,-0.89607 -1.08473,-1.08473 -0.99039,-0.56593 -0.18865,-0.80175 h -0.75459 l -0.37729,0.56594 -0.70743,-1.69783 h -0.80175 l -0.47161,-1.2262 -0.56595,0.51878 -1.88647,-0.18865 1.88647,2.31093 0.0943,1.65066 -0.51877,0.28297 0.33013,1.32053 2.40524,2.21661 -0.37728,0.47161 1.03755,2.21661 0.23581,2.68822 -1.65066,1.32053 -1.69782,-1.50918 0.14148,-2.12229 -3.39564,-4.24455 -2.12228,-0.37729 -1.93364,-3.30132 -1.08472,0.18864 -3.91442,-2.59389 -0.89608,-0.9904 -0.9904,-0.0471 -0.56594,0.84892 -4.008746,2.07512 -0.188649,1.27336 0.471618,0.94324 -0.80175,0.99039 -0.990396,-0.42446 -1.83931,1.08472 -1.556337,-0.80174 -1.792149,0.37729 -0.660264,-0.42445 v -2.3581 l -0.943236,-0.42445 -1.320529,1.83931 -0.377294,-0.47161 0.707426,-1.17905 -0.235807,-1.74499 -3.159839,-1.08472 -0.330132,1.50919 -0.660266,1.50917 -0.660264,-0.6131 -0.51878,-3.53714 -0.613101,-4.24456 1.556336,-0.9904 1.131884,0.0943 2.829705,-3.91443 1.320529,0.33013 0.754589,-0.8489 -1.462016,-3.25417 -4.669014,-1.13188 -2.027955,-1.36769 1.273368,6.74413 -1.509178,1.13188 -2.971191,-1.2262 0.04716,-2.82971 -1.933632,-1.13188 0.565942,-2.12228 -1.131882,-1.36769 h -0.613103 l 0.565942,1.13188 -0.660265,1.32052 -1.179045,-0.14148 -0.990397,-1.8393 -0.188648,-4.99916 -2.782543,-5.65941 v -1.2262 l 1.226206,-0.0943 -0.141487,-1.131878 -0.990396,-0.84891 0.613103,-1.273368 -1.226207,-0.801749 0.613104,-2.12228 -1.037559,-2.122279 -0.613103,0.848911 -0.990397,-0.09432 -0.09432,-1.084719 0.801749,-6.838457 2.169442,-1.226207 0.565942,0.613104 -0.330132,2.405249 1.697823,1.414855 0.613103,-0.330132 1.179043,0.896074 -0.09432,1.414852 1.273368,0.660265 2.593897,-0.613104 1.650662,-1.933633 -0.75459,-1.839309 -0.990397,0.04716 -0.801749,-6.461162 0.990398,-1.933633 -0.424456,-2.075117 1.462014,-0.848913 0.896074,-2.40525 -0.943236,-4.244558 0.943236,-3.018353 -0.613104,-1.697824 -1.462013,-1.226206 0.518778,-2.829704 1.131883,-0.377296 -0.565941,-1.556337 0.896075,-0.235809 -0.282972,-1.792147 0.943236,-1.273368 -0.424458,-1.83931 1.037559,-1.08472 -0.188646,-1.179044 1.697823,-2.92403 -0.990397,-2.122279 1.367691,-1.320529 1.83931,0.565942 0.990397,-0.424458 z m 7.870224,-10.304659 0.833711,2.367738 -0.300139,0.933754 -1.133843,-1.267238 z m 1.000451,5.469139 2.33439,-0.466878 1.967554,0.933757 -1.067149,0.533572 -3.001357,0.300139 z m 12.005428,-2.434433 0.9004,1.400633 -2.30104,2.567827 -0.80036,-0.767014 0.93376,-3.034703 z m -9.637689,-7.33665 1.700767,0.767013 0.400182,-0.433527 0.366832,2.50113 -0.733665,0.433528 -1.867511,-0.700316 -0.833711,-1.600723 z m 8.937369,-2.834613 1.13385,-0.300136 0.33348,0.566924 -0.0667,1.233889 -0.43353,0.400182 -1.36729,-1.0338 z m -1.16719,-14.673298 1.26087,0.40147 -1.02743,1.365995 -0.26679,0.400181 -0.43353,-1.26724 z m 2.86437,-2.6168818 0.84891,0.4716179 -1.22621,1.0375582 v 0.8489117 l -1.2262,0.660264 -0.0943,-0.848911 1.13188,-1.9807936 z m -2.73539,-7.07426456 0.84891,1.22620576 -0.56594,1.5091766 -1.2262,1.0375587 -0.47162,-0.9432352 z"
       inkscape:label="Outline" />
    <path
       style="fill:#fdfcea;stroke-width:0.714286;fill-opacity:1"
       d="m 286.51555,367.31524 c -1.74785,-2.5378 -2.59084,-4.56509 -2.59887,-6.25 -0.0111,-2.31959 -0.32052,-2.66015 -4.42972,-4.87473 l -4.41784,-2.38092 -1.31048,1.79901 c -1.16652,1.60138 -1.54639,1.71678 -3.45775,1.05047 -1.60949,-0.56107 -2.69831,-1.84016 -4.34753,-5.10725 l -2.20027,-4.35871 -1.54624,1.93915 c -0.85042,1.06655 -2.09665,1.93917 -2.7694,1.93917 -0.98699,0 -1.21771,-0.65512 -1.19492,-3.39286 0.0301,-3.61594 2.5125,-25.14636 2.9349,-25.45508 0.13813,-0.10095 1.74388,-1.03791 3.56834,-2.08215 4.36395,-2.4977 5.14549,-1.7069 4.14794,4.19712 l -0.71521,4.23297 3.41075,3.06256 c 2.58038,2.31695 3.8068,2.96456 5.03753,2.66003 0.98763,-0.24437 2.28481,0.0938 3.30163,0.86082 1.37472,1.03695 1.61175,1.7338 1.32273,3.88862 -0.33431,2.49248 -0.19906,2.70335 2.67389,4.16902 2.98825,1.52449 3.08956,1.52833 8.12191,0.30751 4.33427,-1.05146 5.46957,-1.66545 7.59592,-4.10803 4.58052,-5.26171 4.499,-4.96037 2.54011,-9.38976 -1.55765,-3.52214 -1.96247,-3.94369 -3.43275,-3.57468 -1.6556,0.41553 -1.67643,0.33881 -3.09033,-11.38252 l -1.4235,-11.80086 1.8856,-3.72106 c 1.54707,-3.053 1.77898,-4.17957 1.2917,-6.27492 -0.9754,-4.19443 -0.74435,-5.03339 1.79957,-6.53435 1.9187,-1.13205 2.80627,-2.454 4.23428,-6.30657 l 1.80673,-4.8743 -1.78321,-7.94345 -1.78321,-7.94344 1.77102,-5.78537 c 1.68906,-5.51762 1.72003,-5.93964 0.66918,-9.11874 -0.68292,-2.06601 -2.15474,-4.28388 -3.87114,-5.83337 l -2.76929,-2.5 0.82607,-4.82143 c 0.45433,-2.65178 1.07905,-4.82143 1.38826,-4.82143 0.30921,0 1.37659,-0.30963 2.37197,-0.68807 1.7732,-0.67417 1.78946,-0.74566 0.80455,-3.53719 -0.95134,-2.6964 -0.92659,-2.87406 0.46176,-3.31471 1.31189,-0.41638 1.41699,-0.84244 0.99414,-4.03002 -0.41633,-3.13851 -0.25136,-3.85479 1.38071,-5.99454 1.66153,-2.17838 1.77641,-2.70787 1.10893,-5.11136 -1.04085,-3.74796 -0.9846,-4.08162 1.10736,-6.56778 1.40788,-1.67317 1.74573,-2.66553 1.38999,-4.08288 -0.36419,-1.45105 0.27607,-3.15642 2.8448,-7.57735 l 3.31476,-5.70487 -1.82363,-4.01704 -1.82362,-4.01704 2.04021,-2.05046 c 2.00102,-2.01106 2.10788,-2.03311 5.56224,-1.14779 2.48452,0.63677 4.13839,0.69252 5.61438,0.18927 1.92882,-0.65764 2.08376,-0.96758 1.98232,-3.96539 -0.0937,-2.76886 0.11854,-3.31604 1.42857,-3.68301 1.1862,-0.3323 2.15542,0.25009 4.23158,2.5427 2.49294,2.75282 2.83092,2.91086 4.55004,2.12758 l 1.85708,-0.84614 -0.51073,4.76904 c -0.2809,2.62297 -0.93199,5.96305 -1.44687,7.42239 -0.89156,2.52695 -0.54873,9.93345 0.73034,15.77799 0.26301,1.2018 0.0182,2.17142 -0.69822,2.76603 -0.78925,0.65502 -1.1063,2.26272 -1.11412,5.64953 -0.0138,5.97234 -0.53042,6.84511 -3.69985,6.25053 -2.08908,-0.39192 -2.7338,-0.14943 -4.49757,1.69154 -1.25277,1.30761 -2.78429,2.14904 -3.91154,2.14904 -1.37446,0 -2.04805,0.51777 -2.60983,2.00608 -0.63508,1.68254 -1.49985,2.20709 -5.36202,3.25253 l -4.60482,1.24647 -3.62826,10.93436 c -4.01783,12.10836 -4.00302,13.27485 0.16845,13.27485 3.06355,0 3.50017,0.98884 2.13949,4.84543 -1.26675,3.59033 -0.37965,7.29743 1.74625,7.29743 0.71714,0 2.29284,0.83214 3.50155,1.8492 1.72395,1.45062 2.19766,2.41818 2.19766,4.48879 0,2.48904 0.18979,2.70992 3.3277,3.87291 2.99155,1.10875 3.49411,1.12431 4.97487,0.15408 2.29854,-1.50606 2.75181,-1.34756 1.52048,0.53168 -0.6304,0.96211 -1.26821,4.48632 -1.58356,8.75 -0.29042,3.92648 -0.8612,7.54705 -1.2684,8.04572 -0.48222,0.59054 -1.57864,0.7494 -3.14459,0.45562 -3.03778,-0.56988 -5.70381,1.05523 -6.22096,3.79208 -0.20666,1.09367 -0.57818,4.12617 -0.8256,6.73888 -0.38228,4.03677 -0.81802,5.18049 -2.90061,7.61354 -1.34792,1.57474 -2.45076,3.51198 -2.45076,4.30499 0,0.793 -1.04464,2.26101 -2.32143,3.26224 -2.24702,1.76207 -2.31659,1.97549 -2.17048,6.65891 0.083,2.66118 0.68262,7.01822 1.33243,9.68233 1.08384,4.44351 1.45508,5.03383 4.49191,7.14286 3.08863,2.14499 3.71721,2.29998 9.38186,2.31328 7.95335,0.0187 10.05652,1.19264 12.14596,6.77976 2.05222,5.48761 1.41873,10.36729 -2.01873,15.54988 l -2.50217,3.77245 -1.91687,-1.83647 c -1.76951,-1.6953 -2.1587,-1.78073 -5.06253,-1.11135 -4.24901,0.97946 -5.64566,0.9362 -5.64566,-0.17486 0,-0.5142 -0.46077,-1.55884 -1.02392,-2.32143 -0.96272,-1.30365 -1.13027,-1.1471 -2.80335,2.61936 -1.68956,3.80355 -1.93303,4.02648 -4.82035,4.41375 -2.00403,0.2688 -3.51512,0.0757 -4.43167,-0.56626 -1.21369,-0.8501 -1.66097,-0.77546 -3.51288,0.58625 -1.16716,0.85821 -2.7798,2.84501 -3.58364,4.41511 -1.49771,2.92538 -3.13175,4.58233 -4.55864,4.62255 -0.44323,0.0125 -1.97001,-1.66757 -3.39286,-3.73347 z"
       id="path1"
       transform="scale(0.26458333)"
       inkscape:label="RegionI" />
    <path
       id="path17"
       style="fill:#fdfcea;fill-opacity:1;stroke-width:0.0315673"
       transform="scale(0.26458333)"
       d="m 510.71764,817.04331 c -2.78296,-1.68919 -5.07399,-3.08532 -5.09117,-3.1025 -0.0318,-0.0318 0.49389,-3.31426 0.53906,-3.36609 0.0122,-0.0139 0.81282,0.15426 1.77926,0.37378 l 1.75716,0.39911 2.35912,-0.90664 c 1.29751,-0.49866 2.4479,-0.94181 2.55641,-0.9848 l 0.1973,-0.0782 3.2e-4,-1.29879 3.3e-4,-1.29879 0.99218,-0.77892 0.99219,-0.77893 0.52066,0.39114 0.52067,0.39113 1.66095,2.32491 c 0.91352,1.2787 1.65667,2.3418 1.65144,2.36246 -0.005,0.0206 -0.42664,0.82994 -0.93647,1.7984 -0.50983,0.96847 -0.91468,1.77233 -0.89967,1.78636 0.015,0.014 0.5813,0.26229 1.25842,0.5517 0.67712,0.28941 1.24157,0.53646 1.25434,0.54902 0.0128,0.0126 -0.15823,0.59763 -0.37999,1.30018 l -0.4032,1.27736 -1.62616,0.008 -1.62616,0.008 -0.98906,1.073 c -0.54399,0.59016 -0.99782,1.07233 -1.00853,1.0715 -0.0107,-8.3e-4 -2.29643,-1.38358 -5.0794,-3.07278 z m 65.52704,-109.71368 c -0.84892,-0.17595 -0.80303,-0.15977 -0.81587,-0.2878 -0.006,-0.0598 -10e-4,-0.30919 0.011,-0.55428 l 0.0219,-0.44561 1.18634,-1.14854 1.18635,-1.14853 0.63359,-0.20802 0.63359,-0.20801 0.28411,0.23717 c 0.15626,0.13045 0.2944,0.24571 0.30699,0.25615 0.0126,0.0104 -0.20161,0.58527 -0.47599,1.27739 l -0.49889,1.25841 -0.88139,0.54648 c -0.48477,0.30056 -0.90981,0.54642 -0.94453,0.54636 -0.0347,-7e-5 -0.32594,-0.0546 -0.64713,-0.12117 z m -7.21016,7.09402 -0.56509,-1.22463 0.055,-1.01792 c 0.0463,-0.85633 0.0634,-1.02639 0.10744,-1.07127 0.0288,-0.0293 0.47856,-0.4312 0.99942,-0.89304 0.874,-0.77496 0.95432,-0.8384 1.04172,-0.82273 0.0521,0.009 0.66823,0.1479 1.36921,0.30793 l 1.27451,0.29095 1.64546,1.43062 c 0.90501,0.78684 1.6422,1.44351 1.6382,1.45925 -0.004,0.0157 -0.31437,0.49786 -0.68971,1.07136 -0.62236,0.95094 -0.6912,1.04425 -0.78191,1.05993 -0.0547,0.009 -1.28561,0.15159 -2.73534,0.31585 -1.44973,0.16425 -2.67142,0.30307 -2.71487,0.30849 -0.0751,0.009 -0.1067,-0.0502 -0.64408,-1.21479 z m -6.79659,3.41955 c -0.64606,-0.099 -1.17966,-0.18645 -1.18579,-0.19435 -0.006,-0.008 -0.14409,-0.50953 -0.3066,-1.11472 -0.23348,-0.86946 -0.28815,-1.11205 -0.26059,-1.15619 0.0192,-0.0307 0.40339,-0.5528 0.85378,-1.16016 l 0.81889,-1.1043 0.17956,-1.41709 c 0.0988,-0.77941 0.19024,-1.44425 0.20328,-1.47744 0.0176,-0.0447 0.24686,-0.1407 0.88619,-0.37092 l 0.86249,-0.31058 0.28777,0.26645 c 0.15827,0.14655 0.57061,0.54089 0.9163,0.87632 l 0.62853,0.60986 0.27873,2.38301 c 0.1533,1.31066 0.27316,2.39829 0.26635,2.41697 -0.0141,0.0386 -3.1839,1.94059 -3.22655,1.93606 -0.0152,-0.002 -0.55628,-0.0839 -1.20234,-0.18292 z m -5.2011,27.82988 c -0.55552,-0.0458 -1.01533,-0.0848 -1.02179,-0.0868 -0.0126,-0.004 -0.3797,-1.43184 -0.37047,-1.44107 0.005,-0.005 0.60601,-0.11679 3.03021,-0.5635 l 0.85112,-0.15684 0.0262,0.0314 c 0.46339,0.55502 0.55288,0.66777 0.53988,0.68023 -0.008,0.007 -0.44542,0.37534 -0.97287,0.81784 l -0.959,0.80455 -0.0566,-10e-4 c -0.0311,-7.3e-4 -0.51114,-0.0388 -1.06667,-0.0845 z m -11.46763,-4.10723 c -0.29464,-0.26147 -0.53686,-0.47842 -0.53825,-0.48212 -10e-4,-0.004 0.20201,-0.40868 0.45201,-0.89996 l 0.45454,-0.89323 0.65224,0.0704 c 0.35873,0.0387 0.6541,0.0723 0.65639,0.0746 0.0103,0.0103 0.002,0.24028 -0.0315,0.88762 l -0.0362,0.69638 -0.21868,0.21345 c -0.5755,0.56173 -0.82834,0.80408 -0.84101,0.8061 -0.008,10e-4 -0.25491,-0.21172 -0.54955,-0.47319 z m -16.07453,23.52685 c -0.15517,-0.21672 -0.28073,-0.39554 -0.27902,-0.39738 0.002,-0.002 0.23915,-0.0297 0.52765,-0.0619 0.28851,-0.0322 0.54465,-0.0625 0.5692,-0.0675 0.0354,-0.007 0.076,0.037 0.19546,0.21194 l 0.15082,0.22086 -0.0504,0.0317 c -0.0277,0.0174 -0.22113,0.12447 -0.42984,0.2379 -0.2087,0.11343 -0.38448,0.20898 -0.39062,0.21232 -0.006,0.003 -0.13812,-0.17124 -0.29328,-0.38796 z m -3.15145,2.46049 -0.44067,-0.36778 0.19463,-0.37284 c 0.10704,-0.20506 0.23158,-0.44125 0.27675,-0.52487 l 0.0821,-0.15204 0.10904,0.12157 c 0.06,0.0669 0.27793,0.29788 0.48436,0.51338 l 0.37534,0.39181 -0.30462,0.3695 c -0.16754,0.20322 -0.31174,0.3739 -0.32045,0.37928 -0.009,0.005 -0.21413,-0.15573 -0.45649,-0.35801 z m -0.39302,19.84838 c -0.5823,-0.71422 -1.06168,-1.30819 -1.0653,-1.31994 -0.004,-0.0118 0.72393,-0.47513 1.61676,-1.02973 0.89284,-0.55461 2.33651,-1.45239 3.20816,-1.99507 0.87165,-0.54268 1.59996,-0.99096 1.61846,-0.99616 0.0303,-0.009 0.47413,0.38757 2.05674,1.83532 l 0.37163,0.33995 -0.6571,0.93449 c -0.3614,0.51396 -0.67428,0.95134 -0.69529,0.97194 -0.021,0.0206 -1.21652,0.59069 -2.6567,1.26685 -1.44019,0.67617 -2.64554,1.24324 -2.67857,1.26016 l -0.0601,0.0308 z m -8.90809,-100.50265 c -0.0759,-0.44635 -0.0762,-0.48042 -0.006,-0.56765 0.0371,-0.0462 0.64894,-0.73754 1.35967,-1.53643 l 1.29225,-1.45253 0.34436,0.4582 c 0.1894,0.25201 0.33236,0.469 0.31769,0.48221 -0.0147,0.0132 -0.73694,0.61064 -1.60504,1.32762 -0.8681,0.71698 -1.60232,1.324 -1.6316,1.34892 -0.0481,0.041 -0.055,0.0351 -0.0712,-0.0603 z m 16.91227,-16.67394 -0.25781,-0.51673 -0.0552,-1.33235 -0.0552,-1.33235 0.41098,-0.41098 0.41098,-0.41098 0.32399,0.0325 c 0.17819,0.0178 0.32961,0.0381 0.33649,0.045 0.007,0.007 0.0362,0.79006 0.0652,1.74041 l 0.0527,1.72792 -0.48719,0.48719 -0.48718,0.48719 z m -9.12747,10.14875 -0.88737,-0.10587 -1.19952,-2.14286 c -0.65974,-1.17857 -1.33368,-2.43604 -1.49765,-2.79437 l -0.29812,-0.65152 1.40827,-2.48833 1.40827,-2.48833 0.74354,0.31578 c 0.63441,0.26943 0.77455,0.42886 0.9549,1.08627 0.11626,0.42378 0.51252,1.88323 0.88059,3.24323 l 0.66922,2.47273 1.09461,1.10443 1.09462,1.10443 -0.29587,0.7532 -0.29586,0.75319 -1.44613,-0.0281 c -0.79537,-0.0154 -1.84544,-0.0757 -2.3335,-0.13393 z m 12.96043,60.05934 -0.23644,-0.65388 1.30936,-1.31817 1.30937,-1.31816 h 1.00881 c 0.55484,0 1.35287,-0.1214 1.77339,-0.26977 0.42053,-0.14837 0.78663,-0.24773 0.81355,-0.2208 0.0269,0.0269 -0.84773,1.01216 -1.94369,2.1894 l -1.99266,2.14045 -0.90262,0.0524 c -0.89312,0.0519 -0.90511,0.0455 -1.13907,-0.60147 z m 3.07671,44.49001 -6.10024,-1.29804 -1.33563,-1.20013 -1.33563,-1.20012 0.23163,-0.87806 c 0.12739,-0.48293 0.46674,-1.18039 0.75411,-1.5499 0.79936,-1.02784 0.79843,-1.021 0.30733,-2.24775 -0.52785,-1.31854 -0.63591,-1.37051 -2.84991,-1.37051 -0.71205,0 -1.54546,-0.0502 -1.85201,-0.11147 l -0.55737,-0.11148 0.1097,-1.54031 c 0.0632,-0.8871 0.22459,-1.72366 0.38062,-1.97266 0.14901,-0.2378 1.55794,-1.96399 3.13095,-3.83599 l 2.86001,-3.40363 3.38241,-1.84367 3.38241,-1.84367 1.70199,0.20322 1.70198,0.20321 0.67,-0.65423 0.66999,-0.65423 0.12788,-2.65185 0.12788,-2.65185 1.33195,-0.48579 c 1.78668,-0.65164 2.83181,-1.80115 3.67459,-4.04162 l 0.5856,-1.55674 1.60714,-0.36575 c 1.52871,-0.34791 1.75747,-0.35437 4.6878,-0.13247 l 3.08066,0.23328 0.66094,-0.67686 c 0.36351,-0.37228 0.71468,-0.67687 0.78036,-0.67687 0.0657,0 0.74368,0.40753 1.50667,0.90561 1.16075,0.75775 1.62369,0.94722 2.83541,1.16047 0.79649,0.14018 1.49727,0.25497 1.55729,0.25511 0.06,1.3e-4 0.15342,0.48873 0.20756,1.08578 0.0541,0.59704 0.12556,1.10891 0.15873,1.13748 0.0332,0.0286 1.39646,0.81563 3.02955,1.74903 l 2.96926,1.69708 1.07553,-0.95805 c 1.0361,-0.92293 1.08014,-0.99769 1.20101,-2.03913 l 0.12547,-1.08108 2.63968,-1.32204 2.63968,-1.32204 0.21492,1.4641 c 0.11821,0.80526 0.24701,1.58479 0.28624,1.73229 0.0398,0.14962 -0.46961,0.86017 -1.15216,1.60715 -1.04943,1.14848 -1.39208,1.40159 -2.40868,1.77921 -0.65187,0.24214 -1.18521,0.48751 -1.18521,0.54527 0,0.0578 0.27533,0.92258 0.61184,1.92183 l 0.61185,1.81681 -0.636,2.42593 -0.636,2.42592 0.57803,0.59637 c 0.43849,0.45241 0.63882,0.88642 0.82988,1.79787 0.29357,1.4005 0.36015,1.30609 -1.58572,2.24852 -0.66455,0.32185 -1.18025,0.66926 -1.14599,0.77202 0.0342,0.10276 1.11798,0.74955 2.40828,1.43731 l 2.346,1.25047 0.005,1.31184 0.005,1.31184 -1.00395,1.14352 -1.00395,1.14351 h -1.41222 c -1.39039,0 -1.4207,-0.01 -1.96098,-0.625 -0.30181,-0.34375 -0.65877,-0.625 -0.79324,-0.625 -0.13446,0 -1.55247,0.62822 -3.15114,1.39604 l -2.90666,1.39604 -0.67275,2.05897 -0.67276,2.05896 -3.95798,1.3981 -3.95798,1.39809 -2.51212,-0.30098 c -1.38167,-0.16554 -2.77623,-0.30033 -3.09901,-0.29953 -0.32279,8e-4 -2.18815,0.40324 -4.14526,0.89431 -1.95711,0.49107 -3.5814,0.88636 -3.60954,0.87842 -0.0281,-0.008 -2.79628,-0.59856 -6.15141,-1.31248 z m -44.84038,12.35191 -0.56424,-0.58215 0.2507,-4.01606 c 0.26653,-4.26985 1.34676,-12.98367 2.21245,-17.84706 l 0.52299,-2.93813 0.87538,-0.83506 0.87538,-0.83505 -0.13177,-1.3161 c -0.23023,-2.29959 -0.26169,-2.1889 0.72268,-2.54288 0.96703,-0.34774 0.98839,-0.3886 1.17978,-2.25764 l 0.11908,-1.16299 -1.27875,-0.71201 c -1.26491,-0.70429 -1.27767,-0.71877 -1.17894,-1.337 0.0549,-0.34375 0.10069,-0.96652 0.10177,-1.38393 0.002,-0.63923 0.0583,-0.75893 0.35911,-0.75893 0.29574,0 0.35714,0.11905 0.35714,0.69242 0,0.82237 0.2169,1.03809 1.2022,1.19565 0.72959,0.11667 0.73917,0.11112 0.83532,-0.48324 0.0535,-0.33069 0.18125,-1.52537 0.28391,-2.65483 0.10266,-1.12946 0.22756,-2.3089 0.27756,-2.62096 0.0748,-0.46703 0.67261,-1.08294 3.3797,-3.48214 l 3.28881,-2.91476 0.014,-1.875 0.0139,-1.875 2.04873,-1.75714 2.04873,-1.75714 v -3.01891 -3.0189 l 4.48746,-5.19628 4.48746,-5.19628 -0.12607,-2.54514 -0.12606,-2.54515 1.35651,-1.14085 1.3565,-1.14086 -0.11598,-1.27992 -0.11598,-1.27992 1.85343,-3.04617 1.85344,-3.04617 1.21668,-0.12013 1.21669,-0.12013 -0.10356,-2.43117 -0.10355,-2.43117 1.49769,-1.31308 1.49768,-1.31308 0.11936,-1.72263 c 0.2388,-3.44669 0.13629,-3.17484 2.18223,-5.78702 1.01845,-1.3003 1.85173,-2.4496 1.85175,-2.55399 2e-5,-0.10439 -0.24856,-0.42582 -0.55238,-0.71429 -0.30383,-0.28846 -0.86889,-0.90029 -1.25568,-1.35961 l -0.70327,-0.83514 1.21104,-2.43992 1.21103,-2.43992 0.75958,0.10208 c 0.7044,0.0947 0.80366,0.054 1.36641,-0.56008 l 0.60684,-0.66217 -1.02157,-1.16486 -1.02156,-1.16486 0.31128,-1.82656 0.31129,-1.82656 1.88075,-2.21061 c 1.81636,-2.1349 1.9094,-2.21452 2.71701,-2.32522 0.45994,-0.063 1.09604,-0.11462 1.41356,-0.11462 h 0.57731 l 0.30371,1.47322 0.30371,1.47321 -1.36874,3.12325 c -1.04019,2.37356 -1.72915,3.64784 -2.87023,5.30872 -0.82582,1.20202 -1.50149,2.2979 -1.50149,2.43531 0,0.54563 0.54998,1.54343 0.85061,1.54322 0.17056,-1.1e-4 0.89838,-0.1124 1.61739,-0.24952 0.96675,-0.18436 1.32411,-0.19594 1.37187,-0.0444 0.0355,0.11268 0.18318,1.23868 0.32814,2.50221 l 0.26356,2.29734 -0.69793,1.44322 c -0.38386,0.79377 -0.69792,1.54086 -0.69792,1.66019 0,0.11934 0.32437,0.77959 0.72082,1.46722 l 0.72082,1.25025 -0.56412,2.20294 c -0.46638,1.82123 -0.55868,2.50495 -0.53272,3.94595 l 0.0314,1.74302 -0.99167,1.16893 c -0.54542,0.64291 -0.99124,1.26481 -0.9907,1.38199 5.3e-4,0.11717 0.35714,2.21238 0.79245,4.656 l 0.79147,4.44296 -0.37903,1.68389 -0.37904,1.68389 0.54976,1.11485 0.54975,1.11484 -1.0378,4.26918 -1.0378,4.26917 0.34249,0.48099 c 0.18837,0.26454 0.34249,0.53313 0.34249,0.59687 0,0.0637 -0.45392,0.67769 -1.0087,1.36433 l -1.0087,1.24845 -0.47428,-0.4544 c -0.26086,-0.24992 -0.56267,-0.4544 -0.67068,-0.4544 -0.10802,0 -1.48306,1.38616 -3.05565,3.08036 -1.57259,1.69419 -3.40839,3.62069 -4.07956,4.28109 l -1.22029,1.20074 -2.05357,0.18166 c -1.12947,0.0999 -2.14634,0.18235 -2.25973,0.18319 -0.11338,8.4e-4 -1.65062,1.57395 -3.4161,3.49579 -3.45579,3.76187 -3.42508,3.71041 -3.42935,5.74681 -10e-4,0.51563 -0.0269,0.9375 -0.0574,0.9375 -0.0305,0 -0.56672,-0.20037 -1.19163,-0.44527 -0.62491,-0.2449 -1.15193,-0.42571 -1.17115,-0.40179 -0.0192,0.0239 -0.32129,1.69081 -0.67126,3.7042 -0.52884,3.04247 -1.01768,7.91466 -1.01768,10.14315 0,0.2596 -0.38204,0.60725 -1.32092,1.20201 l -1.32093,0.83678 -0.91428,1.98939 c -0.61905,1.34701 -0.91379,2.22004 -0.91277,2.70367 8.3e-4,0.39286 -0.049,1.13504 -0.1108,1.64928 -0.1109,0.92331 -0.12623,0.94313 -1.22611,1.58654 l -1.1138,0.65154 -0.0891,1.80632 c -0.0838,1.69773 -0.1699,2.02844 -1.43285,5.50091 l -1.34373,3.69459 -2.69121,3.09113 c -2.48665,2.85618 -2.75456,3.23364 -3.52476,4.96612 -0.45845,1.03125 -0.85834,1.90415 -0.88865,1.93977 -0.0478,0.0561 -2.13488,0.5368 -2.4054,0.55396 -0.0544,0.003 -0.35281,-0.25569 -0.66315,-0.57588 z m -22.99413,25.20027 c -1.27339,-0.79932 -2.34266,-1.47628 -2.37615,-1.50435 -0.0335,-0.0281 -0.88294,-2.48792 -1.88766,-5.46633 l -1.82677,-5.41529 0.12982,-1.69643 c 0.0714,-0.93304 0.1372,-2.21875 0.14624,-2.85715 l 0.0164,-1.16071 -1.91929,-1.71071 -1.91929,-1.7107 -4.91072,-0.32456 c -3.16019,-0.20887 -5.06985,-0.40924 -5.35714,-0.5621 -0.24554,-0.13064 -0.95486,-0.70156 -1.57628,-1.26871 l -1.12985,-1.03119 1.36331,-3.74958 1.3633,-3.74959 8.84412,-10.62027 c 4.86427,-5.84115 8.91591,-10.7544 9.00364,-10.91833 0.0877,-0.16394 1.20287,-2.80697 2.47808,-5.8734 l 2.31855,-5.57535 6.37144,-8.49452 c 3.50429,-4.67198 6.40547,-8.62464 6.44706,-8.78368 0.0416,-0.15904 -0.69398,-2.40669 -1.63459,-4.99479 -0.94061,-2.58809 -1.67591,-4.73991 -1.63401,-4.78182 0.0419,-0.0419 1.71098,-0.009 3.70905,0.0741 l 3.63284,0.15028 2.09667,1.21752 2.09667,1.21752 v 4.07672 4.07673 l -2.05357,3.48824 -2.05357,3.48824 v 1.69365 1.69364 l -3.58807,7.28991 c -3.47044,7.05091 -3.61674,7.39235 -4.46258,10.4149 -0.48098,1.71875 -0.87528,3.33917 -0.87622,3.60092 -9.4e-4,0.26176 0.36901,2.19033 0.82212,4.28572 0.68372,3.1619 0.7976,3.94645 0.66964,4.61336 l -0.15418,0.80357 -1.5625,0.0516 -1.5625,0.0516 v 1.6042 1.6042 l 1.54042,0.99374 1.54041,0.99373 -0.82436,0.83695 -0.82436,0.83695 2.31776,2.31261 c 1.27476,1.27194 2.86039,2.67624 3.52361,3.12066 1.19444,0.8004 1.22764,0.84507 3.50539,4.71691 l 2.29953,3.90886 -0.66043,4.21614 -0.66042,4.21614 -0.92342,1.34784 c -0.50788,0.74132 -1.76538,2.55917 -2.79444,4.03967 l -1.87103,2.69182 -2.5073,1.34498 -2.50731,1.34499 -1.89453,-0.4423 -1.89454,-0.44229 -1.91015,1.08443 c -1.05059,0.59644 -1.96718,1.08443 -2.03688,1.08443 -0.0697,0 -1.16859,-0.65399 -2.44198,-1.45331 z"
       inkscape:label="RegionVII" />
  </g>
</svg>
